<?xml version="1.0" encoding="utf-8"?>
<!-- Generator: Adobe Illustrator 16.0.4, SVG Export Plug-In . SVG Version: 6.00 Build 0)  -->
<!DOCTYPE svg PUBLIC "-//W3C//DTD SVG 1.1//EN" "http://www.w3.org/Graphics/SVG/1.1/DTD/svg11.dtd">
<svg version="1.1" id="Ebene_1" xmlns="http://www.w3.org/2000/svg" xmlns:xlink="http://www.w3.org/1999/xlink" x="0px" y="0px"
	 width="62px" height="26px" viewBox="0 0 62 26" style="enable-background:new 0 0 62 26;" xml:space="preserve">
<path d="M7.2,15c-2.3,0-4.2,1.8-4.2,4c0,2.2,1.9,4,4.2,4s4.2-1.8,4.2-4C11.4,16.8,9.6,15,7.2,15z M7.2,21.5c-1.4,0-2.6-1.1-2.6-2.5
	c0-1.4,1.2-2.5,2.6-2.5s2.6,1.1,2.6,2.5C9.8,20.4,8.7,21.5,7.2,21.5z M33.8,15c-2.3,0-4.2,1.8-4.2,4c0,2.2,1.9,4,4.2,4
	s4.2-1.8,4.2-4C38,16.8,36.1,15,33.8,15z M33.8,21.5c-1.4,0-2.6-1.1-2.6-2.5c0-1.4,1.2-2.5,2.6-2.5s2.6,1.1,2.6,2.5
	C36.4,20.4,35.2,21.5,33.8,21.5z"/>
<path style="fill-rule:evenodd;clip-rule:evenodd;" d="M18.1,10L17,5h0.8c1.1,0,4.4,0.6,6.2,1.3c2.4,0.9,7.1,2.7,8.4,3.7H18.1z
	 M8.8,10C8.1,10,7.2,9.4,7,8.4C7.8,6.5,9.6,5,12.5,5h2.2l1.1,5H8.8z M37.7,10.7c-1.5-0.4-4.1-1.6-4.1-1.6s-6.1-2.9-9.1-4
	c-2-0.7-5.4-1.2-6.8-1.2h-6C9.4,4,7.1,5.3,5.4,6.7C2.3,9.3,0,14.1,0,17c0,0.8,0.3,2.3,0.5,3H2v-1.1c0-3.1,2.4-5.6,5.5-5.6
	s5.5,2.5,5.5,5.6V20h15v-1.1c0-3.1,2.4-5.6,5.5-5.6s5.5,2.5,5.5,5.6V20h1.6c0.3-1.1,0.4-2.4,0.4-3.4C41,15.1,40,11.4,37.7,10.7z"/>
</svg>
