<?xml version="1.0" encoding="utf-8"?>
<!-- Generator: Adobe Illustrator 16.0.4, SVG Export Plug-In . SVG Version: 6.00 Build 0)  -->
<!DOCTYPE svg PUBLIC "-//W3C//DTD SVG 1.1//EN" "http://www.w3.org/Graphics/SVG/1.1/DTD/svg11.dtd">
<svg version="1.1" id="Ebene_1" xmlns="http://www.w3.org/2000/svg" xmlns:xlink="http://www.w3.org/1999/xlink" x="0px" y="0px"
	 width="62px" height="26px" viewBox="0 0 62 26" style="enable-background:new 0 0 62 26;" xml:space="preserve">
<path d="M16.4,21.5c0,1.5-1.3,2.8-2.8,2.8s-2.8-1.2-2.8-2.8s1.3-2.8,2.8-2.8S16.4,20,16.4,21.5z M54.2,21.5c0,1.5-1.3,2.8-2.8,2.8
	s-2.8-1.2-2.8-2.8s1.3-2.8,2.8-2.8S54.2,20,54.2,21.5z M60.6,11.5L53,2.2c-1-1.4-2.7-2.2-4.6-2.2h0H16.1H2.4C1,0.7,0,2.5,0,4.6v13.2
	V18c0,0,0-0.1,0,0c0,2.1,1.1,4.1,2.5,5l0,0h5.1v-1.5c0-3.3,2.7-5.9,6-5.9c3.3,0,6,2.7,6,5.9V23h25.7v-1.5c0-3.3,2.7-5.9,6-5.9
	c3.3,0,6,2.7,6,5.9V23h3.2c0.8-0.9,1.3-2.2,1.3-3.7v-3.2C62,14.7,61.6,12.8,60.6,11.5z M47.6,10C45.7,10,45,9.1,45,7V2h4
	c1.1,0,2.5,0.8,3.2,1.7L57,10H47.6z M13.6,17.1c-2.5,0-4.5,2-4.5,4.5c0,2.5,2,4.5,4.5,4.5c2.5,0,4.5-2,4.5-4.5
	C18.1,19.1,16.1,17.1,13.6,17.1z M51.4,17.1c-2.5,0-4.5,2-4.5,4.5c0,2.5,2,4.5,4.5,4.5c2.5,0,4.5-2,4.5-4.5
	C56,19.1,53.9,17.1,51.4,17.1z"/>
</svg>
