<svg xmlns="http://www.w3.org/2000/svg" width="70" height="40" viewBox="0 0 70 40"><path d="M16 4.7c1.1 2.6.7 5.4-.7 7.3-2.4-.3-4.6-2-5.7-4.7-1.2-2.6-.8-5.4.7-7.3 2.4.3 4.6 2 5.7 4.7zm-16 20.3c1.9 1.5 4.7 1.7 7.3.6 2.6-1.1 4.4-3.3 4.7-5.7-1.9-1.5-4.7-1.8-7.3-.7-2.7 1-4.4 3.4-4.7 5.8zm23.1-9.7c1.9 1.5 4.7 1.8 7.3.7 2.6-1.1 4.2-3.6 4.6-6-1.9-1.5-4.6-1.6-7.2-.5-2.7 1.1-4.4 3.4-4.7 5.8zm-3.3-3.3c2.4-.3 4.6-2 5.7-4.7 1.1-2.6.7-5.4-.7-7.3-2.4.3-4.6 2-5.7 4.7-1.1 2.6-.7 5.4.7 7.3zm8.2 25c-3-2-8-2.4-8-8v-6c0-2.1 1.5-3.8 2.6-5 .5-.5.4-1.3-.1-1.8s-1.3-.4-1.8.1c-.7.8-1.5 1.7-2.1 2.9-.2-1.9-.6-3.9-1.4-6-.2-.6-1-1-1.6-.7-.6.2-1 1-.7 1.6.8 2 1.1 4 1.3 5.8-.6-.5-1.3-.9-2.2-1.3-.6-.3-1.4 0-1.6.6s0 1.4.6 1.6c.8.4 2 .8 2 1.3v6.9c0 5.6-5 6-8 8 3.1 1 8 0 9-2l1 5h1l1-5c1 2 6.1 3 9 2zM0 10c.3 2.4 2 4.9 4.7 6 2.6 1.1 5.4.7 7.3-.7-.3-2.4-2-4.6-4.7-5.7-2.6-1.2-5.4-1.1-7.3.4zM36.2 32c-2.3 0-4.2 1.8-4.2 4s1.9 4 4.2 4 4.2-1.8 4.2-4-1.8-4-4.2-4zm0 6.5c-1.4 0-2.6-1.1-2.6-2.5s1.2-2.5 2.6-2.5 2.6 1.1 2.6 2.5-1.1 2.5-2.6 2.5zm26.6-6.5c-2.3 0-4.2 1.8-4.2 4s1.9 4 4.2 4c2.3 0 4.2-1.8 4.2-4s-1.9-4-4.2-4zm0 6.5c-1.4 0-2.6-1.1-2.6-2.5s1.2-2.5 2.6-2.5c1.4 0 2.6 1.1 2.6 2.5s-1.2 2.5-2.6 2.5z"/><path d="M47.1 27l-1.1-5h.8c1.1 0 4.4.6 6.2 1.3 2.4.9 7.1 2.7 8.4 3.7h-14.3zm-9.3 0c-.6 0-1.5-.6-1.8-1.5.9-1.9 2.6-3.5 5.5-3.5h2.2l1.1 5h-7zm28.9.8c-1.5-.4-4.1-1.6-4.1-1.6s-6.1-2.9-9.1-4c-2-.7-5.4-1.2-6.8-1.2h-6c-2.4 0-4.7 1.3-6.4 2.8-3 2.6-5.4 7.4-5.4 10.2 0 .8.3 2.3.5 3h1.6v-1.1c0-3.1 2.4-5.6 5.5-5.6s5.5 2.5 5.5 5.6v1.1h15v-1.1c0-3.1 2.4-5.6 5.5-5.6s5.5 2.5 5.5 5.6v1.1h1.6c.3-1.1.4-2.4.4-3.4 0-1.5-1-5.2-3.3-5.8z" fill-rule="evenodd" clip-rule="evenodd"/></svg>