<?xml version="1.0" encoding="utf-8"?>
<!-- Generator: Adobe Illustrator 16.0.4, SVG Export Plug-In . SVG Version: 6.00 Build 0)  -->
<!DOCTYPE svg PUBLIC "-//W3C//DTD SVG 1.1//EN" "http://www.w3.org/Graphics/SVG/1.1/DTD/svg11.dtd">
<svg version="1.1" id="Ebene_1" xmlns="http://www.w3.org/2000/svg" xmlns:xlink="http://www.w3.org/1999/xlink" x="0px" y="0px"
	 width="76px" height="54px" viewBox="0 0 76 54" style="enable-background:new 0 0 76 54;" xml:space="preserve">
<style type="text/css">
<![CDATA[
	.st0{fill:#8C91A0;}
]]>
</style>
<path class="st0" d="M18,36c1.2,0.1,2.4,0.3,3.5,0.8L20,39.4c-0.8-0.3-1.6-0.4-2.5-0.4c-4.1,0-7.5,3.4-7.5,7.5s3.4,7.5,7.5,7.5
	s7.5-3.4,7.5-7.5c0-2.2-0.9-4.2-2.4-5.5l1.5-2.6c2.4,1.9,3.9,4.9,3.9,8.2c0,0,0,0,0,0c0,0.1,0,0.1,0,0.2c0,0,0,0,0,0
	c0,0.7-0.1,1.3-0.2,1.9l23.4-0.9c0.6,3.5,3.7,6.2,7.4,6.2c4.1,0,7.5-3.4,7.5-7.5S62.6,39,58.5,39c-3.6,0-6.7,2.6-7.4,6l-3,0
	c0.4-3.3,2.4-6.1,5.1-7.7l0,0c0,0,4.3-2.7,5.8-3.6c1.5-0.9,2-1.5,2-2.8c0-1.7-1.3-3-3-3c-0.3,0-14.4,2-14.6,2.1
	C41.5,30.4,40,32,40,34c0,1.7,1,3.1,2.4,3.7C40.2,40.2,35.7,41,32,41c-7-5-6-12,0-19h2.5c0.8,0,1.5-0.7,1.5-1.5S35.3,19,34.5,19H30
	c-2.3,0.9-9.1,7.3-12,12.6C17.6,32.4,16.8,34.4,18,36z M22.2,46.5c0,2.6-2.1,4.8-4.8,4.8s-4.8-2.1-4.8-4.8s2.1-4.8,4.8-4.8
	c0.4,0,0.7,0.1,1.1,0.1L16.2,46c-0.4,0.7-0.2,1.6,0.6,2c0.2,0.1,0.5,0.2,0.7,0.2c0.5,0,1-0.3,1.3-0.8l2.3-4
	C21.8,44.3,22.2,45.3,22.2,46.5z M58.5,51.2c-2.2,0-4-1.5-4.6-3.5l4.6,0c0.8,0,1.5-0.5,1.5-1.3s-0.7-1.5-1.5-1.5L54,45
	c0.6-1.9,2.4-3.3,4.5-3.3c2.6,0,4.8,2.1,4.8,4.8S61.1,51.2,58.5,51.2z"/>
</svg>
