<?xml version="1.0" encoding="utf-8"?>
<!-- Generator: Adobe Illustrator 16.0.4, SVG Export Plug-In . SVG Version: 6.00 Build 0)  -->
<!DOCTYPE svg PUBLIC "-//W3C//DTD SVG 1.1//EN" "http://www.w3.org/Graphics/SVG/1.1/DTD/svg11.dtd">
<svg version="1.1" id="Ebene_1" xmlns="http://www.w3.org/2000/svg" xmlns:xlink="http://www.w3.org/1999/xlink" x="0px" y="0px"
	 width="76px" height="54px" viewBox="0 0 76 54" style="enable-background:new 0 0 76 54;" xml:space="preserve">
<style type="text/css">
<![CDATA[
	.st0{fill:#8C91A0;}
]]>
</style>
<g>
	<path class="st0" d="M69.9,43h-3.1c0.1,0.5,0.2,1,0.2,1.5c0,3.6-2.9,6.5-6.5,6.5c-2.3,0-4.3-1.2-5.5-3h6c0.8,0,1.5-0.7,1.5-1.5
		S61.8,45,61,45h-7c0-0.2,0-0.3,0-0.5c0-1.5,0.5-2.8,1.3-3.9c-0.2-0.5-0.3-1-0.3-1.6v-2.2c-2.4,1.7-4,4.5-4,7.7c0,0.2,0,0.3,0,0.5
		h-2.5c0-0.2,0-0.3,0-0.5c0-4.6,2.6-8.7,6.5-10.7V33c0-2.2,1.8-4,4-4h9v-2c0-1.1-0.9-2-2-2c0,0-0.6,0-1.8,0C61.5,25,47,30,43,30
		s-5-6-12-6c-2.1,0-4.6,0.7-6.3,1.3L23,24c3.9-4.9,4-9,3-11c-9.9,3.9-14.2,14.5-14.2,16.6c0,1,0.3,2.1,0.9,2.9c0.3,0,0.5,0,0.8,0
		c1.6,0,3.2,0.3,4.6,0.9l-1.3,2.2c-1.1-0.4-2.2-0.6-3.4-0.6C8.3,35,4,39.3,4,44.5S8.3,54,13.5,54c5.2,0,9.5-4.3,9.5-9.5
		c0-3-1.4-5.6-3.5-7.4l1.3-2.2c2.9,2.2,4.8,5.7,4.8,9.6c0,1.2-0.2,2.4-0.5,3.5c2.9,0,6.1,0,9,0c4.9,0,9,0,10.2,0h7.5
		c1.4,3.5,4.8,6,8.8,6c5.2,0,9.5-4.3,9.5-9.5C70,44,69.9,43.5,69.9,43z M20,44.5c0,3.6-2.9,6.5-6.5,6.5S7,48.1,7,44.5
		S9.9,38,13.5,38c0.6,0,1.3,0.1,1.9,0.3l-3.2,5.5c-0.4,0.7-0.2,1.6,0.6,2c0.2,0.1,0.5,0.2,0.7,0.2c0.5,0,1-0.3,1.3-0.8l3.2-5.5
		C19.2,41,20,42.6,20,44.5z"/>
	<path class="st0" d="M59,31c-1.1,0-2,0.9-2,2v6c0,1.1,0.9,2,2,2h11c1.1,0,2-0.9,2-2v-6c0-1.1-0.9-2-2-2H59z"/>
</g>
</svg>
