<?xml version="1.0" encoding="utf-8"?>
<!-- Generator: Adobe Illustrator 16.0.4, SVG Export Plug-In . SVG Version: 6.00 Build 0)  -->
<!DOCTYPE svg PUBLIC "-//W3C//DTD SVG 1.1//EN" "http://www.w3.org/Graphics/SVG/1.1/DTD/svg11.dtd">
<svg version="1.1" id="Ebene_1" xmlns="http://www.w3.org/2000/svg" xmlns:xlink="http://www.w3.org/1999/xlink" x="0px" y="0px"
	 width="76px" height="54px" viewBox="0 0 76 54" style="enable-background:new 0 0 76 54;" xml:space="preserve">
<style type="text/css">
<![CDATA[
	.st0{fill:#8C91A0;}
]]>
</style>
<g>
	<path class="st0" d="M36,22.4c0.8-0.7,1.7-1.4,2.5-1.4c1.6,0,3.2,1.2,3.8,1.7c0.6,0.6,1.6,0.5,2.1-0.1c0.6-0.6,0.5-1.6-0.1-2.1
		C44,20.2,41.5,18,38.5,18c-1.8,0-3.3,1.1-4.5,2.2L15.4,37.1c-1.6-1.3-3.7-2.1-5.9-2.1C4.3,35,0,39.3,0,44.5S4.3,54,9.5,54
		c5.2,0,9.5-4.3,9.5-9.5c0-1.9-0.6-3.7-1.6-5.2L36,22.4z M16,44.5c0,3.6-2.9,6.5-6.5,6.5C5.9,51,3,48.1,3,44.5S5.9,38,9.5,38
		c1.4,0,2.6,0.4,3.7,1.1l-4.7,4.3c-0.6,0.6-0.7,1.5-0.1,2.1C8.7,45.8,9.1,46,9.5,46c0.4,0,0.7-0.1,1-0.4l4.7-4.3
		C15.7,42.3,16,43.4,16,44.5z"/>
	<path class="st0" d="M66.5,35c-5.2,0-9.5,4.3-9.5,9.5c0,0.5,0.1,1,0.1,1.5h-2.5c-0.1-0.5-0.1-1-0.1-1.5c0-6.6,5.4-12,12-12
		c2,0,3.9,0.5,5.5,1.4l1-1.9c-2.1-1.1-4.5-2-7-2c-4.4,0-6.6,1.4-8.6,2.9C54.2,35,50,38,46,35c-2.8-7-9.9-7.7-13-7l-4,4l5.2,9.7
		c1.7,2.8,4.6,7.3,8.3,7.3H53h2.4h2.8c1.6,3,4.7,5,8.4,5c5.2,0,9.5-4.3,9.5-9.5S71.7,35,66.5,35z M60.2,46c-0.1-0.5-0.2-1-0.2-1.5
		c0-3.6,2.9-6.5,6.5-6.5c3.6,0,6.5,2.9,6.5,6.5S70.1,51,66.5,51c-1.8,0-3.5-0.8-4.7-2h5.7c0.8,0,1.5-0.7,1.5-1.5S68.3,46,67.5,46
		H60.2z"/>
</g>
</svg>
