<?xml version="1.0" encoding="utf-8"?>
<!-- Generator: Adobe Illustrator 16.0.4, SVG Export Plug-In . SVG Version: 6.00 Build 0)  -->
<!DOCTYPE svg PUBLIC "-//W3C//DTD SVG 1.1//EN" "http://www.w3.org/Graphics/SVG/1.1/DTD/svg11.dtd">
<svg version="1.1" id="Ebene_1" xmlns="http://www.w3.org/2000/svg" xmlns:xlink="http://www.w3.org/1999/xlink" x="0px" y="0px"
	 width="76px" height="54px" viewBox="0 0 76 54" style="enable-background:new 0 0 76 54;" xml:space="preserve">
<style type="text/css">
<![CDATA[
	.st0{fill:#8C91A0;}
]]>
</style>
<path class="st0" d="M17.8,54c-0.3,0-0.5,0-0.8,0c-4.7,0-8.5-3.9-8.5-8.6s3.8-8.6,8.5-8.6c0.3,0,0.5,0,0.8,0
	c-2.6,1.9-4.3,5.1-4.3,8.6S15.2,52,17.8,54z M32.8,21.2c0.4-0.8,0.1-1.7-0.7-2c-0.7-0.4-1.6-0.1-2,0.7L27.6,25
	c-5.1,1.1-8.4,2.9-10.1,4.6c-2.2,2.2,1,3.1,4,3c7,0,13,4.1,13,12.2v1h9c0.3,4.5,3.9,8.1,8.5,8.1c0.3,0,0.5,0,0.8,0
	c-2.6-1.9-4.3-5.1-4.3-8.6c0-5.7,2.9-12.2,16-15.7c0-1.1-0.9-2-2-2c-7.8,0.4-15.3,5.1-21,5.1c-5,0-6.3-3.5-11-5.1c0,0,0-0.4,0-0.8
	c0-0.5,0.2-1.2,0.4-1.7L32.8,21.2z M59,36.8c-4.7,0-8.5,3.9-8.5,8.6S54.3,54,59,54s8.5-3.9,8.5-8.6S63.7,36.8,59,36.8z M63.5,45.4
	c0,2.5-2,4.6-4.5,4.6s-4.5-2-4.5-4.6s2-4.6,4.5-4.6S63.5,42.9,63.5,45.4z M24,36.8c-4.7,0-8.5,3.9-8.5,8.6S19.3,54,24,54
	s8.5-3.9,8.5-8.6S28.7,36.8,24,36.8z M28.5,45.4c0,2.5-2,4.6-4.5,4.6s-4.5-2-4.5-4.6s2-4.6,4.5-4.6S28.5,42.9,28.5,45.4z"/>
</svg>
