<?xml version="1.0" encoding="utf-8"?>
<!-- Generator: Adobe Illustrator 16.0.4, SVG Export Plug-In . SVG Version: 6.00 Build 0)  -->
<!DOCTYPE svg PUBLIC "-//W3C//DTD SVG 1.1//EN" "http://www.w3.org/Graphics/SVG/1.1/DTD/svg11.dtd">
<svg version="1.1" id="Ebene_1" xmlns="http://www.w3.org/2000/svg" xmlns:xlink="http://www.w3.org/1999/xlink" x="0px" y="0px"
	 width="76px" height="54px" viewBox="0 0 76 54" style="enable-background:new 0 0 76 54;" xml:space="preserve">
<style type="text/css">
<![CDATA[
	.st0{fill:#8C91A0;}
]]>
</style>
<path class="st0" d="M58.5,35c-3.3,0-6.2,1.7-7.9,4.3l-5.1-2.3c0.9-2.9,3.2-5.1,5.9-6.2l7.4-2.9c3.2-1.4,4.8-0.6,6.8,1.2l2.3-1.2
	c-1.8-3.4-5.1-5-8.3-4.3L43,27c-3.2,0-8.1-2.2-11.2-6H35c0.8,0,1.5-0.7,1.5-1.5S35.8,18,35,18h-4c-0.8,0-1.6,0.3-2.3,0.7
	c-2.6,1.7-4.8,4.2-5.4,6.9c-4.9-0.9-10.2,0.3-13.2,2.6c-0.7,0.5-0.8,1.4-0.3,2.1c0.5,0.7,1.4,0.8,2.1,0.3c2.8-2.1,8.2-3.1,12.7-1.5
	l-3.7,6.5c-1.1-0.4-2.2-0.6-3.4-0.6C12.3,35,8,39.3,8,44.5s4.3,9.5,9.5,9.5c5.2,0,9.5-4.3,9.5-9.5c0-3-1.4-5.6-3.5-7.4l3.8-6.6
	c0,0,0,0,0,0c2.5,1.8,3.8,4.5,4,8.1c0,0.7,0.6,1.3,1.2,1.4l0,0l6.5,3c3.8,1.3,6-0.1,6-3l4.3,2c-0.2,0.8-0.3,1.6-0.3,2.5
	c0,5.2,4.3,9.5,9.5,9.5c5.2,0,9.5-4.3,9.5-9.5S63.7,35,58.5,35z M24,44.5c0,3.6-2.9,6.5-6.5,6.5S11,48.1,11,44.5s2.9-6.5,6.5-6.5
	c0.6,0,1.3,0.1,1.9,0.3l-3.2,5.5c-0.4,0.7-0.2,1.6,0.6,2c0.2,0.1,0.5,0.2,0.7,0.2c0.5,0,1-0.3,1.3-0.8l3.2-5.5
	C23.2,41,24,42.6,24,44.5z M58.5,51c-3.6,0-6.5-2.9-6.5-6.5c0-0.4,0-0.8,0.1-1.3l5.8,2.6c0.2,0.1,0.4,0.1,0.6,0.1
	c0.6,0,1.1-0.3,1.4-0.9c0.3-0.8,0-1.6-0.7-2l-5.8-2.6c1.2-1.5,3-2.5,5.1-2.5c3.6,0,6.5,2.9,6.5,6.5S62.1,51,58.5,51z"/>
</svg>
