<?xml version="1.0" encoding="utf-8"?>
<!-- Generator: Adobe Illustrator 16.0.4, SVG Export Plug-In . SVG Version: 6.00 Build 0)  -->
<!DOCTYPE svg PUBLIC "-//W3C//DTD SVG 1.1//EN" "http://www.w3.org/Graphics/SVG/1.1/DTD/svg11.dtd">
<svg version="1.1" id="Ebene_1" xmlns="http://www.w3.org/2000/svg" xmlns:xlink="http://www.w3.org/1999/xlink" x="0px" y="0px"
	 width="76px" height="54px" viewBox="0 0 76 54" style="enable-background:new 0 0 76 54;" xml:space="preserve">
<style type="text/css">
<![CDATA[
	.st0{fill:#8C91A0;}
]]>
</style>
<path class="st0" d="M71,44.5c0,5.2-4.3,9.5-9.5,9.5c-4.9,0-8.9-3.7-9.4-8.5l2.9-1.5c0,0.1,0,0.3,0,0.4c0,3.6,2.9,6.5,6.5,6.5
	s6.5-2.9,6.5-6.5c0-2.3-1.1-4.2-2.9-5.4l2.9-1.5C69.9,39.4,71,41.8,71,44.5z M31,34c0-0.3,0-0.6,0.1-0.9L26.2,32
	c1.8,3.6,5.2,11.7,8.8,12v-6C32.8,38,31,36.2,31,34z M63.3,45.8c-0.3,0.5-0.8,0.7-1.3,0.7c-0.3,0-0.5-0.1-0.8-0.2l-7.2-4.4l-2.7,1.4
	C49.9,43.9,44,47,37.9,47h-1.2c-3.3,0-7.3-2.7-8.7-5.6l-5.4-10.2L20,36.7c2.4,1.7,4,4.5,4,7.8c0,5.2-4.3,9.5-9.5,9.5
	C9.3,54,5,49.7,5,44.5S9.3,35,14.5,35c0.9,0,1.7,0.1,2.5,0.3l3.5-7.4c-1.4-0.2-2.5-1.5-2.5-3c0-1.7,1.3-3,3-3h2.3l1.4-3
	c0.4-0.8,1.4-1.2,2.2-0.8c0.8,0.4,1.2,1.4,0.8,2.2l-2.5,5.4C30.2,23,31.3,23,36,23c0,0,6,0.2,9,7c7.5-2,18.2-6,20-6
	c2,0,2.7,2.4,1.2,3.4c-1.6,1-10.6,6-10.6,6c-1.9,1-3.1,2.3-3.8,3.6l2.2,1.3l14.1-7.2l1.5,2.9l-12.3,6.3l5.6,3.4
	C63.5,44.2,63.7,45.1,63.3,45.8z M18.7,39.5L16,45.2c-0.3,0.6-0.9,0.9-1.5,0.9c-0.2,0-0.5-0.1-0.7-0.2c-0.8-0.4-1.2-1.4-0.8-2.2
	l2.7-5.7C15.3,38,14.9,38,14.5,38C10.9,38,8,40.9,8,44.5s2.9,6.5,6.5,6.5s6.5-2.9,6.5-6.5C21,42.5,20.1,40.7,18.7,39.5z M39,34v1
	l4,4l1-4L39,34z"/>
</svg>
