<?xml version="1.0" encoding="utf-8"?>
<!-- Generator: Adobe Illustrator 16.0.4, SVG Export Plug-In . SVG Version: 6.00 Build 0)  -->
<!DOCTYPE svg PUBLIC "-//W3C//DTD SVG 1.1//EN" "http://www.w3.org/Graphics/SVG/1.1/DTD/svg11.dtd">
<svg version="1.1" id="Ebene_1" xmlns="http://www.w3.org/2000/svg" xmlns:xlink="http://www.w3.org/1999/xlink" x="0px" y="0px"
	 width="76px" height="54px" viewBox="0 0 76 54" style="enable-background:new 0 0 76 54;" xml:space="preserve">
<style type="text/css">
<![CDATA[
	.st0{fill:#8C91A0;}
]]>
</style>
<path class="st0" d="M45.5,31l-4.9,2.5c-0.7-0.2-1.1-0.4-1.1-0.5c0-3-6.1-5-9-5c-4,0-5,1-6,2h-2.3c0.5-1.2,0.9-2,1.1-2.3
	c0.6-1.1,2.6-1.7,6.2-1.7c0.8,0,1.5-0.7,1.5-1.5S30.3,23,29.5,23c-3.6,0-7.4,0.4-8.9,3.3c0,0.1-0.1,0.2-0.2,0.4c0,0-4.3-1.5-4.5-1.6
	C15.8,25,15.7,25,15.5,25c-1.1,0-2,1.3-2,3s0.9,3,2,3c0.2,0,0.3,0,0.5-0.1c0.1,0,3-1.1,3-1.1c-0.7,1.6-1.6,3.6-2.4,5.5
	C15.8,35.1,14.9,35,14,35c-5.2,0-9.5,4.3-9.5,9.5S8.8,54,14,54c5.2,0,9.5-4.3,9.5-9.5c0-3.3-1.7-6.2-4.2-7.9
	c0.6-1.3,1.1-2.6,1.7-3.8c1.1,1.9,3.9,6.8,5.5,9.2c2,3,6,6,10,6h11h3.7c1.4,3.5,4.8,6,8.8,6c5.1,0,9.2-4,9.5-9h2
	c0-7-5.2-11.8-11.5-11.8c-3.5,0-6.6,1.4-8.7,3.8c-0.6-0.2-2.6-0.9-4.8-1.6V34H50c0.8,0,1.5-0.7,1.5-1.5S50.8,31,50,31H45.5z
	 M20.5,44.5c0,3.6-2.9,6.5-6.5,6.5s-6.5-2.9-6.5-6.5S10.4,38,14,38c0.5,0,0.9,0.1,1.4,0.1c-1.2,2.8-2.2,5-2.3,5.3
	c-0.3,0.8,0,1.6,0.8,2c0.2,0.1,0.4,0.1,0.6,0.1c0.6,0,1.1-0.3,1.4-0.9c0.6-1.4,1.4-3.2,2.2-5.1C19.6,40.6,20.5,42.5,20.5,44.5z
	 M34.5,38h-3l-2,2h-1l-3-5l9,2V38z M62,48c0.8,0,1.5-0.7,1.5-1.5S62.8,45,62,45h-8.5c0-0.2,0-0.3,0-0.5c0-3.6,2.9-6.5,6.5-6.5
	s6.5,2.9,6.5,6.5S63.6,51,60,51c-2.3,0-4.3-1.2-5.5-3H62z"/>
</svg>
