<?xml version="1.0" encoding="utf-8"?>
<!-- Generator: Adobe Illustrator 16.0.4, SVG Export Plug-In . SVG Version: 6.00 Build 0)  -->
<!DOCTYPE svg PUBLIC "-//W3C//DTD SVG 1.1//EN" "http://www.w3.org/Graphics/SVG/1.1/DTD/svg11.dtd">
<svg version="1.1" id="Ebene_1" xmlns="http://www.w3.org/2000/svg" xmlns:xlink="http://www.w3.org/1999/xlink" x="0px" y="0px"
	 width="76px" height="54px" viewBox="0 0 76 54" style="enable-background:new 0 0 76 54;" xml:space="preserve">
<style type="text/css">
<![CDATA[
	.st0{fill:#8C91A0;}
]]>
</style>
<g>
	<path class="st0" d="M46.1,37.7c0,0,18-8.8,18.3-8.9c0.7-0.3,1.1-1,1.1-1.8c0-1.1-0.8-2-2-2c-0.9,0-14,5-14,5h-7
		c-1.5-3.5-5.7-5-9-5h-7v3l15,7C42.9,35.7,44.6,36.6,46.1,37.7z"/>
	<path class="st0" d="M61,35c-4.7,0-8.7,3.5-9.4,8h-4.4c-1.1-3.6-5-5.4-7.7-6.7l-15-7V18c-11.9,4.2-14.4,8.5-13.7,12.1
		c0,0,6.7,2.1,7.4,2.3c0.5,0.1,1,0.3,1.5,0.5l-1.5,2.6c-1-0.4-2.1-0.6-3.2-0.6c-5.2,0-9.5,4.3-9.5,9.5S9.8,54,15,54
		c5.2,0,9.5-4.3,9.5-9.5c0-3-1.4-5.7-3.7-7.5l1.5-2.6c3.1,2.3,5.2,5.9,5.2,10.1c0,2-0.5,3.8-1.3,5.5h16.3c2.6,0,4.5-1.4,4.9-4h4.2
		c0.7,4.5,4.6,8,9.4,8c5.2,0,9.5-4.3,9.5-9.5S66.2,35,61,35z M21.5,44.5c0,3.6-2.9,6.5-6.5,6.5c-3.6,0-6.5-2.9-6.5-6.5
		S11.4,38,15,38c0.6,0,1.1,0.1,1.7,0.2l-3.5,6c-0.4,0.7-0.2,1.6,0.6,2c0.2,0.1,0.5,0.2,0.7,0.2c0.5,0,1-0.3,1.3-0.8l3.5-6.1
		C20.7,40.8,21.5,42.6,21.5,44.5z M61,51c-3.1,0-5.6-2.1-6.3-5h6.8c0.8,0,1.5-0.7,1.5-1.5S62.3,43,61.5,43h-6.8c0.7-2.9,3.2-5,6.3-5
		c3.6,0,6.5,2.9,6.5,6.5S64.6,51,61,51z"/>
</g>
</svg>
