<?xml version="1.0" encoding="utf-8"?>
<!-- Generator: Adobe Illustrator 16.0.4, SVG Export Plug-In . SVG Version: 6.00 Build 0)  -->
<!DOCTYPE svg PUBLIC "-//W3C//DTD SVG 1.1//EN" "http://www.w3.org/Graphics/SVG/1.1/DTD/svg11.dtd">
<svg version="1.1" id="Ebene_1" xmlns="http://www.w3.org/2000/svg" xmlns:xlink="http://www.w3.org/1999/xlink" x="0px" y="0px"
	 width="76px" height="54px" viewBox="0 0 76 54" style="enable-background:new 0 0 76 54;" xml:space="preserve">
<style type="text/css">
<![CDATA[
	.st0{fill:#8C91A0;}
]]>
</style>
<g>
	<path class="st0" d="M66,27.7c-0.2,0-0.3,0-0.5,0.1l-10.6,2.8c-1.1,0.3-1.7,1.4-1.4,2.4l1.6,5.8c0.3,1,1.4,1.7,2.5,1.4l10.6-2.8
		c1.1-0.3,1.7-1.4,1.4-2.5L68,29.2C67.7,28.3,66.9,27.7,66,27.7z"/>
	<path class="st0" d="M26.8,21c1.6-4,1-8.4,0.2-10c-9.9,3.9-10.2,8.5-10.2,10.6c0,1.6,1.3,3.7,3.1,5c-4.8-0.8-9.8,0.5-12.8,2.7
		c-0.7,0.5-0.8,1.4-0.3,2.1c0.5,0.7,1.4,0.8,2.1,0.3c2.8-2.1,8.5-3.2,13.1-1.4l-3.1,5.4c-1.1-0.4-2.2-0.6-3.4-0.6
		C10.3,35,6,39.3,6,44.5s4.3,9.5,9.5,9.5c5.2,0,9.5-4.3,9.5-9.5c0-3-1.4-5.6-3.5-7.4l3.1-5.4c0.7,0.5,1.3,1.1,1.8,1.8L30,43
		c0.6,1.8,2.3,3,4,3h1h10h6.1c0.7,4.5,4.6,8,9.4,8c5.2,0,9.5-4.3,9.5-9.5c0-1.9-0.6-3.6-1.5-5.1l-3.1,0.8c1,1.1,1.6,2.6,1.6,4.3
		c0,3.6-2.9,6.5-6.5,6.5c-3.1,0-5.6-2.1-6.3-5H62c0.8,0,1.5-0.7,1.5-1.5S62.8,43,62,43h-7.8c0.1-0.5,0.3-1,0.5-1.4
		c-0.8-0.5-1.3-1.3-1.6-2.2l-0.2-0.6C52,40,51.4,41.4,51.1,43H48c0-3.3,1.5-6.5,3.8-8.6l-0.2-0.9c-0.6-2.1,0.7-4.3,2.8-4.9L65,25.8
		c0.3-0.1,0.7-0.1,1-0.1c0.5,0,1.1,0.1,1.5,0.3H68c1.1,0,2-0.9,2-2v-5c0-1.1-0.9-2-2-2h-5c-1.1,0-2,0.9-2,2v4l-19.1,3.8
		C40.1,21.6,35.5,21.1,26.8,21z M22,44.5c0,3.6-2.9,6.5-6.5,6.5S9,48.1,9,44.5s2.9-6.5,6.5-6.5c0.6,0,1.3,0.1,1.9,0.3l-3.2,5.5
		c-0.4,0.7-0.2,1.6,0.6,2c0.2,0.1,0.5,0.2,0.7,0.2c0.5,0,1-0.3,1.3-0.8l3.2-5.5C21.2,41,22,42.6,22,44.5z"/>
</g>
</svg>
