<?xml version="1.0" encoding="utf-8"?>
<!-- Generator: Adobe Illustrator 16.0.4, SVG Export Plug-In . SVG Version: 6.00 Build 0)  -->
<!DOCTYPE svg PUBLIC "-//W3C//DTD SVG 1.1//EN" "http://www.w3.org/Graphics/SVG/1.1/DTD/svg11.dtd">
<svg version="1.1" id="Ebene_1" xmlns="http://www.w3.org/2000/svg" xmlns:xlink="http://www.w3.org/1999/xlink" x="0px" y="0px"
	 width="62px" height="26px" viewBox="0 0 62 26" style="enable-background:new 0 0 62 26;" xml:space="preserve">
<path d="M58.6,9.6L45,7.7l-7.6-5C35.8,1.6,34.7,1,32.1,1H13.3C10.7,1,8.6,1.9,7,3.6L1.8,9c0,0-0.1,0.1-0.1,0.1L1.5,9.3l0,0
	C0.6,10.4,0,12,0,14v3.5c0,1.2,0.6,2.4,1.3,2.9L3,21h3l0-1.6c0-4.2,3.2-7.1,7.2-7.1c4,0,7.2,2.9,7.2,7.1V21h23.4v-1.6
	c0-4.2,3.2-7.1,7.2-7.1c4,0,7.2,2.9,7.2,7.1V21H61c0.6-0.9,1-2.5,1-3.7v-2.1C62,12.3,60.5,10,58.6,9.6z M16,8H9l2.4-3.3
	C12.4,3.3,13.9,3,15.9,3h1.5L16,8z M18,8l1.7-5h6l0.8,5H18z M29,8l-1-5h4.5c1.5,0,2.7,0.1,4.1,1.1L42,8H29z M13.2,17.1
	c-1.7,0-3,1.3-3,3s1.4,3,3,3c1.7,0,3-1.3,3-3S14.9,17.1,13.2,17.1z M51,17.1c-1.7,0-3,1.3-3,3s1.4,3,3,3c1.7,0,3-1.3,3-3
	S52.7,17.1,51,17.1z M18.1,20.1c0,2.7-2.2,4.9-4.9,4.9c-2.7,0-4.9-2.2-4.9-4.9c0-2.7,2.2-4.9,4.9-4.9C15.9,15.2,18.1,17.4,18.1,20.1
	z M56,20.1c0,2.7-2.2,4.9-4.9,4.9c-2.7,0-4.9-2.2-4.9-4.9c0-2.7,2.2-4.9,4.9-4.9C53.8,15.2,56,17.4,56,20.1z"/>
</svg>
