<?xml version="1.0" encoding="utf-8"?>
<!-- Generator: Adobe Illustrator 16.0.4, SVG Export Plug-In . SVG Version: 6.00 Build 0)  -->
<!DOCTYPE svg PUBLIC "-//W3C//DTD SVG 1.1//EN" "http://www.w3.org/Graphics/SVG/1.1/DTD/svg11.dtd">
<svg version="1.1" id="Ebene_1" xmlns="http://www.w3.org/2000/svg" xmlns:xlink="http://www.w3.org/1999/xlink" x="0px" y="0px"
	 width="62px" height="26px" viewBox="0 0 62 26" style="enable-background:new 0 0 62 26;" xml:space="preserve">
<g>
	<path d="M53,18.6v0.7c0,0.4-0.3,0.7-0.8,0.7h-0.8v-1.4c0-3.3-2.7-5.9-6.1-5.9c-2.5,0-4.2,1.4-6,3.6c-1.9,2.3-7.7,3.7-9.9,3.7H15.1
		v-1.4c0-3.3-2.7-5.9-6.1-5.9c-3.3,0-6.1,2.7-6.1,5.9C3,19.4,2.4,20,1.5,20C0.7,20,0,19.4,0,18.6v-5.9c0-0.8,0.7-1.5,1.5-1.5H3
		c0-0.5,0-1,0-1.5C3,5.2,4.5,3,10.6,3C12.9,3,22.7,3,25,3c2.3,0,2.9,0.6,3,1.5L29.2,9c0,0,16,0,16.8,0c1.5,0,2.5,0.7,2.5,2.1
		c0,0.1,0,0.4,0,0.6C51.1,12.9,53,15.5,53,18.6z M14,5c0,0-1.7,0-4,0S6,6.8,6,9h8V5z M27,9l-1-4h-9v4H27z M11.9,18.6
		c0,1.5-1.3,2.8-2.8,2.8s-2.8-1.2-2.8-2.8s1.3-2.8,2.8-2.8S11.9,17,11.9,18.6z M48.3,18.6c0,1.5-1.3,2.8-2.8,2.8s-2.8-1.2-2.8-2.8
		s1.3-2.8,2.8-2.8S48.3,17,48.3,18.6z M9.1,14.1c-2.5,0-4.5,2-4.5,4.4s2,4.4,4.5,4.4s4.5-2,4.5-4.4S11.6,14.1,9.1,14.1z M45.4,14.1
		c-2.5,0-4.5,2-4.5,4.4s2,4.4,4.5,4.4s4.5-2,4.5-4.4S47.9,14.1,45.4,14.1z"/>
</g>
</svg>
