<?xml version="1.0" encoding="utf-8"?>
<!-- Generator: Adobe Illustrator 16.0.4, SVG Export Plug-In . SVG Version: 6.00 Build 0)  -->
<!DOCTYPE svg PUBLIC "-//W3C//DTD SVG 1.1//EN" "http://www.w3.org/Graphics/SVG/1.1/DTD/svg11.dtd">
<svg version="1.1" id="Ebene_1" xmlns="http://www.w3.org/2000/svg" xmlns:xlink="http://www.w3.org/1999/xlink" x="0px" y="0px"
	 width="62px" height="26px" viewBox="0 0 62 26" style="enable-background:new 0 0 62 26;" xml:space="preserve">
<path d="M24.3,9.1c-0.4-0.6-0.2-1.4,0.5-1.7s1.4-0.1,1.8,0.5l1.4,2.3H25L24.3,9.1z M58.7,12.5l-13.5-1.7l-9.9-5.8
	C35.2,5,35.1,5,34.9,5c-0.3,0-0.6,0.2-0.6,0.5c0,0.2,0,0.3,0.2,0.4l6.5,5c-7.2,0-21.5,0-23.4,0c-2.6,0-3.4-1.5-3.4-1.5L3.9,10.8h0
	C1.8,11.6,0,13.2,0,16c0,2.1,1.1,4.2,2.5,5h0h5.1v-1.4c0-3.2,2.7-5.8,6-5.8c3.3,0,6,2.6,6,5.8V21h25.7v-1.4c0-3.2,2.7-5.8,6-5.8
	c3.3,0,6,2.6,6,5.8V21h3.2c0.8-0.9,1.3-2.1,1.3-3.6C62,14.9,60.6,12.8,58.7,12.5z M16.4,19.6c0,1.5-1.3,2.7-2.8,2.7
	s-2.8-1.2-2.8-2.7s1.3-2.7,2.8-2.7S16.4,18.1,16.4,19.6z M54.2,19.6c0,1.5-1.3,2.7-2.8,2.7s-2.8-1.2-2.8-2.7s1.3-2.7,2.8-2.7
	S54.2,18.1,54.2,19.6z M13.6,15.2c-2.5,0-4.5,2-4.5,4.4s2,4.4,4.5,4.4c2.5,0,4.5-2,4.5-4.4S16.1,15.2,13.6,15.2z M51.4,15.2
	c-2.5,0-4.5,2-4.5,4.4s2,4.4,4.5,4.4c2.5,0,4.5-2,4.5-4.4S53.9,15.2,51.4,15.2z"/>
</svg>
