<?xml version="1.0" encoding="utf-8"?>
<!-- Generator: Adobe Illustrator 16.0.4, SVG Export Plug-In . SVG Version: 6.00 Build 0)  -->
<!DOCTYPE svg PUBLIC "-//W3C//DTD SVG 1.1//EN" "http://www.w3.org/Graphics/SVG/1.1/DTD/svg11.dtd">
<svg version="1.1" id="Ebene_1" xmlns="http://www.w3.org/2000/svg" xmlns:xlink="http://www.w3.org/1999/xlink" x="0px" y="0px"
	 width="62px" height="26px" viewBox="0 0 62 26" style="enable-background:new 0 0 62 26;" xml:space="preserve">
<g>
	<path d="M13.4,15.6c-1.5,0-2.8,1.3-2.8,2.8c0,1.6,1.2,2.9,2.8,2.9s2.8-1.3,2.8-2.9C16.2,16.9,14.9,15.6,13.4,15.6z M49.8,15.6
		c-1.5,0-2.8,1.3-2.8,2.8c0,1.6,1.2,2.9,2.8,2.9c1.5,0,2.8-1.3,2.8-2.9C52.6,16.9,51.4,15.6,49.8,15.6z M55.8,11.6
		c-4.7-1.9-12.6-1.5-12.6-1.5S36,5.7,32.6,4.9c-1.7-0.4-4.8-0.9-8-0.9c-2.3,0-4.7,0.2-6.9,0.9c-2.6,0.8-7,2.2-10.9,4.3L2.2,7.8
		L1.5,8.6l1.9,2.6c-2.2,1.3-3.4,3.4-3.4,5C0,20,3.5,21,5.2,21h2.2v-2.6c0-3.4,2.7-6.1,6-6.1c3.3,0,6,2.7,6,6.1V21h24.5v-2.6
		c0-3.4,2.7-6.1,6-6.1c3.3,0,6,2.7,6,6.1V21l3.7-0.3c1-1,1.5-1.8,1.5-3C61,16.1,59.8,13.2,55.8,11.6z M18.6,10.1
		c-1.5,0-4.2-0.4-4.2-1.5c0-1.3,3-2.1,3.7-2.3c1.2-0.3,2.6-0.6,4.3-0.7l1.5,4.5H18.6z M26,10.1l-1.5-4.6c0.2,0,0.5,0,0.7,0
		c3.5,0,5.4,0.4,6.9,0.8c1.9,0.5,6.5,2.6,8,3.7H26z M17.9,18.4c0,2.5-2,4.6-4.5,4.6s-4.5-2-4.5-4.6c0-2.5,2-4.6,4.5-4.6
		S17.9,15.9,17.9,18.4z M54.3,18.4c0,2.5-2,4.6-4.5,4.6s-4.5-2-4.5-4.6c0-2.5,2-4.6,4.5-4.6S54.3,15.9,54.3,18.4z"/>
</g>
</svg>
