<?xml version="1.0" encoding="utf-8"?>
<!-- Generator: Adobe Illustrator 16.0.4, SVG Export Plug-In . SVG Version: 6.00 Build 0)  -->
<!DOCTYPE svg PUBLIC "-//W3C//DTD SVG 1.1//EN" "http://www.w3.org/Graphics/SVG/1.1/DTD/svg11.dtd">
<svg version="1.1" id="Ebene_1" xmlns="http://www.w3.org/2000/svg" xmlns:xlink="http://www.w3.org/1999/xlink" x="0px" y="0px"
	 width="62px" height="26px" viewBox="0 0 62 26" style="enable-background:new 0 0 62 26;" xml:space="preserve">
<path d="M58.7,11.5L45.2,9.8l-7.6-4.4c-1.7-1-2.8-1.5-5.3-1.5H13.5c-2.5,0-4.6,0.8-6.2,2.2l-5,4.5C1,11.7,0,13,0,15
	c0,2.1,1.1,4.2,2.5,5h0h5.1v-1.4c0-3.2,2.7-5.8,6-5.8c3.3,0,6,2.6,6,5.8V20h25.7v-1.4c0-3.2,2.7-5.8,6-5.8c3.3,0,6,2.6,6,5.8V20h3.2
	c0.8-0.9,1.3-2.1,1.3-3.6C62,13.9,60.6,11.8,58.7,11.5z M13.7,10H7l2.3-2.7c1.1-1.2,3.1-1.8,5.1-1.8h1.5L13.7,10z M16.1,10l2-4.5
	h7.6l0.8,4.5H16.1z M28.7,10L28,5.5h4.4c2.2,0,2.9,0.4,4.4,1.3l5.4,3.3H28.7z M13.6,15.9c-1.6,0-2.8,1.2-2.8,2.7s1.3,2.7,2.8,2.7
	c1.6,0,2.8-1.2,2.8-2.7S15.2,15.9,13.6,15.9z M51.4,15.9c-1.6,0-2.8,1.2-2.8,2.7s1.3,2.7,2.8,2.7s2.8-1.2,2.8-2.7S53,15.9,51.4,15.9
	z M18.1,18.6c0,2.4-2,4.4-4.5,4.4c-2.5,0-4.5-2-4.5-4.4s2-4.4,4.5-4.4C16.1,14.2,18.1,16.2,18.1,18.6z M56,18.6c0,2.4-2,4.4-4.5,4.4
	c-2.5,0-4.5-2-4.5-4.4s2-4.4,4.5-4.4C53.9,14.2,56,16.2,56,18.6z"/>
</svg>
