<?xml version="1.0" encoding="utf-8"?>
<!-- Generator: Adobe Illustrator 16.0.4, SVG Export Plug-In . SVG Version: 6.00 Build 0)  -->
<!DOCTYPE svg PUBLIC "-//W3C//DTD SVG 1.1//EN" "http://www.w3.org/Graphics/SVG/1.1/DTD/svg11.dtd">
<svg version="1.1" id="Ebene_1" xmlns="http://www.w3.org/2000/svg" xmlns:xlink="http://www.w3.org/1999/xlink" x="0px" y="0px"
	 width="62px" height="26px" viewBox="0 0 62 26" style="enable-background:new 0 0 62 26;" xml:space="preserve">
<path d="M11.3,17.7c-1.6,0-2.8,1.3-2.8,2.8s1.3,2.8,2.8,2.8c1.6,0,2.8-1.3,2.8-2.8S12.9,17.7,11.3,17.7z M52.2,17.7
	c-1.6,0-2.8,1.3-2.8,2.8s1.3,2.8,2.8,2.8s2.8-1.3,2.8-2.8S53.7,17.7,52.2,17.7z M58.7,11.4L46.6,4c-2.6-1.4-5-3-10.3-3H15.7
	C6.5,1,4.2,4.3,3,7.2c0,0-3,6-3,8v2.2c0,2.1,1.1,3.6,2.5,4.5l0,0h2.8v-1.5c0-3.3,2.7-6,6-6c3.3,0,6,2.7,6,6V22h28.7v-1.5
	c0-3.3,2.7-6,6-6s6,2.7,6,6V22h2.5c0.8-0.9,1.3-2.2,1.3-3.8C62,15.7,61.2,12.8,58.7,11.4z M14.1,9H5.6C6,8,6.2,7.5,6.7,6.2
	C7.6,4.1,10.5,3,15.5,3L14.1,9z M16.2,9l1.4-6h11.2l1,6H16.2z M32,9l-1-6h5.3c4.3,0,6.9,1,9,2.2L52.1,9H32z M15.9,20.5
	c0,2.5-2,4.5-4.5,4.5c-2.5,0-4.5-2-4.5-4.5s2-4.5,4.5-4.5C13.8,16,15.9,18,15.9,20.5z M56.7,20.5c0,2.5-2,4.5-4.5,4.5
	c-2.5,0-4.5-2-4.5-4.5s2-4.5,4.5-4.5C54.7,16,56.7,18,56.7,20.5z"/>
</svg>
