<?xml version="1.0" encoding="utf-8"?>
<!-- Generator: Adobe Illustrator 16.0.4, SVG Export Plug-In . SVG Version: 6.00 Build 0)  -->
<!DOCTYPE svg PUBLIC "-//W3C//DTD SVG 1.1//EN" "http://www.w3.org/Graphics/SVG/1.1/DTD/svg11.dtd">
<svg version="1.1" id="Ebene_1" xmlns="http://www.w3.org/2000/svg" xmlns:xlink="http://www.w3.org/1999/xlink" x="0px" y="0px"
	 width="60px" height="40px" viewBox="0 0 60 40" style="enable-background:new 0 0 60 40;" xml:space="preserve">
<g>
	<g>
		<g>
			<path d="M3.7,36l13-7l5,1l4-5l8-2l5,3l9-8l9,4V40H3.7V36z M7,15.4l-0.7-8c0,0,19.1-6.9,19.9-7.2c1-0.4,1.6,0.2,1.6,0.2l6.7,5.1
				c0,0,12-3,12.8-3.2c0.8-0.2,1.6,0.2,1.8,0.8s2.4,6.6,2.4,6.6l-1.7,1.4l-0.2-0.7c-1.1-2.9-4.3-4.4-7.2-3.4
				c-2.9,1.1-4.4,4.3-3.4,7.2l0.2,0.7l-2,0.7l-13.3,4.8l-0.2-0.7c-1.1-2.9-4.3-4.4-7.2-3.4c-2.9,1.1-4.4,4.3-3.4,7.2l0.2,0.4
				l-2.8,0.5L7,15.4z M20.9,10.3l-2.2-6L8.1,8.2L9,14.7L20.9,10.3z M32.2,6.2l-5.5-4.8l-6,2.2l2.2,6L32.2,6.2z"/>
		</g>
		<path d="M48.8,13.1c0,2.3-1.9,4.2-4.2,4.2c-2.3,0-4.2-1.9-4.2-4.2c0-2.3,1.9-4.2,4.2-4.2C46.9,8.8,48.8,10.7,48.8,13.1z
			 M44.5,10.6c-1.4,0-2.5,1.1-2.5,2.5c0,1.4,1.1,2.5,2.5,2.5c1.4,0,2.5-1.1,2.5-2.5C47,11.7,45.9,10.6,44.5,10.6z"/>
		<path d="M22.9,22.1c0,2.3-1.9,4.2-4.2,4.2c-2.3,0-4.2-1.9-4.2-4.2c0-2.3,1.9-4.2,4.2-4.2C21,17.8,22.9,19.7,22.9,22.1z M18.6,19.6
			c-1.4,0-2.5,1.1-2.5,2.5c0,1.4,1.1,2.5,2.5,2.5c1.4,0,2.5-1.1,2.5-2.5C21.1,20.7,20,19.6,18.6,19.6z"/>
	</g>
	<path d="M8.8,23.3c0.2,0.5-0.1,1.1-0.6,1.3l-0.9,0.3c-0.5,0.2-1.1-0.1-1.3-0.6l-2.4-6.6c-0.2-0.5,0.1-1.1,0.6-1.3l0.9-0.3
		c0.5-0.2,1.1,0.1,1.3,0.6L8.8,23.3z"/>
</g>
</svg>
