<?xml version="1.0" encoding="utf-8"?>
<!-- Generator: Adobe Illustrator 16.0.4, SVG Export Plug-In . SVG Version: 6.00 Build 0)  -->
<!DOCTYPE svg PUBLIC "-//W3C//DTD SVG 1.1//EN" "http://www.w3.org/Graphics/SVG/1.1/DTD/svg11.dtd">
<svg version="1.1" id="Ebene_1" xmlns="http://www.w3.org/2000/svg" xmlns:xlink="http://www.w3.org/1999/xlink" x="0px" y="0px"
	 width="60px" height="40px" viewBox="0 0 60 40" style="enable-background:new 0 0 60 40;" xml:space="preserve">
<g>
	<ellipse cx="32" cy="22.1" rx="2" ry="2"/>
	<ellipse cx="23.9" cy="3.2" rx="2.5" ry="3.2"/>
	<path d="M42.7,7h4.6c0.6,0,1-0.3,1-0.9c0-0.1,0-0.1,0-0.2l-1-3.8c-0.2-1-1.1-1.7-2.2-1.7c-1.1,0-2,0.8-2.2,1.8l-1,3.8
		c0,0.1,0,0,0,0.1C41.7,6.7,42.1,7,42.7,7z"/>
	<path d="M37.4,20.9c-0.5-0.3-1.1-0.1-1.4,0.4l-2.4,4.6L33.3,26h-2.9L28,24.1c-0.4-0.3-1.1-0.3-1.4,0.1c-0.3,0.4-0.1,1,0.4,1.4
		l2.8,2V40h4.4l1.2-13.4l2.4-4.4C38.1,21.8,37.9,21.2,37.4,20.9z"/>
	<path d="M27.8,11.8c0-0.1,0-0.2,0-0.3c0-1.6-1.3-3-2.9-3.2l-5-0.4c-0.1,0-0.2,0-0.3,0c-1.7,0-3,1.2-3.2,2.9l-0.7,7.7v0
		c0,0.1,0,0.2,0,0.3c0,1,0.4,1.9,1.2,2.5l0.6,8.7c0.9,0,1.8,0.3,2.5,0.8l1-1c0.4-0.4,1-0.4,1.4,0c0.4,0.4,0.4,1,0,1.4l-0.8,1
		c0.5,0.8,1.1,1.7,1.1,2.8v5h1.6l1.1-18c0.9-0.5,1.5-1.4,1.6-2.5L27.8,11.8z"/>
	<path d="M17.3,32c0,0-1.3,0-2.3,0c-0.9,0-1.7-0.6-1.9-1.4l-0.4-1.3c-0.1-0.3-0.2-0.6-0.5-0.6c-0.4,0-0.5,0.3-0.5,0.8v1l-2.9,0.7
		c-0.2,0.1-0.5,0.2-0.6,0.5C8,32,8,32.2,8.1,32.4l0.5,1C8.8,33.6,9,34,9.2,34h1.5h0c0,0,1.3-0.1,1.3,1v5h2v-3h2.3
		c1.1,0,2.7,0.9,2.7,2v1h2v-5C21,33.3,18.9,32,17.3,32z"/>
	<path d="M41.1,10.8l-3.8,8.1c-0.2,0.5,0,1,0.4,1.3c0.2,0.1,0.3,0.1,0.5,0.1c0.3,0,0.7-0.2,0.9-0.5l1.9-3l0.1,3.1
		c0,0.1,0,0.1-0.1,0.2l-3,7.5c0,0.1-0.1,0.3-0.1,0.4c0,0.6,0.5,1,1,1h3l1.6,11h2.8l1.6-11h2.8c0.6,0,1.1-0.5,1.1-1
		c0-0.1,0.1-0.3,0-0.4l-2.9-7.5v0l0.2-8c0-0.8-0.3-1.6-0.9-2.2C47.8,9.3,47,9,46.1,9h-2.3c-0.8,0-1.6,0.3-2.2,0.9
		C41.4,10.2,41.2,10.5,41.1,10.8"/>
</g>
</svg>
