<?xml version="1.0" encoding="utf-8"?>
<!-- Generator: Adobe Illustrator 16.0.4, SVG Export Plug-In . SVG Version: 6.00 Build 0)  -->
<!DOCTYPE svg PUBLIC "-//W3C//DTD SVG 1.1//EN" "http://www.w3.org/Graphics/SVG/1.1/DTD/svg11.dtd">
<svg version="1.1" id="Ebene_1" xmlns="http://www.w3.org/2000/svg" xmlns:xlink="http://www.w3.org/1999/xlink" x="0px" y="0px"
	 width="60px" height="40px" viewBox="0 0 60 40" style="enable-background:new 0 0 60 40;" xml:space="preserve">
<style type="text/css">
<![CDATA[
	.st0{fill-rule:evenodd;clip-rule:evenodd;}
]]>
</style>
<g>
	<circle cx="30" cy="25" r="1.5"/>
	<path class="st0" d="M27.6,27.4L26.9,23H31c2.1,0,2.9,0.3,4.3,1.1l5.4,3.3H27.6z M15.9,27.4l2.6-3c1.1-1.2,2.4-1.5,4.6-1.5h1.6
		l0.7,4.4H15.9z M56.3,28.6l-13-1.7l-7.3-4.1c-1.6-0.9-2.6-1.2-5.1-1.2h-8.7c-2.4,0-3.5,0.3-5.1,1.2l-5,3.5l-8.5,1.1h0
		c-2,0-3.7,2.1-3.7,4.8c0,2.1,1.2,4,2.5,4.8h4.3v-1.5c0-3.2,2.6-5.8,5.8-5.8s5.8,2.6,5.8,5.8v1.5h25.1v-1.5c0-3.2,2.6-5.8,5.8-5.8
		c3.2,0,5.8,2.6,5.8,5.8v1.5h3.1c1-0.9,1.8-2.4,1.8-3.9C60,30.7,58.1,28.9,56.3,28.6z M49.3,32.9c-1.5,0-2.7,1.2-2.7,2.7
		c0,1.5,1.2,2.7,2.7,2.7c1.5,0,2.7-1.2,2.7-2.7C52.1,34.1,50.8,32.9,49.3,32.9z M49.3,40l-2.2-0.6l-1.6-1.6L45,35.6l0.6-2.2l1.6-1.6
		l2.2-0.6l2.2,0.6l1.6,1.6l0.6,2.2l-0.6,2.2l-1.6,1.6L49.3,40z M12.6,32.9c-1.5,0-2.7,1.2-2.7,2.7c0,1.5,1.2,2.7,2.7,2.7
		c1.5,0,2.7-1.2,2.7-2.7C15.3,34.1,14.1,32.9,12.6,32.9z M12.6,40l-2.2-0.6l-1.6-1.6l-0.6-2.2l0.6-2.2l1.6-1.6l2.2-0.6l2.2,0.6
		l1.6,1.6l0.6,2.2l-0.6,2.2l-1.6,1.6L12.6,40z"/>
</g>
</svg>
