<?xml version="1.0" encoding="utf-8"?>
<!-- Generator: Adobe Illustrator 16.0.4, SVG Export Plug-In . SVG Version: 6.00 Build 0)  -->
<!DOCTYPE svg PUBLIC "-//W3C//DTD SVG 1.1//EN" "http://www.w3.org/Graphics/SVG/1.1/DTD/svg11.dtd">
<svg version="1.1" id="Ebene_1" xmlns="http://www.w3.org/2000/svg" xmlns:xlink="http://www.w3.org/1999/xlink" x="0px" y="0px"
	 width="60px" height="40px" viewBox="0 0 60 40" style="enable-background:new 0 0 60 40;" xml:space="preserve">
<style type="text/css">
<![CDATA[
	.st0{fill:#010202;}
]]>
</style>
<g>
	<path class="st0" d="M2.5,18c7,2.6,8.1-5.6,14-5l-1,2c-3.5-0.2-3,7-8,7C5.5,22,3.8,20.9,2.5,18z"/>
	<path class="st0" d="M39.5,34h4.8c1.1,0,1.7-0.8,1.3-1.9l-2-5.2l-1.7,2.3l1.3,2.8h-2.8L39.5,34z"/>
	<path class="st0" d="M22.2,31.2l1.5,0.8c1.4,0.8,2,1.6,2.3,2.4c0.3,0.8,0.5,1.5,0.5,1.5h2c0,0-0.2-0.8-0.5-2
		c-0.3-1.2-1.4-2.9-2.9-3.6L19.9,28L22.2,31.2z"/>
	<path class="st0" d="M16.2,22.1l-3.5,2.6c-0.9,0.7-0.9,1.8-0.1,2.5l5,4.5c0.8,0.7,1.9,2.2,2.3,3.2l0.9,2.1h2.5l-1.5-3.4
		c-0.4-1-1.4-2.5-2.1-3.3l-2.7-3l7.5-4.3h3c0,0,5.1,1.4,9.6,2.4L32.5,40h1.7l7.2-14c0,0,0,0,0,0c4,0,6-15,8-15s3.3,0.6,5,1.4
		c1.7,0.8,3-0.4,3-1.4s-0.4-1.4-0.8-1.7c-1-0.7-7.2-5.8-7.2-5.8V0c-1.4,0-8.2,12-12.2,12c-0.8,0-0.8,0-1.8,0v3.8
		c0,2-2.2,4.2-4.2,4.2h-2.6c-2,0-4.2-2.2-4.2-4.2V12c0,0-1.1,0-2,0c-3.7,0-7,4-7,7C15.5,20.2,15.8,21.3,16.2,22.1z"/>
	<path class="st0" d="M32.5,11h-5c-0.6,0-1,0.4-1,1v3c0,1.7,1.3,3,3,3h1c1.7,0,3-1.3,3-3v-3C33.5,11.4,33.1,11,32.5,11z"/>
</g>
</svg>
