<?xml version="1.0" encoding="utf-8"?>
<!-- Generator: Adobe Illustrator 16.0.4, SVG Export Plug-In . SVG Version: 6.00 Build 0)  -->
<!DOCTYPE svg PUBLIC "-//W3C//DTD SVG 1.1//EN" "http://www.w3.org/Graphics/SVG/1.1/DTD/svg11.dtd">
<svg version="1.1" id="Ebene_1" xmlns="http://www.w3.org/2000/svg" xmlns:xlink="http://www.w3.org/1999/xlink" x="0px" y="0px"
	 width="60px" height="40px" viewBox="0 0 60 40" style="enable-background:new 0 0 60 40;" xml:space="preserve">
<g>
	<g>
		<path d="M28.5,4.7c1.1,2.6,0.7,5.4-0.7,7.3c-2.4-0.3-4.6-2-5.7-4.7c-1.1-2.6-0.7-5.4,0.7-7.3C25.2,0.3,27.4,2,28.5,4.7z
			 M35.6,19.9c0.3,2.4,2,4.6,4.7,5.7c2.6,1.1,5.3,0.9,7.2-0.6c-0.3-2.4-1.9-4.8-4.6-5.9C40.3,18,37.5,18.4,35.6,19.9z M12.5,25
			c1.9,1.5,4.7,1.7,7.3,0.6c2.6-1.1,4.4-3.3,4.7-5.7c-1.9-1.5-4.7-1.8-7.3-0.7C14.5,20.2,12.8,22.6,12.5,25z M35.6,15.3
			c1.9,1.5,4.7,1.8,7.3,0.7c2.6-1.1,4.2-3.6,4.6-6c-1.9-1.5-4.6-1.6-7.2-0.5C37.6,10.6,35.9,12.9,35.6,15.3z M32.3,12
			c2.4-0.3,4.6-2,5.7-4.7c1.1-2.6,0.7-5.4-0.7-7.3c-2.4,0.3-4.6,2-5.7,4.7C30.5,7.3,30.9,10.1,32.3,12z M40.5,37c-3-2-8-2.4-8-8
			c0,0,0-5.8,0-6c0-2.1,1.5-3.8,2.6-5c0.5-0.5,0.4-1.3-0.1-1.8c-0.5-0.5-1.3-0.4-1.8,0.1c-0.7,0.8-1.5,1.7-2.1,2.9
			c-0.2-1.9-0.6-3.9-1.4-6c-0.2-0.6-1-1-1.6-0.7c-0.6,0.2-1,1-0.7,1.6c0.8,2,1.1,4,1.3,5.8c-0.6-0.5-1.3-0.9-2.2-1.3
			c-0.6-0.3-1.4,0-1.6,0.6s0,1.4,0.6,1.6c0.8,0.4,2,0.8,2,1.3V29c0,5.6-5,6-8,8c3.1,1,8,0,9-2l1,5h1l1-5C32.5,37,37.6,38,40.5,37z"
			/>
	</g>
	<path d="M12.5,10c0.3,2.4,2,4.9,4.7,6c2.6,1.1,5.4,0.7,7.3-0.7c-0.3-2.4-2-4.6-4.7-5.7C17.2,8.4,14.4,8.5,12.5,10z"/>
</g>
</svg>
