<?xml version="1.0" encoding="UTF-8" standalone="no"?>
<svg width="356px" height="55px" viewBox="0 0 356 55" version="1.1" xmlns="http://www.w3.org/2000/svg" xmlns:xlink="http://www.w3.org/1999/xlink">
    <title>404-icon</title>
    <g id="Globals" stroke="none" stroke-width="1" fill="none" fill-rule="evenodd">
        <g id="Icon" transform="translate(-612.000000, -2131.000000)" fill="#333333">
            <path d="M665.274345,2157.49069 C662.044916,2157.49069 659.528759,2157.85394 659.256673,2158.43208 C659.287188,2158.61243 659.944516,2160.27906 673.340288,2163.77859 C678.035673,2162.20278 678.752759,2161.09894 678.780731,2160.60522 C678.809973,2160.12941 677.867845,2159.32231 675.124102,2158.61115 C672.077759,2157.82197 668.351202,2157.49069 665.274345,2157.49069 M893.030732,2150.27981 C893.003931,2149.94663 892.765637,2149.46646 892.528471,2148.99651 C892.163571,2148.26744 892.931513,2147.34523 893.421013,2146.31174 L900.552456,2137.79314 C900.552456,2137.79314 899.334428,2136.80698 899.334428,2136.79291 C898.541056,2136.2186 898.012142,2135.27209 898.012142,2134.19767 C898.012142,2132.43256 899.434871,2131 901.183085,2131 C901.774299,2131 902.327371,2131.18035 902.792713,2131.45919 L903.081328,2131.44767 L936.350799,2149.95581 L936.350799,2141.24535 C936.350799,2138.4186 938.640642,2136.11628 941.432699,2136.11628 L955.105642,2136.11628 C957.897699,2136.11628 961.205956,2138.1743 962.449413,2140.69535 L965.532628,2146.91035 C966.777356,2149.4314 967.363485,2153.76872 967.363485,2156.5814 L967.363485,2164.25581 C967.363485,2167.08256 965.507199,2169.37209 962.725313,2169.37209 L958.726671,2169.37209 C958.852542,2168.74535 958.916113,2168.10581 958.916113,2167.45349 C958.916113,2162.14535 954.651742,2157.89756 949.395656,2157.89756 C944.135756,2157.89756 939.886642,2162.14535 939.886642,2167.45349 C939.886642,2168.10581 939.946399,2168.74535 940.073542,2169.37209 L919.395028,2169.37209 C919.509456,2168.74535 919.583199,2168.10581 919.583199,2167.45349 C919.583199,2162.14535 915.320099,2157.89756 910.061471,2157.89756 C904.804113,2157.89756 900.552456,2162.14535 900.552456,2167.45349 C900.552456,2168.10581 900.616028,2168.74535 900.740628,2169.37209 L897.408213,2169.37209 C894.617428,2169.37209 892.327585,2167.06977 892.327585,2164.24302 L892.327585,2160.4314 C892.327585,2157.60465 894.617428,2155.30233 897.408213,2155.30233 L922.123513,2155.30233 L902.590556,2139.42907 L895.948613,2146.31174 C895.948613,2146.65581 894.552585,2147.34523 894.804328,2147.84535 C895.156513,2148.57442 895.573542,2149.39302 895.573542,2150.33953 C895.573542,2152.10465 894.138099,2153.55 892.389885,2153.55 C891.585071,2153.55 890.817128,2153.2443 890.238628,2152.68023 L890.455522,2152.4453 C879.621247,2155.75154 846.680359,2164.316 789.430616,2166.86499 L789.425531,2166.77801 C787.837516,2166.89824 779.746145,2166.89952 735.192745,2166.9072 C680.937073,2166.91231 680.652273,2166.87266 680.558188,2166.85731 C677.841145,2166.23185 675.447045,2165.64731 673.340288,2165.09987 C667.500616,2167.02103 656.593031,2169.42441 636.229831,2172.19231 C622.903988,2174.78755 613.195359,2185.05592 613.098731,2185.15824 C612.972859,2185.29255 612.803759,2185.36034 612.635931,2185.36034 C612.479545,2185.36034 612.324431,2185.30278 612.201102,2185.18638 C611.945545,2184.94592 611.931559,2184.54045 612.170588,2184.28336 C612.271031,2184.1772 622.247931,2173.61208 636.023859,2170.93115 C654.525688,2168.41522 665.065831,2166.22034 671.047902,2164.49103 C657.485573,2160.78685 657.842845,2159.00638 658.011945,2158.16731 C658.529416,2155.57336 667.566731,2156.23464 669.375973,2156.39324 C672.560902,2156.67336 679.984773,2157.64034 680.053431,2160.54255 C680.068688,2161.2051 680.097931,2162.50848 675.489002,2164.32987 C677.080831,2164.72766 678.826502,2165.1472 680.743816,2165.58976 C683.362959,2165.64731 787.215788,2165.64476 789.363231,2165.5872 L789.373402,2165.5872 C853.524824,2162.7308 887.013766,2152.31967 893.030732,2150.27981 Z M910.149708,2160.4186 C914.361951,2160.4186 917.778279,2163.85419 917.778279,2168.09302 C917.778279,2172.33186 914.361951,2175.76744 910.149708,2175.76744 C905.936193,2175.76744 902.521136,2172.33186 902.521136,2168.09302 C902.521136,2163.85419 905.936193,2160.4186 910.149708,2160.4186 Z M910.149708,2173.20802 C912.955751,2173.20802 915.234151,2170.92105 915.234151,2168.09302 C915.234151,2165.26628 912.955751,2162.97674 910.149708,2162.97674 C907.338579,2162.97674 905.063993,2165.26628 905.063993,2168.09302 C905.063993,2170.92105 907.338579,2173.20802 910.149708,2173.20802 Z M949.563993,2160.4186 C953.776236,2160.4186 957.192565,2163.85419 957.192565,2168.09302 C957.192565,2172.33186 953.776236,2175.76744 949.563993,2175.76744 C945.350479,2175.76744 941.935422,2172.33186 941.935422,2168.09302 C941.935422,2163.85419 945.350479,2160.4186 949.563993,2160.4186 Z M949.563993,2173.20802 C952.370036,2173.20802 954.648436,2170.92105 954.648436,2168.09302 C954.648436,2165.26628 952.370036,2162.97674 949.563993,2162.97674 C946.752865,2162.97674 944.478279,2165.26628 944.478279,2168.09302 C944.478279,2170.92105 946.752865,2173.20802 949.563993,2173.20802 Z M955.255671,2150.18605 L962.978328,2150.18605 L959.544199,2142.48605 C958.401185,2140.96395 956.452085,2139.95349 954.627585,2139.95349 L950.187756,2139.95349 L950.187756,2145.05698 C950.187756,2148.61279 952.035142,2150.18605 955.255671,2150.18605 Z" id="404-icon"></path>
        </g>
    </g>
</svg>