<?xml version="1.0" encoding="utf-8"?>
<!-- Generator: Adobe Illustrator 16.0.4, SVG Export Plug-In . SVG Version: 6.00 Build 0)  -->
<!DOCTYPE svg PUBLIC "-//W3C//DTD SVG 1.1//EN" "http://www.w3.org/Graphics/SVG/1.1/DTD/svg11.dtd">
<svg version="1.1" id="Ebene_1" xmlns="http://www.w3.org/2000/svg" xmlns:xlink="http://www.w3.org/1999/xlink" x="0px" y="0px"
	 width="18px" height="22px" viewBox="0 0 18 22" style="enable-background:new 0 0 18 22;" xml:space="preserve">
<path d="M6.2,1.7c0,0,0.1,0,0.1,0l0,0c0.1,0,0.1-0.1,0.1-0.1L5.4,0c0,0-0.1,0-0.1,0l0,0c-0.1,0-0.1,0.1-0.1,0.1L6.2,1.7z"/>
<path d="M11.7,1.7c0,0-0.1,0-0.1,0l0,0c-0.1,0-0.1-0.1-0.1-0.1L12.6,0c0,0,0.1,0,0.1,0l0,0c0.1,0,0.1,0.1,0.1,0.1L11.7,1.7z"/>
<path d="M9,2.7C3.3,2.7,3,8,3,8h12C15,8,14.6,2.7,9,2.7z M6.4,6.4C6,6.4,5.7,6.1,5.7,5.7C5.7,5.3,6,5,6.4,5c0.4,0,0.7,0.3,0.7,0.7
	C7.1,6.1,6.8,6.4,6.4,6.4z M11.5,6.4c-0.4,0-0.7-0.3-0.7-0.7c0-0.4,0.3-0.7,0.7-0.7c0.4,0,0.7,0.3,0.7,0.7
	C12.2,6.1,11.9,6.4,11.5,6.4z"/>
<path d="M2,15c0,0.6-0.4,1-1,1l0,0c-0.6,0-1-0.4-1-1V9c0-0.6,0.4-1,1-1l0,0c0.6,0,1,0.4,1,1V15z"/>
<path d="M18,15c0,0.6-0.4,1-1,1l0,0c-0.6,0-1-0.4-1-1V9c0-0.6,0.4-1,1-1l0,0c0.6,0,1,0.4,1,1V15z"/>
<path d="M7,21c0,0.6-0.4,1-1,1l0,0c-0.6,0-1-0.4-1-1v-6c0-0.6,0.4-1,1-1l0,0c0.6,0,1,0.4,1,1V21z"/>
<path d="M12,21c0,0.6-0.4,1-1,1l0,0c-0.6,0-1-0.4-1-1v-6c0-0.6,0.4-1,1-1l0,0c0.6,0,1,0.4,1,1V21z"/>
<path d="M15,17c0,0.6-0.4,1-1,1H4c-0.6,0-1-0.4-1-1v-7c0-0.6,0.4-1,1-1h10c0.6,0,1,0.4,1,1V17z"/>
</svg>
