<?xml version="1.0" encoding="utf-8"?>
<!-- Generator: Adobe Illustrator 16.0.1, SVG Export Plug-In . SVG Version: 6.00 Build 0)  -->
<!DOCTYPE svg PUBLIC "-//W3C//DTD SVG 1.1//EN" "http://www.w3.org/Graphics/SVG/1.1/DTD/svg11.dtd">
<svg version="1.1" id="icons_1_" xmlns="http://www.w3.org/2000/svg" xmlns:xlink="http://www.w3.org/1999/xlink" x="0px" y="0px"
	 width="54px" height="54px" viewBox="0 0 54 54" style="enable-background:new 0 0 54 54;" xml:space="preserve">
<path style="fill:#003468;" d="M42,0H12C5.4,0,0,5.4,0,12v14h54V12C54,5.4,48.6,0,42,0z"/>
<path style="fill:#FF7500;" d="M12,54h30c6.6,0,12-5.4,12-12V28H0v14C0,48.6,5.4,54,12,54z"/>
<g>
	<path style="fill:#003468;" d="M6.9,42.3H6.8c-1.5,0-2.7-1-2.7-2.7c0-1,1.6-1,1.6,0c0,0.7,0.5,1.1,1.1,1.1h0.1c0.7,0,1.2-0.3,1.2-1
		c0-1.7-3.9-1.8-3.9-4.3c0-0.2,0-0.1,0-0.3c0-1.4,1.4-2.3,2.6-2.3h0.1c1.4,0,2.6,0.9,2.6,2.2c0,1-1.5,1-1.5,0c0-0.4-0.4-0.6-1.1-0.6
		H6.8c-0.6,0-1,0.3-1,0.8c0,0.2,0,0,0,0.2c0,1.1,3.9,1.5,3.9,4.3C9.6,41.3,8.4,42.3,6.9,42.3L6.9,42.3z"/>
	<path style="fill:#003468;" d="M13.6,42.3h-0.1c-1.5,0-2.7-1.1-2.7-2.6v-4.2c0-1.5,1.2-2.6,2.7-2.6h0.1c1.4,0,2.5,0.9,2.7,2.2
		c0,0,0,0.1,0,0.1c0,0.5-0.4,0.8-0.8,0.8c-0.3,0-0.7-0.2-0.8-0.7c-0.1-0.6-0.6-0.9-1.1-0.9h-0.1c-0.6,0-1.1,0.5-1.1,1.1v4.2
		c0,0.6,0.5,1.1,1.1,1.1h0.1c0.6,0,1-0.4,1.1-0.9c0.1-0.5,0.4-0.7,0.8-0.7c0.4,0,0.8,0.3,0.8,0.8c0,0.1,0,0.1,0,0.1
		C16.1,41.4,15,42.3,13.6,42.3L13.6,42.3z"/>
	<path style="fill:#003468;" d="M20.2,42.3h-0.1c-1.5,0-2.7-1.2-2.7-2.6v-4.2c0-1.5,1.2-2.6,2.7-2.6h0.1c1.5,0,2.7,1.1,2.7,2.6v4.2
		C22.9,41.1,21.7,42.3,20.2,42.3L20.2,42.3z M21.4,35.5c0-0.6-0.5-1.1-1.1-1.1h-0.1c-0.6,0-1.1,0.5-1.1,1.1v4.2
		c0,0.6,0.5,1.1,1.1,1.1h0.1c0.6,0,1.1-0.5,1.1-1.1V35.5L21.4,35.5z"/>
	<path style="fill:#003468;" d="M27.3,42.3h-0.1c-1.5,0-2.7-1.2-2.7-2.7v-6c0-0.5,0.4-0.8,0.8-0.8c0.4,0,0.8,0.3,0.8,0.8v6
		c0,0.6,0.5,1.1,1.1,1.1h0.1c0.6,0,1.1-0.5,1.1-1.1v-6c0-0.5,0.4-0.8,0.8-0.8c0.4,0,0.8,0.3,0.8,0.8v6C30,41.1,28.8,42.3,27.3,42.3
		L27.3,42.3z"/>
	<path style="fill:#003468;" d="M35.5,34.5h-1.1v7c0,0.5-0.4,0.8-0.8,0.8c-0.4,0-0.8-0.3-0.8-0.8v-7h-1.1c-0.5,0-0.8-0.4-0.8-0.8
		c0-0.4,0.3-0.8,0.8-0.8h3.7c0.5,0,0.8,0.4,0.8,0.8C36.3,34.1,36.1,34.5,35.5,34.5L35.5,34.5z"/>
	<path style="fill:#003468;" d="M42.8,42.2h-3.5c-0.5,0-0.8-0.5-0.8-0.9c0-0.2,0-0.3,0.1-0.5l3.1-4.9c0.2-0.3,0.2-0.4,0.2-0.6v-0.1
		c0-0.4-0.3-0.8-0.8-0.8h0c-0.4,0-0.8,0.3-0.8,0.8v0.1c0,0.5-0.4,0.8-0.8,0.8c-0.4,0-0.8-0.3-0.8-0.8v-0.2c0-1.3,1.1-2.3,2.3-2.3h0
		c1.3,0,2.4,0.9,2.4,2.3l0,0.1c0,0.5-0.2,0.9-0.5,1.4l-2.5,4h2.3c0.5,0,0.8,0.4,0.8,0.8C43.6,41.8,43.3,42.2,42.8,42.2L42.8,42.2z"
		/>
	<path style="fill:#003468;" d="M48.9,40.4h-0.3v1.1c0,0.5-0.4,0.8-0.8,0.8c-0.4,0-0.8-0.3-0.8-0.8v-1.1H45c-0.5,0-0.9-0.3-0.9-0.8
		c0-0.1,0-0.3,0.1-0.4l2.5-5.8c0.1-0.3,0.4-0.5,0.7-0.5c0.4,0,0.8,0.3,0.8,0.8c0,0.1,0,0.2-0.1,0.3l-2.2,4.9h1.2v-0.8
		c0-0.5,0.4-0.8,0.8-0.8c0.4,0,0.8,0.3,0.8,0.8v0.8h0.3c0.5,0,0.8,0.4,0.8,0.8C49.7,40,49.5,40.4,48.9,40.4L48.9,40.4z"/>
</g>
<g>
	<path style="fill:#FFFFFF;" d="M9.2,21.1c-0.3,0-0.6-0.2-0.7-0.5l-0.5-1.5H5.5l-0.5,1.5c-0.1,0.4-0.4,0.5-0.7,0.5
		c-0.4,0-0.8-0.3-0.8-0.7c0-0.1,0-0.2,0-0.2L6,12.8c0.2-0.6,0.5-0.6,0.8-0.6c0.3,0,0.6,0.1,0.8,0.6l2.3,7.4c0,0.1,0,0.2,0,0.2
		C10,20.9,9.6,21.1,9.2,21.1L9.2,21.1z M6.8,14.9L6,17.6h1.6L6.8,14.9L6.8,14.9z"/>
	<path style="fill:#FFFFFF;" d="M13.7,21.1h-0.1c-1.4,0-2.6-1.2-2.6-2.6v-5.7c0-0.5,0.4-0.7,0.7-0.7s0.7,0.2,0.7,0.7v5.7
		c0,0.6,0.5,1.1,1.1,1.1h0.1c0.6,0,1.1-0.5,1.1-1.1v-5.7c0-0.5,0.4-0.7,0.7-0.7c0.4,0,0.7,0.2,0.7,0.7v5.7
		C16.3,20,15.1,21.1,13.7,21.1L13.7,21.1z"/>
	<path style="fill:#FFFFFF;" d="M21.7,13.7h-1v6.7c0,0.5-0.4,0.7-0.7,0.7c-0.4,0-0.7-0.2-0.7-0.7v-6.7h-1c-0.5,0-0.7-0.4-0.7-0.7
		c0-0.4,0.3-0.7,0.7-0.7h3.5c0.5,0,0.7,0.4,0.7,0.7C22.4,13.3,22.1,13.7,21.7,13.7L21.7,13.7z"/>
	<path style="fill:#FFFFFF;" d="M26,21.1h-0.1c-1.4,0-2.6-1.1-2.6-2.5v-4c0-1.4,1.2-2.5,2.6-2.5H26c1.4,0,2.6,1.1,2.6,2.5v4
		C28.5,20,27.4,21.1,26,21.1L26,21.1z M27,14.7c0-0.6-0.5-1-1.1-1h-0.1c-0.6,0-1.1,0.4-1.1,1v4c0,0.6,0.5,1.1,1.1,1.1H26
		c0.6,0,1.1-0.4,1.1-1V14.7L27,14.7z"/>
</g>
</svg>
