<?xml version="1.0" encoding="UTF-8" standalone="yes"?><svg xmlns="http://www.w3.org/2000/svg" xmlns:xlink="http://www.w3.org/1999/xlink" width="1024px" height="1024px" viewBox="0 0 1024 1024" version="1.1" style="zoom: 0.5;"><!-- Generator: Sketch 61.2 (89653) - https://sketch.com --><title>App-Icon</title><g id="Template---App-Icons" stroke="none" stroke-width="1" fill="none" fill-rule="evenodd"><g id="AutoScout24-App-Icon" transform="translate(-20.000000, -430.000000)"><g id="App-Icons---App-Store" transform="translate(20.000000, 430.000000)"><g id="App-Icon-Square"><path d="M176,0 H844 a176,176 0 0 1 176,176 V844 a176,176 0 0 1 -176,176 H176 a176,176 0 0 1 -176,-176 V176 a176,176 0 0 1 176,-176  z " fill="#ffffff"></path><g id="Group-2" stroke-width="1" transform="translate(109.283083, 212.115330)"><path d="M122.01374,324.137144 C121.836772,322.505349 122.199203,320.859365 123.047234,319.454602 C123.160494,319.199191 123.387013,319.383655 123.471958,319.114054 C123.678656,318.600393 123.789084,318.051259 123.797579,317.496449 C123.716881,316.568454 123.541329,315.650392 123.273753,314.757871 C122.706039,312.750054 122.614016,310.635815 123.004762,308.58543 C123.273753,307.350941 123.273753,306.073885 123.004762,304.839396 C122.795231,303.430377 122.350687,302.068183 121.688119,300.809572 C121.304452,300.091583 120.995819,299.335281 120.767884,298.553439 C120.699928,298.083766 120.699928,297.605579 120.767884,297.134487 C121.206765,296.477512 121.715018,295.867362 122.282732,295.316809 C122.565881,295.062817 122.962289,295.445934 123.174651,295.006059 C123.585217,294.168877 122.948132,293.17561 123.004762,292.168154 L123.004762,291.586384 C123.047234,290.031213 122.866019,288.47746 122.466778,286.97479 C122.240259,286.350451 122.268574,285.016636 122.707455,284.817983 C123.146336,284.61933 123.118021,283.610455 122.834872,282.476712 C122.62251,281.65372 122.438464,280.816538 122.268574,279.922598 C121.969852,278.956292 121.812704,277.953093 121.801378,276.942799 C121.886323,276.673198 122.07037,277.056315 122.169472,277.056315 C122.268574,277.056315 122.410149,276.90023 122.509251,276.446166 C122.608353,275.992101 122.806557,274.530581 123.103864,274.488012 C123.613532,274.387266 123.670162,271.082527 124.151515,270.231156 C124.792848,268.387937 124.982558,266.415594 124.703656,264.4844 C124.533766,261.305947 124.533766,261.318718 125.156694,259.376173 C125.248718,259.098058 125.319505,258.814268 125.369056,258.524801 C125.538945,257.332882 125.864567,257.105849 126.275133,257.233555 C126.460596,257.281799 126.655968,257.281799 126.841431,257.233555 C127.351099,257.105849 127.464359,256.410563 127.06795,255.31797 C126.588013,254.22112 126.048614,253.15123 125.454001,252.111138 C125.059008,251.424365 124.754623,250.689348 124.547924,249.925952 C124.402102,248.925591 124.35963,247.912459 124.420507,246.903584 C124.462979,246.672295 124.685251,246.520467 124.914602,246.561617 C124.934422,246.565874 124.954243,246.571549 124.972647,246.577225 C125.227482,246.71912 125.496473,247.669818 125.666363,246.392761 C125.79378,245.664839 125.657868,244.915632 125.284111,244.278523 C125.226066,244.140885 125.179346,243.99757 125.142537,243.852837 C124.604554,242.106107 124.632869,241.256155 125.284111,240.546679 C125.970748,239.464019 126.228413,238.16284 126.006141,236.899972 C126.006141,235.736432 126.006141,234.487754 125.850409,233.437729 C125.652205,232.018777 125.850409,232.018777 126.176031,232.018777 C126.44927,231.935059 126.653137,231.705189 126.699857,231.422817 C126.672957,230.734626 126.578102,230.049272 126.416707,229.379526 C126.260976,228.67005 126.020299,228.10247 125.850409,227.407183 C125.815016,227.043931 125.815016,226.677842 125.850409,226.31459 C125.949512,226.442296 126.048614,226.59838 126.147716,226.711897 C126.45918,227.052445 126.784801,227.577457 127.110423,227.662594 C127.436044,227.747732 127.676721,227.095014 127.662563,226.782844 C127.663979,225.954176 127.535146,225.131184 127.280312,224.342247 C126.45918,223.320601 126.317605,220.99352 126.218503,219.134693 C126.105244,216.864369 125.722992,215.615692 125.128379,215.033921 C124.533766,214.452151 124.774443,213.912949 125.029277,213.402126 C125.571508,212.052703 125.724408,210.576993 125.468158,209.14527 C125.369056,208.25133 125.269954,206.874947 125.779622,206.676294 C126.28929,206.47764 126.40255,205.00193 126.161873,203.696494 C125.779622,201.709962 126.161873,202.178216 126.529967,202.121458 C126.841431,202.105849 127.106175,201.885912 127.18121,201.582256 C127.293054,200.159047 127.086355,198.728743 126.572439,197.396347 C126.147716,196.892619 125.764049,196.356255 125.425686,195.792932 C125.282696,195.245216 125.192088,194.68473 125.156694,194.118568 C125.298269,194.118568 125.468158,193.877346 125.581418,194.118568 C126.331763,195.324677 126.784801,193.46585 127.379414,193.096923 C127.484179,192.689683 127.518157,192.266836 127.478516,191.848245 C127.393572,191.182756 127.266155,190.524363 127.096265,189.875901 C126.813116,188.754929 126.416707,187.8468 127.096265,186.96705 C127.482764,186.043312 127.409145,184.99045 126.898061,184.129146 C126.586597,183.564403 126.330347,182.969862 126.133558,182.355456 C125.999063,181.803483 125.905623,181.245835 125.850409,180.681092 C126.034456,180.482439 126.204346,180.198649 126.40255,180.113511 C126.600754,180.026955 126.855588,180.255407 127.053793,180.113511 C127.33411,179.89925 127.509663,179.572891 127.535146,179.219572 C127.581866,178.514352 127.52382,177.807714 127.365257,177.119523 C126.45918,175.700571 126.614912,173.286933 126.798959,171.528852 C126.988669,170.471732 126.885319,169.381977 126.501652,168.377359 C126.405382,167.909105 126.338841,167.435175 126.303448,166.958407 C126.467674,166.955569 126.630485,166.999557 126.770644,167.087532 C126.883903,167.186858 126.997163,167.513217 127.110423,167.611125 C127.223682,167.711871 127.266155,167.201048 127.266155,167.172669 C126.926376,165.837435 127.053793,163.709007 126.275133,163.043518 C125.540361,161.753691 125.218987,160.266629 125.354899,158.786662 C125.354899,157.112299 125.79378,156.502149 126.204346,156.417012 C126.968848,156.259509 127.12458,154.99806 127.110423,152.869632 C127.096265,150.741204 127.266155,150.343897 127.988185,150.329708 C128.710215,150.315518 128.894262,149.705369 128.412908,147.491804 C128.293986,147.003684 128.128343,146.528335 127.917397,146.072852 C127.604518,145.407363 127.543641,144.651062 127.747508,143.944424 C128.067466,142.633312 127.952791,141.254091 127.421887,140.013927 C127.23784,139.531483 127.053793,138.992281 126.883903,138.43889 C126.714014,137.885499 126.671542,137.488192 126.586597,137.019938 C126.467674,136.423978 126.507315,135.806734 126.699857,135.232058 C126.940533,134.820562 127.18121,134.465824 127.421887,134.011759 C127.607349,133.563371 127.671058,133.073832 127.605933,132.592807 L127.605933,131.571162 C127.414808,130.475731 127.372335,129.357597 127.478516,128.250814 C127.535146,127.341266 127.648406,126.435974 127.818295,125.540616 C127.904656,125.170269 127.853689,124.782895 127.676721,124.448023 L127.506831,124.035108 C127.719193,123.383809 127.719193,122.14932 128.087287,121.922288 C128.166569,121.85134 128.228861,121.764784 128.271334,121.666877 C128.507763,121.14754 128.591292,120.571446 128.51201,120.006703 C128.427066,119.098573 128.327963,118.204634 128.228861,117.295085 C128.337874,116.703382 128.390256,116.098909 128.384593,115.494435 C128.459628,115.101386 128.459628,114.695565 128.384593,114.302515 C128.384593,114.122309 128.356278,113.952034 128.299649,113.791693 C128.299649,112.99708 128.228861,112.230846 128.172231,111.677454 C128.075961,110.814731 128.029241,109.949171 128.030657,109.080772 C128.030657,107.278703 129.984385,104.823916 129.602134,103.532669 C129.432245,102.92252 129.219883,102.396089 129.064151,101.758979 C128.639427,100.084616 128.667742,100.042047 129.219883,99.1481076 C129.446402,98.7550579 129.569572,98.3109259 129.573819,97.8568613 C129.562493,97.185697 129.446402,96.5202085 129.23404,95.8845179 C128.710215,94.550703 128.143917,93.4013519 127.605933,92.1384845 C127.266155,91.3722504 129.021679,89.1161167 129.106623,87.8106808 C129.276513,85.9816516 129.195815,84.1398519 128.865947,82.3335259 C128.271334,80.9145739 128.526168,81.1416062 127.945712,79.637517 C127.945712,79.637517 129.800338,75.7495884 129.602134,74.5292896 C129.750787,74.1859033 129.924924,73.8524495 130.12596,73.5360232 C130.256208,73.3373699 130.348232,73.1160134 130.394951,72.8833053 C130.743225,71.9524727 130.464323,70.9052861 129.701236,70.2724335 C129.701236,70.2724335 127.082108,65.3061013 129.95607,64.341214 L130.593156,63.1351047 L130.989564,61.4891203 C131.276961,60.1865224 131.754067,58.9350067 132.40531,57.771466 L132.745088,57.4309175 C133.073541,57.2663191 133.428893,57.1598977 133.79274,57.118748 C134.024922,57.0790174 134.247194,56.9910424 134.443983,56.8633367 C134.836144,56.5965737 135.272194,56.4035962 135.732311,56.2957559 C136.336834,56.054534 137.010729,56.054534 137.615252,56.2957559 C137.779478,56.3624466 137.949368,56.409272 138.12492,56.4376511 C138.12492,56.4376511 139.73887,56.7072519 141.90496,57.2748328 C219.601055,77.9489641 489.81018,55.2159333 671.124665,4.51819569 C675.754151,3.19857029 683.356703,1.41069071 684.970652,0.956626057 C686.584602,0.502561402 685.466163,2.29044098 683.767269,3.70939303 C682.662988,4.64590138 677.028322,5.61078877 676.688543,5.88038966 C676.348764,6.14999055 676.20719,6.40540191 676.26382,6.54729712 C677.424731,9.22911649 684.531771,6.44797048 687.363262,6.09323246 C690.194752,5.73849445 690.010705,7.00136177 688.382598,8.03577781 C685.905044,9.62642306 685.282116,11.7406616 686.386398,12.7906861 C686.612917,13.0177184 687.136743,12.9467708 687.349104,13.1879927 C687.561466,13.4292145 688.156079,14.1670696 688.056977,14.4934286 C687.80639,15.2128373 687.377419,15.8570415 686.811121,16.3664453 C685.49731,17.4874174 685.185846,19.3959079 686.074934,20.8787128 C686.721929,21.7130566 686.721929,22.8808541 686.074934,23.7166169 C685.352904,24.8943471 677.268999,28.0727997 675.966513,28.626191 C674.965581,28.9724153 674.012785,29.4491831 673.135023,30.045143 C672.922661,30.2296068 672.667827,31.080978 672.809401,31.1661151 C673.913683,31.8614016 682.337366,28.1437473 683.526592,28.6687595 C684.14952,28.9525499 694.158839,25.6747707 689.755871,28.8532233 C688.779007,29.5485098 685.621895,32.3722244 685.70684,33.1100794 C685.69693,33.2533936 685.672862,33.3967077 685.636053,33.535765 C685.466163,34.7276848 685.494478,35.905415 684.333567,36.7993547 C683.931496,37.146998 683.886192,37.7571474 684.233049,38.1601298 C684.388781,38.3417556 684.60539,38.4581097 684.843235,38.4879077 C686.258981,38.9135933 685.777627,39.5379322 685.083912,40.2757873 C683.668167,41.8366345 678.925421,43.9508731 677.53799,45.5400993 C677.396416,45.7103736 677.424731,46.0083535 677.368101,46.2495754 C677.637092,46.2495754 678.047659,46.4340391 678.146761,46.320523 C678.911263,45.4833413 679.902285,45.9232164 680.879149,45.5117203 C683.059396,44.5610224 688.609118,42.531921 689.37362,41.822445 C690.70442,40.4886301 692.898825,41.2406746 691.468923,43.539377 C691.001727,44.2914215 690.577003,43.7805988 690.138122,45.1144137 C689.717646,45.7898349 689.200899,46.4014032 688.609118,46.9306724 C687.674726,47.9523178 686.867751,49.0591004 687.943717,49.9104716 C689.543509,51.1875285 689.43025,52.7483757 689.118786,54.3801706 C688.665747,56.6930624 688.65159,56.6930624 690.03902,58.3518174 C690.240056,58.5589844 690.402867,58.7987873 690.520374,59.0612934 C690.836085,59.8970561 691.67279,60.4163926 692.559047,60.3255797 C692.988017,60.3269986 693.415572,60.3794998 693.833217,60.4802454 C695.022443,60.7370758 695.248962,61.3046566 694.328728,61.8991975 C693.145165,62.6484042 691.910635,63.3124737 690.633633,63.8871493 C689.852142,64.1709397 689.142854,64.6207475 688.552488,65.2067747 C688.141922,65.7459765 687.589781,66.9520857 688.170237,67.4203399 C689.132943,68.186574 692.530732,66.5264001 692.969613,66.5122106 C693.408494,66.4980211 694.187154,65.8736822 694.54109,66.8811381 C694.895026,67.8885941 687.122585,70.1447278 686.54213,70.4568973 C686.421791,70.5306828 686.311363,70.6214957 686.216508,70.7264982 C684.970652,71.8474703 687.320789,72.1454502 688.934739,72.5285673 C690.350484,72.8265472 694.668507,71.1096152 693.833217,72.0461236 C693.521753,72.4008616 691.001727,73.6211603 690.76105,74.458342 C690.364642,75.6786408 689.345305,75.2671447 689.345305,75.6644513 C689.325485,76.5243362 689.19382,77.3799643 688.948896,78.2043754 C688.453386,79.1976419 688.948896,79.2402104 689.642612,79.3821056 C690.09565,79.4672428 689.557667,80.3611826 689.543509,80.5456463 C689.468475,81.0777533 689.23063,81.5729676 688.863952,81.9645984 C688.481701,82.4470421 687.92956,82.7875906 687.533151,83.2558447 C687.391577,83.4119295 687.533151,83.7950465 687.533151,84.0788369 C687.75967,84.0788369 693.196132,82.4612316 693.465124,82.418663 C694.276346,82.1519 695.118714,81.9844637 695.970993,81.9220298 C696.424031,81.9220298 698.122925,81.6666184 697.131904,82.9294858 C696.749652,83.426119 696.990329,83.1990866 695.192333,84.0078893 C693.394336,84.816692 693.564226,84.6889863 688.425071,88.2647455 C687.233013,88.9898299 686.101833,89.8099842 685.04144,90.7195325 C684.404354,91.2587343 685.183014,92.2236217 686.457185,91.6276618 C690.123965,89.9674879 697.924721,87.924197 697.344265,89.2154433 C696.636393,90.7762906 695.192333,91.8546941 694.696822,93.3445938 C694.088051,95.1892314 692.842196,94.6074611 692.247583,95.0189572 C691.74924,95.5609969 691.784634,96.4052733 692.324033,96.9033255 C692.475518,97.0438018 692.658149,97.1459663 692.854937,97.2041433 C694.270683,97.5872604 693.436809,98.8075592 692.854937,99.7014989 C691.964434,101.120451 692.92714,100.836661 693.691643,101.006935 C694.201311,101.120451 698.377759,100.297459 698.632593,100.666386 C699.113947,101.361673 695.560426,103.105565 694.385358,103.50429 C693.064468,103.88457 691.863916,104.603978 690.902625,105.588731 C690.73132,106.100973 689.996548,107.207755 690.279697,107.236134 C691.395304,107.182214 692.506664,107.054508 693.606698,106.853017 C696.806282,106.569227 697.089431,105.233993 698.745853,105.434065 C700.020024,105.588731 696.409874,106.48409 695.503797,108.271969 C694.795924,109.690921 694.257941,109.364562 693.904005,109.690921 C693.238604,110.428776 692.31837,110.982168 693.904005,111.861918 C694.866711,112.40112 696.381559,113.096406 695.31975,113.593039 C694.732215,113.952034 694.409426,114.626037 694.498618,115.309971 C694.498618,115.792415 695.546269,115.309971 696.59392,115.905931 C697.272062,116.047827 697.957283,116.15141 698.646751,116.218101 C699.071474,116.290467 699.491951,116.385537 699.906764,116.501891 C700.331488,116.672165 701.775548,116.714734 701.832178,117.055282 C701.888807,117.395831 699.835977,118.60194 699.524513,118.729646 C697.967193,119.325606 695.418852,121.042538 695.517954,122.589195 C695.517954,123.04326 700.402275,120.361441 701.506556,120.999969 C702.610837,121.638498 699.751032,121.510792 699.099789,123.170966 C698.32113,125.12912 695.433009,124.802761 695.31975,125.157499 C695.156939,125.532102 694.879453,125.84569 694.526932,126.051438 C694.257941,126.250092 694.201311,126.746725 694.045579,127.101463 C694.393852,127.128423 694.743541,127.128423 695.09323,127.101463 C695.362222,127.101463 695.617056,126.846052 695.886048,126.817673 C696.155039,126.789294 696.254142,127.172411 696.239984,127.20079 C695.447167,128.08054 693.408494,129.087996 693.916746,129.953557 C694.116366,130.294105 695.900205,129.27246 697.231006,128.97448 C699.283836,128.520415 699.014845,127.881887 700.062496,127.825128 C701.110148,127.76837 702.016224,126.90281 701.648131,127.825128 C701.343745,128.326019 700.817088,128.648121 700.232385,128.690689 C699.411253,128.818395 698.98653,129.683956 699.184734,129.683956 C700.020024,129.683956 701.336667,129.939367 701.336667,130.308295 C701.336667,130.946823 702.228586,130.620464 702.582522,130.946823 C702.936459,131.273182 705.414013,129.527871 705.286596,131.173855 C704.578723,132.785785 703.274822,134.057166 701.648131,134.721235 C700.798684,135.118542 698.349444,136.140187 698.32113,137.346297 C698.32113,139.03485 705.527272,137.24697 707.183694,137.502381 C708.840116,137.757793 709.250682,138.282805 708.103929,139.744326 C707.779723,140.127443 707.386146,140.445288 706.943018,140.680834 C706.249302,141.078141 706.079413,141.447068 706.532452,142.213302 C707.197852,143.362653 706.658453,144.214025 705.626375,144.895122 C704.873198,145.418715 704.166741,146.00758 703.516914,146.654622 C703.276238,146.910034 703.26208,147.392477 703.148821,147.775594 C703.535319,147.913233 703.943054,147.98418 704.352204,147.988437 C705.147853,147.742958 705.961906,147.562751 706.787286,147.447816 C708.203031,147.447816 708.203031,147.789784 707.735835,149.151978 C707.506484,149.750776 707.386146,150.385047 707.381899,151.024994 C707.332348,152.255226 706.754724,153.404577 705.796264,154.175068 C705.399855,154.572375 704.918502,154.897315 704.550408,155.31023 C703.559387,156.431202 703.601859,156.459581 704.861872,157.325142 C705.229966,157.566363 705.668847,158.062997 705.640532,158.403545 C705.582487,158.96545 705.29509,159.479111 704.847715,159.822497 C703.630174,160.6313 709.236525,159.169779 710.510695,163.426635 C710.666427,164.845587 715.310072,165.626011 714.43231,166.264539 C713.016564,167.172669 711.402615,167.683491 710.0435,168.591621 C709.327133,169.247177 708.770745,170.057398 708.415393,170.961271 C708.779239,171.3004 709.171401,171.604056 709.590461,171.8694 C709.802823,172.053864 710.100129,172.209949 710.185074,172.45117 C710.735799,173.654442 711.966082,174.397973 713.285556,174.324187 C714.00617,174.505813 714.695638,174.786765 715.338387,175.161369 C714.800403,175.788546 714.193049,176.350451 713.526233,176.835732 C712.733415,177.261418 711.742394,177.303986 710.921262,177.715482 C710.100129,178.126979 711.813181,178.354011 711.402615,179.006729 C711.140702,179.658028 711.105308,180.377436 711.303513,181.05002 C711.303513,181.191915 712.264804,181.135157 712.719258,181.234484 C713.172296,181.33381 713.48376,181.404758 713.54039,181.617601 C713.676302,181.995042 713.645155,182.413633 713.455445,182.766952 C713.115667,183.192637 710.141186,183.618323 709.746193,184.029819 C708.910903,184.909569 709.010006,185.718372 710.156759,186.144058 C712.889147,187.165703 716.315251,188.981962 714.970293,191.223906 C714.361522,192.259741 714.885348,192.075277 715.409174,192.217172 C715.933,192.359068 716.131204,192.217172 716.470983,192.373257 C717.476162,192.642858 717.532792,192.969217 716.754132,193.792209 C716.258621,194.303032 713.257241,195.395625 712.804203,195.949016 C712.705101,196.076722 702.554208,200.801832 713.002407,197.595001 C713.172296,197.595001 714.304893,197.112557 715.225127,196.72944 C715.933,196.43146 717.164698,196.275375 717.984414,195.949016 C718.438868,195.764552 719.090111,196.317944 719.260001,196.828766 C719.42989,197.339589 719.090111,198.034876 718.283137,198.247719 C717.814525,198.331437 717.39688,198.595362 717.122225,198.985574 C716.584242,200.248441 715.267599,201.085623 715.338387,202.731607 C715.338387,203.22824 714.37568,203.909337 713.737179,204.249886 C713.451198,204.391781 713.189285,204.579083 712.959935,204.803277 C712.959935,205.072878 712.832518,205.328289 712.790045,205.59789 C712.893395,205.742623 713.02789,205.858977 713.186454,205.938439 C714.602199,206.718862 714.248263,207.697939 714.064216,208.776343 C713.922641,209.613524 717.589421,207.868213 718.806962,208.194572 C719.449711,208.289642 719.891423,208.889859 719.795152,209.532644 C719.754096,209.806502 719.621016,210.054819 719.415733,210.237863 C718.566286,211.245319 718.991009,211.245319 719.911243,211.387214 C720.477542,211.472352 721.454406,211.855469 721.468563,212.12507 C721.437417,212.956575 721.234965,213.773892 720.87395,214.523099 C720.732376,214.835268 720.180235,215.005542 719.783826,215.147437 C718.920222,215.473796 718.028302,215.700829 717.164698,216.041377 C716.955168,216.197462 716.833413,216.445779 716.839076,216.708285 C716.839076,216.864369 717.292115,217.14816 717.391217,217.105591 C718.806962,216.339357 719.826299,217.417761 720.944737,217.956962 C721.53935,218.240753 717.405374,219.702273 718.991009,220.369181 C720.222707,220.908383 720.279337,220.000253 721.015525,220.028632 C722.700261,220.028632 720.562486,221.447584 717.87257,221.561101 C716.329408,221.646238 715.734795,223.306412 715.395016,223.576013 C714.786246,224.058456 714.941978,225.193618 718.09909,223.94494 C719.514835,223.36317 724.059377,225.661872 722.544529,226.229453 C722.402955,226.229453 720.180235,227.648405 720.108032,227.7903 C719.59978,228.428829 718.692287,228.443018 719.628094,229.351147 C720.222707,229.620748 719.840456,230.344414 720.449227,230.585636 C720.704061,230.684962 722.034861,230.656583 722.26138,230.784289 C722.714419,231.0397 724.709204,228.655861 725.26276,229.904539 C725.475122,230.386982 722.133963,232.855959 721.695082,233.168128 C720.732376,233.849225 718.311451,234.927629 717.447847,236.006032 C717.178855,236.360771 719.642252,235.537778 719.939558,235.324936 C720.661588,234.755936 721.697914,234.829721 722.332168,235.49521 C722.402955,235.79319 718.495498,236.914162 717.447847,238.333114 C717.051438,238.872316 717.037281,239.510844 716.42851,239.979098 C715.81974,240.447352 715.50686,240.787901 716.5984,241.071691 C716.952336,241.171018 722.332168,239.397328 724.300054,239.652739 C726.267939,239.908151 724.427471,240.929796 724.101849,241.256155 C723.776228,241.582514 723.691283,243.895406 723.436449,244.094059 C722.912623,244.548124 721.369461,245.513011 721.113211,246.108971 C720.449227,247.641439 731.279677,248.946875 729.524153,249.769867 C409.509113,386.812256 128.582798,327.571008 121.914638,324.775672 C122.00383,324.5756 122.039223,324.354244 122.01374,324.137144 " id="Fill-3" fill="#F5F200"></path><path d="M55.6590778,337.88771 C73.2738214,337.88771 94.5764535,346.808554 102.942272,366.695445 L103.20763,367.340763 L103.519238,368.12032 L82.726484,376.213531 C77.8399036,364.704446 65.3330906,359.445984 55.4182898,359.445984 C43.1664288,359.445984 30.7587638,367.595891 30.7587638,383.187016 C30.7587638,398.663319 42.7097886,405.024586 59.7452494,411.922434 L60.9280862,412.399116 L62.8685544,413.192846 L66.8973368,414.807076 C88.0407039,423.349439 110.317958,434.015134 110.317958,463.764788 C110.317958,478.618878 104.567374,491.1343 93.6610929,499.879504 C83.9729161,507.632545 71.0270191,511.88467 57.0613139,511.88467 C29.5774861,511.88467 7.79921682,495.673065 0.920784543,470.373792 L0.716917386,469.604373 L22.7702672,461.213513 L22.9968912,462.12205 C27.7899892,482.51375 43.7601963,489.91526 57.5703034,490.068821 L58.010302,490.071268 C71.9193511,490.071268 85.9558763,482.587528 85.9558763,465.862503 C85.9558763,450.441774 74.136013,443.765732 55.7689389,436.075733 L50.8291534,434.028259 L47.8849693,432.829432 C29.0626247,425.11386 7.33150592,414.764006 7.33150592,384.831171 C7.33150592,352.571716 32.3876239,337.88771 55.6590778,337.88771  Z M390.765181,387.21222 L390.765181,464.45916 C390.765181,484.047283 403.25783,491.020768 414.957295,491.020768 C430.171557,491.020768 446.329804,479.240612 446.651447,457.385646 L446.656329,456.720292 L446.656329,387.21222 L467.973151,387.21222 L467.973151,508.129902 L450.608086,508.129902 L446.543017,491.64583 C439.546001,503.607058 426.047708,510.949061 410.722258,510.949061 C391.876205,510.949061 369.892789,499.016097 369.455005,465.481967 L369.448359,464.45916 L369.448359,387.21222 L390.765181,387.21222  Z M178.443297,384.162971 L179.225682,384.166139 C200.238211,384.166139 218.54913,395.10341 227.10182,412.758893 L227.75155,414.12803 L207.440372,421.910836 C201.868254,411.450609 190.957724,404.947692 179.11237,405.028482 C155.061896,405.028482 144.113123,426.955274 144.113123,447.322954 C144.113123,476.861049 162.398849,490.085159 180.514606,490.085159 C193.279138,490.107482 205.017052,483.143177 211.133466,471.967834 L211.420457,471.432503 L230.72599,478.916243 L230.895958,478.987112 L230.485202,479.766668 C220.102989,499.255575 201.123228,510.948919 179.693094,510.948919 C152.186604,510.948919 122.442202,491.105669 122.442202,447.549734 C122.442202,427.834047 128.546886,411.349975 140.090547,399.897585 C150.34579,389.846877 164.109604,384.206777 178.443297,384.162971  Z M296.333644,384.165289 C330.738002,384.165289 355.694972,410.811939 355.694972,447.550301 C355.694972,484.288662 330.723838,510.948069 296.333644,510.948069 C261.943449,510.948069 236.986479,484.274488 236.986479,447.550301 C236.986479,410.826113 261.943449,384.165289 296.333644,384.165289  Z M523.509916,352.742509 L523.509916,387.211653 L548.62269,387.211653 L548.62269,406.730325 L523.509916,406.730325 L523.509916,474.564477 C523.509916,485.323771 528.410661,491.489352 536.909061,491.489352 C540.380422,491.331394 543.748184,490.283393 546.691376,488.448038 L548.62269,487.207462 L548.62269,508.370289 L547.956982,508.554548 C542.85086,510.0924 537.553523,510.898886 532.220777,510.948494 L531.538805,510.942374 C520.37313,510.741502 502.56106,505.45126 502.198711,473.905767 L502.193095,472.921739 L502.193095,406.730325 L482.009393,406.730325 L482.009393,387.211653 L502.193095,387.211653 L502.193095,360.963284 L523.509916,352.742509  Z M621.441378,341.360988 C651.410988,341.360988 672.345382,361.629451 672.345382,390.657292 C672.345382,427.707475 639.456571,453.062897 607.644225,477.569312 L600.758736,482.892762 L600.758736,482.892762 L597.332832,485.564724 L676.794295,485.564724 L676.794295,508.07264 L564.656481,508.07264 L564.656481,487.377547 L565.010581,487.094072 L569.009982,483.981046 C572.316256,481.413546 575.557685,478.911568 578.745926,476.46612 L587.228571,469.961214 C624.243095,441.4943 650.534237,420.25316 650.534237,393.405582 C650.534237,371.891246 635.193207,362.223331 619.995234,362.223331 C604.514547,362.223331 588.83951,373.169985 588.527558,394.018082 L588.522823,394.652872 L567.106853,402.945933 C566.881646,401.205397 566.772583,399.454938 566.781081,397.701646 C566.781081,358.991716 595.123248,341.360988 621.441378,341.360988  Z M764.496798,343.954926 L704.894681,445.637411 L753.774649,445.637411 L753.774649,405.015443 L775.544719,396.594817 L775.544719,445.637411 L803.716917,445.637411 L803.716917,467.677593 L775.544719,467.677593 L775.544719,508.072782 L753.774649,508.072782 L753.774649,467.677593 L677.259299,467.677593 L677.259299,451.234625 L740.318848,343.954926 L764.496798,343.954926  Z M296.574432,405.029049 C274.662722,405.029049 258.756549,422.916322 258.756549,447.550301 C258.756549,475.6285 277.778802,490.326679 296.574432,490.326679 C315.129273,490.326679 333.910739,475.6285 333.910739,447.550301 C333.910739,422.916322 318.202861,405.029049 296.574432,405.029049  Z M581.738833,138.662183 C616.270668,138.662183 641.34095,165.422224 641.34095,202.300905 C641.34095,239.182421 616.270668,265.956635 581.738833,265.956635 C564.189636,265.956635 549.119139,259.493405 538.18453,247.275632 C527.802317,235.709852 522.136716,219.650993 522.136716,202.300905 C522.136716,184.952234 527.829228,169.022356 538.18453,157.426811 C549.161631,145.153761 564.2038,138.662183 581.738833,138.662183  Z M354.363415,141.68105 L354.363415,219.183117 C354.363415,238.643677 366.77108,245.574641 378.371397,245.574641 C393.515547,245.574641 409.575918,233.83616 409.895611,212.092049 L409.900463,211.430076 L409.900463,141.68105 L431.643621,141.68105 L431.643621,263.093396 L413.908875,263.093396 L409.914627,246.921147 C402.913688,258.518328 389.788483,265.689535 374.851983,265.907443 L374.150524,265.912555 C363.401464,266.112405 353.019251,262.004852 345.312618,254.504103 C337.166219,246.350706 332.799281,234.43163 332.640337,220.002531 L332.635837,219.183117 L332.635837,141.68105 L354.363415,141.68105  Z M488.355432,107.125163 L488.355432,141.680767 L513.454042,141.680767 L513.454042,161.594886 L488.355432,161.594886 L488.355432,229.331239 C488.355432,239.975726 493.171192,246.084612 501.569029,246.084612 C505.008284,245.923976 508.342678,244.883413 511.258397,243.067997 L513.496534,241.619881 L513.496534,263.334066 L512.675022,263.57502 C507.539155,265.080272 502.21774,265.858411 496.867997,265.885341 C485.692175,265.885341 467.004728,261.009357 466.632097,228.606567 L466.626438,227.616215 L466.626438,161.524017 L446.429989,161.524017 L446.429989,141.680767 L466.626438,141.680767 L466.626438,115.516023 L488.355432,107.125163  Z M257.609689,95.8846702 L329.746947,263.134925 L303.331085,263.134925 L286.192644,221.763165 L206.647613,221.763165 L189.495008,263.134925 L163.09331,263.134925 L235.230568,95.8846702 L257.609689,95.8846702  Z M581.965457,159.993677 C560.165643,159.993677 544.331706,177.808664 544.331706,202.3576 C544.331706,230.058197 562.892124,244.67143 581.40451,244.960924 L581.965457,244.965311 L581.965457,244.908616 C600.435315,244.908616 619.13038,230.281306 619.13038,202.3576 C619.13038,177.808664 603.508903,159.993677 581.965457,159.993677  Z M246.292652,125.324967 L215.330146,200.245995 L277.269323,200.245995 L246.292652,125.324967  Z " id="Shape" fill="#333333"></path></g><g stroke-width="1" transform="translate(109.283083, 212.115330)" id="g1"><path d="M122.01374,324.137144 C121.836772,322.505349 122.199203,320.859365 123.047234,319.454602 C123.160494,319.199191 123.387013,319.383655 123.471958,319.114054 C123.678656,318.600393 123.789084,318.051259 123.797579,317.496449 C123.716881,316.568454 123.541329,315.650392 123.273753,314.757871 C122.706039,312.750054 122.614016,310.635815 123.004762,308.58543 C123.273753,307.350941 123.273753,306.073885 123.004762,304.839396 C122.795231,303.430377 122.350687,302.068183 121.688119,300.809572 C121.304452,300.091583 120.995819,299.335281 120.767884,298.553439 C120.699928,298.083766 120.699928,297.605579 120.767884,297.134487 C121.206765,296.477512 121.715018,295.867362 122.282732,295.316809 C122.565881,295.062817 122.962289,295.445934 123.174651,295.006059 C123.585217,294.168877 122.948132,293.17561 123.004762,292.168154 L123.004762,291.586384 C123.047234,290.031213 122.866019,288.47746 122.466778,286.97479 C122.240259,286.350451 122.268574,285.016636 122.707455,284.817983 C123.146336,284.61933 123.118021,283.610455 122.834872,282.476712 C122.62251,281.65372 122.438464,280.816538 122.268574,279.922598 C121.969852,278.956292 121.812704,277.953093 121.801378,276.942799 C121.886323,276.673198 122.07037,277.056315 122.169472,277.056315 C122.268574,277.056315 122.410149,276.90023 122.509251,276.446166 C122.608353,275.992101 122.806557,274.530581 123.103864,274.488012 C123.613532,274.387266 123.670162,271.082527 124.151515,270.231156 C124.792848,268.387937 124.982558,266.415594 124.703656,264.4844 C124.533766,261.305947 124.533766,261.318718 125.156694,259.376173 C125.248718,259.098058 125.319505,258.814268 125.369056,258.524801 C125.538945,257.332882 125.864567,257.105849 126.275133,257.233555 C126.460596,257.281799 126.655968,257.281799 126.841431,257.233555 C127.351099,257.105849 127.464359,256.410563 127.06795,255.31797 C126.588013,254.22112 126.048614,253.15123 125.454001,252.111138 C125.059008,251.424365 124.754623,250.689348 124.547924,249.925952 C124.402102,248.925591 124.35963,247.912459 124.420507,246.903584 C124.462979,246.672295 124.685251,246.520467 124.914602,246.561617 C124.934422,246.565874 124.954243,246.571549 124.972647,246.577225 C125.227482,246.71912 125.496473,247.669818 125.666363,246.392761 C125.79378,245.664839 125.657868,244.915632 125.284111,244.278523 C125.226066,244.140885 125.179346,243.99757 125.142537,243.852837 C124.604554,242.106107 124.632869,241.256155 125.284111,240.546679 C125.970748,239.464019 126.228413,238.16284 126.006141,236.899972 C126.006141,235.736432 126.006141,234.487754 125.850409,233.437729 C125.652205,232.018777 125.850409,232.018777 126.176031,232.018777 C126.44927,231.935059 126.653137,231.705189 126.699857,231.422817 C126.672957,230.734626 126.578102,230.049272 126.416707,229.379526 C126.260976,228.67005 126.020299,228.10247 125.850409,227.407183 C125.815016,227.043931 125.815016,226.677842 125.850409,226.31459 C125.949512,226.442296 126.048614,226.59838 126.147716,226.711897 C126.45918,227.052445 126.784801,227.577457 127.110423,227.662594 C127.436044,227.747732 127.676721,227.095014 127.662563,226.782844 C127.663979,225.954176 127.535146,225.131184 127.280312,224.342247 C126.45918,223.320601 126.317605,220.99352 126.218503,219.134693 C126.105244,216.864369 125.722992,215.615692 125.128379,215.033921 C124.533766,214.452151 124.774443,213.912949 125.029277,213.402126 C125.571508,212.052703 125.724408,210.576993 125.468158,209.14527 C125.369056,208.25133 125.269954,206.874947 125.779622,206.676294 C126.28929,206.47764 126.40255,205.00193 126.161873,203.696494 C125.779622,201.709962 126.161873,202.178216 126.529967,202.121458 C126.841431,202.105849 127.106175,201.885912 127.18121,201.582256 C127.293054,200.159047 127.086355,198.728743 126.572439,197.396347 C126.147716,196.892619 125.764049,196.356255 125.425686,195.792932 C125.282696,195.245216 125.192088,194.68473 125.156694,194.118568 C125.298269,194.118568 125.468158,193.877346 125.581418,194.118568 C126.331763,195.324677 126.784801,193.46585 127.379414,193.096923 C127.484179,192.689683 127.518157,192.266836 127.478516,191.848245 C127.393572,191.182756 127.266155,190.524363 127.096265,189.875901 C126.813116,188.754929 126.416707,187.8468 127.096265,186.96705 C127.482764,186.043312 127.409145,184.99045 126.898061,184.129146 C126.586597,183.564403 126.330347,182.969862 126.133558,182.355456 C125.999063,181.803483 125.905623,181.245835 125.850409,180.681092 C126.034456,180.482439 126.204346,180.198649 126.40255,180.113511 C126.600754,180.026955 126.855588,180.255407 127.053793,180.113511 C127.33411,179.89925 127.509663,179.572891 127.535146,179.219572 C127.581866,178.514352 127.52382,177.807714 127.365257,177.119523 C126.45918,175.700571 126.614912,173.286933 126.798959,171.528852 C126.988669,170.471732 126.885319,169.381977 126.501652,168.377359 C126.405382,167.909105 126.338841,167.435175 126.303448,166.958407 C126.467674,166.955569 126.630485,166.999557 126.770644,167.087532 C126.883903,167.186858 126.997163,167.513217 127.110423,167.611125 C127.223682,167.711871 127.266155,167.201048 127.266155,167.172669 C126.926376,165.837435 127.053793,163.709007 126.275133,163.043518 C125.540361,161.753691 125.218987,160.266629 125.354899,158.786662 C125.354899,157.112299 125.79378,156.502149 126.204346,156.417012 C126.968848,156.259509 127.12458,154.99806 127.110423,152.869632 C127.096265,150.741204 127.266155,150.343897 127.988185,150.329708 C128.710215,150.315518 128.894262,149.705369 128.412908,147.491804 C128.293986,147.003684 128.128343,146.528335 127.917397,146.072852 C127.604518,145.407363 127.543641,144.651062 127.747508,143.944424 C128.067466,142.633312 127.952791,141.254091 127.421887,140.013927 C127.23784,139.531483 127.053793,138.992281 126.883903,138.43889 C126.714014,137.885499 126.671542,137.488192 126.586597,137.019938 C126.467674,136.423978 126.507315,135.806734 126.699857,135.232058 C126.940533,134.820562 127.18121,134.465824 127.421887,134.011759 C127.607349,133.563371 127.671058,133.073832 127.605933,132.592807 L127.605933,131.571162 C127.414808,130.475731 127.372335,129.357597 127.478516,128.250814 C127.535146,127.341266 127.648406,126.435974 127.818295,125.540616 C127.904656,125.170269 127.853689,124.782895 127.676721,124.448023 L127.506831,124.035108 C127.719193,123.383809 127.719193,122.14932 128.087287,121.922288 C128.166569,121.85134 128.228861,121.764784 128.271334,121.666877 C128.507763,121.14754 128.591292,120.571446 128.51201,120.006703 C128.427066,119.098573 128.327963,118.204634 128.228861,117.295085 C128.337874,116.703382 128.390256,116.098909 128.384593,115.494435 C128.459628,115.101386 128.459628,114.695565 128.384593,114.302515 C128.384593,114.122309 128.356278,113.952034 128.299649,113.791693 C128.299649,112.99708 128.228861,112.230846 128.172231,111.677454 C128.075961,110.814731 128.029241,109.949171 128.030657,109.080772 C128.030657,107.278703 129.984385,104.823916 129.602134,103.532669 C129.432245,102.92252 129.219883,102.396089 129.064151,101.758979 C128.639427,100.084616 128.667742,100.042047 129.219883,99.1481076 C129.446402,98.7550579 129.569572,98.3109259 129.573819,97.8568613 C129.562493,97.185697 129.446402,96.5202085 129.23404,95.8845179 C128.710215,94.550703 128.143917,93.4013519 127.605933,92.1384845 C127.266155,91.3722504 129.021679,89.1161167 129.106623,87.8106808 C129.276513,85.9816516 129.195815,84.1398519 128.865947,82.3335259 C128.271334,80.9145739 128.526168,81.1416062 127.945712,79.637517 C127.945712,79.637517 129.800338,75.7495884 129.602134,74.5292896 C129.750787,74.1859033 129.924924,73.8524495 130.12596,73.5360232 C130.256208,73.3373699 130.348232,73.1160134 130.394951,72.8833053 C130.743225,71.9524727 130.464323,70.9052861 129.701236,70.2724335 C129.701236,70.2724335 127.082108,65.3061013 129.95607,64.341214 L130.593156,63.1351047 L130.989564,61.4891203 C131.276961,60.1865224 131.754067,58.9350067 132.40531,57.771466 L132.745088,57.4309175 C133.073541,57.2663191 133.428893,57.1598977 133.79274,57.118748 C134.024922,57.0790174 134.247194,56.9910424 134.443983,56.8633367 C134.836144,56.5965737 135.272194,56.4035962 135.732311,56.2957559 C136.336834,56.054534 137.010729,56.054534 137.615252,56.2957559 C137.779478,56.3624466 137.949368,56.409272 138.12492,56.4376511 C138.12492,56.4376511 139.73887,56.7072519 141.90496,57.2748328 C219.601055,77.9489641 489.81018,55.2159333 671.124665,4.51819569 C675.754151,3.19857029 683.356703,1.41069071 684.970652,0.956626057 C686.584602,0.502561402 685.466163,2.29044098 683.767269,3.70939303 C682.662988,4.64590138 677.028322,5.61078877 676.688543,5.88038966 C676.348764,6.14999055 676.20719,6.40540191 676.26382,6.54729712 C677.424731,9.22911649 684.531771,6.44797048 687.363262,6.09323246 C690.194752,5.73849445 690.010705,7.00136177 688.382598,8.03577781 C685.905044,9.62642306 685.282116,11.7406616 686.386398,12.7906861 C686.612917,13.0177184 687.136743,12.9467708 687.349104,13.1879927 C687.561466,13.4292145 688.156079,14.1670696 688.056977,14.4934286 C687.80639,15.2128373 687.377419,15.8570415 686.811121,16.3664453 C685.49731,17.4874174 685.185846,19.3959079 686.074934,20.8787128 C686.721929,21.7130566 686.721929,22.8808541 686.074934,23.7166169 C685.352904,24.8943471 677.268999,28.0727997 675.966513,28.626191 C674.965581,28.9724153 674.012785,29.4491831 673.135023,30.045143 C672.922661,30.2296068 672.667827,31.080978 672.809401,31.1661151 C673.913683,31.8614016 682.337366,28.1437473 683.526592,28.6687595 C684.14952,28.9525499 694.158839,25.6747707 689.755871,28.8532233 C688.779007,29.5485098 685.621895,32.3722244 685.70684,33.1100794 C685.69693,33.2533936 685.672862,33.3967077 685.636053,33.535765 C685.466163,34.7276848 685.494478,35.905415 684.333567,36.7993547 C683.931496,37.146998 683.886192,37.7571474 684.233049,38.1601298 C684.388781,38.3417556 684.60539,38.4581097 684.843235,38.4879077 C686.258981,38.9135933 685.777627,39.5379322 685.083912,40.2757873 C683.668167,41.8366345 678.925421,43.9508731 677.53799,45.5400993 C677.396416,45.7103736 677.424731,46.0083535 677.368101,46.2495754 C677.637092,46.2495754 678.047659,46.4340391 678.146761,46.320523 C678.911263,45.4833413 679.902285,45.9232164 680.879149,45.5117203 C683.059396,44.5610224 688.609118,42.531921 689.37362,41.822445 C690.70442,40.4886301 692.898825,41.2406746 691.468923,43.539377 C691.001727,44.2914215 690.577003,43.7805988 690.138122,45.1144137 C689.717646,45.7898349 689.200899,46.4014032 688.609118,46.9306724 C687.674726,47.9523178 686.867751,49.0591004 687.943717,49.9104716 C689.543509,51.1875285 689.43025,52.7483757 689.118786,54.3801706 C688.665747,56.6930624 688.65159,56.6930624 690.03902,58.3518174 C690.240056,58.5589844 690.402867,58.7987873 690.520374,59.0612934 C690.836085,59.8970561 691.67279,60.4163926 692.559047,60.3255797 C692.988017,60.3269986 693.415572,60.3794998 693.833217,60.4802454 C695.022443,60.7370758 695.248962,61.3046566 694.328728,61.8991975 C693.145165,62.6484042 691.910635,63.3124737 690.633633,63.8871493 C689.852142,64.1709397 689.142854,64.6207475 688.552488,65.2067747 C688.141922,65.7459765 687.589781,66.9520857 688.170237,67.4203399 C689.132943,68.186574 692.530732,66.5264001 692.969613,66.5122106 C693.408494,66.4980211 694.187154,65.8736822 694.54109,66.8811381 C694.895026,67.8885941 687.122585,70.1447278 686.54213,70.4568973 C686.421791,70.5306828 686.311363,70.6214957 686.216508,70.7264982 C684.970652,71.8474703 687.320789,72.1454502 688.934739,72.5285673 C690.350484,72.8265472 694.668507,71.1096152 693.833217,72.0461236 C693.521753,72.4008616 691.001727,73.6211603 690.76105,74.458342 C690.364642,75.6786408 689.345305,75.2671447 689.345305,75.6644513 C689.325485,76.5243362 689.19382,77.3799643 688.948896,78.2043754 C688.453386,79.1976419 688.948896,79.2402104 689.642612,79.3821056 C690.09565,79.4672428 689.557667,80.3611826 689.543509,80.5456463 C689.468475,81.0777533 689.23063,81.5729676 688.863952,81.9645984 C688.481701,82.4470421 687.92956,82.7875906 687.533151,83.2558447 C687.391577,83.4119295 687.533151,83.7950465 687.533151,84.0788369 C687.75967,84.0788369 693.196132,82.4612316 693.465124,82.418663 C694.276346,82.1519 695.118714,81.9844637 695.970993,81.9220298 C696.424031,81.9220298 698.122925,81.6666184 697.131904,82.9294858 C696.749652,83.426119 696.990329,83.1990866 695.192333,84.0078893 C693.394336,84.816692 693.564226,84.6889863 688.425071,88.2647455 C687.233013,88.9898299 686.101833,89.8099842 685.04144,90.7195325 C684.404354,91.2587343 685.183014,92.2236217 686.457185,91.6276618 C690.123965,89.9674879 697.924721,87.924197 697.344265,89.2154433 C696.636393,90.7762906 695.192333,91.8546941 694.696822,93.3445938 C694.088051,95.1892314 692.842196,94.6074611 692.247583,95.0189572 C691.74924,95.5609969 691.784634,96.4052733 692.324033,96.9033255 C692.475518,97.0438018 692.658149,97.1459663 692.854937,97.2041433 C694.270683,97.5872604 693.436809,98.8075592 692.854937,99.7014989 C691.964434,101.120451 692.92714,100.836661 693.691643,101.006935 C694.201311,101.120451 698.377759,100.297459 698.632593,100.666386 C699.113947,101.361673 695.560426,103.105565 694.385358,103.50429 C693.064468,103.88457 691.863916,104.603978 690.902625,105.588731 C690.73132,106.100973 689.996548,107.207755 690.279697,107.236134 C691.395304,107.182214 692.506664,107.054508 693.606698,106.853017 C696.806282,106.569227 697.089431,105.233993 698.745853,105.434065 C700.020024,105.588731 696.409874,106.48409 695.503797,108.271969 C694.795924,109.690921 694.257941,109.364562 693.904005,109.690921 C693.238604,110.428776 692.31837,110.982168 693.904005,111.861918 C694.866711,112.40112 696.381559,113.096406 695.31975,113.593039 C694.732215,113.952034 694.409426,114.626037 694.498618,115.309971 C694.498618,115.792415 695.546269,115.309971 696.59392,115.905931 C697.272062,116.047827 697.957283,116.15141 698.646751,116.218101 C699.071474,116.290467 699.491951,116.385537 699.906764,116.501891 C700.331488,116.672165 701.775548,116.714734 701.832178,117.055282 C701.888807,117.395831 699.835977,118.60194 699.524513,118.729646 C697.967193,119.325606 695.418852,121.042538 695.517954,122.589195 C695.517954,123.04326 700.402275,120.361441 701.506556,120.999969 C702.610837,121.638498 699.751032,121.510792 699.099789,123.170966 C698.32113,125.12912 695.433009,124.802761 695.31975,125.157499 C695.156939,125.532102 694.879453,125.84569 694.526932,126.051438 C694.257941,126.250092 694.201311,126.746725 694.045579,127.101463 C694.393852,127.128423 694.743541,127.128423 695.09323,127.101463 C695.362222,127.101463 695.617056,126.846052 695.886048,126.817673 C696.155039,126.789294 696.254142,127.172411 696.239984,127.20079 C695.447167,128.08054 693.408494,129.087996 693.916746,129.953557 C694.116366,130.294105 695.900205,129.27246 697.231006,128.97448 C699.283836,128.520415 699.014845,127.881887 700.062496,127.825128 C701.110148,127.76837 702.016224,126.90281 701.648131,127.825128 C701.343745,128.326019 700.817088,128.648121 700.232385,128.690689 C699.411253,128.818395 698.98653,129.683956 699.184734,129.683956 C700.020024,129.683956 701.336667,129.939367 701.336667,130.308295 C701.336667,130.946823 702.228586,130.620464 702.582522,130.946823 C702.936459,131.273182 705.414013,129.527871 705.286596,131.173855 C704.578723,132.785785 703.274822,134.057166 701.648131,134.721235 C700.798684,135.118542 698.349444,136.140187 698.32113,137.346297 C698.32113,139.03485 705.527272,137.24697 707.183694,137.502381 C708.840116,137.757793 709.250682,138.282805 708.103929,139.744326 C707.779723,140.127443 707.386146,140.445288 706.943018,140.680834 C706.249302,141.078141 706.079413,141.447068 706.532452,142.213302 C707.197852,143.362653 706.658453,144.214025 705.626375,144.895122 C704.873198,145.418715 704.166741,146.00758 703.516914,146.654622 C703.276238,146.910034 703.26208,147.392477 703.148821,147.775594 C703.535319,147.913233 703.943054,147.98418 704.352204,147.988437 C705.147853,147.742958 705.961906,147.562751 706.787286,147.447816 C708.203031,147.447816 708.203031,147.789784 707.735835,149.151978 C707.506484,149.750776 707.386146,150.385047 707.381899,151.024994 C707.332348,152.255226 706.754724,153.404577 705.796264,154.175068 C705.399855,154.572375 704.918502,154.897315 704.550408,155.31023 C703.559387,156.431202 703.601859,156.459581 704.861872,157.325142 C705.229966,157.566363 705.668847,158.062997 705.640532,158.403545 C705.582487,158.96545 705.29509,159.479111 704.847715,159.822497 C703.630174,160.6313 709.236525,159.169779 710.510695,163.426635 C710.666427,164.845587 715.310072,165.626011 714.43231,166.264539 C713.016564,167.172669 711.402615,167.683491 710.0435,168.591621 C709.327133,169.247177 708.770745,170.057398 708.415393,170.961271 C708.779239,171.3004 709.171401,171.604056 709.590461,171.8694 C709.802823,172.053864 710.100129,172.209949 710.185074,172.45117 C710.735799,173.654442 711.966082,174.397973 713.285556,174.324187 C714.00617,174.505813 714.695638,174.786765 715.338387,175.161369 C714.800403,175.788546 714.193049,176.350451 713.526233,176.835732 C712.733415,177.261418 711.742394,177.303986 710.921262,177.715482 C710.100129,178.126979 711.813181,178.354011 711.402615,179.006729 C711.140702,179.658028 711.105308,180.377436 711.303513,181.05002 C711.303513,181.191915 712.264804,181.135157 712.719258,181.234484 C713.172296,181.33381 713.48376,181.404758 713.54039,181.617601 C713.676302,181.995042 713.645155,182.413633 713.455445,182.766952 C713.115667,183.192637 710.141186,183.618323 709.746193,184.029819 C708.910903,184.909569 709.010006,185.718372 710.156759,186.144058 C712.889147,187.165703 716.315251,188.981962 714.970293,191.223906 C714.361522,192.259741 714.885348,192.075277 715.409174,192.217172 C715.933,192.359068 716.131204,192.217172 716.470983,192.373257 C717.476162,192.642858 717.532792,192.969217 716.754132,193.792209 C716.258621,194.303032 713.257241,195.395625 712.804203,195.949016 C712.705101,196.076722 702.554208,200.801832 713.002407,197.595001 C713.172296,197.595001 714.304893,197.112557 715.225127,196.72944 C715.933,196.43146 717.164698,196.275375 717.984414,195.949016 C718.438868,195.764552 719.090111,196.317944 719.260001,196.828766 C719.42989,197.339589 719.090111,198.034876 718.283137,198.247719 C717.814525,198.331437 717.39688,198.595362 717.122225,198.985574 C716.584242,200.248441 715.267599,201.085623 715.338387,202.731607 C715.338387,203.22824 714.37568,203.909337 713.737179,204.249886 C713.451198,204.391781 713.189285,204.579083 712.959935,204.803277 C712.959935,205.072878 712.832518,205.328289 712.790045,205.59789 C712.893395,205.742623 713.02789,205.858977 713.186454,205.938439 C714.602199,206.718862 714.248263,207.697939 714.064216,208.776343 C713.922641,209.613524 717.589421,207.868213 718.806962,208.194572 C719.449711,208.289642 719.891423,208.889859 719.795152,209.532644 C719.754096,209.806502 719.621016,210.054819 719.415733,210.237863 C718.566286,211.245319 718.991009,211.245319 719.911243,211.387214 C720.477542,211.472352 721.454406,211.855469 721.468563,212.12507 C721.437417,212.956575 721.234965,213.773892 720.87395,214.523099 C720.732376,214.835268 720.180235,215.005542 719.783826,215.147437 C718.920222,215.473796 718.028302,215.700829 717.164698,216.041377 C716.955168,216.197462 716.833413,216.445779 716.839076,216.708285 C716.839076,216.864369 717.292115,217.14816 717.391217,217.105591 C718.806962,216.339357 719.826299,217.417761 720.944737,217.956962 C721.53935,218.240753 717.405374,219.702273 718.991009,220.369181 C720.222707,220.908383 720.279337,220.000253 721.015525,220.028632 C722.700261,220.028632 720.562486,221.447584 717.87257,221.561101 C716.329408,221.646238 715.734795,223.306412 715.395016,223.576013 C714.786246,224.058456 714.941978,225.193618 718.09909,223.94494 C719.514835,223.36317 724.059377,225.661872 722.544529,226.229453 C722.402955,226.229453 720.180235,227.648405 720.108032,227.7903 C719.59978,228.428829 718.692287,228.443018 719.628094,229.351147 C720.222707,229.620748 719.840456,230.344414 720.449227,230.585636 C720.704061,230.684962 722.034861,230.656583 722.26138,230.784289 C722.714419,231.0397 724.709204,228.655861 725.26276,229.904539 C725.475122,230.386982 722.133963,232.855959 721.695082,233.168128 C720.732376,233.849225 718.311451,234.927629 717.447847,236.006032 C717.178855,236.360771 719.642252,235.537778 719.939558,235.324936 C720.661588,234.755936 721.697914,234.829721 722.332168,235.49521 C722.402955,235.79319 718.495498,236.914162 717.447847,238.333114 C717.051438,238.872316 717.037281,239.510844 716.42851,239.979098 C715.81974,240.447352 715.50686,240.787901 716.5984,241.071691 C716.952336,241.171018 722.332168,239.397328 724.300054,239.652739 C726.267939,239.908151 724.427471,240.929796 724.101849,241.256155 C723.776228,241.582514 723.691283,243.895406 723.436449,244.094059 C722.912623,244.548124 721.369461,245.513011 721.113211,246.108971 C720.449227,247.641439 731.279677,248.946875 729.524153,249.769867 C409.509113,386.812256 128.582798,327.571008 121.914638,324.775672 C122.00383,324.5756 122.039223,324.354244 122.01374,324.137144 " fill="#F5F200" id="path1"></path><path d="M55.6590778,337.88771 C73.2738214,337.88771 94.5764535,346.808554 102.942272,366.695445 L103.20763,367.340763 L103.519238,368.12032 L82.726484,376.213531 C77.8399036,364.704446 65.3330906,359.445984 55.4182898,359.445984 C43.1664288,359.445984 30.7587638,367.595891 30.7587638,383.187016 C30.7587638,398.663319 42.7097886,405.024586 59.7452494,411.922434 L60.9280862,412.399116 L62.8685544,413.192846 L66.8973368,414.807076 C88.0407039,423.349439 110.317958,434.015134 110.317958,463.764788 C110.317958,478.618878 104.567374,491.1343 93.6610929,499.879504 C83.9729161,507.632545 71.0270191,511.88467 57.0613139,511.88467 C29.5774861,511.88467 7.79921682,495.673065 0.920784543,470.373792 L0.716917386,469.604373 L22.7702672,461.213513 L22.9968912,462.12205 C27.7899892,482.51375 43.7601963,489.91526 57.5703034,490.068821 L58.010302,490.071268 C71.9193511,490.071268 85.9558763,482.587528 85.9558763,465.862503 C85.9558763,450.441774 74.136013,443.765732 55.7689389,436.075733 L50.8291534,434.028259 L47.8849693,432.829432 C29.0626247,425.11386 7.33150592,414.764006 7.33150592,384.831171 C7.33150592,352.571716 32.3876239,337.88771 55.6590778,337.88771  Z M390.765181,387.21222 L390.765181,464.45916 C390.765181,484.047283 403.25783,491.020768 414.957295,491.020768 C430.171557,491.020768 446.329804,479.240612 446.651447,457.385646 L446.656329,456.720292 L446.656329,387.21222 L467.973151,387.21222 L467.973151,508.129902 L450.608086,508.129902 L446.543017,491.64583 C439.546001,503.607058 426.047708,510.949061 410.722258,510.949061 C391.876205,510.949061 369.892789,499.016097 369.455005,465.481967 L369.448359,464.45916 L369.448359,387.21222 L390.765181,387.21222  Z M178.443297,384.162971 L179.225682,384.166139 C200.238211,384.166139 218.54913,395.10341 227.10182,412.758893 L227.75155,414.12803 L207.440372,421.910836 C201.868254,411.450609 190.957724,404.947692 179.11237,405.028482 C155.061896,405.028482 144.113123,426.955274 144.113123,447.322954 C144.113123,476.861049 162.398849,490.085159 180.514606,490.085159 C193.279138,490.107482 205.017052,483.143177 211.133466,471.967834 L211.420457,471.432503 L230.72599,478.916243 L230.895958,478.987112 L230.485202,479.766668 C220.102989,499.255575 201.123228,510.948919 179.693094,510.948919 C152.186604,510.948919 122.442202,491.105669 122.442202,447.549734 C122.442202,427.834047 128.546886,411.349975 140.090547,399.897585 C150.34579,389.846877 164.109604,384.206777 178.443297,384.162971  Z M296.333644,384.165289 C330.738002,384.165289 355.694972,410.811939 355.694972,447.550301 C355.694972,484.288662 330.723838,510.948069 296.333644,510.948069 C261.943449,510.948069 236.986479,484.274488 236.986479,447.550301 C236.986479,410.826113 261.943449,384.165289 296.333644,384.165289  Z M523.509916,352.742509 L523.509916,387.211653 L548.62269,387.211653 L548.62269,406.730325 L523.509916,406.730325 L523.509916,474.564477 C523.509916,485.323771 528.410661,491.489352 536.909061,491.489352 C540.380422,491.331394 543.748184,490.283393 546.691376,488.448038 L548.62269,487.207462 L548.62269,508.370289 L547.956982,508.554548 C542.85086,510.0924 537.553523,510.898886 532.220777,510.948494 L531.538805,510.942374 C520.37313,510.741502 502.56106,505.45126 502.198711,473.905767 L502.193095,472.921739 L502.193095,406.730325 L482.009393,406.730325 L482.009393,387.211653 L502.193095,387.211653 L502.193095,360.963284 L523.509916,352.742509  Z M621.441378,341.360988 C651.410988,341.360988 672.345382,361.629451 672.345382,390.657292 C672.345382,427.707475 639.456571,453.062897 607.644225,477.569312 L600.758736,482.892762 L600.758736,482.892762 L597.332832,485.564724 L676.794295,485.564724 L676.794295,508.07264 L564.656481,508.07264 L564.656481,487.377547 L565.010581,487.094072 L569.009982,483.981046 C572.316256,481.413546 575.557685,478.911568 578.745926,476.46612 L587.228571,469.961214 C624.243095,441.4943 650.534237,420.25316 650.534237,393.405582 C650.534237,371.891246 635.193207,362.223331 619.995234,362.223331 C604.514547,362.223331 588.83951,373.169985 588.527558,394.018082 L588.522823,394.652872 L567.106853,402.945933 C566.881646,401.205397 566.772583,399.454938 566.781081,397.701646 C566.781081,358.991716 595.123248,341.360988 621.441378,341.360988  Z M764.496798,343.954926 L704.894681,445.637411 L753.774649,445.637411 L753.774649,405.015443 L775.544719,396.594817 L775.544719,445.637411 L803.716917,445.637411 L803.716917,467.677593 L775.544719,467.677593 L775.544719,508.072782 L753.774649,508.072782 L753.774649,467.677593 L677.259299,467.677593 L677.259299,451.234625 L740.318848,343.954926 L764.496798,343.954926  Z M296.574432,405.029049 C274.662722,405.029049 258.756549,422.916322 258.756549,447.550301 C258.756549,475.6285 277.778802,490.326679 296.574432,490.326679 C315.129273,490.326679 333.910739,475.6285 333.910739,447.550301 C333.910739,422.916322 318.202861,405.029049 296.574432,405.029049  Z M581.738833,138.662183 C616.270668,138.662183 641.34095,165.422224 641.34095,202.300905 C641.34095,239.182421 616.270668,265.956635 581.738833,265.956635 C564.189636,265.956635 549.119139,259.493405 538.18453,247.275632 C527.802317,235.709852 522.136716,219.650993 522.136716,202.300905 C522.136716,184.952234 527.829228,169.022356 538.18453,157.426811 C549.161631,145.153761 564.2038,138.662183 581.738833,138.662183  Z M354.363415,141.68105 L354.363415,219.183117 C354.363415,238.643677 366.77108,245.574641 378.371397,245.574641 C393.515547,245.574641 409.575918,233.83616 409.895611,212.092049 L409.900463,211.430076 L409.900463,141.68105 L431.643621,141.68105 L431.643621,263.093396 L413.908875,263.093396 L409.914627,246.921147 C402.913688,258.518328 389.788483,265.689535 374.851983,265.907443 L374.150524,265.912555 C363.401464,266.112405 353.019251,262.004852 345.312618,254.504103 C337.166219,246.350706 332.799281,234.43163 332.640337,220.002531 L332.635837,219.183117 L332.635837,141.68105 L354.363415,141.68105  Z M488.355432,107.125163 L488.355432,141.680767 L513.454042,141.680767 L513.454042,161.594886 L488.355432,161.594886 L488.355432,229.331239 C488.355432,239.975726 493.171192,246.084612 501.569029,246.084612 C505.008284,245.923976 508.342678,244.883413 511.258397,243.067997 L513.496534,241.619881 L513.496534,263.334066 L512.675022,263.57502 C507.539155,265.080272 502.21774,265.858411 496.867997,265.885341 C485.692175,265.885341 467.004728,261.009357 466.632097,228.606567 L466.626438,227.616215 L466.626438,161.524017 L446.429989,161.524017 L446.429989,141.680767 L466.626438,141.680767 L466.626438,115.516023 L488.355432,107.125163  Z M257.609689,95.8846702 L329.746947,263.134925 L303.331085,263.134925 L286.192644,221.763165 L206.647613,221.763165 L189.495008,263.134925 L163.09331,263.134925 L235.230568,95.8846702 L257.609689,95.8846702  Z M581.965457,159.993677 C560.165643,159.993677 544.331706,177.808664 544.331706,202.3576 C544.331706,230.058197 562.892124,244.67143 581.40451,244.960924 L581.965457,244.965311 L581.965457,244.908616 C600.435315,244.908616 619.13038,230.281306 619.13038,202.3576 C619.13038,177.808664 603.508903,159.993677 581.965457,159.993677  Z M246.292652,125.324967 L215.330146,200.245995 L277.269323,200.245995 L246.292652,125.324967  Z " fill="#333333" id="path1"></path></g></g></g></g></g></svg>