<?xml version="1.0" encoding="utf-8"?>
<!-- Generator: Adobe Illustrator 21.0.0, SVG Export Plug-In . SVG Version: 6.00 Build 0)  -->
<svg version="1.1" id="Ebene_1" xmlns="http://www.w3.org/2000/svg" xmlns:xlink="http://www.w3.org/1999/xlink" x="0px" y="0px"
	 viewBox="0 0 24 24" style="enable-background:new 0 0 24 24;" xml:space="preserve">
<g>
	<path class="st2" d="M12.7,6.3c-0.1-0.1-0.2-0.2-0.3-0.2c-0.2-0.1-0.5-0.1-0.8,0c-0.1,0.1-0.2,0.1-0.3,0.2l-6,6
		c-0.4,0.4-0.4,1,0,1.4s1,0.4,1.4,0L11,9.4V21c0,0.6,0.4,1,1,1s1-0.4,1-1V9.4l4.3,4.3c0.2,0.2,0.5,0.3,0.7,0.3s0.5-0.1,0.7-0.3
		c0.4-0.4,0.4-1,0-1.4L12.7,6.3z"/>
	<path class="st2" d="M6,4h12c0.6,0,1-0.4,1-1s-0.4-1-1-1H6C5.4,2,5,2.4,5,3S5.4,4,6,4z"/>
</g>
</svg>
