<?xml version="1.0" encoding="utf-8"?>
<!-- Generator: Adobe Illustrator 21.0.0, SVG Export Plug-In . SVG Version: 6.00 Build 0)  -->
<svg version="1.1" xmlns="http://www.w3.org/2000/svg" xmlns:xlink="http://www.w3.org/1999/xlink" x="0px" y="0px"
	 viewBox="0 0 24 24" style="enable-background:new 0 0 24 24;" xml:space="preserve">
<path class="st2" d="M18,2H6C3.8,2,2,3.8,2,6v8c0,2.2,1.8,4,4,4v3c0,0.4,0.2,0.8,0.6,0.9C6.7,22,6.9,22,7,22c0.3,0,0.5-0.1,0.7-0.3
	l3.7-3.7H18c2.2,0,4-1.8,4-4V6C22,3.8,20.2,2,18,2z M20,14c0,1.1-0.9,2-2,2h-7c-0.3,0-0.5,0.1-0.7,0.3L8,18.6V17c0-0.6-0.4-1-1-1H6
	c-1.1,0-2-0.9-2-2V6c0-1.1,0.9-2,2-2h12c1.1,0,2,0.9,2,2V14z"/>
</svg>
