<?xml version="1.0" encoding="utf-8"?>
<!-- Generator: Adobe Illustrator 16.0.4, SVG Export Plug-In . SVG Version: 6.00 Build 0)  -->
<!DOCTYPE svg PUBLIC "-//W3C//DTD SVG 1.1//EN" "http://www.w3.org/Graphics/SVG/1.1/DTD/svg11.dtd">
<svg version="1.1" id="Ebene_1" xmlns="http://www.w3.org/2000/svg" xmlns:xlink="http://www.w3.org/1999/xlink" x="0px" y="0px"
	 width="16px" height="16px" viewBox="0 0 16 16" style="enable-background:new 0 0 16 16;" xml:space="preserve">
<g>
	<path d="M3.5,16c-0.1,0-0.1,0-0.2,0C3.1,15.9,3,15.7,3,15.5v-2.7L2.3,12H2c-0.1,0-0.2,0-0.2-0.1l-1-0.5c-0.1,0-0.2-0.1-0.2-0.2
		l-0.5-1C0,10.2,0,10.1,0,10V2c0-0.1,0-0.2,0.1-0.2l0.5-1c0-0.1,0.1-0.2,0.2-0.2l1-0.5C1.8,0,1.9,0,2,0h12c0.1,0,0.2,0,0.2,0.1
		l1,0.5c0.1,0,0.2,0.1,0.2,0.2l0.5,1C16,1.8,16,1.9,16,2v8c0,0.1,0,0.2-0.1,0.2l-0.5,1c0,0.1-0.1,0.2-0.2,0.2l-1,0.5
		C14.2,12,14.1,12,14,12H7.7l-3.9,3.9C3.8,15.9,3.6,16,3.5,16z M2.1,11h0.4c0.1,0,0.3,0.1,0.4,0.2l1,1.1C4,12.3,4,12.4,4,12.6v1.7
		l3.1-3.1C7.2,11.1,7.4,11,7.5,11h6.4l0.7-0.4L15,9.9V2.1l-0.4-0.7L13.9,1H2.1L1.4,1.4L1,2.1v7.8l0.4,0.7L2.1,11z"/>
	<rect x="3" y="7" width="10" height="1"/>
	<rect x="3" y="4" width="10" height="1"/>
</g>
</svg>
