<?xml version="1.0" encoding="utf-8"?>
<!-- Generator: Adobe Illustrator 16.0.0, SVG Export Plug-In . SVG Version: 6.00 Build 0)  -->
<!DOCTYPE svg PUBLIC "-//W3C//DTD SVG 1.1//EN" "http://www.w3.org/Graphics/SVG/1.1/DTD/svg11.dtd">
<svg version="1.1" id="Ebene_1" xmlns="http://www.w3.org/2000/svg" xmlns:xlink="http://www.w3.org/1999/xlink" x="0px" y="0px"
	 width="40px" height="40px" viewBox="0 0 40 40" enable-background="new 0 0 40 40" xml:space="preserve">
<g>
	<rect x="25.236" y="27.961" fill="none" width="7.383" height="2.217"/>
	<circle fill="none" cx="36.31" cy="26.486" r="1.66"/>
	<path fill="#949494" d="M37.715,20.562c-0.893-1.581-2.104-2.934-3.908-2.934c-1.024,0-2.453,0-3.5,0
		c-0.165,0.506-0.362,0.997-0.582,1.476h4.082c0.729,0,1.275,0.073,2.239,1.778c0.102,0.18,0.637,1.18,1.1,2.651h-10.63
		c-1.016,0.941-2.168,1.73-3.429,2.339c0.076,0.191,0.12,0.397,0.12,0.613c0,0.918-0.742,1.661-1.66,1.661
		c-0.753,0-1.381-0.503-1.585-1.19c-0.655,0.14-1.329,0.225-2.014,0.27c-0.056,0.503-0.092,1.018-0.092,1.549v3.617
		c0,0.813,0.661,1.476,1.476,1.476h0.738c0.815,0,1.476-0.662,1.476-1.476v-0.738H36.31v0.738c0,0.813,0.66,1.476,1.477,1.476h0.738
		c0.815,0,1.476-0.662,1.476-1.476v-3.617C40,24.914,38.354,21.694,37.715,20.562z M32.619,30.178h-7.383v-2.217h7.383V30.178z
		 M36.31,28.146c-0.917,0-1.661-0.743-1.661-1.661c0-0.917,0.744-1.659,1.661-1.659c0.916,0,1.662,0.742,1.662,1.659
		C37.972,27.403,37.226,28.146,36.31,28.146z"/>
	<path fill="#949494" d="M0.33,35.834c-0.68,1.18-0.276,2.688,0.904,3.369c1.18,0.683,2.688,0.277,3.369-0.902l6.834-11.837
		c-1.538-0.654-2.93-1.58-4.136-2.703L0.33,35.834z"/>
	<path fill="#949494" d="M17.022,0.465c-7.085,0-12.828,5.743-12.828,12.828s5.743,12.828,12.828,12.828
		c0.37,0,0.733-0.025,1.095-0.057c0.667-0.056,1.317-0.168,1.952-0.323c0.76-0.186,1.493-0.434,2.193-0.748
		c0.879-0.394,1.701-0.887,2.463-1.46c1.553-1.171,2.832-2.682,3.723-4.429c0.242-0.476,0.452-0.969,0.635-1.476
		c0.487-1.356,0.767-2.811,0.767-4.335C29.85,6.208,24.106,0.465,17.022,0.465z M20.775,23.372
		c-0.671,0.251-1.372,0.435-2.098,0.548c-0.541,0.084-1.091,0.141-1.655,0.141c-5.938,0-10.768-4.83-10.768-10.768
		S11.085,2.525,17.022,2.525s10.767,4.831,10.767,10.768c0,1.542-0.331,3.007-0.918,4.335c-0.228,0.515-0.496,1.007-0.798,1.476
		C24.823,21.044,22.968,22.554,20.775,23.372z"/>
	<g>
		<path fill="#FF7500" d="M19.816,9.208c-0.292-0.1-0.569-0.179-0.828-0.236c-0.261-0.057-0.607-0.084-1.039-0.084
			c-0.699,0-1.264,0.24-1.696,0.718c-0.431,0.481-0.736,1.079-0.914,1.797h4.026l-0.264,1.4H15.09
			c-0.013,0.123-0.025,0.244-0.038,0.359c-0.013,0.118-0.019,0.23-0.019,0.341c0,0.11,0,0.228,0,0.349
			c0,0.111,0.006,0.229,0.021,0.351h3.745l-0.266,1.4h-3.308c0.139,1.047,0.458,1.822,0.953,2.326
			c0.495,0.505,1.125,0.758,1.887,0.758c0.599,0,1.183-0.114,1.756-0.34v1.588c-0.265,0.089-0.566,0.155-0.899,0.199
			c-0.333,0.046-0.665,0.067-0.993,0.067c-0.706,0-1.321-0.114-1.845-0.339c-0.523-0.225-0.967-0.542-1.334-0.946
			c-0.364-0.407-0.655-0.893-0.87-1.455c-0.213-0.563-0.365-1.182-0.454-1.858h-1.551l0.265-1.4h1.174
			c-0.014-0.123-0.019-0.24-0.019-0.351c0-0.121,0-0.239,0-0.349c0-0.111,0.005-0.224,0.019-0.341
			c0.011-0.115,0.025-0.237,0.037-0.359H11.93l0.265-1.4h1.344c0.126-0.516,0.302-1.017,0.529-1.504
			c0.228-0.484,0.52-0.914,0.88-1.285c0.358-0.373,0.785-0.671,1.277-0.899c0.491-0.228,1.072-0.341,1.74-0.341
			c0.441,0,0.861,0.036,1.258,0.105c0.397,0.069,0.723,0.154,0.974,0.254L19.816,9.208z"/>
	</g>
</g>
</svg>
