<svg xmlns="http://www.w3.org/2000/svg" width="32" height="40" viewBox="0 0 32 40"><path fill="#FF7500" d="M6 23h20v2h-20z"/><path fill="#949494" d="M6 28h20v2h-20zM6 33h16v2h-16zM29 40h-26c-1.7 0-3-1.3-3-3v-34c0-1.7 1.3-3 3-3h26c1.7 0 3 1.3 3 3v34c0 1.7-1.3 3-3 3zm-26-38c-.6 0-1 .4-1 1v34c0 .6.4 1 1 1h26c.6 0 1-.4 1-1v-34c0-.6-.4-1-1-1h-26zM23.9 7.7c-.8-1.4-1.9-2.7-3.5-2.7h-8.8c-1.6 0-2.7 1.3-3.5 2.7-.6 1-2.1 4-2.1 7.5v3.3c0 .8.7 1.5 1.5 1.5s1.5-.7 1.5-1.5v-.5h14v.5c0 .8.7 1.5 1.5 1.5s1.5-.7 1.5-1.5v-3.3c0-3.5-1.5-6.4-2.1-7.5zm-14.3.9c.9-1.5 1.4-1.6 2-1.6h8.8c.7 0 1.2.1 2 1.6.1.1.3.6.6 1.4h-14c.3-.8.5-1.3.6-1.4zm-.1 6.4c-.8 0-1.5-.7-1.5-1.5s.7-1.5 1.5-1.5 1.5.7 1.5 1.5-.7 1.5-1.5 1.5zm9.5 1h-6v-2h6v2zm3.5-1c-.8 0-1.5-.7-1.5-1.5s.7-1.5 1.5-1.5 1.5.7 1.5 1.5-.7 1.5-1.5 1.5z"/></svg>