<svg xmlns="http://www.w3.org/2000/svg" width="41" height="40" viewBox="0 0 41 40"><path d="M30 28.3v8.7c0 .6-.4 1-1 1h-26c-.6 0-1-.4-1-1v-34c0-.6.4-1 1-1h26c.6 0 1 .4 1 1v14.1l2-2v-12.1c0-1.7-1.3-3-3-3h-26c-1.7 0-3 1.3-3 3v34c0 1.7 1.3 3 3 3h26c1.7 0 3-1.3 3-3v-10.7l-2 2zM24.2 23h-18.2v2h16.2zM20.1 28h-14.1v2h13.1z" fill="#949494"/><path fill="#FF7500" d="M17.9 33h-11.9v2h13.9zM19.8 32.4l.6.6 4.8-2.4-3-3.1z"/><path d="M23.9 7.7c-.8-1.4-1.9-2.7-3.5-2.7h-8.8s-2.7 1.3-3.5 2.7c-.6 1-2.1 4-2.1 7.5v3.3c0 .8.7 1.5 1.5 1.5s1.5-.7 1.5-1.5v-.5h14v.5c0 .8.7 1.5 1.5 1.5s1.5-.7 1.5-1.5v-3.3c0-3.5-1.5-6.4-2.1-7.5zm-14.3.9c.9-1.5 1.4-1.6 2-1.6h8.8c.7 0 1.2.1 2 1.6.1.1.3.6.6 1.4h-14c.3-.8.5-1.3.6-1.4zm-.1 6.4c-.8 0-1.5-.7-1.5-1.5s.7-1.5 1.5-1.5 1.5.7 1.5 1.5-.7 1.5-1.5 1.5zm9.5 1h-6v-2h6v2zm3.5-1c-.8 0-1.5-.7-1.5-1.5s.7-1.5 1.5-1.5 1.5.7 1.5 1.5-.7 1.5-1.5 1.5zM39.8 14.9c.6.6 0 1.2-.6 1.8l-12.8 12.7-3-3 12.8-12.9c.6-.6 1.2-1.2 1.8-.6l1.8 2z" fill="#949494"/></svg>