<?xml version="1.0" encoding="utf-8"?>
<!-- Generator: Adobe Illustrator 16.0.0, SVG Export Plug-In . SVG Version: 6.00 Build 0)  -->
<!DOCTYPE svg PUBLIC "-//W3C//DTD SVG 1.1//EN" "http://www.w3.org/Graphics/SVG/1.1/DTD/svg11.dtd">
<svg version="1.1" id="Ebene_1" xmlns="http://www.w3.org/2000/svg" xmlns:xlink="http://www.w3.org/1999/xlink" x="0px" y="0px"
	 width="40px" height="40px" viewBox="0 0 40 40" enable-background="new 0 0 40 40" xml:space="preserve">
<g>
	<path fill="#949494" d="M30,26.499v10.679C30,37.726,29.595,38,29.046,38H3.154C2.604,38,2,37.726,2,37.178V3.319
		C2,2.77,2.604,2,3.154,2h25.892C29.595,2,30,2.77,30,3.319V15.41l2-2.008V3.319C32,1.672,30.693,0,29.046,0H3.154
		C1.507,0,0,1.672,0,3.319v33.859C0,38.825,1.507,40,3.154,40h25.892C30.693,40,32,38.825,32,37.178V24.495L30,26.499z"/>
	<g>
		<path fill="#949494" d="M39.704,12.857c-0.603-0.606-1.177-1.054-1.777-1.661c-0.602-0.606-1.202,0-1.804,0.607L23.422,24.609
			l3.006,3.033c0,0,12.1-12.201,12.702-12.808c0.421-0.422,0.856-0.747,0.87-1.169C40.006,13.482,39.887,13.042,39.704,12.857z"/>
		<polygon fill="#FF7500" points="19.883,30.604 20.486,31.21 25.298,28.784 22.289,25.752 		"/>
	</g>
	<rect x="6" y="8" fill="#949494" width="20" height="2"/>
	<rect x="6" y="13" fill="#949494" width="20" height="2"/>
	<rect x="6" y="18" fill="#949494" width="17" height="2"/>
	<path fill="none" stroke="#FF7500" stroke-width="1.3" stroke-linejoin="round" stroke-miterlimit="10" d="M6.72,31.035
		c0,0,3.271-6.9,5.092-6.648c2.561,0.355-3.91,9.722-2.388,10.449c1.202,0.573,3.754-4.291,5.848-4.774
		c0.898-0.208,1.781,0.57,1.781,0.57"/>
</g>
</svg>
