<?xml version="1.0" encoding="utf-8"?>
<!-- Generator: Adobe Illustrator 16.0.1, SVG Export Plug-In . SVG Version: 6.00 Build 0)  -->
<!DOCTYPE svg PUBLIC "-//W3C//DTD SVG 1.1//EN" "http://www.w3.org/Graphics/SVG/1.1/DTD/svg11.dtd">
<svg version="1.1" id="Ebene_1" xmlns="http://www.w3.org/2000/svg" xmlns:xlink="http://www.w3.org/1999/xlink" x="0px" y="0px"
	 width="16px" height="21px" viewBox="0 0 16 21" style="enable-background:new 0 0 16 21;" xml:space="preserve">
<g>
	<path d="M6,18c0.5,0,1-0.5,1-1V6c0-0.5-0.5-1-1-1C5.5,5,5,5.5,5,6v11C5,17.5,5.5,18,6,18z"/>
	<path d="M10,18c0.5,0,1-0.5,1-1V6c0-0.5-0.5-1-1-1C9.5,5,9,5.5,9,6v11C9,17.5,9.5,18,10,18z"/>
	<path d="M15,2h-2h-2V0H5v2H3H1C0.5,2,0,2.5,0,3s0,1,0,1h1v15c0,1.1,0.9,2,2,2h10c1.1,0,2-0.9,2-2V4h1c0,0,0-0.5,0-1S15.5,2,15,2z
		 M13,19H3V4h10V19z"/>
</g>
</svg>
