<?xml version="1.0" encoding="utf-8"?>
<!-- Generator: Adobe Illustrator 16.0.4, SVG Export Plug-In . SVG Version: 6.00 Build 0)  -->
<!DOCTYPE svg PUBLIC "-//W3C//DTD SVG 1.1//EN" "http://www.w3.org/Graphics/SVG/1.1/DTD/svg11.dtd">
<svg version="1.1" id="Ebene_1" xmlns="http://www.w3.org/2000/svg" xmlns:xlink="http://www.w3.org/1999/xlink" x="0px" y="0px"
	 width="22px" height="22px" viewBox="0 0 22 22" style="enable-background:new 0 0 22 22;" xml:space="preserve">
<g>
	<polygon points="6.6,17.6 11,16.5 7.7,13.2 	"/>
	<path d="M16,19.3L14.9,20H2.7L2,19.3V2.7L2.7,2h12.3L16,2.7v0.6l1.6-1.9L15.9,0c0,0-10.1,0-14.1,0C1.1,0,0,1.1,0,1.7
		c0,4,0,14.5,0,18.5C0,20.9,1.1,22,1.7,22c4,0,11,0,14.1,0c0.6,0,2.1-1.2,2.1-1.7c0-1.7,0-8.2,0-8.2l-2,2.2V19.3z"/>
	<rect x="13.1" y="1.8" transform="matrix(-0.7069 -0.7073 0.7073 -0.7069 20.0626 25.9133)" width="4.7" height="14"/>
</g>
</svg>
