<?xml version="1.0" encoding="UTF-8" standalone="no"?>
<svg width="93px" height="60px" viewBox="0 0 93 60" version="1.1" xmlns="http://www.w3.org/2000/svg" xmlns:xlink="http://www.w3.org/1999/xlink">
    <title>favorits</title>
    <g id="Globals" stroke="none" stroke-width="1" fill="none" fill-rule="evenodd">
        <g id="Icon" transform="translate(-90.000000, -2125.000000)" fill="#000000">
            <path d="M171.909392,2157.81238 C171.909392,2159.55238 170.252141,2161.09346 168.594891,2161.09346 L168.358998,2161.09346 C166.522174,2161.09346 165.044498,2159.63038 165.044498,2157.81238 C165.044498,2157.73392 165.052345,2157.65638 165.052345,2157.57792 C165.044498,2155.93762 166.601574,2154.29685 168.358998,2154.29685 C168.437937,2154.29685 168.516414,2154.30608 168.594891,2154.30562 C170.252141,2154.29685 171.919086,2156.17023 171.909392,2157.57792 L171.909392,2157.81238 Z M169.068985,2165.54685 L168.121721,2165.54685 C167.152298,2165.54685 166.212882,2165.82654 165.517668,2166.48377 C164.82153,2167.14977 164.33405,2168.587 164.33405,2169.53131 L164.33405,2175.62454 C162.439983,2174.19331 160.309562,2171.149 160.309562,2166.24977 L160.309562,2160.39054 C160.309562,2158.70315 160.620701,2157.127 161.019549,2155.70315 L156.285075,2154.29685 C155.574627,2154.06238 154.864641,2153.479 154.864641,2152.49592 L154.864641,2151.72238 C154.864641,2150.63869 155.900538,2149.843 156.995523,2149.843 L157.713357,2149.843 C158.807881,2149.843 159.599576,2150.71623 159.599576,2151.79992 L159.599576,2152.45762 L159.599576,2152.65608 L161.913264,2153.18592 C163.444028,2149.99669 166.228116,2147.73423 168.358998,2147.74069 C168.437475,2147.74069 168.752768,2147.73423 168.832169,2147.73423 C171.199405,2147.73423 173.645119,2149.83562 175.223893,2153.125 L177.354313,2152.65608 L177.354313,2152.45762 L177.354313,2151.71869 C177.354313,2150.635 178.39021,2149.843 179.484734,2149.843 L180.195182,2149.843 C181.141984,2149.843 182.325603,2150.63869 182.325603,2151.72238 L182.325603,2152.42162 C182.325603,2153.40377 181.615155,2154.06238 180.905168,2154.29685 L176.170233,2155.70315 C176.570005,2157.127 176.881143,2158.70315 176.881143,2160.39054 L176.881143,2166.24977 C176.881143,2171.149 174.750261,2174.19331 172.856656,2175.62454 L172.856656,2169.53131 C172.856656,2168.587 172.369175,2167.14977 171.672576,2166.48377 C170.9769,2165.82654 170.037484,2165.54685 169.068985,2165.54685 Z M171.436083,2182.65571 C171.436083,2183.93325 170.358639,2184.99986 169.068846,2184.99986 L168.121582,2184.99986 C166.831327,2184.99986 165.753884,2183.93325 165.753884,2182.65571 L165.753884,2169.53094 C165.753884,2168.25432 166.831327,2167.18725 168.121582,2167.18725 L169.068846,2167.18725 C170.358639,2167.18725 171.436083,2168.25432 171.436083,2169.53094 L171.436083,2182.65571 Z M157.078663,2136.01554 C157.305785,2136.58092 157.042656,2137.48092 156.605493,2137.89031 L149.503321,2142.57815 L151.870557,2152.65631 C152.003507,2153.26738 151.928723,2153.96431 151.397387,2154.29662 C151.154108,2154.44385 150.960685,2154.53108 150.686939,2154.53108 C150.366106,2154.53108 149.768296,2154.50615 149.503321,2154.29662 L142.164794,2148.20246 L138.766739,2151.25 C137.562347,2149.36231 135.807231,2147.17877 134.032265,2146.32815 L134.825807,2142.57815 L127.959989,2137.89031 C127.523749,2137.48092 127.260159,2136.58092 127.486819,2136.01554 C127.713941,2135.45846 128.060163,2134.60923 128.670437,2134.60923 L137.429859,2134.60923 L140.743898,2125.93738 C140.970559,2125.38031 141.562368,2125 142.164794,2125 C142.243271,2125 142.322672,2125.00231 142.401149,2125.00831 C142.915866,2125.04569 143.387651,2125.21969 143.585229,2125.70292 L146.899268,2134.60923 L155.657767,2134.60923 C156.268041,2134.60923 156.860312,2135.45846 157.078663,2136.01554 Z M146.106004,2159.21846 C146.106004,2160.70462 143.225435,2161.56354 140.661082,2161.79662 C141.58388,2164.91523 142.164148,2168.80554 142.164148,2173 L142.164148,2182.23077 C142.164148,2183.75523 141.016999,2185 139.477464,2185 L137.554315,2185 C136.014318,2185 134.778074,2183.75523 134.778074,2182.23077 L134.778074,2180.38462 L101.540741,2180.38462 L101.540741,2182.23077 C101.540741,2183.75523 100.772589,2185 99.2325926,2185 L96.6280782,2185 C95.0885434,2185 94.1546667,2183.29369 94.1546667,2181.76923 L94.1546667,2173 C94.1546667,2168.80554 94.5230471,2164.91523 95.4449215,2161.79662 C92.8731828,2161.56354 90,2160.70462 90,2159.21846 C90,2156.44785 93.1224628,2156.40631 94.4981191,2156.40631 L97.5753422,2156.40631 C97.927104,2155.63231 98.1417618,2154.88785 98.4081221,2154.41569 C100.462836,2150.824 102.476002,2147.61538 106.618667,2147.61538 L118.159407,2147.61538 L129.238519,2147.61538 C133.381183,2147.61538 135.526376,2150.70538 137.583397,2154.29662 C137.848834,2154.76831 138.1789,2155.63231 138.530661,2156.40631 L141.371068,2156.40631 C142.746725,2156.40631 146.106004,2156.44785 146.106004,2159.21846 Z M110.311704,2175.76923 L125.545481,2175.76923 L125.545481,2171.15385 L110.311704,2171.15385 L110.311704,2175.76923 Z M134.505713,2171.16908 C136.162963,2171.17185 137.583397,2169.83292 137.583397,2168.12431 C137.583397,2168.08554 137.581089,2167.92862 137.581089,2167.89031 C137.583397,2166.25 136.162963,2164.84369 134.505713,2164.846 C134.466474,2164.846 134.308135,2164.84369 134.268897,2164.84369 C132.543787,2164.84369 131.191212,2166.25 131.193058,2167.89031 C131.193058,2167.92862 131.191212,2168.08554 131.191212,2168.12431 C131.191212,2169.87215 132.504087,2171.17185 134.268897,2171.17185 C134.308135,2171.17185 134.466474,2171.16908 134.505713,2171.16908 Z M101.836184,2171.16908 C103.493434,2171.17185 104.913868,2169.83292 104.913868,2168.12431 C104.913868,2168.08554 104.912022,2167.92862 104.912022,2167.89031 C104.913868,2166.25 103.493434,2164.84369 101.836184,2164.846 C101.797407,2164.846 101.639529,2164.84369 101.600291,2164.84369 C99.8737961,2164.84369 98.5221446,2166.25 98.5239911,2167.89031 C98.5239911,2167.92862 98.5221446,2168.08554 98.5221446,2168.12431 C98.5221446,2169.87215 99.8350193,2171.17185 101.600291,2171.17185 C101.639529,2171.17185 101.797407,2171.16908 101.836184,2171.16908 Z M101.600291,2156.40631 C101.40456,2156.75431 100.624406,2158.67892 99.6942222,2161 L136.624593,2161 C135.693947,2158.67892 134.471552,2156.75431 134.268897,2156.40631 C132.064153,2152.53631 130.83945,2151.72215 129.166966,2151.72215 L106.779314,2151.71846 C105.10683,2151.71846 103.811959,2152.53631 101.600291,2156.40631 Z" id="favorits"></path>
        </g>
    </g>
</svg>