<?xml version="1.0" encoding="utf-8"?>
<!-- Generator: Adobe Illustrator 16.0.4, SVG Export Plug-In . SVG Version: 6.00 Build 0)  -->
<!DOCTYPE svg PUBLIC "-//W3C//DTD SVG 1.1//EN" "http://www.w3.org/Graphics/SVG/1.1/DTD/svg11.dtd">
<svg version="1.1" id="Ebene_1" xmlns="http://www.w3.org/2000/svg" xmlns:xlink="http://www.w3.org/1999/xlink" x="0px" y="0px"
	 width="74px" height="35px" viewBox="0 0 74 35" style="enable-background:new 0 0 74 35;" xml:space="preserve">
<g>
	<polygon style="fill:#FFFFFF;" points="0,15 0,19.5 74,19.5 74,15 0,15 0,15 	"/>
	<polygon style="fill:#003468;" points="0,0 0,16.9 74,16.9 74,0 0,0 0,0 	"/>
	<path style="fill:#FF7500;" d="M0,35h65.3c4.9,0,8.7-3.9,8.7-8.5v-8.4H0V35L0,35L0,35z"/>
	<path style="fill:#003468;" d="M6.7,31.4H6.6c-1.5,0-2.8-1-2.8-2.7c0-1,1.6-1,1.6,0c0,0.7,0.5,1.2,1.2,1.2h0.1c0.7,0,1.2-0.4,1.2-1
		c0-1.7-4-1.9-4-4.4c0-0.2,0-0.1,0-0.3c0-1.5,1.5-2.3,2.7-2.3h0.1c1.4,0,2.7,0.9,2.7,2.2c0,1-1.6,1-1.6,0c0-0.4-0.4-0.7-1.1-0.7H6.6
		c-0.6,0-1.1,0.3-1.1,0.8c0,0.2,0,0,0,0.2c0,1.1,4,1.6,4,4.4C9.6,30.4,8.3,31.4,6.7,31.4L6.7,31.4L6.7,31.4z"/>
	<path style="fill:#003468;" d="M13.7,31.4h-0.1c-1.5,0-2.8-1.2-2.8-2.7v-4.3c0-1.5,1.3-2.7,2.8-2.7h0.1c1.4,0,2.6,0.9,2.8,2.3
		c0,0,0,0.1,0,0.1c0,0.5-0.4,0.8-0.8,0.8c-0.4,0-0.7-0.2-0.8-0.7c-0.1-0.6-0.6-0.9-1.2-0.9h-0.1c-0.7,0-1.2,0.5-1.2,1.1v4.3
		c0,0.6,0.5,1.1,1.2,1.1h0.1c0.6,0,1.1-0.4,1.2-0.9c0.1-0.5,0.4-0.7,0.8-0.7c0.4,0,0.8,0.3,0.8,0.8c0,0.1,0,0.1,0,0.2
		C16.3,30.5,15.1,31.4,13.7,31.4L13.7,31.4L13.7,31.4z"/>
	<path style="fill:#003468;" d="M21.7,24.5c0-0.6-0.5-1.1-1.2-1.1h-0.1c-0.7,0-1.2,0.5-1.2,1.1v4.2c0,0.6,0.5,1.1,1.2,1.1h0.1
		c0.7,0,1.2-0.5,1.2-1.1V24.5L21.7,24.5L21.7,24.5z M20.6,31.4h-0.1c-1.5,0-2.8-1.2-2.8-2.7v-4.2c0-1.5,1.3-2.7,2.8-2.7h0.1
		c1.5,0,2.8,1.2,2.8,2.7v4.2C23.4,30.2,22.1,31.4,20.6,31.4L20.6,31.4L20.6,31.4z"/>
	<path style="fill:#003468;" d="M27.9,31.4h-0.1c-1.5,0-2.8-1.2-2.8-2.7v-6.1c0-0.5,0.4-0.8,0.8-0.8c0.4,0,0.8,0.3,0.8,0.8v6.1
		c0,0.6,0.5,1.2,1.2,1.2h0.1c0.7,0,1.2-0.5,1.2-1.2v-6.1c0-0.5,0.4-0.8,0.8-0.8c0.4,0,0.8,0.3,0.8,0.8v6.1
		C30.7,30.2,29.5,31.4,27.9,31.4L27.9,31.4L27.9,31.4z"/>
	<path style="fill:#003468;" d="M36.4,23.5h-1.1v7.1c0,0.5-0.4,0.8-0.8,0.8c-0.4,0-0.8-0.3-0.8-0.8v-7.1h-1.1
		c-0.5,0-0.8-0.4-0.8-0.8c0-0.4,0.3-0.8,0.8-0.8h3.8c0.5,0,0.8,0.4,0.8,0.8C37.2,23.1,37,23.5,36.4,23.5L36.4,23.5L36.4,23.5z"/>
	<path style="fill:#003468;" d="M43.9,31.3h-3.6c-0.5,0-0.8-0.5-0.8-0.9c0-0.2,0-0.3,0.1-0.5l3.2-5c0.2-0.3,0.2-0.4,0.2-0.6v-0.1
		c0-0.4-0.4-0.8-0.8-0.8h0c-0.5,0-0.8,0.4-0.8,0.8v0.2c0,0.5-0.4,0.8-0.8,0.8c-0.4,0-0.8-0.3-0.8-0.8v-0.2c0-1.3,1.1-2.3,2.4-2.3h0
		c1.3,0,2.4,1,2.4,2.3l0,0.2c0,0.5-0.2,0.9-0.5,1.4l-2.5,4.1h2.4c0.5,0,0.8,0.4,0.8,0.8C44.7,30.9,44.5,31.3,43.9,31.3L43.9,31.3
		L43.9,31.3z"/>
	<path style="fill:#003468;" d="M50.3,29.5H50v1.2c0,0.5-0.4,0.8-0.8,0.8c-0.4,0-0.8-0.3-0.8-0.8v-1.2h-2.2c-0.6,0-0.9-0.3-0.9-0.8
		c0-0.1,0-0.3,0.1-0.4l2.6-5.9c0.2-0.3,0.4-0.5,0.7-0.5c0.4,0,0.8,0.3,0.8,0.8c0,0.1,0,0.2-0.1,0.3l-2.3,5h1.2v-0.8
		c0-0.5,0.4-0.8,0.8-0.8c0.4,0,0.8,0.3,0.8,0.8v0.8h0.3c0.5,0,0.8,0.4,0.8,0.8S50.8,29.5,50.3,29.5L50.3,29.5L50.3,29.5z"/>
	<path style="fill:#FFFFFF;" d="M9.1,5.5H5.8v2.2H8c0.5,0,0.8,0.4,0.8,0.8c0,0.4-0.3,0.8-0.8,0.8H5.8v3.4c0,0.5-0.4,0.8-0.8,0.8
		s-0.8-0.3-0.8-0.8V4.7c0-0.4,0.4-0.8,0.8-0.8h4.1c0.5,0,0.8,0.4,0.8,0.8C9.9,5.1,9.6,5.5,9.1,5.5L9.1,5.5L9.1,5.5z"/>
	<path style="fill:#FFFFFF;" d="M11.9,13.4c-0.4,0-0.8-0.3-0.8-0.8v-8c0-0.5,0.4-0.8,0.8-0.8c0.4,0,0.8,0.3,0.8,0.8v8
		C12.7,13.1,12.3,13.4,11.9,13.4L11.9,13.4L11.9,13.4z"/>
	<path style="fill:#FFFFFF;" d="M20,13.4h-0.2c-0.5,0-0.7-0.3-0.9-0.7l-2.2-5.1v5c0,0.5-0.4,0.8-0.8,0.8c-0.4,0-0.8-0.3-0.8-0.8v-8
		c0-0.4,0.4-0.8,0.8-0.8h0.2c0.5,0,0.7,0.3,0.9,0.7l2.2,4.9V4.6c0-0.5,0.4-0.8,0.8-0.8c0.4,0,0.8,0.3,0.8,0.8v8
		C20.8,13,20.4,13.4,20,13.4L20,13.4L20,13.4z"/>
	<path style="fill:#FFFFFF;" d="M25.7,6.7l-0.9,2.9h1.8L25.7,6.7L25.7,6.7L25.7,6.7z M28.4,13.4c-0.3,0-0.6-0.2-0.7-0.6l-0.5-1.6
		h-2.8l-0.5,1.6c-0.1,0.4-0.4,0.6-0.8,0.6c-0.4,0-0.8-0.3-0.8-0.8c0-0.1,0-0.2,0-0.3l2.5-7.9c0.2-0.6,0.5-0.7,0.9-0.7
		c0.3,0,0.7,0.1,0.9,0.7l2.5,7.9c0,0.1,0,0.2,0,0.3C29.2,13.1,28.8,13.4,28.4,13.4L28.4,13.4L28.4,13.4z"/>
	<path style="fill:#FFFFFF;" d="M35.5,13.4h-0.2c-0.5,0-0.7-0.3-0.9-0.7l-2.2-5.1v5c0,0.5-0.4,0.8-0.8,0.8c-0.4,0-0.8-0.3-0.8-0.8
		v-8c0-0.4,0.4-0.8,0.8-0.8h0.2c0.5,0,0.7,0.3,0.9,0.7l2.2,4.9V4.6c0-0.5,0.4-0.8,0.8-0.8c0.4,0,0.8,0.3,0.8,0.8v8
		C36.3,13,36,13.4,35.5,13.4L35.5,13.4L35.5,13.4z"/>
	<path style="fill:#FFFFFF;" d="M41.3,13.4h-0.1c-1.5,0-2.8-1.2-2.8-2.7V6.5c0-1.5,1.2-2.7,2.8-2.7h0.1c1.4,0,2.6,0.9,2.8,2.3
		c0,0,0,0.1,0,0.1C44,6.7,43.6,7,43.2,7c-0.4,0-0.7-0.2-0.8-0.7c-0.1-0.6-0.6-0.9-1.2-0.9h-0.1c-0.7,0-1.2,0.5-1.2,1.1v4.2
		c0,0.6,0.5,1.1,1.2,1.1h0.1c0.6,0,1.1-0.4,1.2-0.9c0.1-0.5,0.4-0.7,0.8-0.7c0.4,0,0.8,0.3,0.8,0.8c0,0.1,0,0.1,0,0.2
		C43.8,12.4,42.7,13.4,41.3,13.4L41.3,13.4L41.3,13.4z"/>
	<path style="fill:#FFFFFF;" d="M50.8,13.3h-4.1c-0.4,0-0.8-0.4-0.8-0.8V4.7c0-0.4,0.4-0.8,0.8-0.8h4.1c0.5,0,0.8,0.4,0.8,0.8
		c0,0.4-0.3,0.8-0.8,0.8h-3.3v2.2h2.2c0.5,0,0.8,0.4,0.8,0.8c0,0.4-0.3,0.8-0.8,0.8h-2.2v2.5h3.3c0.5,0,0.8,0.4,0.8,0.8
		C51.6,12.9,51.3,13.3,50.8,13.3L50.8,13.3L50.8,13.3z"/>
</g>
</svg>
