<svg id="logoFinanceScout24" xmlns="http://www.w3.org/2000/svg" viewBox="0 0 617.65 347.65">
    <defs>
        <style>
            #financeMarker {
                fill: #00dfff;
            }
            #financeFont {
                fill: #333;
            }
            #scout24Font {
                fill: #333;
            }
        </style>
    </defs>
    <title>financeScout24_solid</title>
    <path id="financeMarker" class="cls-1"
        d="M201.06,191.09c0,.21-.06.52,0,.71s.05.23.1.54-.12.26,0,.53c0,.11,0,.36,0,.47s0,.23,0,.34c-.26.33-.17.54-.15,1,0,.21.08.38.05.59-.06.39.22.47,0,.77s-.23.78-.49,1a1.05,1.05,0,0,0-.25.36,1.4,1.4,0,0,0-.1.47c0,.21,0,.43,0,.64s0,.43-.08.64a5.4,5.4,0,0,0-.09,1.44,5.86,5.86,0,0,0,.28,1.42c0,.1.07.2.1.3a3.06,3.06,0,0,1,.05.32c0,.1,0,.21,0,.32a1.11,1.11,0,0,1-.08.3c-.08.19-.19.36-.28.53a2.85,2.85,0,0,0-.26.56,4.26,4.26,0,0,0-.13.62l-.06.65c0,.16,0,.31-.07.47s-.05.32-.07.48a1.05,1.05,0,0,0,0,.47,1,1,0,0,0,.23.39,7.31,7.31,0,0,1,.8.91,6.45,6.45,0,0,1,.51,1.05,1.46,1.46,0,0,1,.1.46,1.16,1.16,0,0,1-.05.48,4.85,4.85,0,0,1-.46,1.14,4,4,0,0,1-.72.91,1.29,1.29,0,0,0-.19.21,2.13,2.13,0,0,0-.16.25,1.11,1.11,0,0,0-.09.63.72.72,0,0,0,.25.52l.22.16.22.15.23.15a1.84,1.84,0,0,1,.22.17,2.87,2.87,0,0,1,.48.76,3.08,3.08,0,0,1,.2.93,2.57,2.57,0,0,1,0,.48c0,.17,0,.33-.05.49a1.66,1.66,0,0,0,0,.32,1,1,0,0,0,.11.29l.24.38c.08.13.16.26.23.39a1.07,1.07,0,0,1,.13.63.82.82,0,0,1-.24.52l-.21.17-.22.16-.11.08-.11.09a1.25,1.25,0,0,0-.36.81,1.53,1.53,0,0,0,.17.92c.17.25.35.47.53.71a4.5,4.5,0,0,1,.49.76,1.14,1.14,0,0,1,.09.3,1.13,1.13,0,0,1,0,.32s0,.11,0,.16a.88.88,0,0,1,0,.16c-.06.26-.11.52-.16.78a4.25,4.25,0,0,0-.05.8,4.48,4.48,0,0,0,.09.64c0,.21.1.42.13.63a1,1,0,0,1,0,.61.84.84,0,0,1-.38.43l-.35.2a2.39,2.39,0,0,0-.34.21.45.45,0,0,0-.16.24.78.78,0,0,0,0,.31c0,.11,0,.21,0,.32l.16.9c0,.18,0,.28,0,.45s.36.14.36.14l.6-.1s32.9-3.74,54.88-7.27c0,0,7.34-1.5,100.1-10.1,0,0,34.4-3.45,73.62-8.87,0,0,34.3-4.34,105-11.07,0,0,45.21-4.13,78.07-9.41L615,184c1.36-.14,2.33-3.69,2.33-3.69,1-.62-.56-1.25-.56-1.25-2-.24-1.24-1.42-1.24-1.42a1.43,1.43,0,0,1,.36-.52,6.82,6.82,0,0,0,.7-.85,6.31,6.31,0,0,0-1.3-2c-1-.75-.58-.65-1.58-1.39-.64-.48-.77-2.21-.8-3.45,0-.86,2.46-3,1.91-3.37-.91-.61-1.85-1.14-2.74-1.8a2,2,0,0,1-.65-1.15,1.38,1.38,0,0,1,.42-1c.76-.79.79-.82,0-1.75-.28-.35-.63-.61-.94-.93-.67-.71,2-3,1.91-4.2a6,6,0,0,0-.42-1.62,8.42,8.42,0,0,1-.36-1.32,2.85,2.85,0,0,1-.16-.3,1,1,0,0,1,0-.79A3.1,3.1,0,0,1,612,150c-.21-.55-.42-1.09-.62-1.65a1.09,1.09,0,0,1,.22-1.15,1.23,1.23,0,0,1,.26-.25c.52-.28.43-1.08.7-1.58l-.28-.21c-.32-.23-.44-.42-.3-.65.32-.56.12-1.28.28-1.88a3.47,3.47,0,0,0-.44-2.1c-.07-.21-.12-.42-.19-.64a1,1,0,0,1,.17-1c.31-.37.66-.7,1-1.06a1.14,1.14,0,0,0,0-1.2,8.53,8.53,0,0,0-.55-.83,8.87,8.87,0,0,0-1-.81,1.9,1.9,0,0,1-.84-2.3c.24-.69.09-1-.41-1.31a3.14,3.14,0,0,1-.86-.77c-.9-1.22-.8-1.66.41-2s1.3-.51,1.11-2,0-2.25,1.09-2.64a1.63,1.63,0,0,0,1.06-1.86c-.11-1.11-.77-2.26-1.7-2.37-1.21-.13-1.19-1.56-1.8-2.3,0,0,.13-.35.2-.34s.37.2.56.21a3.26,3.26,0,0,0,.69-.09c-.14-.3-.22-.73-.42-.89a1.75,1.75,0,0,1-.67-1.93c.13-1.21.18-2.78-1.29-3.4-.22-.09-.43-.87-.42-1.29s.38-.61.64-.76.67-.12,1-.25a4.33,4.33,0,0,0,.79-.58,4.19,4.19,0,0,0-.56-1,5.28,5.28,0,0,0-1.28-.85c-.78-.38-1.11-1.24-.51-1.75,1-.84.31-1.27-.2-1.89a4.5,4.5,0,0,1-.71-1.13c-.1-.23-.06-.79,0-.85.85-.46,1.38-1.84,2.6-1.35.19.08.42-.12.63-.2-.17-.34-.3-.87-.53-1a12.3,12.3,0,0,0-1.84-.59,2.82,2.82,0,0,1-1.24-2.47c.14-.34.58-.48.92-.6.5-.17,1.16,0,.44-1.17-.47-.74-.58-1.68.34-2.07.74-.32.48-1.18.27-1.72a2.71,2.71,0,0,1,.31-2.95c.33-.43.77-.87-.27-1s-1.61-.8-2-2.23c-.3-1.16-.68-2.61-2-3-.31-.08-.63-.9-.76-1.44,0-.19.46-.73.76-.78a4.86,4.86,0,0,1,1.52.24c.16,0,.31.1.47.15,0-.24,0-.58-.06-.71-.31-.39-.71-.66-1-1.06a2.89,2.89,0,0,1-.58-1.21c0-.17.45-.5.74-.6.48-.16.77-.2.36-1a10.38,10.38,0,0,1-.5-2.18,2.38,2.38,0,0,1,.79-2.64c.91-.71.89-1.26-.05-2.19a1.71,1.71,0,0,0-.25-.22c-.41-.25-.84-.46-.72-1.22s.62-.38,1-.38.82-.29.81-.43a4.24,4.24,0,0,0-.45-1.91,4.14,4.14,0,0,0-1.51-1.06,19.15,19.15,0,0,1-2.54-1.42c-.69-.55-.58-1,.19-1.32a3.41,3.41,0,0,1,.84-.19,1.27,1.27,0,0,0,1.24-1.18,2.35,2.35,0,0,1,.27-.63c.78-1.5.76-1.49.26-3.48-.36-1.42-.58-2.76.38-3.93.64-.78.46-2.94,1.22-3.2.45-.15.57-1,.73-1.49s.2-.47.46-.53.46.14.57-.07c.23-.44-.76-1.46-.94-1.75a13.78,13.78,0,0,0-1-1.43c-.53-.62-.93-1.13,0-1.57a.92.92,0,0,0,.18-1.48,4.49,4.49,0,0,1-1.16-2.78,1.55,1.55,0,0,1-.08-.36c0-.66-1-1.06-.49-1.76.29-.37.91-.27,1.31-.55a17.33,17.33,0,0,0,2.11-1.75,1.35,1.35,0,0,0-.2-.95,6.15,6.15,0,0,0-1.54-1.1,5.1,5.1,0,0,1-2.28-2.1,2.58,2.58,0,0,1-.28-2.43,3.84,3.84,0,0,0-.89-3.89,4.31,4.31,0,0,1-1-1.57c-.1-.29.16-.83.36-1.17s.47-.18.6-.38a6.74,6.74,0,0,0,1.18-3.43,7.07,7.07,0,0,1,.49-1.2l-.16-.41S583.48,14.79,569,17.16c0,0-4.84,1-66.11,6.86,0,0-22.72,2.34-48.62,6,0,0-22.65,2.92-69.33,7.5,0,0-29,2.68-50.74,6.23l-.12-1a13.3,13.3,0,0,0-.1-1.75c-.21-1.23-.59-1.07-.31-2,.35-1.21-.08-.52.46-1.48,0,0,.25-.49.21-.62a2.07,2.07,0,0,0-.23-.79A1.56,1.56,0,0,1,333.7,35a2.36,2.36,0,0,0,.5-2.34c-.25-1.36-.65-3.12.76-4.1.22-.15.18-1.05.13-1.54,0-.33,0-.7-.33-.82a5.77,5.77,0,0,0-.82-.2c-.3-.09-.05-.57-.33-.74.15-.42,0-.88.25-1.18.36-.49.3-.62.73-.95.75-.58,1-1.64.35-2.11-1.06-.77.18-1.3,0-2.2-.46-2.71-1.59-3.53-1.59-3.53l-.05-1.18c.57-.45.12-.42.72-.77a1.81,1.81,0,0,0,.56-2.1c-.16-.36.07-1.76-.28-1.83-.51-.1-1.16.19-.55-1.25.4-.95.42-2-.53-2.32-.77-.23-.6-1.26-.43-1.92.37-1.49,1.28-3.5.5-3.88l-1.79.21c-26.28,4.1-62.4,7.22-62.4,7.22-56.47,5.09-83.88,8.43-83.88,8.43-31.35,4.19-58.84,6.81-58.84,6.81-74.13,6.49-80,7.67-80,7.67-17.57,2.74-43.87,5.6-43.87,5.6l-.84.13s-.51,0-.35.64a1.82,1.82,0,0,1,.19,1l-.23,3.74A6.85,6.85,0,0,1,.73,43.7a1.68,1.68,0,0,0,.32,2.2c.48.6,1,1.13.58,1.79a4,4,0,0,0-.47,1.05.85.85,0,0,0,.28,1c.21.13.46,0,.72-.08A.93.93,0,0,1,3,49.6c.55.29.54.76.34,1.24a10.07,10.07,0,0,1-.76,1.28,1.91,1.91,0,0,1-.24.32L2,52.7l-.22.15L1.59,53a1.4,1.4,0,0,0-.4.51,1.89,1.89,0,0,0-.16.63,2,2,0,0,0,.06.65,1.8,1.8,0,0,0,.29.59c.06.07.11.14.17.2l.17.21a3.3,3.3,0,0,1,.3.43c.08.15.15.31.22.47a1.45,1.45,0,0,1,.15.45,3,3,0,0,1-.05.57l0,.26a2.45,2.45,0,0,0,0,.27,2.56,2.56,0,0,0,0,.39,1.63,1.63,0,0,0,.13.37l.31.58c.11.19.22.38.32.57a1.4,1.4,0,0,1,.14.37,1.29,1.29,0,0,1,0,.39.7.7,0,0,1-.11.38,1,1,0,0,1-.28.26,2,2,0,0,1-.36.17l-.37.14a2.06,2.06,0,0,0-.66.42,2.53,2.53,0,0,0-.49.62,2,2,0,0,0-.19.48,1.84,1.84,0,0,0-.05.53,2.34,2.34,0,0,0,.08.52,2.18,2.18,0,0,0,.19.48,1.39,1.39,0,0,1,.12.38,1.67,1.67,0,0,1,0,.39.53.53,0,0,0,0,.13s0,.09,0,.13a.79.79,0,0,0,.08.48,1.08,1.08,0,0,0,.38.39l.22.14L2,67.1a.44.44,0,0,1,.18.33.45.45,0,0,1-.13.35l-.21.15L1.62,68a1.86,1.86,0,0,0-.78.47,1.59,1.59,0,0,0-.4.82c0,.21-.1.43-.16.64L.1,70.6a.56.56,0,0,0,0,.36.89.89,0,0,0,.22.35l.28.27.28.28a1.31,1.31,0,0,1,.29.43.91.91,0,0,1,0,.52,5.29,5.29,0,0,0-.13.78,5.17,5.17,0,0,0,0,.79c0,.26,0,.52,0,.79s0,.52,0,.79a4,4,0,0,1,0,.78,3.49,3.49,0,0,1-.2.77l-.12.37a2.6,2.6,0,0,0-.05.39,3.49,3.49,0,0,1-.1.79,5.31,5.31,0,0,1-.22.75,7.42,7.42,0,0,0-.37,1.53,6.42,6.42,0,0,0,0,1.58.72.72,0,0,0,.07.25.65.65,0,0,0,.16.21,2.35,2.35,0,0,1,.26.29A1.66,1.66,0,0,1,.72,84c.06.17.12.33.17.5s.11.33.18.5a1.24,1.24,0,0,1,.09.38,1.72,1.72,0,0,1,0,.39,2.33,2.33,0,0,1-.07.25L1,86.29a1.87,1.87,0,0,0,0,.52,1.39,1.39,0,0,0,.14.51c.06.11.12.23.19.34a3.9,3.9,0,0,1,.19.35c.06.11.11.23.17.35l.15.37a.76.76,0,0,1,.06.37.88.88,0,0,1-.11.39,6.28,6.28,0,0,0-.43.81,3.84,3.84,0,0,0-.28.87,2.36,2.36,0,0,1-.1.38,2.78,2.78,0,0,0-.12.38.75.75,0,0,0,0,.26,1.17,1.17,0,0,0,.07.25c.09.2.18.4.28.59a3.36,3.36,0,0,0,.39.54,2.55,2.55,0,0,1,.26.3,1.38,1.38,0,0,1,.2.33.48.48,0,0,1,0,.26.54.54,0,0,1-.06.25l-.2.34-.21.33a.43.43,0,0,0-.06.26.34.34,0,0,0,.13.22c.16.14.34.27.51.4a5.15,5.15,0,0,1,.5.43.93.93,0,0,1,.31.58.7.7,0,0,1-.19.58,3.58,3.58,0,0,1-.26.29l-.26.3a.8.8,0,0,0-.15.38.6.6,0,0,0,.07.36l.14.22.15.22a1.33,1.33,0,0,1,.23.46.83.83,0,0,1-.07.51,3.52,3.52,0,0,0-.22.62c-.06.21-.11.43-.16.64a.64.64,0,0,1-.1.24.8.8,0,0,1-.15.21c-.06.07-.13.13-.19.19l-.18.19c-.21.21-.32.32-.31.41s.15.16.42.29.33.21.35.34-.06.29-.26.45l-.32.23a1.73,1.73,0,0,0-.3.25.53.53,0,0,0-.13.23.31.31,0,0,0,0,.25,1,1,0,0,0,.19.34c.08.11.17.21.24.32a1,1,0,0,1,.22.4.45.45,0,0,1-.06.31,1,1,0,0,1-.24.3,1,1,0,0,1-.34.21l-.25.09-.25.08a.46.46,0,0,0-.25.26.6.6,0,0,0,0,.39,1.83,1.83,0,0,0,.18.34,1.07,1.07,0,0,0,.28.28l.67.42c.22.14.45.27.67.42a.39.39,0,0,1,.16.2.58.58,0,0,1,.05.26.89.89,0,0,1-.16.48.94.94,0,0,1-.4.33l-.36.16-.36.16a.66.66,0,0,0-.33.38.78.78,0,0,0,0,.52,1.28,1.28,0,0,0,.11.24.74.74,0,0,0,.16.2s.06.09.1.09c2.84,0,1.9,2.94,1.9,2.94a2.57,2.57,0,0,0-.15.67l0,.26a2.45,2.45,0,0,1,0,.27,2.35,2.35,0,0,1-.1.64,2.39,2.39,0,0,1-.39.53.53.53,0,0,0-.14.36.41.41,0,0,0,.14.33l.19.19.19.18a1.38,1.38,0,0,1,.33.4.93.93,0,0,1,.12.5,1.87,1.87,0,0,0,.05.53,1.81,1.81,0,0,0,.2.48,1.26,1.26,0,0,1,.22.73,1,1,0,0,1-.35.68.7.7,0,0,0-.1.5.63.63,0,0,0,.28.41l.23.14.23.11a2.87,2.87,0,0,0,.37.15l.36.15a.5.5,0,0,1,.25.28.61.61,0,0,1,.06.39c0,.08,0,.16-.08.25a1.83,1.83,0,0,0-.08.25l-.34.74a1,1,0,0,1,0,.35,2.91,2.91,0,0,0-.09,1.54,1.84,1.84,0,0,1-.26,1.45c-.13.28.26.52.64.77s.77.48.6.74a3.23,3.23,0,0,0-.31.58,5.81,5.81,0,0,0-.21.63,2,2,0,0,0,0,.26,1.15,1.15,0,0,0,0,.26l0,.26,0,.26c0,.09,0,.17,0,.26a2.34,2.34,0,0,1,0,.26.46.46,0,0,1,0,.26.48.48,0,0,1-.16.19,2.92,2.92,0,0,1-.36.17l-.36.16a.86.86,0,0,0-.39.36.69.69,0,0,0-.06.49c0,.17.09.34.14.51a2.25,2.25,0,0,1,.08.52,2.35,2.35,0,0,1-.06.65c0,.22-.1.43-.16.64a.5.5,0,0,0,0,.13s0,.08,0,.13a.76.76,0,0,0,0,.26.82.82,0,0,0,.1.24,3.26,3.26,0,0,0,.49.62c.18.19.37.37.54.57a.94.94,0,0,1,.17.74,1,1,0,0,1-.37.66l-.11.07-.12.07-.22.13-.23.14a.6.6,0,0,0-.24.42.74.74,0,0,0,.12.52l.24.31a3.65,3.65,0,0,1,.24.31.72.72,0,0,1,.12.23.82.82,0,0,1,0,.27c0,.13,0,.26,0,.39a1.88,1.88,0,0,0,.18,1.14,1.92,1.92,0,0,0,.49.62,1.18,1.18,0,0,0,.22.14l.23.12.23.12.23.12a.58.58,0,0,1,.25.42.73.73,0,0,1-.1.52,1.56,1.56,0,0,1-.16.2,1.12,1.12,0,0,1-.2.18,3.25,3.25,0,0,0-.74.74,4.11,4.11,0,0,0-.49.93.88.88,0,0,0,0,.39.83.83,0,0,0,.11.37,4.34,4.34,0,0,0,.5.84,7.27,7.27,0,0,0,.83.75.68.68,0,0,1,.23.31.69.69,0,0,1,0,.38c0,.13,0,.26-.08.39s0,.26-.07.39,0,.34-.07.52a2.83,2.83,0,0,1-.13.5,2.64,2.64,0,0,1-.27.46,4,4,0,0,0-.29.43.58.58,0,0,0-.09.25,1.11,1.11,0,0,0,0,.26,1.84,1.84,0,0,0,0,.25l.09.25a4,4,0,0,1,.29,1.15,3.6,3.6,0,0,1-.1,1.17,4.71,4.71,0,0,0-.09.52,4.57,4.57,0,0,0,0,.52.84.84,0,0,1-.11.38.79.79,0,0,1-.25.29,2.5,2.5,0,0,0-.67.62,2.12,2.12,0,0,0-.36.84c0,.17-.09.34-.14.51s-.11.33-.15.5a1.17,1.17,0,0,0,0,.26,2.46,2.46,0,0,0,0,.26,3,3,0,0,0,0,.79,2.65,2.65,0,0,0,.27.74,1.26,1.26,0,0,1,.18.49,2.24,2.24,0,0,1,0,.52s0,.09,0,.13a.59.59,0,0,0,0,.13,1.9,1.9,0,0,0,0,.42.75.75,0,0,0,.18.32,2.44,2.44,0,0,1,.35.55,1.62,1.62,0,0,1,.15.63c0,.48.07,1,.1,1.45a13.84,13.84,0,0,1,0,1.44,8.32,8.32,0,0,0,0,1.32c0,.44.09.87.14,1.31a2.38,2.38,0,0,0,0,.26c0,.08,0,.17.08.25a.75.75,0,0,1,0,.39,1,1,0,0,1-.11.37,2.53,2.53,0,0,1-.12.23,1.76,1.76,0,0,0-.14.23,1.42,1.42,0,0,0-.14.36,1,1,0,0,0,0,.39,2.47,2.47,0,0,1,0,.81,1.83,1.83,0,0,1-.41.62c-.05.07-.11.13-.17.2l-.16.2a.76.76,0,0,0-.08.11l-.08.11a1,1,0,0,0-.11.37,1.18,1.18,0,0,0,0,.39,5.88,5.88,0,0,0,.33.72l.37.69a1.86,1.86,0,0,1,.1.25,1.14,1.14,0,0,1,.06.25A8.78,8.78,0,0,1,4.57,181a5,5,0,0,1-.19,1.43,1,1,0,0,0,0,.52,1.44,1.44,0,0,0,.2.48l.08.11.07.11a2.88,2.88,0,0,1,.28.59,3.53,3.53,0,0,1,.11.65,2.44,2.44,0,0,1,0,.66,2.39,2.39,0,0,1-.21.62c-.08.15-.17.3-.25.46s-.18.3-.26.46a1.52,1.52,0,0,0-.15.5,2.26,2.26,0,0,0,0,.52c0,.09,0,.18,0,.26l.06.26a2.27,2.27,0,0,1,.09.52,2.3,2.3,0,0,1,0,.52A2.25,2.25,0,0,0,4.49,191a4.76,4.76,0,0,1,.26.89,5.51,5.51,0,0,1,.1.91l.06,1.58c0,.53.07,1.05.11,1.58a1.17,1.17,0,0,0,0,.26,1.21,1.21,0,0,0,.08.25c.17.4.35.8.52,1.21a10.63,10.63,0,0,1,.45,1.23l.06,2.32c0,1.54,0,5.09,0,5.09s.23,1.9.48,3.29.58,1.3.58,1.3,21.61-2.26,39.18-5c0,0,5.86-1.18,80-7.67,0,0,27.49-2.62,58.84-6.81,0,0,4.38-.55,15.28-1.72l.4.63Z" />
    <g id="scout24Font">
        <path class="cls-2"
            d="M446.56,329.08q3.62-2.82,7.28-5.63c22.46-17.3,45.68-35.18,45.68-61.32,0-20.48-14.78-34.78-35.94-34.78C445,227.35,425,239.79,425,267.1a29.38,29.38,0,0,0,.22,3.69l15.16-5.85c0-15,11.17-22.88,22.22-22.88,10.73,0,21.55,6.82,21.55,22.06,0,19.72-20.14,35.17-48,56.54q-6,4.57-12.38,9.56l-.25.19V345h79.17V329.08Z" />
        <path class="cls-2"
            d="M69.22,278l-1.37-.54c-12.47-5-21.3-9.45-21.3-20.61,0-11,8.76-16.75,17.41-16.75,7,0,15.83,3.7,19.28,11.82l14.68-5.7-.22-.55c-5.78-14.36-21-20.79-33.57-20.79C47.7,224.9,30,235.27,30,258c0,22.22,17,29.14,30.7,34.71l1.68.68c14,5.76,23.13,10.39,23.13,21.77,0,11.8-9.91,17.08-19.74,17.08s-21.3-5.18-24.72-19.71l-.15-.65-15.57,5.91C30,336,45.52,347.65,65.12,347.65c9.86,0,19-3,25.84-8.47,7.69-6.17,11.76-15,11.76-25.48C102.72,291.38,84.92,284.28,69.22,278Z" />
        <path class="cls-2"
            d="M234.05,257.55c-24.28,0-41.91,18.8-41.91,44.72S209.77,347,234.05,347,276,328.18,276,302.27,258.33,257.55,234.05,257.55Zm26.53,44.72c0,19.81-13.27,30.17-26.37,30.17-13.26,0-26.69-10.36-26.69-30.17,0-17.39,11.23-30,26.69-30C249.49,272.26,260.58,284.88,260.58,302.27Z" />
        <path class="cls-2"
            d="M340.18,308.73c0,15.72-11.53,24.21-22.39,24.21-8.25,0-17.08-4.93-17.08-18.74V259.7h-15v54.5c0,24.2,15.7,32.79,29.14,32.79,10.82,0,20.35-5.18,25.29-13.62L343,345h12.26V259.7H340.18Z" />
        <path class="cls-2"
            d="M394.44,235.38l-15.05,5.8V259.7H365.14v13.72h14.25v46.74c0,23.35,13.28,26.83,21.19,26.83a40.22,40.22,0,0,0,11.12-1.68l.47-.14V330.24l-1,.65a14.27,14.27,0,0,1-7.27,2.38c-6,0-9.46-4.36-9.46-11.95v-47.9h17.73V259.7H394.44Z" />
        <polygon class="cls-2"
            points="572.38 300.92 572.38 266.31 557 272.25 557 300.92 522.49 300.92 564.58 229.17 547.5 229.17 502.99 304.87 502.99 316.46 557 316.46 557 344.96 572.38 344.96 572.38 316.46 592.27 316.46 592.27 300.92 572.38 300.92" />
        <path class="cls-2"
            d="M174.1,319.12a24.61,24.61,0,0,1-21.82,13.15c-12.79,0-25.7-9.33-25.7-30.17,0-14.37,7.73-29.84,24.7-29.84a22.49,22.49,0,0,1,20,11.91l14.35-5.49-.26-.55c-6-12.7-19-20.58-34.06-20.58a38.89,38.89,0,0,0-27.63,11.1c-8.14,8.08-12.45,19.7-12.45,33.62,0,30.73,21,44.72,40.41,44.72,15.13,0,28.54-8.24,35.87-22.05l.29-.55-.12-.05Z" />
    </g>
    <g id="financeFont">
        <polygon class="cls-2"
            points="120.3 69.01 120.3 53.86 49.88 53.86 49.88 171.62 66.35 171.62 66.35 119.65 110.21 119.65 110.21 104.5 66.35 104.5 66.35 69.01 120.3 69.01" />
        <rect class="cls-2" x="133.01" y="86.13" width="15.31" height="85.49" />
        <path class="cls-2"
            d="M140.41,50.55A11.68,11.68,0,0,0,128.7,62.43,11.51,11.51,0,0,0,140.41,74a11.73,11.73,0,0,0,11.88-11.54A11.89,11.89,0,0,0,140.41,50.55Z" />
        <path class="cls-2"
            d="M202.75,84c-11,0-20.43,4.75-25.19,12.53l-2.49-10.38h-12.5v85.49h15.32V122.34c0-16.52,11.43-24,22.05-24,10.28,0,16.92,7.23,16.92,18.41v54.91h15.31V113.9C232.17,93.23,217.39,84,202.75,84Z" />
        <path class="cls-2"
            d="M371.87,84c-11,0-20.43,4.75-25.19,12.53L344.2,86.13H331.7v85.49H347V122.34c0-16.52,11.43-24,22.05-24,10.28,0,16.92,7.23,16.92,18.41v54.91h15.31V113.9C401.29,93.23,386.52,84,371.87,84Z" />
        <path class="cls-2"
            d="M553.83,148.11c-4.79,6.9-12.25,10.68-21.28,10.68-13.85,0-23.1-8.89-24.3-23.25H567.6v-9.89C567.6,96.86,549.67,84,531.89,84A37.87,37.87,0,0,0,504.71,95.3c-8.07,8.18-12.33,19.77-12.33,33.49,0,30.79,20.74,44.81,40,44.81a41.82,41.82,0,0,0,34.92-19.39l.42-.64,0,0ZM531.4,99c9.62,0,19.9,5.87,20.22,22.26H508.25C509.6,105.93,521.11,99,531.4,99Z" />
        <path class="cls-2" d="M553.83,148.11" />
        <path class="cls-2" d="M567.7,153.55" />
        <line class="cls-2" x1="553.83" y1="148.11" x2="567.7" y2="153.55" />
        <path class="cls-2"
            d="M319.64,158.54a10.48,10.48,0,0,1-4.28,1.07c-3.6,0-5.67-2.84-5.67-7.81V114.89c0-19.93-11-30.91-31.07-30.91-22.76,0-31.58,14.1-34.32,20.16l-.28.63L257.76,110c3.75-7.77,11.07-12.22,20.2-12.22,9.77,0,16.09,4.62,16.09,11.78,0,5.87-4.17,7.21-17.08,9.82l-.79.17c-16,3.32-34.1,7.09-34.1,27.91,0,8.21,2.87,15,8.3,19.72a28.16,28.16,0,0,0,18.47,6.39c11.18,0,21.29-5.54,26.54-14.32,1.1,8.56,7.24,14.32,15.67,14.32a17.49,17.49,0,0,0,9.36-2.44l.36-.23V158Zm-25.26-23.62c0,16.74-11.52,24.36-22.22,24.36-7,0-14.43-3.31-14.43-12.61,0-10.47,10.22-12.73,21-15.12,6-1.22,10.66-2.35,15.6-5.3Z" />
        <path class="cls-2"
            d="M472.89,145.64a24.6,24.6,0,0,1-21.82,13.16c-12.8,0-25.7-9.33-25.7-30.17,0-14.38,7.73-29.84,24.7-29.84a22.47,22.47,0,0,1,20,11.91l14.34-5.49-.25-.55c-6-12.7-19-20.59-34.06-20.59a38.87,38.87,0,0,0-27.63,11.1c-8.15,8.08-12.45,19.71-12.45,33.62,0,30.73,20.95,44.73,40.41,44.73,15.13,0,28.54-8.25,35.87-22.06l.29-.54-.13-.06Z" />
    </g>
</svg>