<?xml version="1.0" encoding="utf-8"?>
<!-- Generator: Adobe Illustrator 16.0.4, SVG Export Plug-In . SVG Version: 6.00 Build 0)  -->
<!DOCTYPE svg PUBLIC "-//W3C//DTD SVG 1.1//EN" "http://www.w3.org/Graphics/SVG/1.1/DTD/svg11.dtd">
<svg version="1.1" id="Ebene_1" xmlns="http://www.w3.org/2000/svg" xmlns:xlink="http://www.w3.org/1999/xlink" x="0px" y="0px"
	 width="18px" height="18px" viewBox="0 0 18 18" style="enable-background:new 0 0 18 18;" xml:space="preserve">
<g>
	<path d="M7.2,8.9c0-1.1,2.4-1.4,2.4-4c0-1.6-0.1-2.5-1.3-3.1c0-0.4,2.1-0.1,2.1-0.9C9.9,1,5.7,1,5.7,1S1,1.1,1,5.2
		c0,4.1,4.1,3.6,4.1,3.6s0,0.6,0,1c0,0.4,0.5,0.3,0.6,1.1c-0.3,0-5.7-0.1-5.7,3.5C0,18.2,4.8,18,4.8,18s5.5,0.3,5.5-4.3
		C10.3,10.9,7.2,10,7.2,8.9z M3.1,5.4C2.7,3.8,3.3,2.2,4.4,1.9c1.1-0.3,2.4,0.8,2.8,2.4S7.1,7.5,6,7.8C4.9,8.1,3.6,7.1,3.1,5.4z
		 M5.5,16.8C3.6,17,2,15.9,1.9,14.5c-0.1-1.4,1.4-2.7,3.3-2.8c1.9-0.1,3.5,0.9,3.6,2.3C8.9,15.4,7.4,16.7,5.5,16.8z"/>
	<polygon points="18,4.1 18,5 14.9,5 14.9,8 14,8 14,5 11,5 11,4.1 14,4.1 14,1 14.9,1 14.9,4.1 	"/>
</g>
</svg>
