<?xml version="1.0" encoding="UTF-8" standalone="no"?>
<svg width="88px" height="30px" viewBox="0 0 88 30" version="1.1" xmlns="http://www.w3.org/2000/svg" xmlns:xlink="http://www.w3.org/1999/xlink">
    <title>google</title>
    <g id="Globals" stroke="none" stroke-width="1" fill="none" fill-rule="evenodd">
        <g id="Icon" transform="translate(-1412.000000, -3537.000000)" fill="#333333">
            <path d="M1412,3547.725 C1412,3542.886 1415.7605,3537 1423.9895,3537 C1427.7365,3537 1430.3585,3538.164 1432.1705,3539.3895 L1429.307,3542.253 L1429.307,3540.528 C1427.78,3539.142 1426.0745,3538.1475 1423.1405,3538.1475 C1418.5055,3538.1475 1415.1815,3541.746 1415.1815,3546.8715 C1415.1815,3552.099 1418.855,3557.4495 1425.1055,3557.4495 C1426.646,3557.4495 1428.131,3557.244 1429.3055,3556.866 L1429.3055,3551.577 L1425.539,3551.577 L1426.8005,3550.3275 L1433.516,3550.3275 L1432.529,3551.316 C1432.3445,3551.484 1432.2215,3551.6745 1432.2215,3551.9535 L1432.2215,3557.421 C1429.088,3558.291 1426.3745,3558.7575 1423.316,3558.7575 C1417.016,3558.7575 1412,3554.61 1412,3547.725 Z M1434.7385,3551.523 C1434.7385,3547.851 1437.674,3544.3905 1442.4095,3544.3905 L1442.4095,3544.392 C1446.566,3544.392 1449.3275,3547.7715 1449.3275,3551.253 C1449.3275,3554.9925 1446.5,3558.459 1441.8935,3558.459 C1437.104,3558.459 1434.7385,3554.694 1434.7385,3551.523 Z M1439.054,3555.3435 C1439.8835,3556.599 1440.989,3557.5575 1442.5745,3557.5575 C1442.987,3557.5575 1446.449,3557.466 1446.449,3552.852 C1446.449,3549.7485 1444.961,3545.4 1441.6235,3545.4 L1441.622,3545.4 C1441.082,3545.4 1440.2555,3545.5065 1439.3735,3546.0705 C1438.2965,3546.822 1437.611,3547.842 1437.611,3549.936 C1437.611,3552.036 1438.325,3554.187 1439.054,3555.3435 Z M1450.8095,3551.523 C1450.8095,3547.851 1453.7435,3544.3905 1458.479,3544.3905 L1458.479,3544.392 C1462.634,3544.392 1465.397,3547.7715 1465.397,3551.253 C1465.397,3554.9925 1462.571,3558.459 1457.963,3558.459 C1453.1735,3558.459 1450.8095,3554.694 1450.8095,3551.523 Z M1455.125,3555.3435 C1455.9515,3556.599 1457.06,3557.5575 1458.6455,3557.5575 C1459.058,3557.5575 1462.5185,3557.466 1462.5185,3552.852 C1462.5185,3549.7485 1461.032,3545.4 1457.693,3545.4 C1457.1515,3545.4 1456.3265,3545.5065 1455.443,3546.0705 C1454.3645,3546.822 1453.682,3547.842 1453.682,3549.936 C1453.682,3552.036 1454.3945,3554.187 1455.125,3555.3435 Z M1481.063,3537.384 L1485.9065,3537.384 L1484.882,3538.4085 C1484.7665,3538.518 1484.6105,3538.6905 1484.6105,3539.0295 L1484.6105,3556.1805 C1484.6105,3556.5465 1484.87,3556.926 1485.3095,3556.98 L1486.937,3557.1825 L1486.073,3558.048 L1480.3955,3558.048 L1481.435,3557.0115 C1481.6045,3556.836 1481.6855,3556.6635 1481.6855,3556.41 L1481.6855,3538.644 L1479.803,3538.644 L1481.063,3537.384 Z M1473.368,3544.389 L1473.368,3544.389 L1476.434,3544.389 L1479.4985,3544.389 L1478.255,3545.6325 L1476.599,3545.6325 C1477.9565,3546.7845 1478.552,3548.016 1478.552,3549.447 C1478.552,3551.5335 1477.373,3552.5775 1476.539,3553.284 C1476.3875,3553.419 1475.981,3553.7025 1475.7455,3553.9515 C1475.6105,3554.1015 1475.249,3554.505 1475.249,3555.114 C1475.249,3555.537 1475.3915,3555.897 1476.1205,3556.464 C1478.6015,3558.324 1479.5795,3559.4025 1479.5795,3561.369 C1479.5795,3564.1575 1476.9305,3567 1471.8095,3567 C1467.485,3567 1465.4285,3564.885 1465.4285,3562.7355 C1465.4285,3560.283 1467.7025,3558 1473.3635,3557.6535 C1472.7635,3556.977 1472.483,3556.5345 1472.483,3555.7515 C1472.4845,3555.2205 1472.711,3554.6685 1472.711,3554.6685 L1471.8785,3554.6685 C1468.589,3554.6685 1466.9945,3552.156 1466.9945,3549.9315 C1466.9945,3547.008 1469.231,3544.389 1473.3665,3544.389 L1473.368,3544.389 Z M1471.76,3553.3245 C1472.255,3553.662 1472.84,3553.8 1473.329,3553.8 C1474.3265,3553.8 1476.1745,3553.1505 1476.1745,3550.776 C1476.1745,3548.5755 1475,3546.7965 1474.2665,3546.135 C1473.6035,3545.583 1472.9765,3545.319 1472.2265,3545.319 C1470.7805,3545.319 1469.567,3546.405 1469.567,3548.4465 C1469.567,3550.7085 1470.6575,3552.609 1471.76,3553.3245 Z M1487.228,3551.145 C1487.228,3546.8055 1490.5955,3544.3905 1493.765,3544.3905 C1497.131,3544.3905 1498.595,3546.2535 1499.1125,3548.1045 L1490.1275,3551.7375 C1490.9855,3555.1095 1493.438,3556.9455 1495.982,3556.9455 C1497.32,3556.9455 1498.328,3556.536 1499.564,3555.9135 C1498.9085,3556.7895 1498.0115,3557.4855 1497.0815,3557.9145 C1496.2115,3558.3135 1495.286,3558.459 1494.158,3558.459 C1489.6445,3558.459 1487.228,3554.727 1487.228,3551.145 Z M1489.7735,3549.378 C1489.7735,3550.131 1489.925,3550.8255 1489.925,3550.8255 L1495.4495,3548.592 C1495.886,3548.418 1496.1095,3548.2305 1496.1095,3547.878 C1496.1095,3546.783 1494.881,3545.382 1493.1785,3545.382 C1492.055,3545.382 1489.7735,3546.2265 1489.7735,3549.378 Z M1468.07,3562.0785 C1468.07,3564.3255 1470.329,3565.701 1473.284,3565.701 C1475.975,3565.701 1477.6385,3564.2955 1477.6385,3562.503 C1477.6385,3561.201 1476.884,3560.469 1475.6735,3559.5105 C1475.1515,3559.113 1474.4075,3558.582 1474.4075,3558.582 C1474.4075,3558.582 1474.181,3558.555 1473.866,3558.555 C1469.6165,3558.615 1468.07,3560.217 1468.07,3562.0785 Z" id="google"></path>
        </g>
    </g>
</svg>