<?xml version="1.0" encoding="utf-8"?>
<!-- Generator: Adobe Illustrator 16.0.4, SVG Export Plug-In . SVG Version: 6.00 Build 0)  -->
<!DOCTYPE svg PUBLIC "-//W3C//DTD SVG 1.1//EN" "http://www.w3.org/Graphics/SVG/1.1/DTD/svg11.dtd">
<svg xmlns="http://www.w3.org/2000/svg" width="26" height="24" viewBox="0 0 24 24">
	<path fill-rule="evenodd" clip-rule="evenodd" d="M11.98 4.888c.568-.586 1.095-1.173 1.667-1.713 1.034-.978 2.29-1.436 3.702-1.523 1.204-.074 2.37.06 3.462.587 1.686.814 2.665 2.188 3.034 4 .428 2.09-.06 4.015-1.135 5.82-.61 1.03-1.422 1.892-2.26 2.735-1.506 1.517-3.006 3.04-4.507 4.563-1.15 1.167-2.295 2.338-3.445 3.506-.367.373-.626.374-.99.004-2.144-2.172-4.287-4.344-6.425-6.52-.887-.9-1.79-1.79-2.634-2.728C1.27 12.313.435 10.806.13 9.053-.195 7.165.058 5.38 1.24 3.813c.932-1.237 2.22-1.88 3.73-2.106.957-.143 1.912-.102 2.857.11 1.274.288 2.28 1.01 3.15 1.952.342.37.675.75 1.004 1.118z" />
</svg>