<?xml version="1.0" encoding="utf-8"?>
<!-- Generator: Adobe Illustrator 16.0.4, SVG Export Plug-In . SVG Version: 6.00 Build 0)  -->
<!DOCTYPE svg PUBLIC "-//W3C//DTD SVG 1.1//EN" "http://www.w3.org/Graphics/SVG/1.1/DTD/svg11.dtd">
<svg version="1.1" id="Ebene_1" xmlns="http://www.w3.org/2000/svg" xmlns:xlink="http://www.w3.org/1999/xlink" x="0px" y="0px"
	 width="16px" height="16px" viewBox="0 0 16 16" style="enable-background:new 0 0 16 16;" xml:space="preserve">
<g>
	<g>
		<path d="M8,1c3.859,0,7,3.141,7,7s-3.141,7-7,7s-7-3.141-7-7S4.141,1,8,1 M8,0C3.588,0,0,3.588,0,8s3.588,8,8,8s8-3.588,8-8
			S12.412,0,8,0L8,0z"/>
	</g>
	<g>
		<path d="M9.333,11.667c0,0.458-0.238,1-0.762,1H7.429c-0.523,0-0.762-0.542-0.762-1V8.333c0-0.458,0.238-1,0.762-1h1.143
			c0.523,0,0.762,0.542,0.762,1V11.667z"/>
		<circle cx="8" cy="4.667" r="1.333"/>
	</g>
</g>
</svg>
