<?xml version="1.0" encoding="UTF-8" standalone="no"?>
<svg width="30px" height="30px" viewBox="0 0 30 30" version="1.1" xmlns="http://www.w3.org/2000/svg" xmlns:xlink="http://www.w3.org/1999/xlink">
    <title>Kamera</title>
    <g id="Globals" stroke="none" stroke-width="1" fill="none" fill-rule="evenodd">
        <g id="Icon" transform="translate(-1588.000000, -3537.000000)" fill="#333333">
            <path d="M1609.02,3567 L1596.98167,3567 C1592.03,3567 1588,3563.06833 1588,3558.235 L1588,3545.765 C1588,3540.93 1592.03,3537 1596.98167,3537 L1609.02,3537 C1613.97333,3537 1618,3540.93 1618,3545.765 L1618,3558.235 C1618,3563.06833 1613.97333,3567 1609.02,3567 Z M1596.98167,3540.03833 C1593.70667,3540.03833 1591.04,3542.60833 1591.04,3545.765 L1591.04,3558.235 C1591.04,3561.39167 1593.70667,3563.96167 1596.98167,3563.96167 L1609.02,3563.96167 C1612.295,3563.96167 1614.96167,3561.39167 1614.96167,3558.235 L1614.96167,3545.765 C1614.96167,3542.60833 1612.295,3540.03833 1609.02,3540.03833 L1596.98167,3540.03833 Z M1612.71733,3545.359 C1612.71733,3546.51067 1611.78233,3547.444 1610.63567,3547.444 C1609.484,3547.444 1608.55067,3546.51067 1608.55067,3545.359 C1608.55067,3544.21067 1609.484,3543.27733 1610.63567,3543.27733 C1611.78233,3543.27733 1612.71733,3544.21067 1612.71733,3545.359 Z M1602.9995,3558.66633 C1599.3245,3558.66633 1596.3345,3555.67467 1596.3345,3551.99967 C1596.3345,3548.323 1599.2545,3545.333 1602.8445,3545.333 L1603.0295,3545.33633 C1607.14783,3545.45467 1609.74783,3548.07967 1609.66617,3552.023 C1609.5845,3555.74633 1606.65617,3558.66633 1602.9995,3558.66633 Z M1602.97117,3548.66633 C1601.10783,3548.66633 1599.66783,3550.16133 1599.66783,3551.99967 C1599.66783,3553.83967 1601.16283,3555.333 1602.9995,3555.333 C1604.82783,3555.333 1606.29283,3553.85967 1606.33283,3551.98133 C1606.37783,3549.96633 1605.12117,3548.728 1602.9745,3548.66633 L1602.97117,3548.66633 Z" id="Kamera"></path>
        </g>
    </g>
</svg>