<?xml version="1.0" encoding="utf-8"?>
<!-- Generator: Adobe Illustrator 16.0.4, SVG Export Plug-In . SVG Version: 6.00 Build 0)  -->
<!DOCTYPE svg PUBLIC "-//W3C//DTD SVG 1.1//EN" "http://www.w3.org/Graphics/SVG/1.1/DTD/svg11.dtd">
<svg version="1.1" id="Ebene_1" xmlns="http://www.w3.org/2000/svg" xmlns:xlink="http://www.w3.org/1999/xlink" x="0px" y="0px"
	 width="18px" height="22px" viewBox="0 0 18 22" style="enable-background:new 0 0 18 22;" xml:space="preserve">
<path style="fill-rule:evenodd;clip-rule:evenodd;" d="M18,15.4c-0.5,1.1-0.7,1.6-1.4,2.5c-0.9,1.4-2.1,3-3.7,3
	c-1.4,0-1.7-0.9-3.6-0.9c-1.9,0-2.2,0.9-3.6,0.9c-1.5,0-2.7-1.5-3.6-2.9c-2.5-3.8-2.7-8.2-1.2-10.5C2,5.9,3.7,4.9,5.3,4.9
	c1.6,0,2.7,0.9,4,0.9c1.3,0,2.1-0.9,4-0.9c1.4,0,2.9,0.8,4,2.1C13.9,9,14.4,14.1,18,15.4L18,15.4z"/>
<path style="fill-rule:evenodd;clip-rule:evenodd;" d="M11.9,3.4c0.7-0.9,1.2-2.1,1-3.4c-1.1,0.1-2.4,0.8-3.2,1.7
	c-0.7,0.8-1.3,2.1-1,3.3C9.9,5.1,11.2,4.4,11.9,3.4L11.9,3.4z"/>
</svg>
