<svg version="1.1" id="Ebene_1" xmlns="http://www.w3.org/2000/svg" xmlns:xlink="http://www.w3.org/1999/xlink" x="0px" y="0px"
     viewBox="0 0 425.2 87" style="enable-background:new 0 0 425.2 87;" xml:space="preserve">
<style type="text/css">
	.st0{fill:#353535;}
	.st1{fill-rule:evenodd;clip-rule:evenodd;fill:#D33D52;}
	.st2{fill-rule:evenodd;clip-rule:evenodd;fill:#5E828C;}
</style>
    <g>
	<g>
		<path class="st0" d="M381.5,41.1l2-8.5h4.7L382.8,57h-4.7l0.5-2.2c-1.5,1.8-3.2,2.6-5.3,2.6c-4,0-6.8-3.2-6.8-7.9
			c0-5.4,3.3-11.3,9.4-11.3C378.3,38.3,380.3,39.3,381.5,41.1z M371.4,48.6c0,2.5,1.7,4.2,3.9,4.2c1.7,0,3.1-0.9,4.1-2.1l1.4-6.1
			c-0.8-1.2-2.3-2.1-4.2-2.1C373.5,42.4,371.4,45.3,371.4,48.6z"/>
        <path class="st0" d="M386.6,49.3c0-6,4.5-11,10.6-11c4.7,0,8.2,3,8.2,8.1c0,1.1-0.2,2.5-0.4,3h-13.6c0,0.1,0,0.3,0,0.5
			c0,1.6,1.6,3.6,5,3.6c1.6,0,3.5-0.5,4.6-1.3l1.5,3.4c-1.8,1.2-4.2,1.9-6.5,1.9C390.3,57.5,386.6,54.4,386.6,49.3z M401.1,46.1
			c0-0.1,0-0.3,0-0.4c0-1.9-1.4-3.5-4.2-3.5c-2.6,0-4.5,1.9-4.9,3.9H401.1L401.1,46.1z"/>
	</g>
        <g>
		<g>
			<g>
				<path class="st1" d="M64.7,30.6c0,0,0,0-2.3,10.8c-1,5-3.1,15.1-12.8,15.1c-27.5,0,1.6,0-27.5,0C22.1,56.6,37.5,34.4,64.7,30.6"
                />
                <path class="st2" d="M17.8,43.1c0,0,0,0,2.5-12.5c1.3-6.5,4.4-8.6,9.4-8.6c36.6,0,36.6,0,36.6,0l-0.6,2.9
					C65.7,24.8,33.5,25.3,17.8,43.1z"/>
			</g>
		</g>
            <g>
			<path class="st0" d="M68,56.6l7-32h7.2l-5.6,25.7h14.2l-1.4,6.3H68z"/>
                <path class="st0" d="M91.8,46.2c0-7.9,6-14.6,14.1-14.6c6.3,0,11,4,11,10.9c0,1.5-0.3,3.3-0.5,4H98.2c0,0.2,0,0.5,0,0.6
				c0,2.1,2.2,4.8,6.7,4.8c2.2,0,4.6-0.6,6.2-1.8l2,4.5c-2.4,1.6-5.6,2.5-8.6,2.5C96.8,57.2,91.8,53,91.8,46.2z M111.1,42
				c0.1-0.1,0.1-0.4,0.1-0.5c0-2.5-1.8-4.7-5.7-4.7c-3.5,0-6.1,2.5-6.6,5.2H111.1L111.1,42z"/>
                <path class="st0" d="M139,35.4l0.7-3.2h6.5l-5.4,24.4h-6.5l0.7-3c-2.1,2.4-4.4,3.6-7.3,3.6c-5.5,0-9.3-3.6-9.3-10.1
				c0-7.4,4.6-15.5,12.9-15.5C134.5,31.5,137.4,33,139,35.4z M125.1,45.7c0,3.5,2.3,5.7,5.4,5.7c2.3,0,4.3-1.3,5.6-2.9l1.9-8.4
				c-1.1-1.7-3.1-2.8-5.7-2.8C128.1,37.3,125.1,41.2,125.1,45.7z"/>
                <path class="st0" d="M144.2,52.8l3.6-4.5c1.5,1.7,5,3.8,8.5,3.8c2.2,0,3.5-1.2,3.5-2.5c0-3.3-12.4-2.5-12.4-9.8
				c0-4.2,3.5-8.2,10.1-8.2c4.1,0,8,1.6,10.4,3.9l-3.3,4.3c-1.2-1.5-4.2-3.2-7.2-3.2c-2.3,0-3.5,1-3.5,2.3c0,3,12.4,2.3,12.4,9.7
				c0,4.6-3.9,8.5-10.6,8.5C151.3,57.2,147,55.6,144.2,52.8z"/>
                <path class="st0" d="M167.2,56.6l5.4-24.4h6.4l-5.4,24.4H167.2z"/>
                <path class="st0" d="M193.6,56.6l3.3-14.8c0.1-0.5,0.2-1,0.2-1.4c0-2.2-1.8-3.1-4.2-3.1c-2.2,0-4.3,1.5-5.7,2.8l-3.6,16.5h-6.4
				l5.4-24.4h6.4l-0.7,3.1c1.9-1.8,4.5-3.7,8.1-3.7c4.7,0,7.6,2.4,7.6,6.2c0,0.5-0.2,1.5-0.3,2l-3.7,16.8H193.6z"/>
                <path class="st0" d="M202.8,62.2l3.8-4.2c1.6,2.1,4.7,3.2,7.9,3.2c3,0,5.9-1.3,6.9-6.3l0.5-2.3c-1.8,2.3-4.5,3.7-7.5,3.7
				c-4.9,0-9.2-2.9-9.2-9.9c0-7.4,4.7-14.9,12.6-14.9c3,0,6.1,1.5,7.9,3.8l0.8-3.2h6.4l-5.1,22.8c-2.1,9.2-8,11.5-13.3,11.5
				C209.8,66.5,205.8,65.3,202.8,62.2z M223,47.8l1.7-7.6c-1.2-1.9-3.4-3-6-3c-4,0-6.8,3.5-6.8,7.9c0,3.3,2.2,5.5,5.6,5.5
				C219.6,50.6,221.7,49.4,223,47.8z"/>
                <path class="st0" d="M259.3,56.6l5-24.3l-13.7,24.3h-2.9l-3.8-24.3l-5,24.3h-6.6l6.3-32h10l2.9,19.3l10.5-19.3h10.4l-6.3,32
				H259.3z"/>
                <path class="st0" d="M291.5,35.4l0.7-3.2h6.5l-5.4,24.4h-6.5l0.7-3c-2.1,2.4-4.4,3.6-7.3,3.6c-5.5,0-9.3-3.6-9.3-10.1
				c0-7.4,4.6-15.5,12.9-15.5C287,31.5,289.9,33,291.5,35.4z M277.6,45.7c0,3.5,2.3,5.7,5.4,5.7c2.3,0,4.3-1.3,5.6-2.9l1.9-8.4
				c-1.1-1.7-3.1-2.8-5.7-2.8C280.5,37.3,277.6,41.2,277.6,45.7z"/>
                <path class="st0" d="M297.5,56.6l5.4-24.4h6.4l-0.7,3.2c2.1-2.3,4.7-3.8,8.6-3.8l-1.4,6.4c-0.4-0.1-1.3-0.3-2.3-0.3
				c-2.4,0-4.6,1.3-6.1,2.9l-3.5,16H297.5z"/>
                <path class="st0" d="M330.5,56.6L326,47l-3.8,3.3l-1.4,6.3h-6.4l6.9-32h6.5l-3.9,18l11.4-10.5h8.1l-12.1,11.1l7,13.3H330.5z"/>
                <path class="st0" d="M342.8,51.9c0-0.3,0.1-1.1,0.2-1.7l2.7-12.4h-8.6l5.9-5.6h4l1.5-7.4h6.4l-1.5,7.4h7.2l-1.3,5.6h-7.2
				l-2.4,10.7c-0.1,0.3-0.1,0.6-0.1,0.9c0,1.3,0.6,2.3,2.2,2.3c0.7,0,1.5,0,4.1-0.3l-1.2,4.8c-0.9,0.7-3.2,1.1-4.8,1.1
				C345.7,57.2,342.8,55.5,342.8,51.9z"/>
                <path class="st0" d="M173.1,29.1l1.1-5.3h6.4l-1.1,5.3H173.1z"/>
                <path class="st0" d="M357.5,56.6l1.1-5.3h6.4l-1.1,5.3H357.5z"/>
		</g>
	</g>
</g>
</svg>