<?xml version="1.0" encoding="utf-8"?>
<!-- Generator: Adobe Illustrator 16.0.4, SVG Export Plug-In . SVG Version: 6.00 Build 0)  -->
<!DOCTYPE svg PUBLIC "-//W3C//DTD SVG 1.1//EN" "http://www.w3.org/Graphics/SVG/1.1/DTD/svg11.dtd">
<svg version="1.1" id="Ebene_1" xmlns="http://www.w3.org/2000/svg" xmlns:xlink="http://www.w3.org/1999/xlink" x="0px" y="0px"
	 width="20px" height="20px" viewBox="0 0 20 20" style="enable-background:new 0 0 20 20;" xml:space="preserve">
<g>
	<path d="M10,6c-2.2,0-4,1.8-4,4s1.8,4,4,4s4-1.8,4-4C14,7.8,12.2,6,10,6z"/>
	<path d="M17.7,11H20V9h-2.3c-0.2-3.1-2.4-5.2-5.2-6.2c-0.2,0-0.4-0.1-0.5-0.2c-0.5-0.1-0.5-0.2-1-0.2V0H9v1.2v1.2
		C6.2,2.6,4.2,4.3,3,6.8C2.7,7.6,2.5,8,2.3,9H0v2h2.3c0.1,0.7,0.2,1,0.5,1.7c0.2,0.3,0.3,0.7,0.5,1c0.2,0.3,0.3,0.5,0.5,0.8
		c1.3,1.8,2.9,3,5.2,3.2V20h2v-2.3C14.8,17.3,17.3,14.8,17.7,11z M10,16.5L10,16.5c-2,0-3.8-0.9-5-2.3c-0.2-0.3-0.5-0.7-0.7-1
		c-0.5-0.9-0.8-2-0.8-3.1c0-0.7,0.1-1.3,0.3-2C4,7.5,4.2,6.8,4.7,6.2c0.4-0.6,1-1.2,1.6-1.6c1-0.8,2.3-1.2,3.7-1.2l0,0
		c0.3,0,0.5,0,0.8,0c1.9,0.2,3.5,1.3,4.6,2.8c0.1,0.2,0.2,0.4,0.3,0.6C16,7.2,16.1,7.7,16.2,8c0.2,0.6,0.3,1.2,0.3,2
		c0,0.2,0,0.5,0,0.7c0,0.4-0.1,0.8-0.2,1.2C15.5,14.5,13,16.5,10,16.5z"/>
</g>
</svg>
