<?xml version="1.0" encoding="UTF-8" standalone="no"?>
<svg width="30px" height="30px" viewBox="0 0 30 30" version="1.1" xmlns="http://www.w3.org/2000/svg" xmlns:xlink="http://www.w3.org/1999/xlink">
    <title>people</title>
    <g id="Globals" stroke="none" stroke-width="1" fill="none" fill-rule="evenodd">
        <g id="Icon" transform="translate(-1141.000000, -2804.000000)" fill="#000000">
            <path d="M1162.355,2815.25 C1159.76667,2815.25 1157.66667,2812.73 1157.66667,2809.625 C1157.66667,2806.52 1159.76667,2804 1162.355,2804 C1164.94333,2804 1167.04333,2806.52 1167.04333,2809.625 C1167.04333,2812.73 1164.94333,2815.25 1162.355,2815.25 Z M1159.68167,2820.66672 L1165.30667,2820.66672 C1168.41167,2820.66672 1170.93167,2821.52005 1170.93167,2824.62505 L1170.93167,2830.66672 L1160.93167,2830.66672 L1160.93167,2826.50005 C1160.93167,2823.85005 1158.465,2822.47672 1156,2821.88172 C1157.03167,2820.63839 1157.94333,2820.66672 1159.68167,2820.66672 Z M1149.02167,2818.58333 C1146.43333,2818.58333 1144.33333,2816.06333 1144.33333,2812.95833 C1144.33333,2809.85333 1146.43333,2807.33333 1149.02167,2807.33333 C1151.61,2807.33333 1153.71,2809.85333 1153.71,2812.95833 C1153.71,2816.06333 1151.61,2818.58333 1149.02167,2818.58333 Z M1152.25,2824 C1155.355,2824 1159.33333,2825.27 1159.33333,2828.375 L1159.33333,2834 L1141,2834 L1141,2828.375 C1141,2825.27 1143.52,2824 1146.625,2824 L1152.25,2824 Z" id="people"></path>
        </g>
    </g>
</svg>