<?xml version="1.0" encoding="utf-8"?>
<!-- Generator: Adobe Illustrator 16.0.4, SVG Export Plug-In . SVG Version: 6.00 Build 0)  -->
<!DOCTYPE svg PUBLIC "-//W3C//DTD SVG 1.1//EN" "http://www.w3.org/Graphics/SVG/1.1/DTD/svg11.dtd">
<svg version="1.1" id="Ebene_1" xmlns="http://www.w3.org/2000/svg" xmlns:xlink="http://www.w3.org/1999/xlink" x="0px" y="0px"
	 width="24px" height="24px" viewBox="-2 -2 27 27" style="enable-background:new 0 0 24 24;" xml:space="preserve">
<path d="M6.8,1l1.9,0.5c0,0,1,0.3,0.7,1.3l0.4,5.3c0,0,0,0.8-0.8,1.1L7.7,9.7c0,0-0.9,0.6-0.3,1.4c0.5,0.9,4.1,6.5,4.1,6.5
	s0.3,0.4,0.8,0.4c0.2,0,0.4-0.1,0.6-0.2l1-0.7c0,0,0.3-0.2,0.6-0.2c0.1,0,0.2,0,0.3,0.1c0.4,0.2,3.7,1.9,3.7,1.9s0.8,0.4,0.5,1.4
	c-0.3,1-0.7,2.5-0.7,2.5S16.9,24,15.8,24c-0.1,0-0.2,0-0.3,0c-1.1-0.3-14.2-4.4-11-21.1C4.7,1.8,6.8,1,6.8,1"/>
</svg>
