<?xml version="1.0" encoding="utf-8"?>
<!-- Generator: Adobe Illustrator 16.0.0, SVG Export Plug-In . SVG Version: 6.00 Build 0)  -->
<!DOCTYPE svg PUBLIC "-//W3C//DTD SVG 1.1//EN" "http://www.w3.org/Graphics/SVG/1.1/DTD/svg11.dtd">
<svg version="1.1" xmlns="http://www.w3.org/2000/svg" xmlns:xlink="http://www.w3.org/1999/xlink" x="0px" y="0px" width="60px"
	 height="60px" viewBox="0 0 60 60" style="enable-background:new 0 0 60 60;" xml:space="preserve">
<style type="text/css">
<![CDATA[
	.st0{fill:#E6E6E6;}
	.st1{fill-rule:evenodd;clip-rule:evenodd;fill:#446796;}
	.st2{fill:#1A6600;}
	.st3{fill:none;stroke:#335D86;stroke-width:3;stroke-linecap:round;stroke-linejoin:round;stroke-miterlimit:10;}
	.st4{fill:#FF7500;stroke:#FF7400;stroke-width:2;stroke-linecap:round;stroke-linejoin:round;stroke-miterlimit:10;}
	.st5{fill:#FF7500;stroke:#FF7400;stroke-width:3;stroke-linecap:round;stroke-linejoin:round;stroke-miterlimit:10;}
	.st6{fill:#FF7500;stroke:#FF7400;stroke-width:5;stroke-linecap:round;stroke-linejoin:round;stroke-miterlimit:10;}
	.st7{fill:#BA0000;}
	.st8{fill:#8B909E;}
	.st9{fill:#8B909F;}
	
		.st10{fill-rule:evenodd;clip-rule:evenodd;fill:none;stroke:#FF7400;stroke-width:4;stroke-linecap:round;stroke-linejoin:round;stroke-miterlimit:10;}
	.st11{fill:#8C91A0;}
	.st12{fill:#FF7400;stroke:#FF7500;stroke-linecap:round;stroke-linejoin:round;stroke-miterlimit:10;}
	.st13{fill:none;stroke:#FF7400;stroke-width:2;stroke-linecap:round;stroke-linejoin:round;stroke-miterlimit:10;}
	.st14{opacity:0.5;fill:#FF00FF;}
	.st15{fill:none;stroke:#FF7400;stroke-width:3;stroke-linecap:round;stroke-linejoin:round;stroke-miterlimit:10;}
	.st16{fill:none;stroke:#FF7400;stroke-width:4;stroke-linecap:round;stroke-linejoin:round;stroke-miterlimit:10;}
	.st17{fill:none;stroke:#FF7400;stroke-width:5;stroke-linecap:round;stroke-linejoin:round;stroke-miterlimit:10;}
	.st18{fill:#949494;}
	.st19{fill:#C5C8CF;}
	.st20{fill-rule:evenodd;clip-rule:evenodd;fill:#8B909F;}
	.st21{fill:#98571D;}
	.st22{fill-rule:evenodd;clip-rule:evenodd;fill:#8C91A0;}
	.st23{fill:none;stroke:#8B909F;stroke-width:3;stroke-linecap:round;stroke-linejoin:round;stroke-miterlimit:10;}
	.st24{fill:#FF00FF;}
	.st25{fill:#FF7400;}
	.st26{fill:#FF7500;}
	.st27{fill:#FFB700;}
	.st28{fill:#FFFFFF;}
	.st29{fill:none;}
	.st30{fill:#9D875C;}
	.st31{fill:#333333;}
	.st32{fill:#335C85;}
	.st33{fill:#335D86;}
	.st34{fill:#00A000;}
	.st35{fill:none;stroke:#FF7500;stroke-width:2;stroke-linecap:round;stroke-linejoin:round;stroke-miterlimit:10;}
	.st36{fill:none;stroke:#FF7500;stroke-width:4;stroke-linecap:round;stroke-linejoin:round;stroke-miterlimit:10;}
	.st37{fill:none;stroke:#FF7500;stroke-width:5;stroke-linecap:round;stroke-linejoin:round;stroke-miterlimit:10;}
	.st38{fill:#D1D3D9;}
	.st39{display:inline;opacity:0.15;fill:#FF00FF;}
	.st40{fill:#3D648C;}
	.st41{fill:#71A766;}
	.st42{display:none;}
	.st43{fill-rule:evenodd;clip-rule:evenodd;fill:#335C85;}
	.st44{fill-rule:evenodd;clip-rule:evenodd;fill:#335D86;}
	.st45{fill:#DCDEE2;}
	.st46{fill:#DE9F00;}
	.st47{fill:#446796;}
]]>
</style>
<g id="grid">
	<rect x="-250" y="60" class="st0" width="4845" height="1"/>
</g>
<g id="text">
</g>
<g id="borders" class="st42">
	<rect class="st39" width="60" height="60"/>
</g>
<g id="icons_1_">
	<g>
		<path class="st11" d="M58.5,49.7l-3.8-30c-0.2-2.1-2-3.7-4.1-3.7c-0.3,0-0.7,0-1,0.1l-0.1,0v3.1l0.8-0.2c0.1,0,0.2,0,0.3,0
			c0.6,0,1,0.4,1.1,1l3.8,30c0.1,0.8-0.5,1.6-1.3,1.7L15.1,57c-0.8,0.1-1.5-0.5-1.5-1.2L13.1,51h-3l0.4,5c0.2,2.3,2.1,4,4.3,4
			c0.2,0,0.4,0,0.6,0l39.1-5.2C57,54.4,58.8,52.2,58.5,49.7z"/>
		<path class="st11" d="M35.9,23.6c-1.2-2.1-2.9-4.1-5.3-4.1c-2.4,0-6.6,0-6.6,0s-4.2,0-6.6,0c-2.4,0-4.1,2-5.3,4.1
			c-0.9,1.5-3.1,6-3.1,11.2v4.9C9,41,10,42,11.2,42s2.2-1,2.2-2.2V39h21v0.8c0,1.2,1,2.2,2.2,2.2s2.2-1,2.2-2.2v-4.9
			C39,29.6,36.8,25.1,35.9,23.6z M14.4,24.9c1.3-2.3,2-2.4,3-2.4h13.2c1,0,1.7,0.1,3,2.4c0.1,0.2,0.5,0.9,0.9,2.1H13.5
			C13.9,25.9,14.3,25.1,14.4,24.9z M14.2,34.5c-1.2,0-2.2-1-2.2-2.2s1-2.2,2.2-2.2s2.2,1,2.2,2.2S15.5,34.5,14.2,34.5z M28.5,36h-9
			v-3h9V36z M33.8,34.5c-1.2,0-2.2-1-2.2-2.2s1-2.2,2.2-2.2s2.2,1,2.2,2.2S35,34.5,33.8,34.5z"/>
		<path class="st11" d="M43.5,12H29.2l-0.8,3h15c0.8,0,1.5,0.7,1.5,1.5V45c0,0.8-0.7,1.5-1.5,1.5h-39C3.7,46.5,3,45.8,3,45V16.5
			C3,15.7,3.7,15,4.5,15h21l1.9-6l0,0c-0.1,0-0.2,0-0.3,0c-1,0-1.8-0.3-2.6-0.8L23.2,12H4.5C2,12,0,14,0,16.5V45
			c0,2.5,2,4.5,4.5,4.5h39c2.5,0,4.5-2,4.5-4.5V16.5C48,14,46,12,43.5,12z"/>
		<circle class="st26" cx="27" cy="4.5" r="4.5"/>
	</g>
</g>
<g id="Service_Icons">
</g>
<g id="Category_Icons">
</g>
<g id="Placeholder_Icons">
</g>
</svg>
