<?xml version="1.0" encoding="utf-8"?>
<!-- Generator: Adobe Illustrator 16.0.4, SVG Export Plug-In . SVG Version: 6.00 Build 0)  -->
<!DOCTYPE svg PUBLIC "-//W3C//DTD SVG 1.1//EN" "http://www.w3.org/Graphics/SVG/1.1/DTD/svg11.dtd">
<svg version="1.1" id="Ebene_1" xmlns="http://www.w3.org/2000/svg" xmlns:xlink="http://www.w3.org/1999/xlink" x="0px" y="0px"
	 width="29px" height="43px" viewBox="0 0 29 43" style="enable-background:new 0 0 29 43;" xml:space="preserve">
<path d="M27,7.2c-2-3.4-5.1-5.8-8.8-6.7C17,0.2,15.7,0,14.5,0C7.7,0,1.9,4.6,0.4,11.2c-1,4.3,0.3,8.3,1.7,11.5
	C5,29.4,9,35.3,12.6,40.2c0.3,0.4,0.6,0.8,1,1.3l1,1.2l0.4-0.6c0.5-0.7,1.1-1.5,1.6-2.2c1.1-1.6,2.2-3.1,3.3-4.6
	c3.4-5.1,6.9-10.7,8.7-17C29.5,14.5,29,10.6,27,7.2z M14.5,21.5c-3.9,0-7-3.1-7-7s3.1-7,7-7c3.9,0,7,3.1,7,7S18.4,21.5,14.5,21.5z"
	/>
</svg>
