<?xml version="1.0" encoding="utf-8"?>
<!-- Generator: Adobe Illustrator 16.0.4, SVG Export Plug-In . SVG Version: 6.00 Build 0)  -->
<!DOCTYPE svg PUBLIC "-//W3C//DTD SVG 1.1//EN" "http://www.w3.org/Graphics/SVG/1.1/DTD/svg11.dtd">
<svg version="1.1" id="Ebene_1" xmlns="http://www.w3.org/2000/svg" xmlns:xlink="http://www.w3.org/1999/xlink" x="0px" y="0px"
	 width="30px" height="44px" viewBox="0 0 30 44" style="enable-background:new 0 0 30 44;" xml:space="preserve">
<g>
	<g>
		<path style="fill:#FF7500;" d="M14.1,42c-0.4-0.5-0.7-0.9-1-1.3C9.5,35.8,5.5,29.9,2.6,23.2C1.2,19.9-0.2,16,0.9,11.7
			C2.4,5.1,8.2,0.5,15,0.5c1.2,0,2.5,0.2,3.7,0.5c3.7,1,6.9,3.3,8.8,6.7c2,3.4,2.5,7.3,1.4,11.1c-1.8,6.3-5.2,11.9-8.7,17
			c-1,1.6-2.1,3-3.3,4.6c-0.5,0.7-1.1,1.5-1.6,2.2l-0.4,0.6L14.1,42z"/>
		<path style="fill:#FFFFFF;" d="M15,1c1.2,0,2.4,0.1,3.6,0.5c7.5,1.9,12,9.7,9.9,17.2c-1.7,6.2-5.1,11.6-8.6,16.9
			c-1.5,2.3-3.2,4.4-4.8,6.8c-0.6-0.7-1.1-1.3-1.5-1.9C9.5,34.9,5.7,29.3,3,23c-1.6-3.6-2.6-7.2-1.7-11.2C2.9,5.3,8.6,1,15,1 M15,0
			C8,0,2,4.8,0.4,11.6c-1.1,4.5,0.3,8.5,1.7,11.8C5,30.1,9.1,36.1,12.7,41c0.3,0.4,0.7,0.9,1,1.3c0.2,0.2,0.3,0.4,0.5,0.7l0.8,1.1
			l0.8-1.1c0.5-0.7,1.1-1.5,1.6-2.2c1.1-1.6,2.2-3.1,3.3-4.6c3.4-5.2,6.9-10.7,8.7-17.2C30.5,15,30,11,28,7.5c-2-3.5-5.3-6-9.2-7
			C17.6,0.2,16.3,0,15,0L15,0z"/>
	</g>
	<path style="fill:#FFFFFF;" d="M24.5,13.4c0-0.9-1.1-0.7-1.5-0.7H22c-0.1-0.6-0.4-1-0.5-1.1c-0.7-1.2-1.5-2-2.9-2h-3.4h-0.6h-3.3
		c-1.4,0-2.1,1.1-2.8,2.3C8.3,12,8.2,12,8.1,12.6H7.1c-0.5,0-1.6-0.2-1.6,0.7c0,0.5,1.2,0.7,2,0.8c-0.3,1.1-0.2,2-0.2,3.5v3.4
		c0,0.5,0.7,0.7,1.2,0.7c0.5,0,1.2-0.2,1.2-0.7v-1H15h5.2v0.9c0,0.5,0.6,0.8,1.1,0.8h0.1c0.5,0,1.3-0.2,1.3-0.8v-3.2
		c0-1.4,0-2.4-0.3-3.5C23.3,14.1,24.5,13.9,24.5,13.4z M9.5,12c0.8-1.3,1.3-1.1,1.8-1.1h3.3h0.6h3.3c0.7,0,1.1,0,1.7,1.1
		c0.1,0.1,0.5,0.7,0.8,1.9h-5.8h-0.6H8.9C9.2,12.7,9.4,12.1,9.5,12z M9.4,17.2c-0.5,0-1-0.4-1-1c0-0.5,0.4-1,1-1s1,0.4,1,1
		C10.3,16.7,9.9,17.2,9.4,17.2z M17.6,19.1l-5.2,0v-1.7h5.2V19.1z M20.6,17.2c-0.5,0-1-0.4-1-1c0-0.5,0.4-1,1-1c0.5,0,1,0.4,1,1
		C21.6,16.7,21.2,17.2,20.6,17.2z"/>
</g>
</svg>
