<?xml version="1.0" encoding="utf-8"?>
<!-- Generator: Adobe Illustrator 16.0.4, SVG Export Plug-In . SVG Version: 6.00 Build 0)  -->
<!DOCTYPE svg PUBLIC "-//W3C//DTD SVG 1.1//EN" "http://www.w3.org/Graphics/SVG/1.1/DTD/svg11.dtd">
<svg version="1.1" id="Ebene_1" xmlns="http://www.w3.org/2000/svg" xmlns:xlink="http://www.w3.org/1999/xlink" x="0px" y="0px"
	 width="30px" height="44px" viewBox="0 0 30 44" style="enable-background:new 0 0 30 44;" xml:space="preserve">
<g>
	<g>
		<path style="fill:#FF7500;" d="M14.1,42c-0.4-0.5-0.7-0.9-1-1.3C9.5,35.8,5.5,29.9,2.6,23.2C1.2,19.9-0.2,16,0.9,11.7
			C2.4,5.1,8.2,0.5,15,0.5c1.2,0,2.5,0.2,3.7,0.5c3.7,1,6.9,3.3,8.8,6.7c2,3.4,2.5,7.3,1.4,11.1c-1.8,6.3-5.2,11.9-8.7,17
			c-1,1.6-2.1,3-3.3,4.6c-0.5,0.7-1.1,1.5-1.6,2.2l-0.4,0.6L14.1,42z"/>
		<path style="fill:#FFFFFF;" d="M15,1c1.2,0,2.4,0.1,3.6,0.5c7.5,1.9,12,9.7,9.9,17.2c-1.7,6.2-5.1,11.6-8.6,16.9
			c-1.5,2.3-3.2,4.4-4.8,6.8c-0.6-0.7-1.1-1.3-1.5-1.9C9.5,34.9,5.7,29.3,3,23c-1.6-3.6-2.6-7.2-1.7-11.2C2.9,5.3,8.6,1,15,1 M15,0
			C8,0,2,4.8,0.4,11.6c-1.1,4.5,0.3,8.5,1.7,11.8C5,30.1,9.1,36.1,12.7,41c0.3,0.4,0.7,0.9,1,1.3c0.2,0.2,0.3,0.4,0.5,0.7l0.8,1.1
			l0.8-1.1c0.5-0.7,1.1-1.5,1.6-2.2c1.1-1.6,2.2-3.1,3.3-4.6c3.4-5.2,6.9-10.7,8.7-17.2C30.5,15,30,11,28,7.5c-2-3.5-5.3-6-9.2-7
			C17.6,0.2,16.3,0,15,0L15,0z"/>
	</g>
	<g>
		<path style="fill:#FFFFFF;" d="M16.6,19.9c0-0.8-0.6-1.4-1.4-1.4h-0.7c-0.8,0-1.4,0.6-1.4,1.4v6.4c0,0.8,0.6,1.4,1.4,1.4h0.7
			c0.8,0,1.4-0.6,1.4-1.4V19.9z"/>
		<path style="fill:#FFFFFF;" d="M21.5,8.8h-0.7c-0.6,0-1.3,0.6-1.3,1.2v0.7c-0.7,0-1,0.1-1,0.1c-0.8-1.8-3-2.8-3-2.8h-0.6h-0.6
			c0,0-2.1,1-3,2.8c0,0-0.3-0.1-1-0.1v-0.7c0-0.6-0.7-1.2-1.3-1.2H8.2c0,0-0.8,0.7-0.8,1.2v0.7c0,0,0.8,0.7,1.5,0.7l2.1,0.7
			c-0.4,0.7-0.7,1.9-0.7,2.9v2.9c0,2.4,0.7,3.6,2.1,5v-3.6c0-0.7,0.8-2,2.2-2h0.2h0.2c1.4,0,2.3,1.2,2.3,2v3.6
			c1.4-1.4,2.1-2.6,2.1-5v-2.9c0-0.9-0.4-2.1-0.7-2.9l2.1-0.7c0.7,0,1.5-0.7,1.5-0.7v-0.7C22.3,9.5,21.5,8.8,21.5,8.8z M14.7,14.7
			c-0.9,0-1.7-0.8-1.7-1.7c0-0.9,0.8-1.7,1.7-1.7c0.9,0,1.7,0.8,1.7,1.7C16.4,14,15.7,14.7,14.7,14.7z"/>
	</g>
</g>
</svg>
