<?xml version="1.0" encoding="UTF-8" standalone="no"?>
<svg width="24px" height="34px" viewBox="0 0 24 34" version="1.1" xmlns="http://www.w3.org/2000/svg" xmlns:xlink="http://www.w3.org/1999/xlink">
    <title>placeholdermoto</title>
    <g id="Globals" stroke="none" stroke-width="1" fill="none" fill-rule="evenodd">
        <g id="Icon" transform="translate(-372.000000, -1892.000000)" fill="#333333">
            <path d="M378.734212,1910.72866 L379.823857,1911.17983 C380.119533,1911.30117 380.351598,1911.52734 380.476465,1911.81477 C380.595443,1912.08571 380.600155,1912.38021 380.492957,1912.64055 L375.614883,1924.41813 C375.39342,1924.95294 374.601808,1925.27336 374.026947,1925.0354 L373.037432,1924.62546 C372.453147,1924.38279 372.118597,1923.62417 372.349483,1923.0658 L377.228735,1911.28703 C377.392477,1910.89005 377.797707,1910.63325 378.260658,1910.63325 C378.423221,1910.63325 378.582251,1910.66505 378.734212,1910.72866 M394.729017,1899.82044 C393.680602,1899.38576 392.469624,1899.88876 392.034944,1900.936 C391.989003,1901.04673 391.959553,1901.15982 391.933637,1901.2729 L389.860367,1901.06204 C389.690736,1897.80253 388.273609,1895.23333 386.154397,1894.3569 C384.035186,1893.47812 381.215068,1894.29329 378.791934,1896.47729 L377.176904,1895.16029 C377.238159,1895.06134 377.297059,1894.96121 377.341823,1894.85048 C377.777681,1893.80324 377.274677,1892.59109 376.226262,1892.15641 C375.179025,1891.72173 373.966869,1892.22473 373.534546,1893.27315 C373.253005,1893.95167 373.369626,1894.69734 373.768966,1895.25689 C373.842002,1895.41474 373.939776,1895.56081 374.083491,1895.67861 L377.192218,1898.21365 C376.375868,1899.26207 375.646689,1900.48365 375.069472,1901.87721 L373.040966,1906.77649 C371.46481,1910.58024 371.931295,1913.97757 372.784163,1915.85883 L375.051802,1910.38587 C375.580721,1909.10421 376.842353,1908.27726 378.260658,1908.27726 C378.734212,1908.27726 379.198342,1908.36914 379.638911,1908.55173 L380.725022,1909.0029 C381.587314,1909.35866 382.265839,1910.02304 382.636907,1910.87238 C383.012687,1911.73703 383.024467,1912.68531 382.669891,1913.54289 L380.402252,1919.01467 C382.337696,1918.28785 385.068287,1916.21458 386.644443,1912.41084 L388.674127,1907.51274 C389.251344,1906.11799 389.60003,1904.73856 389.762594,1903.42039 L393.754816,1903.82679 C393.794868,1903.83151 393.833741,1903.83268 393.876149,1903.83268 C394.026933,1903.83268 394.173004,1903.80206 394.309651,1903.74787 C394.972862,1903.62536 395.567749,1903.18243 395.8434,1902.51333 C396.278079,1901.46727 395.776254,1900.25394 394.729017,1899.82044 M385.493543,1903.64656 C384.871562,1905.14968 383.149334,1905.86237 381.647392,1905.23921 C380.143093,1904.61841 379.430407,1902.895 380.052387,1901.39188 C380.674368,1899.88994 382.396596,1899.17607 383.899716,1899.79805 C385.402837,1900.42121 386.115524,1902.14344 385.493543,1903.64656" id="placeholdermoto"></path>
        </g>
    </g>
</svg>
