<?xml version="1.0" encoding="UTF-8" standalone="no"?>
<svg width="81px" height="44px" viewBox="0 0 81 44" version="1.1" xmlns="http://www.w3.org/2000/svg" xmlns:xlink="http://www.w3.org/1999/xlink">
    <title>placeholdertruck</title>
    <g id="Globals" stroke="none" stroke-width="1" fill="none" fill-rule="evenodd">
        <g id="Icon" transform="translate(-610.000000, -1882.000000)" fill="#000000">
            <path d="M669.297553,1922.32354 C666.637232,1922.32354 664.4834,1920.18225 664.4834,1917.54449 C664.4834,1914.90423 666.637232,1912.76544 669.297553,1912.76544 C671.957874,1912.76544 674.109198,1914.90423 674.109198,1917.54449 C674.109198,1920.18225 671.957874,1922.32354 669.297553,1922.32354 Z M618.02108,1922.32354 C615.363267,1922.32354 613.209435,1920.18225 613.209435,1917.54449 C613.209435,1914.90423 615.363267,1912.76544 618.02108,1912.76544 C620.681401,1912.76544 622.83774,1914.90423 622.83774,1917.54449 C622.83774,1920.18225 620.681401,1922.32354 618.02108,1922.32354 Z M669.297553,1909.58108 C673.730585,1909.58108 677.32114,1913.14406 677.32114,1917.54449 C677.32114,1921.94493 673.730585,1925.51041 669.297553,1925.51041 C664.862013,1925.51041 661.273966,1921.94493 661.273966,1917.54449 C661.273966,1913.14406 664.862013,1909.58108 669.297553,1909.58108 Z M618.02108,1909.58108 C622.454112,1909.58108 626.044667,1913.14406 626.044667,1917.54449 C626.044667,1921.94493 622.454112,1925.51041 618.02108,1925.51041 C613.590555,1925.51041 610,1921.94493 610,1917.54449 C610,1913.14406 613.590555,1909.58108 618.02108,1909.58108 Z M638.082556,1909.58108 C642.520603,1909.58108 646.106143,1913.14406 646.106143,1917.54449 C646.106143,1921.94493 642.520603,1925.51041 638.082556,1925.51041 C633.649524,1925.51041 630.058968,1921.94493 630.058968,1917.54449 C630.058968,1913.14406 633.649524,1909.58108 638.082556,1909.58108 Z M638.082556,1922.32354 C640.742876,1922.32354 642.899216,1920.18225 642.899216,1917.54449 C642.899216,1914.90423 640.742876,1912.76544 638.082556,1912.76544 C635.422235,1912.76544 633.270911,1914.90423 633.270911,1917.54449 C633.270911,1920.18225 635.422235,1922.32354 638.082556,1922.32354 Z M690.087939,1902.32224 L690.087939,1916.91263 L686.341926,1921.82457 L682.064351,1921.82457 L680.406979,1921.82457 C680.602554,1920.96705 680.727923,1920.08195 680.727923,1919.16676 C680.727923,1912.56736 675.34209,1907.22165 668.692542,1907.22165 C662.042993,1907.22165 656.65716,1912.56736 656.65716,1919.16676 C656.65716,1920.08195 656.782529,1920.96705 656.978104,1921.82457 L648.31263,1921.82457 C648.505697,1920.96705 648.631066,1920.08195 648.631066,1919.16676 C648.631066,1916.09523 647.021334,1911.6973 645.103195,1909.58108 L657.993589,1909.58108 L657.993589,1884.65531 L660.668954,1882 L682.064351,1882 C685.208595,1882 688.21744,1887.26046 690.087939,1902.32224 Z M668.692542,1889.83303 L668.692542,1897.92933 L679.391494,1900.58463 L685.542075,1900.58463 L684.529097,1893.53391 L682.71376,1887.01474 L670.176905,1887.01474 L668.692542,1889.83303 Z" id="placeholdertruck"></path>
        </g>
    </g>
</svg>