<?xml version="1.0" encoding="UTF-8" standalone="no"?>
<svg width="45px" height="30px" viewBox="0 0 45 30" version="1.1" xmlns="http://www.w3.org/2000/svg" xmlns:xlink="http://www.w3.org/1999/xlink">
    <title>placeholdercar</title>
    <g id="Globals" stroke="none" stroke-width="1" fill="none" fill-rule="evenodd">
        <g id="Icon" transform="translate(-114.000000, -1895.000000)" fill="#333333">
            <path d="M149.25,1914.5 C147.594,1914.5 146.25,1913.156 146.25,1911.5 C146.25,1909.844 147.594,1908.5 149.25,1908.5 C150.906,1908.5 152.25,1909.844 152.25,1911.5 C152.25,1913.156 150.906,1914.5 149.25,1914.5 L149.25,1914.5 Z M130.5,1917.5 L142.5,1917.5 L142.5,1914.5 L130.5,1914.5 L130.5,1917.5 Z M123.75,1914.5 C122.094,1914.5 120.75,1913.156 120.75,1911.5 C120.75,1909.844 122.094,1908.5 123.75,1908.5 C125.406,1908.5 126.75,1909.844 126.75,1911.5 C126.75,1913.156 125.406,1914.5 123.75,1914.5 L123.75,1914.5 Z M123.3615,1901.726 C125.142,1898.576 126.153,1898 127.5,1898 L145.5,1898 C146.847,1898 147.858,1898.576 149.6385,1901.726 C149.7975,1902.0095 150.5415,1903.3805 151.287,1905.5 L121.7115,1905.5 C122.4585,1903.3805 123.2025,1902.0095 123.3615,1901.726 L123.3615,1901.726 Z M155.25,1902.5 L153.012,1902.5 C152.727,1901 152.466,1901.006 152.25,1900.625 C150.597,1897.703 148.8345,1895 145.5,1895 L136.5,1895 L127.5,1895 C124.1655,1895 122.4015,1897.703 120.75,1900.625 C120.534,1901.006 120.273,1901 119.988,1902.5 L117.75,1902.5 C116.64,1902.5 114,1902.125 114,1904.375 C114,1905.5825 116.2635,1906.202 118.3335,1906.3925 C117.591,1908.929 117,1911.839 117,1915.25 L117,1922.75 C117,1923.9875 118.0125,1925 119.25,1925 L120.75,1925 C121.9875,1925 123,1923.9875 123,1922.75 L123,1922 L150,1922 L150,1922.75 C150,1923.9875 151.0125,1925 152.25,1925 L153.75,1925 C154.9875,1925 156,1923.9875 156,1922.75 L156,1915.25 C156,1911.839 155.409,1908.929 154.6665,1906.3925 C156.7365,1906.202 159,1905.5825 159,1904.375 C159,1902.125 156.36,1902.5 155.25,1902.5 Z" id="placeholdercar"></path>
        </g>
    </g>
</svg>
