<?xml version="1.0" encoding="UTF-8" standalone="no"?>
<svg width="23px" height="23px" viewBox="0 0 23 23" version="1.1" xmlns="http://www.w3.org/2000/svg" xmlns:xlink="http://www.w3.org/1999/xlink">
    <!-- Generator: Sketch 3.7.2 (28276) - http://www.bohemiancoding.com/sketch -->
    <title>Group 5 Copyprint</title>
    <desc>Created with Sketch.</desc>
    <defs></defs>
    <g id="Page-1" stroke="none" stroke-width="1" fill="none" fill-rule="evenodd">
        <g id="Detailpage-Dealer-Recommendation-Copy-8" transform="translate(-1217.000000, -330.000000)">
            <g id="Group-5-Copy" transform="translate(1214.000000, 329.000000)">
                <g id="Group-2" transform="translate(3.090286, 1.033540)" fill="#3D648C">
                    <path d="M2.26620952,20.4640994 L20.3958857,20.4640994 L20.3958857,14.7796273 L2.26620952,14.7796273 L2.26620952,20.4640994 Z M20.3958857,22.7378882 L2.26620952,22.7378882 C1.01526187,22.7378882 0,21.7180939 0,20.4640994 L0,14.7796273 C0,13.5256328 1.01526187,12.5058385 2.26620952,12.5058385 L20.3958857,12.5058385 C21.6468334,12.5058385 22.6620952,13.5256328 22.6620952,14.7796273 L22.6620952,20.4640994 C22.6620952,21.7180939 21.6468334,22.7378882 20.3958857,22.7378882 L20.3958857,22.7378882 Z" id="Fill-1"></path>
                    <path d="M13.5972571,2.7445768 L16.5274661,5.68458574 L13.5972571,5.68458574 L13.5972571,2.7445768 Z M14.0663625,0.000113689442 L3.39931429,0.000113689442 L3.39931429,11.3690578 L5.66552381,11.3690578 L5.66552381,2.27390251 L11.3310476,2.27390251 L11.3310476,7.95837456 L16.9965714,7.95837456 L16.9965714,11.3690578 L19.262781,11.3690578 L19.262781,5.21391145 L14.0663625,0.000113689442 Z" id="Fill-3"></path>
                    <path d="M19.262781,17.6218634 C19.262781,18.5632119 18.5013346,19.327205 17.5631238,19.327205 C16.6249131,19.327205 15.8634667,18.5632119 15.8634667,17.6218634 C15.8634667,16.6805148 16.6249131,15.9165217 17.5631238,15.9165217 C18.5013346,15.9165217 19.262781,16.6805148 19.262781,17.6218634" id="Fill-4"></path>
                </g>
                <g id="Page-1-Copy-3"></g>
            </g>
        </g>
    </g>
</svg>