<?xml version="1.0" encoding="utf-8"?>
<!-- Generator: Adobe Illustrator 21.0.0, SVG Export Plug-In . SVG Version: 6.00 Build 0)  -->
<svg version="1.1" xmlns="http://www.w3.org/2000/svg" xmlns:xlink="http://www.w3.org/1999/xlink" x="0px" y="0px"
	 viewBox="0 0 24 24" style="enable-background:new 0 0 24 24;" xml:space="preserve">
<path class="st2" d="M18,8V3c0-0.6-0.4-1-1-1H7C6.4,2,6,2.4,6,3v5c-2.2,0-4,1.8-4,4v5c0,1.1,0.9,2,2,2h2v2c0,0.6,0.4,1,1,1h10
	c0.6,0,1-0.4,1-1v-2h2c1.1,0,2-0.9,2-2v-5C22,9.8,20.2,8,18,8z M8,4h8v4H8V4z M16,20H8v-4h8V20z M20,17h-2v-2c0-0.6-0.4-1-1-1H7
	c-0.6,0-1,0.4-1,1v2H4v-5c0-1.1,0.9-2,2-2h12c1.1,0,2,0.9,2,2V17z"/>
</svg>
