<?xml version="1.0" encoding="UTF-8" standalone="no"?>
<svg width="58px" height="60px" viewBox="0 0 58 60" version="1.1" xmlns="http://www.w3.org/2000/svg" xmlns:xlink="http://www.w3.org/1999/xlink">
    <title>saved-search-icon</title>
    <g id="Globals" stroke="none" stroke-width="1" fill="none" fill-rule="evenodd">
        <g id="Icon" transform="translate(-355.000000, -2125.000000)" fill="#000000">
            <path d="M401.245399,2142.70651 L405.177529,2142.70651 C405.49579,2143.13666 406.162291,2143.1242 406.162291,2143.68682 C406.162291,2145.16005 404.690453,2146.64158 403.214001,2146.64158 C401.720945,2146.64158 400.26156,2145.16005 400.26156,2143.68682 C400.26156,2143.1242 400.930829,2143.13666 401.245399,2142.70651 Z M409.114548,2130.90077 C409.114548,2132.87062 412.067451,2140.60415 412.067451,2140.73662 L412.067451,2141.72108 L397.308473,2141.72108 C396.324172,2139.75585 396.03497,2138.57662 395.340332,2136.80154 C395.720861,2135.41092 397.308473,2131.88569 397.308473,2130.90077 C397.308473,2127.95062 399.392386,2125 403.300992,2125 C407.212366,2125 409.114548,2127.95062 409.114548,2130.90077 Z M399.276982,2177.12985 C399.276982,2177.12985 401.245584,2180.24938 401.245584,2181.06446 C401.245584,2183.36985 398.631236,2185 396.324079,2185 C394.058896,2185 393.372099,2183.03431 393.372099,2183.03431 L382.549863,2166.31277 C385.196036,2165.29923 387.391572,2164.26492 389.438585,2162.37769 L399.276982,2177.12985 Z M374.680022,2165.32863 C363.82965,2165.32863 355,2156.50217 355,2145.65648 C355,2134.81125 363.82965,2125.98525 374.680022,2125.98525 C385.530856,2125.98525 394.355893,2134.81125 394.355893,2145.65648 C394.355893,2156.50217 385.530856,2165.32863 374.680022,2165.32863 Z M374.680022,2128.93494 C365.801941,2128.93494 357.952903,2136.78063 357.952903,2145.65648 C357.952903,2154.52863 365.801941,2162.37755 374.680022,2162.37755 C383.554874,2162.37755 391.40299,2154.52863 391.40299,2145.65648 C391.40299,2136.78063 383.554874,2128.93494 374.680022,2128.93494 Z M386.527841,2141.39038 C386.527841,2142.37531 385.502028,2142.70669 385.502028,2142.70669 L379.596683,2146.64177 L381.564824,2153.52285 C381.664915,2153.99038 381.962419,2155.24438 381.564824,2155.49269 C381.384015,2155.60854 379.811624,2155.64592 379.596683,2155.49269 L374.679791,2150.57269 L369.759209,2155.49269 C369.378681,2155.77423 368.187741,2155.75715 367.790607,2155.49269 C367.376869,2155.24438 367.691439,2153.99038 367.790607,2153.52285 L369.759209,2146.64177 L363.932738,2142.85115 C363.602024,2142.53685 362.700748,2141.821 362.882018,2141.39038 C363.052218,2140.95977 364.39952,2140.73638 364.862612,2140.73638 L371.752257,2140.73638 L373.853237,2133.727 C374.018363,2133.313 374.237456,2132.87038 374.704699,2132.87038 C375.147496,2132.87038 375.503117,2133.42469 375.689,2133.85115 L377.629004,2140.73638 L384.518649,2140.73638 C384.980819,2140.73638 386.527841,2140.92285 386.527841,2141.39038 Z" id="saved-search-icon"></path>
        </g>
    </g>
</svg>