<svg id="logoScout24" xmlns="http://www.w3.org/2000/svg" viewBox="0 0 672.48 206.13">
    <defs>
        <style>
            #scout24Marker {
                fill: #ff9015;
            }
            #scout24Font {
                fill: #333;
            }
        </style>
    </defs>
    <title>Scout24_solid</title>
    <path id="scout24Marker" class="cls-1"
        d="M668.2,204.9a4.05,4.05,0,0,0,1.1,0c.2-.1.2-.2.4-.3s.5-.2.6-.3c.6-.5,0-.7-.3-1.2-.6-.6,0-1,.2-1.6s-.1-.9-.4-1.4a2.54,2.54,0,0,1-.4-1.7c0-.6,0-.7-.5-1.1s-1.4-.7-1.1-1.5c.3-1,2.2-1.4,1.5-2.5-.3-.4-.8-.6-1-1-.4-.7.1-1.2.5-1.7s.9-1.9.5-2.6c-.3-.5-.7-.5-.7-1.2a3.72,3.72,0,0,1,.2-1.8c.6-1.2.1-1.6-.6-2.6-.8-1.3.7-1.8,1.7-2.4a2.76,2.76,0,0,0,1.2-1.4c.3-.7,0-1.1-.2-1.8s-1.1-1.6-1.1-2.4c0-1,1.9-1.4,1.6-2.3-.2-.5-2.5-.9-1.8-1.8.5-.6,2.3-.3,2-1.5-.1-.3-.5-.4-.6-.6-.1-.4,0-.2.2-.5a2.24,2.24,0,0,0,.6-1.7,9.51,9.51,0,0,0-.4-1.8c-.3-.6-.2-.6.1-1.2s-.1-1-.1-1.6.2-1,.3-1.5a3.93,3.93,0,0,0-.1-1.5,4.8,4.8,0,0,0-.5-1.7c-.3-.4-.7-.5-1-.9a2.46,2.46,0,0,1-.1-1.7c.2-.4,1-.4,1.3-.7.5-.5.3-1,.1-1.5a8.45,8.45,0,0,1-.5-1.7,3.64,3.64,0,0,1,.2-1.5,6.6,6.6,0,0,1-.1-1.4c0-.4.2-.8.2-1.3s-.4-1.2-.5-1.9.4-.9.5-1.5-.3-1.2-.3-1.8a12.1,12.1,0,0,1-.1-1.9,10.87,10.87,0,0,0-.1-1.8,5.82,5.82,0,0,1-.3-1.9,7.57,7.57,0,0,1,.1-1.5c.1-.5.5-.8.6-1.3.1-.9-.8-2.1-.3-2.9.3-.4,1-.3,1.3-.7s-.1-.8-.3-1.2a2.88,2.88,0,0,1-.3-1.6,8.73,8.73,0,0,0-.5-2.2c-.2-.8-.8-2-.4-2.8.2-.5.8-.6,1.1-1.1.3-.7-.5-1.1-.6-1.7s.4-.9.6-1.4.2-.2-.1-.5-.6-.2-.9-.4c-.6-.7.3-.8.7-1.2s.3-.9-.2-1.4c-.3-.3-.8-.5-.7-1,.1-.3.4-.2.5-.4.3-.4.2-.1,0-.5s-.6-.5-.8-.8c-.5-.6.2-1.1.5-1.6a2.53,2.53,0,0,0,.6-1.5c0-.6-.4-.9,0-1.5s1.3-1.1.6-1.8c-.4-.4-1.5-.2-1.5-.9s1.8-1.6.6-2.3c-.6-.3-.9,0-.8-.9a5.27,5.27,0,0,1,.5-1.5H658.9a4.05,4.05,0,0,1-1.1,0c-1.5-.5.1-2.1.2-2.8s-.3-1.2-.2-1.8a6.89,6.89,0,0,0,.3-.8A4.48,4.48,0,0,0,658,92c-.1-.6-.7-.7-1-1.2s.2-1.1.4-1.6a9.36,9.36,0,0,0,.4-1.6c0-.5-.7-.6-1-1-.5-.7.5-1.9.7-2.6a6.28,6.28,0,0,0,.2-3.6,6.28,6.28,0,0,1,.3-1.9,9.7,9.7,0,0,0,.1-1.7,16.2,16.2,0,0,0-.1-2.2,14.58,14.58,0,0,0-.7-1.9,3.89,3.89,0,0,1,.2-1.5,11.27,11.27,0,0,1,.3-1.8,3.08,3.08,0,0,0,0-1.9,10.46,10.46,0,0,1-.4-1.7,6.55,6.55,0,0,1,.5-3.1c.3-1.3-.7-2.1-.7-3.3,0-.4.1-.9.1-1.3a5.7,5.7,0,0,1-.1-1.3c.2-1.4,1-2.7,1.1-4.2s-.1-2.9-.1-4.3c-.1-1.2-.4-2.3-.5-3.5a10.87,10.87,0,0,0-.1-1.8,5.66,5.66,0,0,1-.3-1.8c0-.7.6-1,.8-1.6s-.1-1.1-.2-1.6a11.27,11.27,0,0,0-.3-1.8c-.1-.5-.3-.9-.4-1.5a14.72,14.72,0,0,1,0-2.1,5.5,5.5,0,0,1,.2-2.2c.3-.6.6-.7.5-1.4a11,11,0,0,1-.2-1.8c0-1.1.5-2.2.5-3.3a11.53,11.53,0,0,0-.2-3.7c-.4-1.3.1-2.3.5-3.5s0-1.9-.2-3a5.26,5.26,0,0,0-.4-1.7c-.1-.3-.3-.6-.4-.9-.2-.6,0-.6.3-1.1a3.81,3.81,0,0,0,.5-1.5c0-.4-.3-.6-.5-.9a4.69,4.69,0,0,1-.1-3.3,18.43,18.43,0,0,0,.5-2.5c0-.1.1-.7,0-.8s-1.1,0-1.4,0l-7.2.3c-10.1.4-20.2.6-30.4.8-18.7.3-37.4.3-56,.2L536.4,2c-21.6-.4-43.3-.4-64.9-.6-17-.1-34-.3-50.9-.3C409.1,1,398.2,1,387.4,1H372.6c-4.4,0-8.8.2-13.3.3-12.1.3-24.3.5-36.4.6-17.7.1-35.4.2-53.1.1-11.6,0-23.1-.3-34.7-.5-19.6-.4-39.3-.7-58.9-1-13-.2-26-.3-38.9-.5H114.4c-3.6,0-7.3,0-10.9.1-1.1,0-2.2,0-3.3.1-13.4.7-26.7,1-40.1,1.2-14.4.3-28.7.5-43.1.5H15a2.72,2.72,0,0,0-.9,0c-.3.1-.2.4-.2.7a5,5,0,0,0,.3,1.3,6,6,0,0,1,0,1.9,11.8,11.8,0,0,1-.4,2,9.38,9.38,0,0,0-.6,1.5c-.3,1.3,1.2,1.8,1.2,2.9,0,.6-1.7,2.7,0,2.6.5,0,1.1-.5,1.4.2s-.3,1.3-.6,1.7a5.5,5.5,0,0,1-.7.9c-.4.3-.8.5-1,.9-.7,1.4.8,2.2,1.1,3.5.1.4-.1.8-.1,1.3a3.71,3.71,0,0,0,.4,1.4c.5.9.8,1.6-.3,2.1-.9.4-1.8.9-1.8,2.1a7.37,7.37,0,0,0,.4,1.4c.1.5-.2.9.2,1.3.2.3.8.4.8.8s-.8.6-1.2.9c-.6.4-.6,1-.8,1.6-.2.8-.2,1,.3,1.6a1.56,1.56,0,0,1,.6,1.2c0,.5-.2,1-.2,1.6v1.8a10.46,10.46,0,0,1-.4,1.7,5.77,5.77,0,0,1-.3,1.4,10.93,10.93,0,0,0-.5,1.7,4.08,4.08,0,0,0-.1,1.9,9.14,9.14,0,0,0,.7,1.4,4.51,4.51,0,0,1,.3,1.1c0,.5-.3.9-.3,1.4.1,1,1.1,1.7.7,2.7s-1.2,1.9-1,2.9a3.53,3.53,0,0,0,.8,1.3.94.94,0,0,1,.1,1.3c-.2.4-.4.4-.2.8a2.41,2.41,0,0,0,.8.6c.5.4.7.8.3,1.4-.3.4-.8.6-.7,1.1.1.7.7.8.5,1.6a8.8,8.8,0,0,1-.5,1.5c-.1.2-.9.7-.9,1s.9.2.7.9c-.2.5-1.1.4-1,1.2,0,.4.6.7.6,1.1s-.3.6-.7.8-.7.1-.8.6.8,1,1.1,1.3c.5.3,1.2.7.7,1.4-.4.5-1.2.4-1.5,1-.6,1.2,1.1,1.3,1.8,1.2,1-.2,2.5.2,1.5,1.4a8.06,8.06,0,0,0-1.2,1.4c-.2.5-.1,1.1-.3,1.7-.1.4-.6.7-.6,1s.6.7.8,1,.1.9.3,1.4c.1.3.3.5.3.7.1.5-.2.5-.4.9-.6,1.3,1.5,1,1.6,2,0,.3-.2.4-.2.7a1.85,1.85,0,0,0,.2.7c.1.5.2.6-.4.7a20.44,20.44,0,0,1-3.5,0H6.4c-1.1,0-2.1-.1-3.2,0a3.08,3.08,0,0,0-1,.1c-.2.1,0,.2-.1.4a4.52,4.52,0,0,0-.1,2c0,.6-.5,1.1-.2,1.5s1.1.5,1.1,1.1c0,.2-.4.7-.4.9a2.35,2.35,0,0,0-.2.8c0,.5.3,1.1-.1,1.5s-.9.2-1.1.7.1,1,.1,1.5-.3,1-.3,1.5c0,.7.5,1,.9,1.5a1.07,1.07,0,0,1,.1,1.4c-.2.3-.6.3-.9.6-.5.4-.2.8.1,1.3.1.2.3.3.3.6a5.7,5.7,0,0,1-.1,1.3,2.22,2.22,0,0,0,.8,1.3c.4.3,1.1.4.9,1.1-.1.5-.7.8-1.1,1.1s-.8,1-.7,1.5c0,1.1,1.1,1.4,1.5,2.1.3.5,0,1.1-.1,1.6-.1.7-.5,1-.8,1.6s.1,1,.2,1.6a3.79,3.79,0,0,1,0,1.5,8,8,0,0,1-.3,1.5c-.2.6-.9.8-1.2,1.3A4.23,4.23,0,0,0,0,129a4.19,4.19,0,0,1,.4,1.5c0,.5-.1.6.1,1a4.14,4.14,0,0,1,.5,1.9v4.2c0,.6.3,1.2.2,1.7s-.5.7-.5,1.2a3.35,3.35,0,0,1,0,1c-.3,1.1-1.4,1.1-.8,2.5a5.55,5.55,0,0,1,.6,3.6c-.1.7-.3,1.1,0,1.7a3.81,3.81,0,0,1,.5,1.5c0,1.2-1.1,2-1,3.2a8.6,8.6,0,0,1,.1,1.6,8.33,8.33,0,0,0,.3,2.2c.2,1.3,0,2.7.1,4.1a8.51,8.51,0,0,0,.6,1.7,11.76,11.76,0,0,0,.7,2c.5.9,1.4,1.8,1.6,2.9.1.9-.6,1.8-.3,2.8s1.9.9,1.9,2.1c0,.6-.3,1.2-.3,1.9a3.92,3.92,0,0,0,.4,1.8c.3.5.3.4.7.5H25.4a6.55,6.55,0,0,1,1.4,0c.2.2-.1.9-.1,1.2a20.83,20.83,0,0,1,0,2.5,7.37,7.37,0,0,1-.4,1.4c-.2.4-.6.8-.8,1.2s0,.7.3,1.1c.4.7.2,1.1.1,1.8a3,3,0,0,0,.2,1.3,1.37,1.37,0,0,1-.4,1.2c-.8,1.1-.3,2.1-.1,3.3.1.5,0,1.1.1,1.6a4.25,4.25,0,0,1,.2,1.1c0,.6-.3,1.2-.1,1.8.1.3.2.3.3.6a2.46,2.46,0,0,1,.1,1.2,5.11,5.11,0,0,0,.3,3c.3.9-.3,1.2-.3,2a2.51,2.51,0,0,0,.6,1.4c.3.3.6.2,1,.2h3.1c2.1,0,4.2,0,6.2-.1,4.8-.1,9.7-.1,14.5-.2,16.1-.3,32.2-.5,48.3-1.4,1-.1,2-.1,3-.1,3.4-.1,6.9-.1,10.3-.1,7.3,0,14.7,0,22,.1,12.6.1,25.3.3,37.9.4l57.7.9c12.7.2,25.3.5,38,.5l55.5-.3c16-.2,32-.6,48-.6h13.1c9.7,0,19.4.1,29.2.1l46.9.3,65.5.6c9.9.1,19.9.3,29.8.4,19,.2,38,.2,57.1-.2,10.3-.2,20.6-.5,31-.9A181.13,181.13,0,0,1,668.2,204.9Z"
        transform="translate(0.28)" />
    <g id="scout24Font">
        <path class="cls-2"
            d="M474.9,146.7c2.4-1.9,4.8-3.8,7.3-5.6,22.5-17.3,45.7-35.2,45.7-61.3C527.9,59.3,513.1,45,492,45c-18.6,0-38.6,12.4-38.6,39.8,0,1.3.1,2.8.2,3.7l15.2-5.8c0-15,11.2-22.9,22.2-22.9,10.7,0,21.6,6.8,21.6,22.1,0,19.7-20.1,35.2-48,56.5-4,3-8.1,6.2-12.4,9.6l-.2.2v14.6h79V146.9H474.9Z"
            transform="translate(0.28)" />
        <path class="cls-2"
            d="M97.5,95.7l-1.4-.5c-12.5-5-21.3-9.4-21.3-20.6,0-11,8.8-16.8,17.4-16.8,7,0,15.8,3.7,19.3,11.8l14.7-5.7-.2-.5C120.2,49,105,42.6,92.4,42.6,76,42.6,58.3,53,58.3,75.7c0,22.2,17,29.1,30.7,34.7l1.7.7c14,5.8,23.1,10.4,23.1,21.8,0,11.8-9.9,17.1-19.7,17.1s-21.3-5.2-24.7-19.7l-.2-.6-15.6,5.9c4.7,18.2,20.2,29.8,39.8,29.8,9.9,0,19-3,25.8-8.5,7.7-6.2,11.8-15,11.8-25.5C131,109,113.2,101.9,97.5,95.7Z"
            transform="translate(0.28)" />
        <path class="cls-2"
            d="M262.3,75.2c-24.3,0-41.9,18.8-41.9,44.7s17.6,44.7,41.9,44.7,41.9-18.8,41.9-44.7S286.6,75.2,262.3,75.2Zm26.6,44.7c0,19.8-13.3,30.2-26.4,30.2-13.3,0-26.7-10.4-26.7-30.2,0-17.4,11.2-30,26.7-30C277.8,89.9,288.9,102.5,288.9,119.9Z"
            transform="translate(0.28)" />
        <path class="cls-2"
            d="M368.5,126.4c0,15.7-11.5,24.2-22.4,24.2-8.3,0-17.1-4.9-17.1-18.7V77.4H314v54.5c0,24.2,15.7,32.8,29.1,32.8,10.8,0,20.3-5.2,25.3-13.6l2.9,11.6h12.3V77.4h-15v49Z"
            transform="translate(0.28)" />
        <path class="cls-2"
            d="M422.7,53l-15,5.8V77.3H393.5V91h14.2v46.7c0,23.3,13.3,26.8,21.2,26.8a41.07,41.07,0,0,0,11.1-1.7l.5-.1V147.8l-1,.6a14.05,14.05,0,0,1-7.3,2.4c-6,0-9.5-4.4-9.5-11.9V91.1h17.7V77.4H422.7V53Z"
            transform="translate(0.28)" />
        <polygon class="cls-2"
            points="600.98 118.6 600.98 84 585.58 89.9 585.58 118.6 551.08 118.6 593.18 46.8 576.08 46.8 531.58 122.5 531.58 134.1 585.58 134.1 585.58 162.6 600.98 162.6 600.98 134.1 620.88 134.1 620.88 118.6 600.98 118.6" />
        <path class="cls-2"
            d="M202.4,136.8A24.57,24.57,0,0,1,180.6,150c-12.8,0-25.7-9.3-25.7-30.2,0-14.4,7.7-29.8,24.7-29.8a22.47,22.47,0,0,1,20,11.9l14.3-5.5-.3-.5c-6-12.7-19-20.6-34.1-20.6a38.6,38.6,0,0,0-27.6,11.1c-8.1,8.1-12.5,19.7-12.5,33.6,0,30.7,21,44.7,40.4,44.7,15.1,0,28.5-8.2,35.9-22.1l.3-.5-.1-.1Z"
            transform="translate(0.28)" />
    </g>
</svg>