<?xml version="1.0" encoding="utf-8"?>
<!-- Generator: Adobe Illustrator 16.0.0, SVG Export Plug-In . SVG Version: 6.00 Build 0)  -->
<!DOCTYPE svg PUBLIC "-//W3C//DTD SVG 1.1//EN" "http://www.w3.org/Graphics/SVG/1.1/DTD/svg11.dtd">
<svg version="1.1" id="Ebene_1" xmlns="http://www.w3.org/2000/svg" xmlns:xlink="http://www.w3.org/1999/xlink" x="0px" y="0px"
	 width="74px" height="36px" viewBox="0 210.5 74 36" enable-background="new 0 210.5 74 36" xml:space="preserve">
<g>
	<path fill="#FF7500" d="M0,246.236h65.28c4.851,0,8.721-3.983,8.721-8.65V210.5H0V246.236z"/>
	<g>
		<path fill="#003468" d="M8.101,241.691H7.945c-1.868,0-3.476-1.296-3.476-3.458c0-1.331,2.006-1.331,2.006,0
			c0,0.934,0.605,1.47,1.47,1.47h0.156c0.864,0,1.521-0.45,1.521-1.314c0-2.161-5.031-2.37-5.031-5.533c0-0.225,0-0.138,0-0.363
			c0-1.85,1.85-2.957,3.354-2.957h0.156c1.78,0,3.371,1.107,3.371,2.766c0,1.279-1.988,1.314-1.988,0.052
			c0-0.449-0.553-0.83-1.383-0.83H7.945c-0.761,0-1.349,0.415-1.349,1.071c0,0.225,0,0.052,0,0.259c0,1.366,5.031,1.971,5.031,5.533
			C11.627,240.359,10.089,241.691,8.101,241.691z"/>
		<path fill="#003468" d="M16.798,241.691h-0.156c-1.902,0-3.458-1.47-3.458-3.388v-5.395c0-1.919,1.557-3.371,3.458-3.371h0.156
			c1.746,0,3.198,1.193,3.423,2.888c0.018,0.052,0.018,0.104,0.018,0.172c0,0.623-0.519,0.968-1.021,0.968
			c-0.45,0-0.882-0.276-0.968-0.864c-0.104-0.709-0.708-1.176-1.452-1.176h-0.156c-0.812,0-1.47,0.588-1.47,1.383v5.395
			c0,0.812,0.674,1.4,1.47,1.4h0.156c0.744,0,1.349-0.467,1.452-1.176c0.086-0.587,0.536-0.865,0.968-0.865
			c0.519,0,1.021,0.346,1.021,0.968c0,0.069,0,0.122,0,0.19C19.979,240.481,18.544,241.691,16.798,241.691z"/>
		<path fill="#003468" d="M25.287,241.691h-0.156c-1.901,0-3.458-1.487-3.458-3.388v-5.377c0-1.92,1.557-3.389,3.458-3.389h0.156
			c1.919,0,3.458,1.47,3.458,3.389v5.359C28.746,240.205,27.207,241.691,25.287,241.691z M26.74,232.926
			c0-0.813-0.639-1.401-1.452-1.401h-0.156c-0.812,0-1.452,0.605-1.452,1.401v5.359c0,0.813,0.657,1.418,1.452,1.418h0.156
			c0.813,0,1.452-0.605,1.452-1.4V232.926z"/>
		<path fill="#003468" d="M34.417,241.691h-0.155c-1.902,0-3.458-1.557-3.458-3.458v-7.693c0-0.674,0.501-1.003,1.002-1.003
			c0.501,0,1.003,0.329,1.003,1.003v7.693c0,0.796,0.657,1.47,1.453,1.47h0.155c0.813,0,1.47-0.657,1.47-1.47v-7.693
			c0-0.674,0.501-1.003,1.003-1.003s1.002,0.329,1.002,1.003v7.693C37.892,240.135,36.337,241.691,34.417,241.691z"/>
		<path fill="#003468" d="M44.982,231.628h-1.384v9.061c0,0.674-0.502,1.002-1.002,1.002c-0.502,0-1.003-0.328-1.003-1.002v-9.061
			H40.21c-0.657,0-1.002-0.501-1.002-1.002c0-0.484,0.346-0.986,1.002-0.986h4.772c0.675,0,1.002,0.501,1.002,0.986
			C45.984,231.127,45.657,231.628,44.982,231.628z"/>
		<path fill="#003468" d="M54.319,241.587h-4.496c-0.64,0-1.02-0.605-1.02-1.193c0-0.225,0.034-0.433,0.155-0.623l3.925-6.328
			c0.208-0.346,0.208-0.536,0.208-0.795v-0.139c0-0.519-0.449-0.985-1.037-0.985h-0.053c-0.57,0-1.003,0.45-1.003,0.985v0.191
			c0,0.657-0.501,0.985-1.002,0.985s-1.003-0.329-1.003-0.985v-0.259c0-1.677,1.365-2.905,3.008-2.905h0.053
			c1.625,0,3.043,1.21,3.043,2.905l-0.017,0.19c0,0.657-0.243,1.193-0.606,1.798l-3.163,5.169h3.009
			c0.674,0,1.002,0.502,1.002,0.985C55.322,241.086,54.993,241.587,54.319,241.587z"/>
		<path fill="#003468" d="M62.22,239.219h-0.38v1.47c0,0.674-0.502,1.002-1.003,1.002c-0.502,0-1.003-0.328-1.003-1.002v-1.47
			h-2.714c-0.691,0-1.124-0.379-1.124-1.054c0-0.173,0.034-0.398,0.104-0.554l3.232-7.469c0.191-0.432,0.536-0.605,0.883-0.605
			c0.519,0,1.037,0.397,1.037,0.968c0,0.139-0.018,0.277-0.086,0.434l-2.853,6.292h1.521v-1.002c0-0.658,0.502-1.003,1.003-1.003
			c0.502,0,1.003,0.329,1.003,1.003v1.002h0.38c0.674,0,1.003,0.484,1.003,0.986C63.223,238.718,62.894,239.219,62.22,239.219z"/>
	</g>
</g>
</svg>
