<?xml version="1.0" encoding="utf-8"?>
<!-- Generator: Adobe Illustrator 16.0.4, SVG Export Plug-In . SVG Version: 6.00 Build 0)  -->
<!DOCTYPE svg PUBLIC "-//W3C//DTD SVG 1.1//EN" "http://www.w3.org/Graphics/SVG/1.1/DTD/svg11.dtd">
<svg version="1.1" id="Ebene_1" xmlns="http://www.w3.org/2000/svg" xmlns:xlink="http://www.w3.org/1999/xlink" x="0px" y="0px"
	 width="24px" height="24px" viewBox="0 0 24 24" style="enable-background:new 0 0 24 24;" xml:space="preserve">
<g>
	<path d="M20.2,20.8l-3.9-5.7c-0.8,0.8-1.6,1.2-2.7,1.6l4.2,6.5c0,0,0.3,0.8,1.2,0.8c0.9,0,2-0.7,2-1.6C21,22.1,20.2,20.8,20.2,20.8
		z"/>
	<path d="M18.2,8c0-4.4-3.6-8-8.1-8C5.6,0,2,3.6,2,8s3.6,8,8.1,8C14.6,16,18.2,12.4,18.2,8z M10.1,14.5c-3.6,0-6.6-2.9-6.6-6.5
		s2.9-6.5,6.6-6.5s6.6,2.9,6.6,6.5S13.7,14.5,10.1,14.5z"/>
</g>
</svg>
