<?xml version="1.0" encoding="UTF-8" standalone="no"?>
<svg width="17px" height="20px" viewBox="0 0 17 20" version="1.1" xmlns="http://www.w3.org/2000/svg" xmlns:xlink="http://www.w3.org/1999/xlink" xmlns:sketch="http://www.bohemiancoding.com/sketch/ns">
    <!-- Generator: Sketch 3.5.1 (25234) - http://www.bohemiancoding.com/sketch -->
    <title>Group 20</title>
    <desc>Created with Sketch.</desc>
    <defs></defs>
    <g id="Resultpage" stroke="none" stroke-width="1" fill="none" fill-rule="evenodd" sketch:type="MSPage">
        <g id="Group-20" sketch:type="MSLayerGroup" fill="#FFFFFF">
            <path d="M7,2.2002 C4.243,2.2002 2,4.4432 2,7.2002 C2,9.9572 4.243,12.2002 7,12.2002 C9.757,12.2002 12,9.9572 12,7.2002 C12,4.4432 9.757,2.2002 7,2.2002 M7,14.2002 C3.141,14.2002 0,11.0592 0,7.2002 C0,3.3412 3.141,0.2002 7,0.2002 C10.859,0.2002 14,3.3412 14,7.2002 C14,11.0592 10.859,14.2002 7,14.2002" id="Fill-1" sketch:type="MSShapeGroup"></path>
            <g id="Group-5" transform="translate(10.000000, 13.000000)" sketch:type="MSShapeGroup">
                <path d="M6.1465,3.8242 L3.1855,0.0162 C2.3825,0.8712 1.4115,1.5632 0.3165,2.0282 L3.3755,5.9612 C3.6625,6.5732 4.2795,7.0002 5.0005,7.0002 C5.9935,7.0002 6.7995,6.1942 6.7995,5.2002 C6.7995,4.6442 6.5425,4.1542 6.1465,3.8242" id="Fill-3"></path>
            </g>
        </g>
    </g>
</svg>