<?xml version="1.0" encoding="utf-8"?>
<!-- Generator: Adobe Illustrator 21.0.0, SVG Export Plug-In . SVG Version: 6.00 Build 0)  -->
<svg version="1.1" xmlns="http://www.w3.org/2000/svg" xmlns:xlink="http://www.w3.org/1999/xlink" x="0px" y="0px"
	 viewBox="0 0 24 24" style="enable-background:new 0 0 24 24;" xml:space="preserve">
<path class="st2" d="M13,2c-5,0-9,4-9,9c0,2.1,0.7,4.1,2,5.6l-3.7,3.7c-0.4,0.4-0.4,1,0,1.4C2.5,21.9,2.7,22,3,22s0.5-0.1,0.7-0.3
	L7.4,18c1.5,1.2,3.5,2,5.6,2c5,0,9-4,9-9S18,2,13,2z M13,18c-3.9,0-7-3.1-7-7s3.1-7,7-7s7,3.1,7,7S16.9,18,13,18z"/>
</svg>
