<?xml version="1.0" encoding="utf-8"?>
<!-- Generator: Adobe Illustrator 21.0.0, SVG Export Plug-In . SVG Version: 6.00 Build 0)  -->
<svg version="1.1" xmlns="http://www.w3.org/2000/svg" xmlns:xlink="http://www.w3.org/1999/xlink" x="0px" y="0px"
	 viewBox="0 0 24 24" style="enable-background:new 0 0 24 24;" xml:space="preserve">
<path class="st2" d="M17,14c-1.2,0-2.2,0.5-2.9,1.3l-4.2-2.4C10,12.6,10,12.3,10,12c0-0.3,0-0.6-0.1-0.9l4.2-2.4
	C14.8,9.5,15.8,10,17,10c2.2,0,4-1.8,4-4s-1.8-4-4-4s-4,1.8-4,4c0,0.3,0,0.6,0.1,0.9L8.9,9.3C8.2,8.5,7.2,8,6,8c-2.2,0-4,1.8-4,4
	s1.8,4,4,4c1.2,0,2.2-0.5,2.9-1.3l4.2,2.4C13,17.4,13,17.7,13,18c0,2.2,1.8,4,4,4s4-1.8,4-4S19.2,14,17,14z M17,4c1.1,0,2,0.9,2,2
	s-0.9,2-2,2s-2-0.9-2-2S15.9,4,17,4z M6,14c-1.1,0-2-0.9-2-2s0.9-2,2-2s2,0.9,2,2S7.1,14,6,14z M17,20c-1.1,0-2-0.9-2-2s0.9-2,2-2
	s2,0.9,2,2S18.1,20,17,20z"/>
</svg>
