<?xml version="1.0" encoding="utf-8"?>
<!-- Generator: Adobe Illustrator 16.0.4, SVG Export Plug-In . SVG Version: 6.00 Build 0)  -->
<!DOCTYPE svg PUBLIC "-//W3C//DTD SVG 1.1//EN" "http://www.w3.org/Graphics/SVG/1.1/DTD/svg11.dtd">
<svg version="1.1" id="Ebene_1" xmlns="http://www.w3.org/2000/svg" xmlns:xlink="http://www.w3.org/1999/xlink" x="0px" y="0px"
	 width="24px" height="24px" viewBox="0 0 24 24" style="enable-background:new 0 0 24 24;" xml:space="preserve">
<path d="M19.5,16c-1.1,0-2,0.5-2.7,1.3l-8.9-4.1C8,12.9,8,12.7,8,12.5c0-0.2,0-0.4-0.1-0.6l8.9-4.2C17.5,8.5,18.4,9,19.5,9
	C21.4,9,23,7.4,23,5.5C23,3.6,21.4,2,19.5,2S16,3.6,16,5.5c0,0.2,0,0.4,0.1,0.6l-8.9,4.1C6.5,9.5,5.6,9,4.5,9C2.6,9,1,10.6,1,12.5
	C1,14.4,2.6,16,4.5,16c1.1,0,2-0.5,2.7-1.3l8.9,4.2c0,0.2-0.1,0.4-0.1,0.6c0,1.9,1.6,3.5,3.5,3.5s3.5-1.6,3.5-3.5
	C23,17.6,21.4,16,19.5,16z"/>
</svg>
