<svg width="60" height="36" viewBox="0 0 60 36" fill="none" xmlns="http://www.w3.org/2000/svg">
<g clip-path="url(#clip0)">
<path d="M58.8949 9.99612C58.3935 10.2443 58.3935 10.2443 58.4544 10.7303C58.3453 10.804 58.2363 10.8774 58.1274 10.9512C58.1366 10.9962 58.1454 11.0412 58.1546 11.0858C58.5637 11.0858 58.9728 11.0858 59.3815 11.0858C59.3872 11.1367 59.3928 11.1874 59.3984 11.2377C59.1391 11.3049 58.8787 11.3629 58.6215 11.4419C58.4425 11.497 58.224 11.418 58.1179 11.7514C58.0926 11.8315 57.9174 11.8267 57.8103 11.8555C57.6725 11.8923 57.5341 11.9235 57.3956 11.957C57.3977 12.0174 57.3994 12.0779 57.4016 12.1382C57.7965 12.1799 58.1919 12.2211 58.5869 12.2628C58.5915 12.2824 58.5964 12.3016 58.601 12.3213C58.0492 12.4459 57.4974 12.5699 56.9452 12.6945C56.9428 12.7445 56.9399 12.7948 56.9375 12.8446C57.3565 13.0104 57.7758 13.1762 58.23 13.356C57.9323 13.4628 57.6408 13.5678 57.3346 13.6775C57.6524 13.7959 57.9688 13.9138 58.2064 14.0024C58.0468 14.104 57.8054 14.2573 57.5488 14.4207C57.649 14.7715 57.8128 14.8041 57.9823 14.8055C58.513 14.8099 59.0436 14.8071 59.5739 14.8071C59.5753 14.8492 59.5768 14.8918 59.5782 14.934C59.298 14.9805 59.0148 15.0083 58.7388 15.0825C58.6374 15.1098 58.5521 15.2474 58.459 15.3346C58.5384 15.4425 58.6084 15.5694 58.7004 15.6519C58.7617 15.7075 58.8541 15.7003 58.9926 15.7372C58.5756 16.0487 58.2089 16.3228 57.8424 16.5964C57.8494 16.6635 57.8568 16.7306 57.8638 16.7977C58.2462 16.8858 58.6285 16.9741 59.0344 17.0675C58.9531 17.4049 58.2741 17.3454 58.7554 17.9594C58.5873 18.0446 58.4474 18.1151 58.2003 18.2402C58.4622 18.4295 58.6415 18.5599 58.8346 18.6992C58.8262 18.7702 58.8114 18.8948 58.7931 19.0515C58.9488 19.0865 59.0834 19.1166 59.2181 19.1464C58.8012 19.9146 58.0887 19.6309 57.5097 19.9644C57.7694 20.6018 58.2099 20.1849 58.5429 20.4336C58.3283 20.9617 57.7839 20.6229 57.5474 21.1266C57.6461 21.2095 57.7328 21.2827 57.8286 21.3637C57.6591 21.4016 57.4977 21.438 57.3268 21.4764C57.5146 21.8823 57.5146 21.8823 58.0038 21.9004C58.0432 22.0213 58.0566 22.1732 58.1175 22.2273C58.2963 22.3864 58.3784 22.6122 58.2828 22.8432C58.2247 22.9835 58.0524 23.0713 57.9196 23.1129C57.6249 23.2044 57.323 23.2519 56.959 23.3315C57.0787 23.5303 57.1525 23.6525 57.2462 23.8083C57.1545 23.9051 57.0625 24.0024 56.9283 24.1447C57.0242 24.2535 57.1094 24.3503 57.1926 24.4447C57.144 24.4999 57.0859 24.566 56.9541 24.7154C57.2014 24.7734 57.3695 24.8132 57.6331 24.8751C57.3519 24.9527 57.1574 25.0064 56.9978 25.0504C57.1172 25.3279 57.3082 25.5709 57.299 25.7994C57.2874 26.0846 57.1327 26.3788 56.9974 26.6266C56.9248 26.7594 56.7811 26.7963 56.8966 27.0239C56.9139 27.0579 56.7905 27.2486 56.7148 27.3392C56.4787 27.6215 56.1834 27.8429 56.0093 28.1807C55.8828 28.4271 55.7599 28.5066 55.5774 28.5234C54.6118 28.6139 53.6466 28.7333 52.6801 28.7788C51.5306 28.833 50.3798 28.8325 49.2293 28.8378C47.7106 28.845 46.1915 28.8076 44.6731 28.8378C42.4105 28.8828 40.1479 28.9585 37.886 29.0439C36.2722 29.1047 34.6583 29.1823 33.0462 29.2897C31.421 29.398 29.798 29.5724 28.1728 29.6816C26.6725 29.7823 25.1699 29.8158 23.6695 29.9131C21.7882 30.0349 19.9069 30.1705 18.0273 30.3378C15.9387 30.5241 13.8517 30.7441 11.7649 30.967C10.6306 31.0882 9.4981 31.243 8.36521 31.3877C7.47477 31.5017 6.58573 31.6451 5.69422 31.7361C4.60891 31.8473 3.52219 31.9364 2.43476 31.9992C1.61444 32.0466 1.13802 31.4576 0.980163 30.3646C0.889251 29.7344 0.715531 29.1272 0.61017 28.5004C0.514677 27.9329 0.380775 27.3455 0.408965 26.7794C0.445965 26.0319 0.301139 25.315 0.315939 24.5899C0.3325 23.769 0.209169 23.0032 0.0365059 22.2379C-0.0466543 21.8689 0.0276968 21.5502 0.105924 21.1903C0.284929 20.3646 0.555905 19.5571 0.470279 18.6494C0.443146 18.3624 0.460764 18.0087 0.564362 17.771C0.733853 17.3819 0.734206 17.01 0.715531 16.5902C0.702845 16.3041 0.762748 15.9984 0.833928 15.7218C0.955145 15.2518 1.01751 14.8065 0.968887 14.2861C0.892774 13.4738 0.820186 12.6232 1.32831 11.9398C1.60351 11.5694 1.95765 11.4501 2.29487 11.3705C2.85761 11.2377 3.4362 11.2157 4.00882 11.1778C4.78051 11.1266 5.55398 11.1227 6.32567 11.0657C8.23167 10.9244 10.1369 10.7739 12.0419 10.6085C13.3185 10.4978 14.5927 10.3377 15.8697 10.2333C16.948 10.1451 18.0288 10.1101 19.108 10.0435C20.7797 9.93998 22.451 9.80774 24.1234 9.72868C25.7679 9.65104 27.4138 9.63811 29.0584 9.57198C31.167 9.48712 33.2746 9.35915 35.3831 9.28539C36.7835 9.23598 38.1852 9.2533 39.5863 9.23221C40.6941 9.2154 41.8023 9.16609 42.9101 9.16802C44.2291 9.16986 45.5484 9.21489 46.8673 9.23415C47.9216 9.24943 48.9759 9.25279 50.0303 9.26237C50.8833 9.27001 51.7368 9.27673 52.5899 9.28631C53.6671 9.29833 54.7443 9.3127 55.8215 9.32614C56.282 9.33185 56.7616 9.22936 57.1979 9.37118C57.7536 9.55232 58.3811 9.41478 58.8949 9.99612Z" fill="#F5F200"/>
<path d="M48.7215 16.5016C48.0758 15.8766 47.2091 15.5977 46.3236 15.5977C45.3462 15.5977 44.3834 15.9592 43.6649 16.688C42.9458 17.4174 42.4768 18.509 42.4768 19.9594C42.4768 21.4088 42.9251 22.481 43.6372 23.1911C44.3488 23.9006 45.3161 24.2407 46.3397 24.2407C47.6698 24.2407 48.9371 23.6317 49.7091 22.2849C49.7304 22.2477 49.7193 22.2003 49.6836 22.1765L48.6699 21.5007L48.6247 21.5685H48.6247L48.6699 21.5007C48.6509 21.488 48.6276 21.484 48.6055 21.4894C48.5833 21.4947 48.5645 21.509 48.5535 21.5289C48.3176 21.9535 48.0291 22.2678 47.6835 22.4763C47.3381 22.6847 46.9307 22.7904 46.4524 22.7904C45.8159 22.7904 45.2416 22.6098 44.8073 22.2181C44.3882 21.8399 44.0918 21.2569 44.0007 20.4271H49.7028C49.7478 20.4271 49.7842 20.3906 49.7842 20.3456V19.4445C49.7842 18.0917 49.3681 17.1274 48.7215 16.5016ZM46.3075 16.9835C46.8526 16.9835 47.3404 17.1623 47.6923 17.5371C48.0325 17.8995 48.252 18.4562 48.2668 19.2343H44.021C44.1273 18.4847 44.4166 17.9287 44.8105 17.5588C45.2206 17.174 45.7472 16.9835 46.3075 16.9835Z" fill="#333333"/>
<path d="M40.8197 12.3955H39.452C39.4069 12.3955 39.3705 12.432 39.3705 12.477V24.0144C39.3705 24.0594 39.4069 24.0958 39.452 24.0958H40.8197C40.8646 24.0958 40.9012 24.0594 40.9012 24.0144V12.477C40.9012 12.432 40.8646 12.3955 40.8197 12.3955Z" fill="#333333"/>
<path d="M15.5236 20.0326C15.0718 19.699 14.4984 19.5266 14.0182 19.3826L14.0174 19.3823L13.4072 19.2057L13.4073 19.2056C12.9854 19.0759 12.587 18.9542 12.2924 18.7681C12.0036 18.5857 11.8235 18.3474 11.8235 17.9802C11.8235 17.6506 11.9573 17.3885 12.1833 17.207C12.4109 17.0241 12.7374 16.9192 13.1259 16.9192C13.796 16.9192 14.449 17.23 14.6908 17.8799C14.6988 17.9014 14.7156 17.9187 14.737 17.9271C14.7585 17.9357 14.7824 17.9347 14.8031 17.9246L15.8812 17.3936C15.9194 17.3747 15.9366 17.3298 15.921 17.2904C15.4714 16.1581 14.4382 15.5977 13.158 15.5977C12.3794 15.5977 11.6722 15.8148 11.1578 16.2292C10.6418 16.645 10.325 17.2557 10.325 18.0284C10.325 18.862 10.6899 19.3963 11.1833 19.7539C11.6715 20.1076 12.2846 20.2876 12.7824 20.4242L12.7825 20.4242L13.3615 20.585V20.585C13.7642 20.7058 14.1293 20.8313 14.3941 21.0195C14.6539 21.2039 14.8144 21.4463 14.8144 21.8099C14.8144 22.1822 14.6413 22.4557 14.3659 22.6392C14.0875 22.8248 13.7024 22.9191 13.2868 22.9191C12.3465 22.9191 11.4209 22.4346 11.1282 21.4487C11.1219 21.4275 11.1071 21.4097 11.0875 21.3995C11.0677 21.3894 11.0447 21.3877 11.0237 21.3949L9.84904 21.7971C9.80806 21.8112 9.78522 21.8549 9.79707 21.8965C10.2441 23.4694 11.6679 24.2407 13.2063 24.2407C14.0492 24.2407 14.8241 24.0075 15.3903 23.5678C15.9585 23.1266 16.3129 22.4798 16.3129 21.6651C16.3129 20.8729 15.9812 20.3706 15.5236 20.0326Z" fill="#333333"/>
<path d="M28.1034 16.2564C27.6132 15.812 26.9528 15.5977 26.2686 15.5977C25.162 15.5977 24.1912 16.1297 23.7276 17.1172C23.4147 16.1288 22.504 15.5977 21.4895 15.5977C20.598 15.5977 19.7116 16.0274 19.2969 16.7718L19.0908 15.8702C19.0824 15.8331 19.0495 15.8068 19.0115 15.8068H17.9173C17.8723 15.8068 17.8358 15.8433 17.8358 15.8883V24.0144C17.8358 24.0594 17.8723 24.0958 17.9173 24.0958H19.285C19.33 24.0958 19.3665 24.0594 19.3665 24.0144V19.0905C19.3665 18.4234 19.5702 17.9177 19.8894 17.5795C20.2085 17.2413 20.6489 17.064 21.1355 17.064C21.583 17.064 21.9454 17.2138 22.1969 17.4972C22.4494 17.7818 22.5988 18.2108 22.5988 18.7847V24.0144C22.5988 24.0594 22.6353 24.0958 22.6803 24.0958H24.048C24.093 24.0958 24.1295 24.0594 24.1295 24.0144V19.0905C24.1295 18.4234 24.3332 17.9178 24.6542 17.5796C24.9751 17.2415 25.4197 17.064 25.9146 17.064C26.3538 17.064 26.7164 17.2136 26.9701 17.4974C27.2248 17.7822 27.3779 18.2114 27.3779 18.7847V24.0144C27.3779 24.0594 27.4144 24.0958 27.4594 24.0958H28.8271C28.872 24.0958 28.9086 24.0594 28.9086 24.0144V18.2698C28.9086 17.3726 28.595 16.7019 28.1034 16.2564Z" fill="#333333"/>
<path d="M30.7279 25.579L30.2774 26.8019C30.2629 26.8412 30.2805 26.8851 30.3182 26.9034C30.9203 27.1963 31.4959 27.3622 32.0273 27.3622C32.5754 27.3622 33.076 27.1999 33.5036 26.8662C33.9304 26.5331 34.28 26.0326 34.5333 25.3626L34.5333 25.3626L38.1216 15.917C38.1311 15.892 38.1277 15.8639 38.1126 15.8419C38.0973 15.8198 38.0722 15.8066 38.0455 15.8066H36.5812C36.5467 15.8066 36.5161 15.8282 36.5045 15.8606L34.1826 22.3276L31.7981 15.8599C31.7863 15.8279 31.7557 15.8066 31.7216 15.8066H30.2251C30.1982 15.8066 30.1731 15.8199 30.1579 15.8421C30.1427 15.8643 30.1395 15.8926 30.1492 15.9177L33.4367 24.3692L33.2062 24.9993L33.2062 24.9993C32.9768 25.611 32.5086 25.8958 31.963 25.8958C31.5939 25.8958 31.2233 25.7885 30.8496 25.5394C30.8289 25.5255 30.8029 25.522 30.7792 25.5297C30.7554 25.5374 30.7366 25.5557 30.7279 25.579Z" fill="#333333"/>
<path d="M5.86975 6.31443H6.74162L7.34928 4.79967H10.5109L11.1274 6.31443H11.9993L9.44529 0.132101H8.4149L5.86975 6.31443ZM7.60468 4.09513L8.93449 0.819022L10.2555 4.09513H7.60468ZM15.7664 1.86703H15.0179V4.39456C15.0179 5.18717 14.5248 5.68035 13.8466 5.68035C13.2917 5.68035 12.9131 5.33688 12.9131 4.63234V1.86703H12.1645V4.79967C12.1645 5.90932 12.8074 6.39369 13.6616 6.39369C14.3398 6.39369 14.7448 6.12068 15.0179 5.65393L15.1588 6.31443H15.7664V1.86703ZM16.21 1.86703V2.52753H16.9674V5.14313C16.9674 6.05904 17.4693 6.39369 18.0418 6.39369C18.2443 6.39369 18.4645 6.35847 18.667 6.27039V5.60989C18.5262 5.68035 18.3852 5.70676 18.2531 5.70676C17.9361 5.70676 17.7248 5.53063 17.7248 5.08149V2.52753H18.667V1.86703H17.7248V0.572439L16.9674 0.854249V1.86703H16.21ZM21.3083 1.75254C19.9345 1.75254 19.1683 2.81815 19.1683 4.07752C19.1683 5.33688 19.9345 6.39369 21.3083 6.39369C22.6822 6.39369 23.4571 5.33688 23.4571 4.07752C23.4571 2.81815 22.6822 1.75254 21.3083 1.75254ZM19.9345 4.07752C19.9345 3.22326 20.3924 2.47469 21.3083 2.47469C22.2331 2.47469 22.6909 3.22326 22.6909 4.07752C22.6909 4.92297 22.2331 5.67154 21.3083 5.67154C20.3924 5.67154 19.9345 4.92297 19.9345 4.07752ZM27.0596 1.54118L27.7818 1.32101C27.5527 0.431529 26.7513 0 25.9235 0C24.9988 0 24.0653 0.546011 24.0653 1.6997C24.0653 2.85338 24.946 3.19684 25.6417 3.46104L25.9499 3.57554C26.54 3.7957 27.1212 4.0511 27.1212 4.73802C27.1212 5.37211 26.6016 5.71557 25.9852 5.71557C25.3775 5.71557 24.717 5.3633 24.5761 4.58831L23.7923 4.79087C24.0213 5.90051 24.99 6.45534 25.9499 6.45534C26.9891 6.45534 27.9315 5.83005 27.9315 4.64115C27.9315 3.54912 27.1301 3.18803 26.3287 2.89741L25.9764 2.76531C25.4832 2.58918 24.8491 2.33378 24.8491 1.63805C24.8491 1.03039 25.3335 0.722148 25.8883 0.722148C26.4167 0.722148 26.9363 0.995159 27.0596 1.54118ZM31.6588 3.32013L32.3194 3.07355C32.064 2.15765 31.3242 1.75254 30.5492 1.75254C29.4396 1.75254 28.4091 2.50111 28.4091 4.09513C28.4091 5.65393 29.3955 6.39369 30.4875 6.39369C31.2889 6.39369 31.9847 5.99738 32.3281 5.14313L31.7117 4.85251C31.4915 5.40733 31.0952 5.68035 30.5492 5.68035C29.783 5.68035 29.1754 5.15194 29.1754 4.07752C29.1754 2.99429 29.7918 2.46588 30.5316 2.46588C31.06 2.46588 31.4915 2.73889 31.6588 3.32013ZM34.8573 1.75254C33.4835 1.75254 32.7173 2.81815 32.7173 4.07752C32.7173 5.33688 33.4835 6.39369 34.8573 6.39369C36.2312 6.39369 37.0061 5.33688 37.0061 4.07752C37.0061 2.81815 36.2312 1.75254 34.8573 1.75254ZM33.4835 4.07752C33.4835 3.22326 33.9413 2.47469 34.8573 2.47469C35.7819 2.47469 36.2399 3.22326 36.2399 4.07752C36.2399 4.92297 35.7819 5.67154 34.8573 5.67154C33.9413 5.67154 33.4835 4.92297 33.4835 4.07752ZM41.3043 1.86703H40.5557V4.39456C40.5557 5.18717 40.0625 5.68035 39.3844 5.68035C38.8296 5.68035 38.451 5.33688 38.451 4.63234V1.86703H37.7023V4.79967C37.7023 5.90932 38.3452 6.39369 39.1995 6.39369C39.8776 6.39369 40.2827 6.12068 40.5557 5.65393L40.6966 6.31443H41.3043V1.86703ZM41.7918 1.86703V2.52753H42.5492V5.14313C42.5492 6.05904 43.0512 6.39369 43.6237 6.39369C43.8262 6.39369 44.0463 6.35847 44.2489 6.27039V5.60989C44.108 5.68035 43.9671 5.70676 43.835 5.70676C43.5179 5.70676 43.3066 5.53063 43.3066 5.08149V2.52753H44.2489V1.86703H43.3066V0.572439L42.5492 0.854249V1.86703H41.7918ZM48.9862 6.31443V5.56585H45.8774C47.3745 4.43859 48.7836 3.29372 48.7836 1.87584C48.7836 0.880667 48.0967 0.132101 46.943 0.132101C45.7101 0.132101 44.9262 0.933513 44.9262 2.06077C44.9262 2.16646 44.9351 2.28975 44.9527 2.40424L45.6573 2.33378C45.6396 2.23691 45.6308 2.14884 45.6308 2.06077C45.6308 1.38265 46.124 0.854249 46.8814 0.854249C47.5771 0.854249 48.0262 1.29459 48.0262 1.9639C48.0262 3.09997 46.7405 4.15677 44.9527 5.50421V6.31443H48.9862ZM51.9118 6.31443H52.6868V4.81729H53.7084V4.06871H52.6868V2.63321H51.9118V4.06871H49.8246L52.2464 0.228974H51.3393L48.9703 4.01587V4.81729H51.9118V6.31443Z" fill="#333333"/>
</g>
<defs>
<clipPath id="clip0">
<rect width="59.5782" height="32" fill="white"/>
</clipPath>
</defs>
</svg>
