<?xml version="1.0" encoding="utf-8"?>
<!-- Generator: Adobe Illustrator 23.0.3, SVG Export Plug-In . SVG Version: 6.00 Build 0)  -->
<svg version="1.1" xmlns="http://www.w3.org/2000/svg" xmlns:xlink="http://www.w3.org/1999/xlink" x="0px" y="0px"
	 viewBox="0 0 24 24" style="enable-background:new 0 0 24 24;" xml:space="preserve">
<g id="Glenda_AS24_Icons">
	<path class="st3" d="M22.434,9.209c-0.311-0.75-1.036-1.234-1.848-1.234h-4.893l-1.82-4.854c0-0.001,0-0.001,0-0.001
		C13.577,2.332,12.842,1.822,12,1.822s-1.577,0.51-1.873,1.298l-1.82,4.854H3.414c-0.812,0-1.537,0.484-1.848,1.234
		S1.426,10.814,2,11.389c0.031,0.031,0.063,0.06,0.099,0.086l3.795,2.911l-1.103,5.303c-0.216,0.86,0.133,1.719,0.888,2.186
		c0.756,0.467,1.68,0.395,2.354-0.182l3.968-3.4l3.968,3.4c0.378,0.323,0.834,0.488,1.296,0.488c0.361,0,0.726-0.102,1.058-0.307
		c0.755-0.467,1.104-1.325,0.897-2.147l-1.111-5.341l3.794-2.911c0.035-0.026,0.067-0.055,0.099-0.086
		C22.574,10.814,22.744,9.959,22.434,9.209z"/>
</g>
</svg>
