<?xml version="1.0" encoding="UTF-8" standalone="no"?>
<svg width="26px" height="26px" viewBox="0 0 26 26" version="1.1" xmlns="http://www.w3.org/2000/svg" xmlns:xlink="http://www.w3.org/1999/xlink">
    <!-- Generator: Sketch 41.1 (35376) - http://www.bohemiancoding.com/sketch -->
    <title>half-star</title>
    <desc>Created with Sketch.</desc>
    <defs></defs>
    <g id="Page-1" stroke="none" stroke-width="1" fill="none" fill-rule="evenodd">
        <g id="half-star" transform="translate(1.000000, 1.000000)">
            <g id="Page-1">
                <g id="half-star">
                    <path d="M12,0 C11.5,0 11,0.5 10.9,1 L8.4,8.7 L1.3,8.7 C0.7,8.7 0,8.9 0,9.7 C0,10.1 0.1,10.7 0.5,10.9 L6.5,14.5 L4.1,22.5 C4,23 4.3,23.6 4.7,23.8 C4.9,23.9 5.1,24 5.3,24 C5.6,24 5.8,24 6.1,23.8 L12,19 L12,8.8817842e-16 L12,0 Z" id="Shape" fill="#000000"></path>
                    <path class="border" d="M22.7,8.7 L15.6,8.7 L13.1,1 C13,0.5 12.5,0 12,0 C11.5,0 11,0.5 10.9,1 L8.4,8.7 L1.3,8.7 C0.7,8.7 0,8.9 0,9.7 C0,10.1 0.1,10.7 0.5,10.9 L6.5,14.5 L4.1,22.5 C4,23 4.3,23.6 4.7,23.8 C4.9,23.9 5.1,24 5.3,24 C5.6,24 5.8,24 6.1,23.8 L12,19 L17.9,23.8 C18.1,24 18.3,24 18.7,24 C18.9,24 19.1,23.9 19.4,23.8 C19.8,23.6 20.1,23 19.9,22.5 L17.5,14.5 L23.5,10.9 C23.9,10.7 24,10.1 24,9.7 C24,8.9 23.3,8.7 22.7,8.7 Z" id="border" stroke="#000000"></path>
                </g>
            </g>
        </g>
    </g>
</svg>