<?xml version="1.0" encoding="utf-8"?>
<!-- Generator: Adobe Illustrator 16.0.4, SVG Export Plug-In . SVG Version: 6.00 Build 0)  -->
<!DOCTYPE svg PUBLIC "-//W3C//DTD SVG 1.1//EN" "http://www.w3.org/Graphics/SVG/1.1/DTD/svg11.dtd">
<svg version="1.1" xmlns="http://www.w3.org/2000/svg" xmlns:xlink="http://www.w3.org/1999/xlink" x="0px" y="0px"
	 width="24px" height="24px" viewBox="-2 -2 27 27" xml:space="preserve">
<path d="M22.7,8.7h-7.1L13.1,1C13,0.5,12.5,0,12,0s-1,0.5-1.1,1L8.4,8.7H1.3C0.7,8.7,0,8.9,0,9.7c0,0.4,0.1,1,0.5,1.2l6,3.6l-2.4,8
	C4,23,4.3,23.6,4.7,23.8C4.9,23.9,5.1,24,5.3,24c0.3,0,0.5,0,0.8-0.2L12,19l5.9,4.8c0.2,0.2,0.4,0.2,0.8,0.2c0.2,0,0.4-0.1,0.7-0.2
	c0.4-0.2,0.7-0.8,0.5-1.3l-2.4-8l6-3.6c0.4-0.2,0.5-0.8,0.5-1.2C24,8.9,23.3,8.7,22.7,8.7z"/>
</svg>
