<?xml version="1.0" encoding="UTF-8" standalone="no"?>
<!-- Generator: Adobe Illustrator 16.0.4, SVG Export Plug-In . SVG Version: 6.00 Build 0)  -->

<svg
   xmlns:dc="http://purl.org/dc/elements/1.1/"
   xmlns:cc="http://creativecommons.org/ns#"
   xmlns:rdf="http://www.w3.org/1999/02/22-rdf-syntax-ns#"
   xmlns:svg="http://www.w3.org/2000/svg"
   xmlns="http://www.w3.org/2000/svg"
   xmlns:sodipodi="http://sodipodi.sourceforge.net/DTD/sodipodi-0.dtd"
   xmlns:inkscape="http://www.inkscape.org/namespaces/inkscape"
   version="1.1"
   x="0px"
   y="0px"
   width="24px"
   height="24px"
   viewBox="-1 -1 26 26"
   xml:space="preserve"
   inkscape:version="0.48.5 r10040"
   sodipodi:docname="star-half.svg"><metadata
   id="metadata9"><rdf:RDF><cc:Work
       rdf:about=""><dc:format>image/svg+xml</dc:format><dc:type
         rdf:resource="http://purl.org/dc/dcmitype/StillImage" /><dc:title /></cc:Work></rdf:RDF></metadata><defs
   id="defs7" /><sodipodi:namedview
   pagecolor="#ffffff"
   bordercolor="#666666"
   borderopacity="1"
   objecttolerance="10"
   gridtolerance="10"
   guidetolerance="10"/>
<path
   d="M 11.90625 19.0625 L 11.90625 0.03125 C 11.440368 0.090105377 10.999743 0.53253425 10.90625 1 L 8.40625 8.6875 L 1.3125 8.6875 C 0.7125 8.6875 0 8.8875 0 9.6875 C 0 10.0875 0.1 10.70625 0.5 10.90625 L 6.5 14.5 L 4.09375 22.5 C 3.99375 23 4.2875 23.6125 4.6875 23.8125 C 4.8875 23.9125 5.1125 24 5.3125 24 C 5.6125 24 5.79375 24.0125 6.09375 23.8125 L 11.90625 19.0625 z "
   id="path3776" /><path
   d="M 12 0 C 11.967466 0 11.938674 0.027153838 11.90625 0.03125 L 11.90625 19.0625 L 12 19 L 17.90625 23.8125 C 18.10625 24.0125 18.2875 24 18.6875 24 C 18.8875 24 19.10625 23.9125 19.40625 23.8125 C 19.80625 23.6125 20.10625 23 19.90625 22.5 L 17.5 14.5 L 23.5 10.90625 C 23.9 10.70625 24 10.0875 24 9.6875 C 24 9.2875 23.8125 9.05625 23.5625 8.90625 C 23.3125 8.75625 22.9875 8.6875 22.6875 8.6875 L 15.59375 8.6875 L 13.09375 1 C 12.99375 0.5 12.5 0 12 0 z "
   id="path3"
   style="fill:#ffffff" />
</svg>