<svg width="24" height="24" viewBox="0 0 24 24" xmlns="http://www.w3.org/2000/svg">
    <title>product/24px/star_half_filled</title>
    <desc>Created with Sketch.</desc>
    <path d="M1.566 9.234c.311-.75 1.037-1.234 1.848-1.234h4.893l1.82-4.854c.296-.789 1.03-1.297 1.873-1.297s1.577.509 1.873 1.297l1.82 4.854h4.893c.811 0 1.537.484 1.848 1.234.311.75.14 1.606-.434 2.18l-.099.086-3.795 2.911 1.103 5.304c.216.861-.133 1.719-.889 2.185-.331.205-.695.307-1.057.307-.461 0-.918-.165-1.296-.489l-3.968-3.4-3.967 3.399c-.676.58-1.6.65-2.354.184-.756-.467-1.104-1.324-.898-2.147l1.111-5.342-3.794-2.911-.099-.086c-.572-.575-.742-1.431-.432-2.181zm11.084 7.006l4.61 3.921-1.239-5.957c-.078-.376.066-.764.371-.997l4.179-3.207h-5.571c-.417 0-.79-.259-.937-.648l-2.06-5.514-.004.01v12.152c.232 0 .465.08.651.24z"/>
</svg>