<?xml version="1.0" encoding="utf-8"?>
<!-- Generator: Adobe Illustrator 23.0.3, SVG Export Plug-In . SVG Version: 6.00 Build 0)  -->
<svg version="1.1" xmlns="http://www.w3.org/2000/svg" xmlns:xlink="http://www.w3.org/1999/xlink" x="0px" y="0px"
	 viewBox="0 0 24 24" style="enable-background:new 0 0 24 24;" xml:space="preserve">
<g>
	<path class="st3" d="M22.434,9.234C22.123,8.484,21.397,8,20.586,8h-4.893l-1.82-4.854C13.577,2.357,12.843,1.849,12,1.849
		s-1.577,0.509-1.873,1.297L8.307,8H3.414C2.603,8,1.877,8.484,1.566,9.234S1.426,10.84,2,11.414
		c0.031,0.031,0.063,0.06,0.099,0.086l3.795,2.911l-1.103,5.304C4.575,20.576,4.924,21.434,5.68,21.9
		c0.331,0.205,0.695,0.307,1.057,0.307c0.461,0,0.918-0.165,1.296-0.489l3.968-3.4l3.967,3.399c0.676,0.58,1.601,0.65,2.354,0.184
		c0.756-0.467,1.104-1.324,0.898-2.147l-1.111-5.342l3.794-2.911c0.035-0.026,0.067-0.055,0.099-0.086
		C22.574,10.84,22.744,9.984,22.434,9.234z M16.392,13.207c-0.305,0.233-0.449,0.621-0.371,0.997l1.248,5.994L12.65,16.24
		C12.464,16.08,12.231,16,12,16s-0.464,0.08-0.65,0.24L6.74,20.161l1.239-5.957c0.078-0.376-0.066-0.764-0.371-0.997L3.429,10H9
		c0.417,0,0.79-0.259,0.937-0.648l2.06-5.514c0,0,0.001,0.003,0.004,0.01c0,0,0,0,0,0.001l2.063,5.503C14.21,9.741,14.583,10,15,10
		h5.571L16.392,13.207z"/>
</g>
</svg>
