<?xml version="1.0" encoding="UTF-8" standalone="no"?>
<svg width="26px" height="26px" viewBox="0 0 26 26" version="1.1" xmlns="http://www.w3.org/2000/svg" xmlns:xlink="http://www.w3.org/1999/xlink">
    <!-- Generator: Sketch 41.1 (35376) - http://www.bohemiancoding.com/sketch -->
    <title>full-star</title>
    <desc>Created with Sketch.</desc>
    <defs></defs>
    <g id="Page-1">
        <path d="M23.7,9.7 L16.6,9.7 L14.1,2 C14,1.5 13.5,1 13,1 C12.5,1 12,1.5 11.9,2 L9.4,9.7 L2.3,9.7 C1.7,9.7 1,9.9 1,10.7 C1,11.1 1.1,11.7 1.5,11.9 L7.5,15.5 L5.1,23.5 C5,24 5.3,24.6 5.7,24.8 C5.9,24.9 6.1,25 6.3,25 C6.6,25 6.8,25 7.1,24.8 L13,20 L18.9,24.8 C19.1,25 19.3,25 19.7,25 C19.9,25 20.1,24.9 20.4,24.8 C20.8,24.6 21.1,24 20.9,23.5 L18.5,15.5 L24.5,11.9 C24.9,11.7 25,11.1 25,10.7 C25,9.9 24.3,9.7 23.7,9.7 Z" id="full-star"></path>
    </g>
</svg>