<?xml version="1.0" encoding="utf-8"?>
<!-- Generator: Adobe Illustrator 16.0.4, SVG Export Plug-In . SVG Version: 6.00 Build 0)  -->
<!DOCTYPE svg PUBLIC "-//W3C//DTD SVG 1.1//EN" "http://www.w3.org/Graphics/SVG/1.1/DTD/svg11.dtd">
<svg version="1.1" id="Ebene_1" xmlns="http://www.w3.org/2000/svg" xmlns:xlink="http://www.w3.org/1999/xlink" x="0px" y="0px"
	 width="129px" height="22px" viewBox="0 0 129 22" style="enable-background:new 0 0 129 22;" xml:space="preserve">
<rect x="51" style="fill:#FFFFFF;" width="78" height="22"/>
<path id="path3855" style="fill:#999999;" d="M0,16.3V9.8h0.7v0.6C1,9.9,1.5,9.7,2.1,9.7c0.6,0,1.1,0.2,1.4,0.6
	c0.4,0.5,0.6,1.1,0.6,1.9c0,0.8-0.2,1.4-0.5,1.8c-0.4,0.4-0.8,0.7-1.4,0.7c-0.6,0-1-0.2-1.4-0.7v2.3H0 M2,10.3c-0.2,0-0.3,0-0.5,0.1
	c-0.2,0.1-0.3,0.2-0.4,0.4c-0.2,0.3-0.3,0.8-0.3,1.4c0,0.6,0.1,1.1,0.4,1.4C1.4,13.9,1.7,14,2.1,14c0.4,0,0.7-0.2,0.9-0.5
	c0.2-0.4,0.4-0.8,0.4-1.4c0-0.6-0.1-1-0.4-1.4C2.7,10.5,2.4,10.3,2,10.3"/>
<path id="path3857" style="fill:#999999;" d="M7.2,9.7c0.6,0,1.1,0.2,1.5,0.7c0.4,0.4,0.6,1,0.6,1.8c0,0.8-0.2,1.5-0.7,1.9
	c-0.4,0.4-0.8,0.5-1.4,0.5c-0.7,0-1.2-0.2-1.6-0.7C5.2,13.5,5,12.9,5,12.2c0-0.7,0.2-1.3,0.5-1.7C5.9,9.9,6.5,9.7,7.2,9.7 M7.1,10.3
	c-0.4,0-0.7,0.2-0.9,0.5c-0.3,0.4-0.4,0.8-0.4,1.4c0,0.6,0.1,1.1,0.4,1.4C6.4,13.9,6.8,14,7.2,14c0.4,0,0.6-0.1,0.9-0.4
	c0.3-0.4,0.4-0.8,0.4-1.5c0-0.6-0.1-1.1-0.4-1.4C7.8,10.4,7.5,10.3,7.1,10.3"/>
<path id="path3859" style="fill:#999999;" d="M11.1,14.5L9.8,9.8h0.8l1,3.7l0.9-3.7h0.8l0.9,3.7l0.9-3.7h0.8l-1.4,4.7h-0.8l-0.9-3.6
	l-0.8,3.6H11.1"/>
<path id="path3861" style="fill:#999999;" d="M20.3,12.4h-3.2c0,0.3,0.1,0.6,0.1,0.8c0.2,0.6,0.6,0.8,1.1,0.8c0.4,0,0.7-0.2,0.9-0.5
	c0.1-0.1,0.1-0.3,0.2-0.5h0.8c-0.1,0.4-0.2,0.7-0.4,0.9c-0.4,0.5-0.8,0.7-1.5,0.7c-0.7,0-1.2-0.3-1.6-0.8c-0.3-0.5-0.5-1-0.5-1.7
	c0-0.7,0.2-1.3,0.6-1.8c0.4-0.5,0.9-0.7,1.5-0.7c0.5,0,0.9,0.2,1.3,0.5c0.4,0.3,0.6,0.8,0.7,1.5C20.3,11.8,20.3,12.1,20.3,12.4
	 M19.5,11.8c0-0.3-0.1-0.6-0.2-0.8c-0.2-0.4-0.5-0.6-1-0.6c-0.4,0-0.8,0.2-1,0.6c-0.1,0.2-0.2,0.5-0.3,0.9H19.5"/>
<path id="path3863" style="fill:#999999;" d="M21.5,14.5V9.8h0.7v0.9c0.3-0.7,0.8-1,1.6-1v0.8c-0.1,0-0.2,0-0.3,0
	c-0.4,0-0.7,0.1-0.9,0.4c-0.2,0.2-0.3,0.6-0.4,1c0,0.2,0,0.5,0,0.9v1.7H21.5"/>
<path id="path3865" style="fill:#999999;" d="M28.4,12.4h-3.2c0,0.3,0.1,0.6,0.1,0.8c0.2,0.6,0.6,0.8,1.1,0.8c0.4,0,0.7-0.2,0.9-0.5
	c0.1-0.1,0.1-0.3,0.2-0.5h0.8c-0.1,0.4-0.2,0.7-0.4,0.9c-0.4,0.5-0.8,0.7-1.5,0.7c-0.7,0-1.2-0.3-1.6-0.8c-0.3-0.5-0.5-1-0.5-1.7
	c0-0.7,0.2-1.3,0.6-1.8c0.4-0.5,0.9-0.7,1.5-0.7c0.5,0,0.9,0.2,1.3,0.5c0.4,0.3,0.6,0.8,0.7,1.5C28.4,11.8,28.4,12.1,28.4,12.4
	 M27.6,11.8c0-0.3-0.1-0.6-0.2-0.8c-0.2-0.4-0.5-0.6-1-0.6c-0.4,0-0.8,0.2-1,0.6c-0.1,0.2-0.2,0.5-0.3,0.9H27.6"/>
<path id="path3867" style="fill:#999999;" d="M33.4,14.5h-0.7v-0.6c-0.3,0.5-0.8,0.7-1.4,0.7c-0.6,0-1.1-0.2-1.4-0.6
	c-0.4-0.5-0.6-1.1-0.6-1.9c0-0.8,0.2-1.4,0.6-1.8c0.4-0.4,0.8-0.7,1.4-0.7c0.6,0,1,0.2,1.4,0.7V7.7h0.8V14.5 M31.4,10.3
	c-0.2,0-0.3,0-0.5,0.1c-0.2,0.1-0.3,0.2-0.4,0.3c-0.2,0.4-0.4,0.8-0.4,1.4c0,0.6,0.1,1,0.4,1.4c0.2,0.3,0.5,0.5,0.9,0.5
	c0.2,0,0.4,0,0.5-0.1c0.2-0.1,0.3-0.2,0.4-0.4c0.2-0.3,0.3-0.8,0.3-1.4c0-0.6-0.1-1.1-0.4-1.4C32,10.4,31.7,10.3,31.4,10.3"/>
<path id="path3869" style="fill:#999999;" d="M37,14.5V7.7h0.8v2.6c0.3-0.5,0.8-0.7,1.4-0.7s1.1,0.2,1.4,0.7c0.4,0.4,0.5,1,0.5,1.8
	c0,0.8-0.2,1.4-0.6,1.9c-0.4,0.4-0.8,0.6-1.4,0.6c-0.6,0-1.1-0.2-1.4-0.7v0.6H37 M39,10.3c-0.4,0-0.7,0.2-0.9,0.5
	c-0.3,0.3-0.4,0.8-0.4,1.4c0,0.6,0.1,1,0.3,1.4c0.2,0.3,0.5,0.5,0.9,0.5c0.4,0,0.7-0.2,0.9-0.5c0.2-0.4,0.4-0.8,0.4-1.4
	c0-0.6-0.1-1-0.4-1.4C39.7,10.5,39.4,10.3,39,10.3"/>
<path id="path3871" style="fill:#999999;" d="M41.9,16.2v-0.7c0,0,0.1,0,0.1,0c0.1,0,0.2,0.1,0.3,0.1c0.2,0,0.3-0.1,0.4-0.2
	c0.1-0.1,0.2-0.5,0.4-1.1l-1.7-4.6h0.9l1.2,3.6l1.2-3.6h0.8L44,14.3c-0.3,0.8-0.5,1.3-0.6,1.5c-0.2,0.3-0.5,0.5-1,0.5
	C42.3,16.3,42.1,16.2,41.9,16.2"/>
<path style="fill-rule:evenodd;clip-rule:evenodd;fill:#E1027B;" d="M64.4,18c0,0.3,0,0.6,0,0.9c-2.6,0-5.2,0-7.8,0
	c0-0.3,0-0.6,0-0.9c0.3,0,0.6,0,0.9-0.1c1.1-0.1,1.6-0.6,1.7-1.8c0-0.3,0-0.6,0-0.8c0-3.8,0-7.6,0-11.4c0-0.1,0-0.2,0-0.3
	c-0.6,0-1.2,0.1-1.8,0.3c-1.2,0.5-1.9,1.5-2.3,2.7c-0.2,0.6-0.3,1.3-0.4,1.9c-0.2,0-0.5-0.1-0.8-0.1c0.1-1.9,0.1-3.7,0.2-5.6
	c4.2,0,8.5,0,12.7,0C66.9,4.9,67,6.7,67,8.6c-0.3,0-0.6,0.1-0.8,0.1c-0.1-0.6-0.2-1.1-0.3-1.6c-0.3-1-0.7-1.9-1.6-2.6
	c-0.7-0.5-1.6-0.7-2.5-0.8c0,0.1,0,0.2,0,0.3c0,3.8,0,7.6,0,11.4c0,0.4,0,0.8,0.1,1.2c0.1,0.9,0.5,1.3,1.5,1.4
	C63.7,18,64,18,64.4,18z"/>
<path style="fill-rule:evenodd;clip-rule:evenodd;fill:#7B7C7C;" d="M98.3,14.7c0,0.6-0.1,1.3-0.3,1.9c-0.5,1.4-1.8,2.3-3.3,2.4
	c-0.8,0-1.6-0.1-2.4-0.5c-1.1-0.6-1.7-1.7-1.8-2.9c-0.1-0.8-0.1-1.7,0.1-2.5c0.4-1.6,1.7-2.6,3.3-2.7c0.9-0.1,1.7,0,2.5,0.5
	c1.1,0.6,1.6,1.6,1.8,2.8C98.2,14,98.2,14.4,98.3,14.7z M96.7,14.9c0-0.4-0.1-0.8-0.1-1.2c-0.2-1.1-1-1.8-2-1.9
	c-1.3-0.1-2.1,0.5-2.4,1.7c-0.2,0.8-0.2,1.6,0,2.4c0.3,1,1.1,1.6,2.2,1.6c1,0,1.9-0.6,2.2-1.6C96.6,15.6,96.6,15.2,96.7,14.9z"/>
<path style="fill-rule:evenodd;clip-rule:evenodd;fill:#7C7D7D;" d="M125.2,16.3c-1.4,0-2.7,0-4,0c0,0.7,0.4,1.3,1,1.5
	c0.6,0.1,1-0.1,1.3-0.8c0.5,0.1,1,0.1,1.6,0.2c-0.3,0.9-0.8,1.5-1.7,1.7c-0.7,0.2-1.3,0.2-2-0.1c-0.9-0.3-1.4-1-1.7-1.9
	c-0.2-0.8-0.2-1.7,0.1-2.5c0.4-1.2,1.4-1.8,2.8-1.8c1.2,0.1,2.1,0.8,2.4,2C125.1,15.1,125.1,15.7,125.2,16.3z M123.5,15.3
	c0-0.6-0.1-1.1-0.7-1.4c-0.4-0.2-0.8-0.2-1.1,0.1c-0.4,0.3-0.5,0.8-0.5,1.3C122,15.3,122.8,15.3,123.5,15.3z"/>
<path style="fill-rule:evenodd;clip-rule:evenodd;fill:#7C7D7D;" d="M105,18.8c-0.6,0-1.1,0-1.6,0c0-0.1,0-0.2,0-0.3c0-1,0-2,0-3
	c0-0.3,0-0.6,0-0.9c-0.1-0.7-0.7-1-1.3-0.8c-0.6,0.2-0.8,0.8-0.8,1.4c0,1.1,0,2.1,0,3.2c0,0.1,0,0.2,0,0.3c-0.5,0-1.1,0-1.6,0
	c0-2,0-4,0-6c0.5,0,1.1,0,1.6,0c0,0.3,0,0.5,0,0.8c0.1-0.1,0.2-0.2,0.2-0.2c0.6-0.7,1.3-0.9,2.2-0.7c0.8,0.2,1.3,0.7,1.3,1.6
	c0,1,0,1.9,0,2.9C105,17.7,105,18.2,105,18.8z"/>
<path style="fill-rule:evenodd;clip-rule:evenodd;fill:#7B7C7C;" d="M114.7,18.8c-0.5,0-1,0-1.6,0c0-2,0-4,0-6c0.5,0,1,0,1.6,0
	c0,0.3,0,0.5,0,0.9c0.1-0.1,0.2-0.2,0.2-0.2c0.7-0.8,1.7-1,2.6-0.6c0.6,0.3,0.9,0.8,1,1.5c0,1.5,0,3,0,4.5c-0.5,0-1,0-1.6,0
	c0-0.1,0-0.2,0-0.3c0-1.2,0-2.4,0-3.6c0-0.7-0.3-1-0.8-1.1c-0.6,0-1.1,0.3-1.2,0.9c-0.1,0.4-0.1,0.7-0.1,1.1c0,0.9,0,1.9,0,2.8
	C114.7,18.7,114.7,18.7,114.7,18.8z"/>
<path style="fill-rule:evenodd;clip-rule:evenodd;fill:#7C7D7D;" d="M108.2,10.6c0,2.7,0,5.5,0,8.2c-0.5,0-1,0-1.5,0
	c0,0-0.1-0.1-0.1-0.1c0,0,0-0.1,0-0.1c0-2.6,0-5.2,0-7.8c0-0.1,0-0.1,0-0.2C107.1,10.6,107.7,10.6,108.2,10.6z"/>
<path style="fill-rule:evenodd;clip-rule:evenodd;fill:#E1027B;" d="M54,13.5c0-1.1,0-2.1,0-3.2c1.1,0,2.1,0,3.2,0
	c0,1.1,0,2.1,0,3.2C56.2,13.5,55.1,13.5,54,13.5z"/>
<path style="fill-rule:evenodd;clip-rule:evenodd;fill:#E1027B;" d="M67,10.3c0,1.1,0,2.1,0,3.2c-1.1,0-2.1,0-3.2,0
	c0-1.1,0-2.1,0-3.2C64.9,10.3,66,10.3,67,10.3z"/>
<path style="fill-rule:evenodd;clip-rule:evenodd;fill:#E1037B;" d="M76.8,10.3c0,1.1,0,2.1,0,3.2c-1.1,0-2.1,0-3.2,0
	c0-1.1,0-2.1,0-3.2C74.6,10.3,75.7,10.3,76.8,10.3z"/>
<path style="fill-rule:evenodd;clip-rule:evenodd;fill:#E1027B;" d="M83.3,13.5c0-1.1,0-2.1,0-3.2c1.1,0,2.1,0,3.2,0
	c0,1.1,0,2.1,0,3.2C85.4,13.5,84.4,13.5,83.3,13.5z"/>
<path style="fill-rule:evenodd;clip-rule:evenodd;fill:#7C7D7D;" d="M111.4,18.8c-0.5,0-1,0-1.6,0c0-2,0-4,0-6c0.5,0,1,0,1.6,0
	C111.4,14.8,111.4,16.8,111.4,18.8z"/>
<path style="fill-rule:evenodd;clip-rule:evenodd;fill:#7B7C7C;" d="M109.8,12c0-0.5,0-0.9,0-1.4c0.5,0,1.1,0,1.6,0
	c0,0.5,0,0.9,0,1.4C110.9,12,110.4,12,109.8,12z"/>
</svg>
