<?xml version="1.0" encoding="utf-8"?>
<!-- Generator: Adobe Illustrator 16.0.4, SVG Export Plug-In . SVG Version: 6.00 Build 0)  -->
<!DOCTYPE svg PUBLIC "-//W3C//DTD SVG 1.1//EN" "http://www.w3.org/Graphics/SVG/1.1/DTD/svg11.dtd">
<svg version="1.1" id="Ebene_1" xmlns="http://www.w3.org/2000/svg" xmlns:xlink="http://www.w3.org/1999/xlink" x="0px" y="0px"
	 width="20px" height="20px" viewBox="0 0 20 20" style="enable-background:new 0 0 20 20;" xml:space="preserve">
<polygon points="7,16 7,17.2 8,19 9.3,20 10.7,20 12,19 13,17.2 13,16 12,15 8,15 "/>
<path style="fill-rule:evenodd;clip-rule:evenodd;" d="M8.6,12h2.9l0.1-0.1c0.1-1.2,0.8-2.2,1.7-3.6l0.3-0.5C13.8,7.3,14,6.7,14,6
	c0-2.2-1.8-4-4-4S6,3.8,6,6c0,0.7,0.2,1.4,0.5,2l0.4,0.5C7.8,9.8,8.4,10.7,8.6,12L8.6,12z M11.9,14H8.1c-0.3,0-0.6-0.1-0.8-0.3
	L6.7,13c-0.2-0.2-0.2-0.4-0.2-0.7c0-0.7-0.4-1.3-1.3-2.7L4.8,9C4.3,8.1,4,7.1,4,6c0-3.3,2.7-6,6-6s6,2.7,6,6c0,1-0.2,2-0.7,2.9
	l-0.4,0.5c-1,1.5-1.4,2.1-1.4,2.9c0,0.2-0.1,0.5-0.2,0.7l-0.6,0.7C12.5,13.9,12.2,14,11.9,14z"/>
</svg>
