<?xml version="1.0" encoding="UTF-8" standalone="no"?>
<svg width="117px" height="72px" viewBox="0 0 117 72" version="1.1" xmlns="http://www.w3.org/2000/svg" xmlns:xlink="http://www.w3.org/1999/xlink">
    <defs>
        <polygon id="path-1" points="0 0.268 116.5712 0.268 116.5712 72 0 72"></polygon>
    </defs>
    <g id="Globals" stroke="none" stroke-width="1" fill="none" fill-rule="evenodd">
        <g id="Logo" transform="translate(-1037.000000, -360.000000)">
            <g id="Page-1" transform="translate(1037.000000, 360.000000)">
                <polygon id="Fill-1" fill="#FFFFFF" points="0 27.6792 109.8536 27.6792 109.8536 25.9112 0 25.9112"></polygon>
                <polygon id="Fill-2" fill="#003468" points="0 25.9104 109.8536 25.9104 109.8536 0.268 0 0.268"></polygon>
                <g id="Group-42">
                    <path d="M0,53.31992 L96.9064,53.31992 C104.108,53.31992 109.8528,47.40792 109.8528,40.47912 L109.8528,27.67752 L0,27.67752 L0,53.31992 Z" id="Fill-3" fill="#FF7500"></path>
                    <path d="M10.0172,47.88632 L9.8308,47.88632 C7.6004,47.88632 5.6796,46.33672 5.6796,43.75672 C5.6796,42.16712 8.0756,42.16712 8.0756,43.75672 C8.0756,44.86952 8.7988,45.51032 9.8308,45.51032 L10.0172,45.51032 C11.0484,45.51032 11.834,44.97512 11.834,43.93992 C11.834,41.36072 5.8252,41.11272 5.8252,37.33432 L5.8252,36.89992 C5.8252,34.69032 8.034,33.37032 9.8308,33.37032 L10.0172,33.37032 C12.1428,33.37032 14.0436,34.69032 14.0436,36.67272 C14.0436,38.20152 11.6684,38.24312 11.6684,36.73592 C11.6684,36.19832 11.0076,35.74312 10.0172,35.74312 L9.8308,35.74312 C8.922,35.74312 8.2204,36.23992 8.2204,37.02472 L8.2204,37.33432 C8.2204,38.96632 14.2284,39.68952 14.2284,43.93992 C14.2284,46.29592 12.3916,47.88632 10.0172,47.88632" id="Fill-5" fill="#003468"></path>
                    <path d="M20.4016,47.88632 L20.216,47.88632 C17.944,47.88632 16.0864,46.13112 16.0864,43.83672 L16.0864,37.39672 C16.0864,35.10392 17.944,33.37032 20.216,33.37032 L20.4016,33.37032 C22.4856,33.37032 24.2216,34.79512 24.4888,36.81832 C24.5112,36.88072 24.5112,36.94152 24.5112,37.02472 C24.5112,37.76712 23.8904,38.18072 23.292,38.18072 C22.756,38.18072 22.2392,37.85112 22.136,37.14792 C22.0128,36.30152 21.2888,35.74312 20.4016,35.74312 L20.216,35.74312 C19.2456,35.74312 18.4608,36.44632 18.4608,37.39672 L18.4608,43.83672 C18.4608,44.80952 19.2656,45.51032 20.216,45.51032 L20.4016,45.51032 C21.2888,45.51032 22.0128,44.95272 22.136,44.10632 C22.2392,43.40472 22.7768,43.07512 23.292,43.07512 C23.9128,43.07512 24.5112,43.48712 24.5112,44.23112 L24.5112,44.45752 C24.2,46.43992 22.4856,47.88632 20.4016,47.88632" id="Fill-7" fill="#003468"></path>
                    <path d="M32.27344,37.4168 C32.27344,36.4464 31.50944,35.7432 30.53904,35.7432 L30.35344,35.7432 C29.38304,35.7432 28.61904,36.4672 28.61904,37.4168 L28.61904,43.8192 C28.61904,44.7872 29.40304,45.5104 30.35344,45.5104 L30.53904,45.5104 C31.50944,45.5104 32.27344,44.7872 32.27344,43.8368 L32.27344,37.4168 Z M30.53904,47.8864 L30.35344,47.8864 C28.08304,47.8864 26.22384,46.1096 26.22384,43.8368 L26.22384,37.4168 C26.22384,35.1248 28.08304,33.3704 30.35344,33.3704 L30.53904,33.3704 C32.83104,33.3704 34.66864,35.1248 34.66864,37.4168 L34.66864,43.8192 C34.66864,46.1096 32.83104,47.8864 30.53904,47.8864 L30.53904,47.8864 Z" id="Fill-9" fill="#003468"></path>
                    <path d="M41.44064,47.88632 L41.25664,47.88632 C38.98464,47.88632 37.12624,46.02872 37.12624,43.75672 L37.12624,34.56872 C37.12624,33.76232 37.72464,33.37032 38.32384,33.37032 C38.92224,33.37032 39.52064,33.76232 39.52064,34.56872 L39.52064,43.75672 C39.52064,44.70632 40.30464,45.51032 41.25664,45.51032 L41.44064,45.51032 C42.41264,45.51032 43.19504,44.72632 43.19504,43.75672 L43.19504,34.56872 C43.19504,33.76232 43.79504,33.37032 44.39344,33.37032 C44.99344,33.37032 45.59024,33.76232 45.59024,34.56872 L45.59024,43.75672 C45.59024,46.02872 43.73424,47.88632 41.44064,47.88632" id="Fill-11" fill="#003468"></path>
                    <path d="M54.05624,35.86832 L52.40504,35.86832 L52.40504,46.68912 C52.40504,47.49312 51.80504,47.88592 51.20584,47.88592 C50.60744,47.88592 50.00904,47.49312 50.00904,46.68912 L50.00904,35.86832 L48.35784,35.86832 C47.57304,35.86832 47.16104,35.26992 47.16104,34.66992 C47.16104,34.09152 47.57304,33.49392 48.35784,33.49392 L54.05624,33.49392 C54.86264,33.49392 55.25464,34.09152 55.25464,34.66992 C55.25464,35.26992 54.86264,35.86832 54.05624,35.86832" id="Fill-13" fill="#003468"></path>
                    <path d="M65.20784,47.76056 L59.83744,47.76056 C59.07504,47.76056 58.62064,47.03976 58.62064,46.33736 C58.62064,46.06936 58.66064,45.81976 58.80624,45.59336 L63.49344,38.03736 C63.74064,37.62296 63.74064,37.39656 63.74064,37.08696 L63.74064,36.91976 C63.74064,36.30136 63.20464,35.74376 62.50144,35.74376 L62.44064,35.74376 C61.75904,35.74376 61.24384,36.28056 61.24384,36.91976 L61.24384,37.14776 C61.24384,37.93256 60.64384,38.32456 60.04544,38.32456 C59.44704,38.32456 58.84704,37.93256 58.84704,37.14776 L58.84704,36.83896 C58.84704,34.83576 60.47824,33.37016 62.44064,33.37016 L62.50144,33.37016 C64.44224,33.37016 66.13584,34.81496 66.13584,36.83896 L66.11584,37.06536 C66.11584,37.85096 65.82624,38.49016 65.39184,39.21256 L61.61424,45.38696 L65.20784,45.38696 C66.01264,45.38696 66.40464,45.98616 66.40464,46.56376 C66.40464,47.16296 66.01264,47.76056 65.20784,47.76056" id="Fill-15" fill="#003468"></path>
                    <path d="M74.64216,44.9332 L74.18776,44.9332 L74.18776,46.6892 C74.18776,47.4932 73.58936,47.886 72.99096,47.886 C72.39176,47.886 71.79336,47.4932 71.79336,46.6892 L71.79336,44.9332 L68.55016,44.9332 C67.72536,44.9332 67.20776,44.4788 67.20776,43.6732 C67.20776,43.4668 67.25016,43.1988 67.33256,43.0132 L71.19336,34.0916 C71.42056,33.5764 71.83416,33.37 72.24696,33.37 C72.86536,33.37 73.48616,33.8452 73.48616,34.526 C73.48616,34.69 73.46536,34.8556 73.38296,35.042 L69.97496,42.5572 L71.79336,42.5572 L71.79336,41.3604 C71.79336,40.5756 72.39176,40.1628 72.99096,40.1628 C73.58936,40.1628 74.18776,40.5564 74.18776,41.3604 L74.18776,42.5572 L74.64216,42.5572 C75.44696,42.5572 75.83896,43.1364 75.83896,43.7364 C75.83896,44.334 75.44696,44.9332 74.64216,44.9332" id="Fill-17" fill="#003468"></path>
                    <path d="M11.23672,10.4824 L9.93592,14.8384 L12.53752,14.8384 L11.23672,10.4824 Z M15.13912,20.5592 C14.68472,20.5592 14.20952,20.3104 14.04472,19.712 L13.28152,17.2136 L9.19192,17.2136 L8.42792,19.712 C8.24232,20.3104 7.76712,20.5592 7.31352,20.5592 C6.69432,20.5592 6.07512,20.104 6.07512,19.4008 C6.07512,19.2776 6.07512,19.1528 6.13672,19.0088 L9.91592,7.0544 C10.20472,6.1248 10.71992,6.0416 11.23672,6.0416 C11.73192,6.0416 12.24872,6.1248 12.55752,7.0544 L16.31672,19.0088 C16.35752,19.1528 16.37832,19.2776 16.37832,19.4008 C16.37832,20.104 15.75832,20.5592 15.13912,20.5592 L15.13912,20.5592 Z" id="Fill-19" fill="#FFFFFF"></path>
                    <path d="M22.38904,20.55896 L22.20504,20.55896 C19.93304,20.55896 18.07464,18.69976 18.07464,16.42776 L18.07464,7.24056 C18.07464,6.43576 18.67304,6.04216 19.27224,6.04216 C19.87064,6.04216 20.46904,6.43576 20.46904,7.24056 L20.46904,16.42776 C20.46904,17.37736 21.25464,18.18376 22.20504,18.18376 L22.38904,18.18376 C23.36104,18.18376 24.14504,17.39976 24.14504,16.42776 L24.14504,7.24056 C24.14504,6.43576 24.74344,6.04216 25.34184,6.04216 C25.94024,6.04216 26.54024,6.43576 26.54024,7.24056 L26.54024,16.42776 C26.54024,18.69976 24.68104,20.55896 22.38904,20.55896" id="Fill-21" fill="#FFFFFF"></path>
                    <path d="M35.19216,8.54176 L33.54096,8.54176 L33.54096,19.35856 C33.54096,20.16656 32.94176,20.55856 32.34176,20.55856 C31.74336,20.55856 31.14496,20.16656 31.14496,19.35856 L31.14496,8.54176 L29.49376,8.54176 C28.70816,8.54176 28.29536,7.94176 28.29536,7.34336 C28.29536,6.76496 28.70816,6.16656 29.49376,6.16656 L35.19216,6.16656 C35.99696,6.16656 36.38896,6.76496 36.38896,7.34336 C36.38896,7.94176 35.99696,8.54176 35.19216,8.54176" id="Fill-23" fill="#FFFFFF"></path>
                    <path d="M43.87184,10.09024 C43.87184,9.11824 43.10944,8.41664 42.13744,8.41664 L41.95344,8.41664 C40.98144,8.41664 40.21744,9.14064 40.21744,10.09024 L40.21744,16.49024 C40.21744,17.46064 41.00144,18.18384 41.95344,18.18384 L42.13744,18.18384 C43.10944,18.18384 43.87184,17.46064 43.87184,16.51024 L43.87184,10.09024 Z M42.13744,20.55904 L41.95344,20.55904 C39.68144,20.55904 37.82224,18.78224 37.82224,16.51024 L37.82224,10.09024 C37.82224,7.79824 39.68144,6.04144 41.95344,6.04144 L42.13744,6.04144 C44.42944,6.04144 46.26704,7.79824 46.26704,10.09024 L46.26704,16.49024 C46.26704,18.78224 44.42944,20.55904 42.13744,20.55904 L42.13744,20.55904 Z" id="Fill-25" fill="#FFFFFF"></path>
                    <path d="M116.08672,0.26832 C116.08672,0.26832 116.09152,56.94432 116.09152,57.06032 C116.09152,64.89872 109.77632,71.26192 101.95632,71.34112 C101.90752,71.34192 45.68192,71.34192 45.68192,71.34192" id="Stroke-27" stroke="#707173" stroke-width="1.2"></path>
                    <polygon id="Fill-29" fill="#707173" points="10.07032 62.8164 10.07032 71.8564 8.05432 71.8564 8.05432 62.8164 5.75032 62.8164 5.75032 61.1676 12.37432 61.1676 12.37432 62.8164"></polygon>
                    <path d="M16.74216,65.6164 C16.55016,65.5636 16.37416,65.5356 16.21416,65.5356 C15.92616,65.5356 15.69416,65.5956 15.51816,65.7124 C15.34216,65.83 15.20056,65.9844 15.09416,66.1764 C14.98776,66.3676 14.91496,66.5844 14.87816,66.8244 C14.84056,67.0644 14.82216,67.3068 14.82216,67.5524 L14.82216,71.8564 L12.91816,71.8564 L12.91816,63.9844 L14.64616,63.9844 L14.79016,65.0244 C15.03496,64.6084 15.31016,64.3068 15.61416,64.1204 C15.91816,63.9332 16.27816,63.8404 16.69416,63.8404 C16.76856,63.8404 16.86696,63.8484 16.99016,63.8644 C17.11256,63.8804 17.21096,63.9036 17.28616,63.9356 L16.74216,65.6164 Z" id="Fill-31" fill="#707173"></path>
                    <g id="Group-35">
                        <mask id="mask-2" fill="white">
                            <use xlink:href="#path-1"></use>
                        </mask>
                        <g id="Clip-34"></g>
                        <path d="M22.59808,71.85624 L22.45408,70.81624 C22.29408,71.17864 22.03248,71.46744 21.67008,71.68024 C21.30768,71.89384 20.87568,72.00024 20.37408,72.00024 C19.97968,72.00024 19.64368,71.93624 19.36608,71.80824 C19.08848,71.68024 18.85968,71.50424 18.67808,71.28024 C18.49648,71.05624 18.36368,70.79224 18.27808,70.48824 C18.19248,70.18424 18.15008,69.86184 18.15008,69.52024 L18.15008,63.98424 L20.05408,63.98424 L20.05408,69.32824 C20.05408,69.68024 20.13408,69.97864 20.29408,70.22424 C20.45408,70.46984 20.73648,70.59224 21.14208,70.59224 C21.36608,70.59224 21.55568,70.54104 21.71008,70.44024 C21.86448,70.33944 21.99248,70.20824 22.09408,70.04824 C22.19568,69.88824 22.26768,69.70904 22.31008,69.51224 C22.35248,69.31464 22.37408,69.11464 22.37408,68.91224 L22.37408,63.98424 L24.27808,63.98424 L24.27808,71.85624 L22.59808,71.85624 Z" id="Fill-33" fill="#707173" mask="url(#mask-2)"></path>
                    </g>
                    <path d="M30.20584,71.94456 C29.83784,71.98136 29.47784,71.99976 29.12584,71.99976 C28.46424,71.99976 27.91464,71.88056 27.47784,71.64056 C27.04024,71.39976 26.69384,71.08296 26.43784,70.68856 C26.18184,70.29416 26.00024,69.84616 25.89384,69.34456 C25.78744,68.84296 25.73384,68.33096 25.73384,67.80856 C25.73384,67.29576 25.81064,66.79976 25.96584,66.32056 C26.12024,65.84056 26.34984,65.41656 26.65384,65.04856 C26.95784,64.68056 27.33944,64.38696 27.79784,64.16776 C28.25624,63.95016 28.78984,63.84056 29.39784,63.84056 C29.70664,63.84056 30.01384,63.86136 30.31784,63.90376 C30.62184,63.94696 30.88024,64.01096 31.09384,64.09576 L30.75784,65.44056 C30.56584,65.35496 30.36824,65.30136 30.16584,65.28056 C29.96264,65.25976 29.74424,65.24856 29.50984,65.24856 C29.15784,65.24856 28.86424,65.32616 28.62984,65.48056 C28.39464,65.63496 28.21064,65.83496 28.07784,66.08056 C27.94424,66.32616 27.85144,66.59976 27.79784,66.90376 C27.74424,67.20856 27.71784,67.50936 27.71784,67.80856 C27.71784,68.19256 27.74664,68.55256 27.80584,68.88856 C27.86424,69.22456 27.96584,69.52056 28.10984,69.77656 C28.25384,70.03176 28.45144,70.23176 28.70184,70.37656 C28.95224,70.52056 29.27464,70.59256 29.66984,70.59256 C29.85144,70.59256 30.04024,70.57096 30.23784,70.52776 C30.43544,70.48616 30.61944,70.41656 30.78984,70.32056 L31.12584,71.71256 C30.88024,71.82936 30.57384,71.90696 30.20584,71.94456" id="Fill-36" fill="#707173"></path>
                    <polygon id="Fill-38" fill="#707173" points="36.518 71.85624 34.374 68.04824 34.374 71.85624 32.47 71.85624 32.47 60.46424 34.374 60.46424 34.374 67.12024 36.422 63.98424 38.518 63.98424 36.086 67.42424 38.678 71.85624"></polygon>
                    <path d="M44.34216,69.40856 C44.34216,69.88856 44.25896,70.29096 44.09416,70.61656 C43.92856,70.94136 43.70456,71.20856 43.42216,71.41656 C43.13976,71.62456 42.80856,71.77336 42.43016,71.86376 C42.05176,71.95496 41.64856,71.99976 41.22216,71.99976 C40.88056,71.99976 40.54456,71.97896 40.21416,71.93576 C39.88296,71.89336 39.55816,71.81416 39.23816,71.69576 L39.60776,70.30376 C39.85416,70.44696 40.12216,70.53816 40.41176,70.57896 C40.70136,70.62056 40.99096,70.64056 41.28056,70.64056 C41.64456,70.64056 41.92856,70.55336 42.13256,70.37816 C42.33656,70.20296 42.43816,69.93016 42.43816,69.55976 C42.43816,69.30616 42.36296,69.10456 42.21256,68.95656 C42.06296,68.80856 41.87496,68.68136 41.65016,68.57496 C41.42456,68.46936 41.18056,68.36536 40.91816,68.26376 C40.65576,68.16296 40.41096,68.02936 40.18616,67.86376 C39.96056,67.69896 39.77336,67.48616 39.62296,67.22456 C39.47336,66.96296 39.39816,66.61896 39.39816,66.19176 C39.39816,65.74456 39.47816,65.37096 39.63816,65.07176 C39.79816,64.77336 40.01096,64.53336 40.27816,64.35256 C40.54456,64.17096 40.85416,64.04056 41.20616,63.95976 C41.55816,63.88056 41.93096,63.84056 42.32616,63.84056 C42.64616,63.84056 42.95576,63.85656 43.25416,63.88856 C43.55256,63.92056 43.85656,63.99016 44.16616,64.09576 L43.80216,65.42456 C43.58056,65.34056 43.34536,65.28216 43.09816,65.24936 C42.85016,65.21656 42.60536,65.19976 42.36216,65.19976 C42.06696,65.19976 41.81576,65.27096 41.61016,65.41336 C41.40536,65.55496 41.30216,65.78296 41.30216,66.09736 C41.30216,66.33976 41.37576,66.53416 41.52376,66.68136 C41.67176,66.82776 41.85896,66.95736 42.08616,67.06696 C42.31256,67.17736 42.55816,67.28616 42.82216,67.39176 C43.08616,67.49896 43.33096,67.63496 43.55816,67.79976 C43.78536,67.96536 43.97256,68.17336 44.12056,68.42456 C44.26776,68.67496 44.34216,69.00296 44.34216,69.40856" id="Fill-40" fill="#707173"></path>
                </g>
            </g>
        </g>
    </g>
</svg>
