<?xml version="1.0" encoding="UTF-8" standalone="no"?>
<svg width="121px" height="37px" viewBox="0 0 121 37" version="1.1" xmlns="http://www.w3.org/2000/svg" xmlns:xlink="http://www.w3.org/1999/xlink">
    <title>vehicles</title>
    <g id="Globals" stroke="none" stroke-width="1" fill="none" fill-rule="evenodd">
        <g id="Icon" transform="translate(-867.000000, -1889.000000)" fill="#333333">
            <path d="M941.133756,1897.36399 L940.091708,1891.09245 L946.229294,1891.09245 C949.304891,1891.09245 950.294448,1891.67671 952.331886,1892.88599 L959.783697,1897.36399 L941.133756,1897.36399 Z M923.716388,1897.36399 L926.513976,1891.09245 L936.961675,1891.09245 L938.005668,1897.36399 L923.716388,1897.36399 Z M964.109363,1909.90513 L964.276557,1911.918 L937.288288,1911.918 C937.288288,1911.918 937.130814,1911.02318 936.90724,1909.98665 C936.611734,1908.63568 935.081712,1905.54941 932.501865,1903.97522 C930.584963,1902.80864 923.249799,1899.80195 923.249799,1899.80195 L919.987566,1898.21223 L923.381999,1891.09245 L921.295959,1891.09245 C918.527532,1891.09245 914.851202,1893.14609 914.186313,1893.86428 C913.447547,1894.66399 913.657512,1894.82316 913.657512,1894.82316 L909.769273,1894.09914 C909.769273,1894.09914 909.769273,1893.95162 911.412054,1892.21632 C913.050947,1890.47908 916.53481,1889 920.036169,1889 L946.097094,1889 C949.602342,1889 951.093482,1889.72013 953.406984,1891.09245 L963.852739,1897.36399 L982.541562,1899.77284 C985.1078,1900.22316 987.086914,1903.17939 987.086914,1906.77033 C987.086914,1908.83755 986.31121,1910.62914 985.259442,1911.918 L980.82296,1911.918 L980.82296,1909.90513 C980.82296,1905.28737 977.084418,1901.54502 972.471022,1901.54502 C967.853738,1901.54502 964.109363,1905.28737 964.109363,1909.90513 Z M972.471411,1916.17551 C969.005045,1916.17551 966.201625,1913.3668 966.201625,1909.90591 C966.201625,1906.44113 969.005045,1903.63049 972.471411,1903.63049 C975.928056,1903.63049 978.73342,1906.44113 978.73342,1909.90591 C978.73342,1913.3668 975.928056,1916.17551 972.471411,1916.17551 Z M972.471411,1905.98692 C970.305661,1905.98692 968.548177,1907.73969 968.548177,1909.90591 C968.548177,1912.06824 970.305661,1913.82295 972.471411,1913.82295 C974.629384,1913.82295 976.384924,1912.06824 976.384924,1909.90591 C976.384924,1907.73969 974.629384,1905.98692 972.471411,1905.98692 Z M921.529253,1912.45548 C925.24641,1912.45548 928.26174,1915.35347 928.26174,1918.92306 C928.26174,1922.49848 925.24641,1925.39453 921.529253,1925.39453 C917.81404,1925.39453 914.796766,1922.49848 914.796766,1918.92306 C914.796766,1915.35347 917.81404,1912.45548 921.529253,1912.45548 Z M921.529253,1922.92551 C923.827203,1922.92551 925.693558,1921.13392 925.693558,1918.92306 C925.693558,1916.71609 923.827203,1914.9245 921.529253,1914.9245 C919.231304,1914.9245 917.366893,1916.71609 917.366893,1918.92306 C917.366893,1921.13392 919.231304,1922.92551 921.529253,1922.92551 Z M878.686687,1912.45548 C882.403844,1912.45548 885.419173,1915.35347 885.419173,1918.92306 C885.419173,1922.49848 882.403844,1925.39453 878.686687,1925.39453 C874.971474,1925.39453 871.9542,1922.49848 871.9542,1918.92306 C871.9542,1915.35347 874.971474,1912.45548 878.686687,1912.45548 Z M878.686687,1922.92551 C880.984636,1922.92551 882.849047,1921.13392 882.849047,1918.92306 C882.849047,1916.71609 880.984636,1914.9245 878.686687,1914.9245 C876.390681,1914.9245 874.524327,1916.71609 874.524327,1918.92306 C874.524327,1921.13392 876.390681,1922.92551 878.686687,1922.92551 Z M927.794568,1905.64763 C931.470898,1906.70938 933.10007,1912.616 933.10007,1915.06367 C933.10007,1916.57769 932.954261,1918.27223 932.43907,1920.058 L929.874776,1920.058 L929.874776,1918.7012 C929.874776,1913.69523 926.021531,1909.64037 921.007646,1909.64037 C915.993761,1909.64037 912.138572,1913.69523 912.138572,1918.7012 L911.714754,1920.058 L888.385317,1920.058 L887.957611,1918.7012 C887.957611,1913.69523 884.102421,1909.64037 879.088536,1909.64037 C874.076596,1909.64037 870.22335,1913.69523 870.22335,1918.7012 L870.22335,1920.058 L867.80681,1920.058 C867.484086,1918.88172 867,1917.02607 867,1915.6751 C867,1911.13498 870.724933,1903.31254 875.639668,1899.17616 C878.382821,1896.87213 882.103866,1894.82432 885.943503,1894.82432 L895.613554,1894.82432 C897.790968,1894.82432 903.353095,1895.63568 906.49868,1896.76149 C911.253997,1898.46768 921.120405,1903.11844 921.120405,1903.11844 C921.120405,1903.11844 925.455792,1904.9702 927.794568,1905.64763 Z M881.104589,1904.40729 L892.598224,1904.40729 L890.776584,1896.35969 L887.152745,1896.35969 C882.411037,1896.35969 879.590119,1898.83842 878.219515,1901.91304 C878.656942,1903.45618 880.087814,1904.40729 881.104589,1904.40729 Z M896.210399,1904.40729 L919.281267,1904.40729 C917.168009,1902.79622 909.512066,1899.80312 905.676318,1898.43468 C902.659044,1897.34187 897.386591,1896.35969 895.613554,1896.35969 L894.406256,1896.35969 L896.210399,1904.40729 Z" id="vehicles"></path>
        </g>
    </g>
</svg>