<?xml version="1.0" encoding="utf-8"?>
<!-- Generator: Adobe Illustrator 16.0.4, SVG Export Plug-In . SVG Version: 6.00 Build 0)  -->
<!DOCTYPE svg PUBLIC "-//W3C//DTD SVG 1.1//EN" "http://www.w3.org/Graphics/SVG/1.1/DTD/svg11.dtd">
<svg version="1.1" id="Ebene_1" xmlns="http://www.w3.org/2000/svg" xmlns:xlink="http://www.w3.org/1999/xlink" x="0px" y="0px"
	 width="18px" height="18px" viewBox="0 0 18 18" style="enable-background:new 0 0 18 18;" xml:space="preserve">
<g>
	<g>
		<path d="M9.2,0C4.2,0,0.3,3.9,0.3,8.7c0,1.7,0.4,3.3,1.3,4.5L0,18l4.8-1.6c1.3,0.7,2.7,1.1,4.2,1.1c4.8,0,8.7-3.9,8.7-8.7
			C17.9,3.9,14,0,9.2,0z M9.2,15.8c-1.4,0-2.7-0.4-3.8-1.1l-2.7,0.9l0.8-2.7c-0.8-1.1-1.3-2.6-1.3-4.1c0-3.8,3.1-7,7-7
			c3.8,0,7,3.1,7,7C16.1,12.7,13,15.8,9.2,15.8z M13.3,10.7C13.1,10.6,12,10,11.8,10c-0.2-0.1-0.3-0.1-0.5,0.1s-0.6,0.7-0.7,0.8
			c-0.1,0.1-0.3,0.1-0.5,0c-0.2-0.1-0.9-0.4-1.8-1.2C7.6,9.2,7.2,8.4,7.1,8.2C6.9,8,7.1,7.9,7.2,7.8c0.1-0.2,0.2-0.3,0.3-0.4
			c0.1-0.1,0.1-0.2,0.2-0.3c0.1-0.1,0-0.3,0-0.4S7.3,5.4,7.1,4.9C6.9,4.4,6.7,4.5,6.6,4.5c-0.1,0-0.3-0.1-0.4-0.1
			c-0.1,0-0.4,0-0.6,0.2C5.4,4.9,4.7,5.5,4.7,6.5c0,1.1,0.7,2.2,0.8,2.3c0.1,0.1,1.5,2.5,3.7,3.6c2.2,0.9,2.2,0.6,2.6,0.6
			s1.4-0.5,1.6-1.1c0.2-0.5,0.2-0.9,0.2-1.1C13.6,10.9,13.5,10.8,13.3,10.7z"/>
	</g>
</g>
</svg>
