<svg xmlns="http://www.w3.org/2000/svg" width="80" height="60" viewBox="0 0 80 60"><path fill="#001689" d="M0 0h80v60h-80z"/><path fill="#FFCE00" d="M24.7 18.3l.7 2h2.1l-1.7 1.3.7 2.1-1.8-1.3-1.8 1.3.7-2.1-1.7-1.3h2.1zM31 11.9l.7 2h2.1l-1.7 1.3.6 2.1-1.7-1.3-1.8 1.3.7-2.1-1.8-1.3h2.2zM39.9 9.5l.7 2h2.2l-1.8 1.3.7 2.1-1.8-1.3-1.7 1.3.6-2.1-1.7-1.3h2.1zM48.8 11.9l.6 2.1h2.2l-1.8 1.2.7 2.1-1.7-1.3-1.8 1.3.7-2.1-1.8-1.2h2.2zM55.3 18.4l.6 2.1h2.2l-1.8 1.2.7 2.1-1.7-1.3-1.8 1.3.7-2.1-1.8-1.2h2.2zM57.7 27.3l.6 2.1h2.2l-1.7 1.3.6 2-1.7-1.2-1.8 1.2.7-2-1.8-1.3h2.2zM55.3 36.3l.6 2.1h2.2l-1.8 1.2.7 2.1-1.7-1.3-1.8 1.3.7-2.1-1.8-1.2h2.2zM48.7 42.8l.7 2h2.2l-1.8 1.3.7 2.1-1.8-1.3-1.7 1.3.7-2.1-1.8-1.3h2.2zM39.9 45.1l.7 2.1h2.2l-1.8 1.3.7 2-1.8-1.2-1.7 1.2.7-2-1.8-1.3h2.2zM31 42.7l.7 2.1h2.1l-1.7 1.3.7 2-1.8-1.3-1.8 1.3.7-2-1.7-1.3h2.1zM24.6 36.3l.7 2h2.2l-1.8 1.3.7 2.1-1.8-1.3-1.7 1.3.6-2.1-1.7-1.3h2.2zM22.2 27.2l.7 2.1h2.2l-1.8 1.2.7 2.1-1.8-1.3-1.8 1.3.7-2.1-1.8-1.2h2.2z"/></svg>