<?xml version="1.0" encoding="utf-8"?>
<!-- Generator: Adobe Illustrator 23.0.3, SVG Export Plug-In . SVG Version: 6.00 Build 0)  -->
<svg version="1.1" xmlns="http://www.w3.org/2000/svg" xmlns:xlink="http://www.w3.org/1999/xlink" x="0px" y="0px"
	 viewBox="0 0 24 24" style="enable-background:new 0 0 24 24;" xml:space="preserve">
<g id="Icons">
</g>
<g id="Title">
</g>
<g id="Glenda_Icons">
</g>
<g id="Glenda_AS24_Icons">
	<g>
		<path class="st3" d="M19,11h-1.434l-2.418-4.029C14.789,6.372,14.132,6,13.434,6H5.566C4.868,6,4.211,6.372,3.852,6.971
			l-2.565,4.275C1.099,11.557,1,11.913,1,12.277V18c0,1.103,0.897,2,2,2h1.184C4.598,21.161,5.698,22,7,22s2.402-0.839,2.816-2
			h4.369c0.414,1.161,1.514,2,2.816,2s2.402-0.839,2.816-2H21c1.103,0,2-0.897,2-2v-3C23,12.794,21.206,11,19,11z M7,20
			c-0.552,0-1-0.448-1-1s0.448-1,1-1s1,0.448,1,1S7.552,20,7,20z M17,20c-0.552,0-1-0.448-1-1s0.448-1,1-1s1,0.448,1,1
			S17.552,20,17,20z M21,18h-1.184c-0.414-1.161-1.514-2-2.816-2s-2.402,0.839-2.816,2H9.816C9.402,16.839,8.302,16,7,16
			s-2.402,0.839-2.816,2H3v-5h3c0.553,0,1-0.447,1-1s-0.447-1-1-1H3.766l1.8-3h7.867l2.709,4.515C16.323,12.815,16.648,13,17,13h2
			c1.103,0,2,0.897,2,2V18z"/>
		<path class="st3" d="M12,10c-0.553,0-1,0.447-1,1v1c0,0.553,0.447,1,1,1s1-0.447,1-1v-1C13,10.447,12.553,10,12,10z"/>
	</g>
</g>
</svg>
