<?xml version="1.0" encoding="utf-8"?>
<!-- Generator: Adobe Illustrator 16.0.0, SVG Export Plug-In . SVG Version: 6.00 Build 0)  -->
<!DOCTYPE svg PUBLIC "-//W3C//DTD SVG 1.1//EN" "http://www.w3.org/Graphics/SVG/1.1/DTD/svg11.dtd">
<svg version="1.1" id="Ebene_1" xmlns="http://www.w3.org/2000/svg" xmlns:xlink="http://www.w3.org/1999/xlink" x="0px" y="0px"
	 width="34px" height="15px" viewBox="0 0 34 15" enable-background="new 0 0 34 15" xml:space="preserve">
<g>
	<path fill="#8C91A0" d="M6,9c-1.656,0-3,1.343-3,3s1.344,3,3,3s3-1.343,3-3S7.656,9,6,9z M6,13.8c-0.993,0-1.8-0.807-1.8-1.8
		s0.807-1.8,1.8-1.8s1.8,0.807,1.8,1.8S6.993,13.8,6,13.8z"/>
	<path fill="#8C91A0" d="M1.604,13.5c-0.066,0-0.104-0.898-0.104-1.225c0-2.484,2.015-4.638,4.5-4.638s4.5,2.196,4.5,4.681
		c0,0.346-0.047,0.182-0.12,1.182h13.24c-0.073-1-0.12-0.905-0.12-1.25c0-2.485,2.015-4.625,4.5-4.625s4.5,2.202,4.5,4.688
		c0,0.345-0.047,0.188-0.12,1.188h0.466C33.482,12.5,34,11.207,34,10c0-2.092-1.321-3.581-2.496-3.842l-7.031-1.377
		c0,0-5.494-4.281-8.76-4.281H9.099C4.002,0.5,0,6.273,0,9.463C0,11.164,0.172,11.5,0.953,13.5H1.604z M4.842,5.5L6.25,3.181
		C7.241,1.619,9.262,1.5,11.094,1.5h1.075l0.479,4H4.842z M14.08,5.5l-0.478-4h2.11c2.379,0,7.07,4,7.07,4H14.08z"/>
	<path fill="#8C91A0" d="M28,9c-1.656,0-3,1.343-3,3s1.344,3,3,3s3-1.343,3-3S29.656,9,28,9z M28,13.8c-0.993,0-1.8-0.807-1.8-1.8
		s0.807-1.8,1.8-1.8s1.8,0.807,1.8,1.8S28.993,13.8,28,13.8z"/>
</g>
</svg>
