<?xml version="1.0" encoding="utf-8"?>
<!-- Generator: Adobe Illustrator 16.0.0, SVG Export Plug-In . SVG Version: 6.00 Build 0)  -->
<!DOCTYPE svg PUBLIC "-//W3C//DTD SVG 1.1//EN" "http://www.w3.org/Graphics/SVG/1.1/DTD/svg11.dtd">
<svg version="1.1" id="Ebene_1" xmlns="http://www.w3.org/2000/svg" xmlns:xlink="http://www.w3.org/1999/xlink" x="0px" y="0px"
	 width="34px" height="20px" viewBox="0 0 34 20" enable-background="new 0 0 34 20" xml:space="preserve">
<g>
	<path fill="#8C91A0" d="M26.742,11.596c-0.973,0-1.528-0.469-1.528-1.528V7.775h2.292c0.549,0,1.182,0.311,1.528,0.764l2.426,3.057
		H26.742z M33.311,12.551l-3.871-4.807c-0.521-0.705-1.359-1.115-2.303-1.115h-0.013h-1.91h-1.528c-0.632,0-1.146,0.514-1.146,1.146
		v10.696h3.155c-0.062-0.245-0.1-0.499-0.1-0.764c0-1.688,1.369-3.056,3.057-3.056s3.057,1.368,3.057,3.056
		c0,0.265-0.037,0.519-0.101,0.764h1.724C33.716,18,34,17.326,34,16.562v-1.634C34,14.197,33.801,13.231,33.311,12.551z"/>
	<path fill="#8C91A0" d="M30.332,1.859l-0.685-0.393c-0.548-0.312-1.511-0.568-2.142-0.568h-6.494c-0.631,0-1.631,0.177-2.223,0.393
		l-3.126,1.137H1.529C0.688,2.428,0,3.115,0,3.955v12.988c0,0.842,0.688,1.528,1.529,1.528H3.82c0.033,0,0.062-0.007,0.096-0.01
		v0.01h2.679c-0.063-0.245-0.101-0.499-0.101-0.764c0-1.688,1.369-3.056,3.057-3.056s3.057,1.368,3.057,3.056
		c0,0.265-0.037,0.519-0.1,0.764h9.268V7.775c0-1.053,0.857-1.91,1.91-1.91h2.674h2.293l1.68-0.959
		c0.547-0.312,0.994-0.999,0.994-1.523C31.326,2.856,30.879,2.171,30.332,1.859z M6.494,9.303c0,0.631-0.516,1.146-1.145,1.146H3.82
		c-0.63,0-1.146-0.516-1.146-1.146V7.775c0-0.631,0.517-1.146,1.146-1.146H5.35c0.629,0,1.145,0.516,1.145,1.146V9.303z
		 M19.102,9.303c0,0.631-0.516,1.146-1.146,1.146h-4.201c-0.631,0-1.146-0.516-1.146-1.146V7.775c0-0.631,0.516-1.146,1.146-1.146
		h4.201c0.631,0,1.146,0.516,1.146,1.146V9.303z"/>
	<path fill="#8C91A0" d="M10.697,17.708c0,0.633-0.514,1.146-1.146,1.146s-1.146-0.513-1.146-1.146s0.514-1.146,1.146-1.146
		S10.697,17.075,10.697,17.708z M9.551,15.416c-1.266,0-2.292,1.025-2.292,2.292C7.259,18.974,8.285,20,9.551,20
		s2.293-1.026,2.293-2.292C11.844,16.441,10.816,15.416,9.551,15.416z"/>
	<path fill="#8C91A0" d="M29.799,17.708c0,0.633-0.514,1.146-1.146,1.146s-1.146-0.513-1.146-1.146s0.514-1.146,1.146-1.146
		S29.799,17.075,29.799,17.708z M28.652,15.416c-1.266,0-2.293,1.025-2.293,2.292c0,1.266,1.027,2.292,2.293,2.292
		s2.292-1.026,2.292-2.292C30.944,16.441,29.918,15.416,28.652,15.416z"/>
</g>
</svg>
