<?xml version="1.0" encoding="utf-8"?>
<!-- Generator: Adobe Illustrator 21.0.0, SVG Export Plug-In . SVG Version: 6.00 Build 0)  -->
<svg version="1.1" id="Ebene_1" xmlns="http://www.w3.org/2000/svg" xmlns:xlink="http://www.w3.org/1999/xlink" x="0px" y="0px"
	 viewBox="0 0 24 24" style="enable-background:new 0 0 24 24;" xml:space="preserve">
<g>
	<path class="st2" d="M23,8V7c0-2.2-1.8-4-4-4H3C1.9,3,1,3.9,1,5v13c0,1.1,0.9,2,2,2h1.2c0.4,1.2,1.5,2,2.8,2s2.4-0.8,2.8-2h4.4
		c0.4,1.2,1.5,2,2.8,2s2.4-0.8,2.8-2H21c1.1,0,2-0.9,2-2v-5v-2c0-0.8-0.2-1.5-0.6-2.1C22.8,8.8,23,8.4,23,8z M7,20c-0.6,0-1-0.4-1-1
		s0.4-1,1-1s1,0.4,1,1S7.6,20,7,20z M17,20c-0.6,0-1-0.4-1-1s0.4-1,1-1s1,0.4,1,1S17.6,20,17,20z M19.8,18c-0.4-1.2-1.5-2-2.8-2
		s-2.4,0.8-2.8,2H9.8c-0.4-1.2-1.5-2-2.8-2s-2.4,0.8-2.8,2H3V5h7v8c0,0.6,0.4,1,1,1s1-0.4,1-1V5h7c1.1,0,2,0.9,2,2h-2h-2.6H15
		c-0.6,0-1,0.4-1,1v5c0,0.6,0.4,1,1,1h6v4H19.8z M21,11v1h-5V9h0.4H19C20.1,9,21,9.9,21,11z"/>
	<path class="st2" d="M8,11c-0.6,0-1,0.4-1,1v1c0,0.6,0.4,1,1,1s1-0.4,1-1v-1C9,11.4,8.6,11,8,11z"/>
</g>
</svg>
