<?xml version="1.0" encoding="utf-8"?>
<!-- Generator: Adobe Illustrator 21.0.0, SVG Export Plug-In . SVG Version: 6.00 Build 0)  -->
<svg version="1.1" id="Ebene_1" xmlns="http://www.w3.org/2000/svg" xmlns:xlink="http://www.w3.org/1999/xlink" x="0px" y="0px"
	 viewBox="0 0 24 24" style="enable-background:new 0 0 24 24;" xml:space="preserve">
<path class="st2" d="M22.4,9.8l-1.7-2.8C20,5.7,18.7,5,17.3,5H3C1.9,5,1,5.9,1,7v11c0,1.1,0.9,2,2,2h1.2c0.4,1.2,1.5,2,2.8,2
	s2.4-0.8,2.8-2h4.4c0.4,1.2,1.5,2,2.8,2s2.4-0.8,2.8-2H21c1.1,0,2-0.9,2-2v-6.2C23,11.1,22.8,10.4,22.4,9.8z M19,8l1.7,2.8
	c0,0.1,0.1,0.1,0.1,0.2H16V7h1.3C18,7,18.7,7.4,19,8z M7,20c-0.6,0-1-0.4-1-1s0.4-1,1-1s1,0.4,1,1S7.6,20,7,20z M17,20
	c-0.6,0-1-0.4-1-1s0.4-1,1-1s1,0.4,1,1S17.6,20,17,20z M19.8,18c-0.4-1.2-1.5-2-2.8-2s-2.4,0.8-2.8,2H9.8c-0.4-1.2-1.5-2-2.8-2
	s-2.4,0.8-2.8,2H3v-5h2c0.6,0,1-0.4,1-1s-0.4-1-1-1H3V7h11v4c0,1.1,0.9,2,2,2h5v5H19.8z"/>
</svg>
