<svg height="31" viewBox="0 0 72 31" width="72" xmlns="http://www.w3.org/2000/svg">
<g fill="none" fill-rule="evenodd">
<path d="m55.8 3h-4.8v4.73c0 2.49.971 3.27 3.199 3.27h10.801l-4.82-5.96c-.789-1.069-3.119-2.04-4.38-2.04z"/><g fill="#8C91A0" fill-rule="nonzero"><path d="m70.02 13.811-8.9-11.051c-1.199-1.619-3.949-2.76-6.119-2.76l-36.74.2-15.261-.2c-1.561.88-3 3.5-3 6v15c0 2.5.439 5.96 2 7h6.77c-.235-.69-.369-1.429-.369-2.2 0-3.76 3.039-6.8 6.799-6.8 3.761 0 6.801 3.04 6.801 6.8 0 .771-.134 1.51-.369 2.2h30.338c-.235-.69-.369-1.429-.369-2.2 0-3.76 3.041-6.8 6.801-6.8s6.799 3.04 6.799 6.8c0 .771-.133 1.51-.369 2.2h5.17c.88-1.08 2-3.24 2-5v-4c-.002-1.68-.861-3.62-1.982-5.189zm-15.821-2.811c-2.229 0-3.199-.779-3.199-3.27v-4.73h4.8c1.261 0 3.591.971 4.38 2.04l4.82 5.96z"/>
<path d="m17.8 21.3-2.601-.7-2.6.7-1.9 1.9-.699 2.6.699 2.601 1.9 1.899 2.6.7 2.601-.7 1.899-1.899.701-2.601-.701-2.6zm-2.601 7.75c-1.789 0-3.249-1.46-3.249-3.25s1.46-3.25 3.249-3.25c1.791 0 3.251 1.46 3.251 3.25s-1.46 3.25-3.251 3.25z"/>
<path d="m61 21.3-2.6-.7-2.601.7-1.899 1.9-.701 2.6.701 2.601 1.899 1.899 2.601.7 2.6-.7 1.9-1.899.699-2.601-.699-2.6zm-2.6 7.75c-1.791 0-3.25-1.46-3.25-3.25s1.459-3.25 3.25-3.25c1.789 0 3.25 1.46 3.25 3.25s-1.461 3.25-3.25 3.25z"/>
</g>
</g>
</svg>