<?xml version="1.0" encoding="utf-8"?>
<!-- Generator: Adobe Illustrator 23.0.3, SVG Export Plug-In . SVG Version: 6.00 Build 0)  -->
<svg version="1.1" xmlns="http://www.w3.org/2000/svg" xmlns:xlink="http://www.w3.org/1999/xlink" x="0px" y="0px"
	 viewBox="0 0 24 24" style="enable-background:new 0 0 24 24;" xml:space="preserve">
<g id="Icons">
	<g>
		<path class="st3" d="M19,14c-0.073,0-0.142,0.018-0.214,0.022l-1.816-7.264C16.858,6.312,16.459,6,16,6h-2c-0.553,0-1,0.448-1,1
			s0.447,1,1,1h1.219l0.279,1.116l-5.3,1.843L2.235,9.028C1.7,8.896,1.158,9.227,1.028,9.764s0.199,1.078,0.736,1.208l8.249,2
			C10.091,12.991,10.17,13,10.249,13c0.111,0,0.223-0.019,0.328-0.056l5.408-1.881l0.891,3.561C15.752,15.333,15,16.577,15,18
			c0,2.206,1.794,4,4,4s4-1.794,4-4S21.206,14,19,14z M19,20c-1.103,0-2-0.897-2-2s0.897-2,2-2s2,0.897,2,2S20.102,20,19,20z"/>
		<path class="st3" d="M5,14c-2.206,0-4,1.794-4,4s1.794,4,4,4s4-1.794,4-4S7.206,14,5,14z M5,20c-1.103,0-2-0.897-2-2s0.897-2,2-2
			s2,0.897,2,2S6.102,20,5,20z"/>
		<path class="st3" d="M12.998,17h-2c-0.553,0-1,0.448-1,1s0.447,1,1,1h2c0.553,0,1-0.448,1-1S13.55,17,12.998,17z"/>
	</g>
</g>
<g id="Title">
</g>
<g id="Glenda_Icons">
</g>
<g id="Glenda_AS24_Icons">
</g>
</svg>
