<?xml version="1.0" encoding="utf-8"?>
<!-- Generator: Adobe Illustrator 16.0.0, SVG Export Plug-In . SVG Version: 6.00 Build 0)  -->
<!DOCTYPE svg PUBLIC "-//W3C//DTD SVG 1.1//EN" "http://www.w3.org/Graphics/SVG/1.1/DTD/svg11.dtd">
<svg version="1.1" id="Ebene_1" xmlns="http://www.w3.org/2000/svg" xmlns:xlink="http://www.w3.org/1999/xlink" x="0px" y="0px"
	 width="27px" height="15px" viewBox="0 0 27 15" enable-background="new 0 0 27 15" xml:space="preserve">
<g>
	<path fill="#8C91A0" d="M9.85,6.227c0,0-5.562-2.35-7.213-2.91C2.406,3.237,2.25,3.184,2.118,3.184
		c-0.513,0-0.863,0.431-0.863,0.907c0,0.34,0.196,0.657,0.481,0.798c0.115,0.057,8.1,3.74,8.1,3.74s6.521-3.582,7.41-4.072
		c0.887-0.49,1.02-1.057,1.02-1.057h-3.74C13.1,3.5,10.659,4.357,9.85,6.227z"/>
	<path fill="#8C91A0" d="M20.211,0.501c4.258,1.739,5.125,3.534,4.837,4.978c0,0-2.069,0.63-3.298,1.002
		c-2.277,0.689-4.047,2.432-4.047,4.926c0,0.854,0.146,1.094,0.507,2.094h-7.029c-1.27,0-2.095-0.68-2.095-1.492
		c0-1.301,2.06-2.479,3.453-3.275c0,0,5.273-2.802,5.91-3.153c0.639-0.352,1.051-0.832,1.051-1.3s0-1.052,0-2.089
		S20.135,0.47,20.211,0.501z"/>
	<path fill="#8C91A0" d="M6.344,11.76c0,1.16-0.942,2.104-2.104,2.104c-1.162,0-2.104-0.943-2.104-2.104S3.078,9.656,4.24,9.656
		C5.401,9.656,6.344,10.6,6.344,11.76z M4.24,8.02c-2.065,0-3.74,1.675-3.74,3.74s1.675,3.74,3.74,3.74s3.74-1.675,3.74-3.74
		S6.306,8.02,4.24,8.02z"/>
	<path fill="#8C91A0" d="M25.045,11.76c0,1.16-0.943,2.104-2.104,2.104c-1.163,0-2.105-0.943-2.105-2.104s0.942-2.104,2.105-2.104
		C24.102,9.656,25.045,10.6,25.045,11.76z M22.941,8.02c-2.066,0-3.74,1.675-3.74,3.74s1.674,3.74,3.74,3.74
		c2.065,0,3.739-1.675,3.739-3.74S25.007,8.02,22.941,8.02z"/>
</g>
</svg>
