<?xml version="1.0" encoding="utf-8"?>
<!-- Generator: Adobe Illustrator 23.0.3, SVG Export Plug-In . SVG Version: 6.00 Build 0)  -->
<svg version="1.1" xmlns="http://www.w3.org/2000/svg" xmlns:xlink="http://www.w3.org/1999/xlink" x="0px" y="0px"
	 viewBox="0 0 24 24" style="enable-background:new 0 0 24 24;" xml:space="preserve">
	<g>
		<path class="st2" d="M19,14c-0.1,0-0.1,0-0.2,0L17,6.8C16.9,6.3,16.5,6,16,6h-2c-0.6,0-1,0.4-1,1s0.4,1,1,1h1.2l0.5,2H2
			c-0.6,0-1,0.4-1,1s0.4,1,1,1h6.3l1.8,5.3c0.1,0.3,0.4,0.6,0.7,0.7c0.1,0,0.2,0,0.2,0c0.3,0,0.5-0.1,0.7-0.3l4.8-4.8l0.4,1.7
			c-1.1,0.7-1.9,2-1.9,3.4c0,2.2,1.8,4,4,4s4-1.8,4-4S21.2,14,19,14z M11.4,15.1L10.4,12h4.2L11.4,15.1z M19,20c-1.1,0-2-0.9-2-2
			s0.9-2,2-2s2,0.9,2,2S20.1,20,19,20z"/>
		<path class="st2" d="M5,14c-2.2,0-4,1.8-4,4s1.8,4,4,4s4-1.8,4-4S7.2,14,5,14z M5,20c-1.1,0-2-0.9-2-2s0.9-2,2-2s2,0.9,2,2
			S6.1,20,5,20z"/>
		<path class="st2" d="M5,9h4c0.6,0,1-0.4,1-1S9.6,7,9,7H5C4.4,7,4,7.4,4,8S4.4,9,5,9z"/>
		<path class="st2" d="M20,12c0.6,0,1-0.4,1-1v-1c0-0.6-0.4-1-1-1s-1,0.4-1,1v1C19,11.6,19.4,12,20,12z"/>
	</g>
</svg>
