<svg width="79" height="35" viewBox="0 0 79 35" xmlns="http://www.w3.org/2000/svg"><title>Group 7</title><desc>Created with Sketch.</desc><g fill="#8C91A0" fill-rule="nonzero"><path d="M76.4 25h-37.808c.549.578.996 1.254 1.308 2h15.1v8h2v-8h21.8c0-1-1.079-2-2.4-2zM0 25c0 1.33.67 2 2 2h14.9c.311-.746.758-1.422 1.307-2h-18.207zM57 23v-19.6c0-1.76-1.24-3.4-3-3.4h-51.2c-1.76 0-2.8 1.641-2.8 3.4v19.6h57zM25.5 25.67l-2.5-.67-2.5.67-1.83 1.83-.67 2.5.67 2.5 1.83 1.83 2.5.67 2.5-.67 1.83-1.83.67-2.5-.67-2.5-1.83-1.83zm-2.5 7.04c-1.5 0-2.71-1.21-2.71-2.71s1.21-2.71 2.71-2.71 2.71 1.21 2.71 2.71-1.21 2.71-2.71 2.71zM34 25l-2.5.67-1.83 1.83-.67 2.5.67 2.5 1.83 1.83 2.5.67 2.5-.67 1.83-1.83.67-2.5-.67-2.5-1.83-1.83-2.5-.67zm0 7.71c-1.5 0-2.71-1.21-2.71-2.71s1.21-2.71 2.71-2.71 2.71 1.21 2.71 2.71-1.21 2.71-2.71 2.71z"/></g></svg>