<?xml version="1.0" encoding="utf-8"?>
<!-- Generator: Adobe Illustrator 23.0.3, SVG Export Plug-In . SVG Version: 6.00 Build 0)  -->
<svg version="1.1" xmlns="http://www.w3.org/2000/svg" xmlns:xlink="http://www.w3.org/1999/xlink" x="0px" y="0px"
	 viewBox="0 0 24 24" style="enable-background:new 0 0 24 24;" xml:space="preserve">
<g id="Icons">
	<path class="st3" d="M21,18h-3v-8c0-1.103-0.897-2-2-2H4c-1.103,0-2,0.897-2,2v8c0,1.103,0.897,2,2,2h1.184
		C5.598,21.161,6.698,22,8,22s2.402-0.839,2.816-2H21c0.553,0,1-0.448,1-1S21.553,18,21,18z M4,10h12v8h-5.184
		C10.402,16.839,9.302,16,8,16s-2.402,0.839-2.816,2H4V10z M8,20c-0.552,0-1-0.449-1-1s0.448-1,1-1s1,0.449,1,1S8.552,20,8,20z"/>
</g>
</svg>
