<?xml version="1.0" encoding="utf-8"?>
<!-- Generator: Adobe Illustrator 16.0.0, SVG Export Plug-In . SVG Version: 6.00 Build 0)  -->
<!DOCTYPE svg PUBLIC "-//W3C//DTD SVG 1.1//EN" "http://www.w3.org/Graphics/SVG/1.1/DTD/svg11.dtd">
<svg version="1.1" id="Ebene_1" xmlns="http://www.w3.org/2000/svg" xmlns:xlink="http://www.w3.org/1999/xlink" x="0px" y="0px"
	 width="34px" height="17px" viewBox="0 0 34 17" enable-background="new 0 0 34 17" xml:space="preserve">
<g>
	<path fill="#8C91A0" d="M7.871,11.796H3.123v0.897l3.525,1.111C6.796,12.991,7.242,12.283,7.871,11.796z"/>
	<path fill="#8C91A0" d="M33.697,6.799l-0.729-3.105c-0.166-0.715-0.902-1.265-1.635-1.265H26c-0.733,0-1.367,0.532-1.367,1.265
		v8.103H11.906c0.732,0.57,1.217,1.44,1.27,2.429h11.467c0.09-1.739,1.524-3.122,3.286-3.122s3.196,1.383,3.288,3.122h1.449
		C33.4,14.225,34,13.76,34,13.027V9.414C34,8.681,33.863,7.514,33.697,6.799z M29.334,7.633c-0.848,0-1.232-0.348-1.232-1.271V4.164
		H31c0.521,0,1,0.119,1.129,0.672l0.537,2.797H29.334z"/>
	<path fill="#8C91A0" d="M23.939,11.103H1.334C0.6,11.103,0,10.428,0,9.694V1.361C0,0.627,0.6,0,1.334,0h21.333
		c0.733,0,1.272,0.627,1.272,1.361V11.103z"/>
	<path fill="#8C91A0" d="M11.514,14.398c0,0.897-0.729,1.626-1.626,1.626s-1.626-0.729-1.626-1.626c0-0.898,0.729-1.627,1.626-1.627
		S11.514,13.5,11.514,14.398z M9.888,11.796c-1.437,0-2.603,1.165-2.603,2.603S8.451,17,9.888,17c1.438,0,2.603-1.164,2.603-2.602
		S11.325,11.796,9.888,11.796z"/>
	<path fill="#8C91A0" d="M29.555,14.398c0,0.897-0.729,1.626-1.626,1.626c-0.898,0-1.626-0.729-1.626-1.626
		c0-0.898,0.728-1.627,1.626-1.627C28.826,12.771,29.555,13.5,29.555,14.398z M27.929,11.796c-1.438,0-2.603,1.165-2.603,2.603
		S26.491,17,27.929,17c1.437,0,2.603-1.164,2.603-2.602S29.365,11.796,27.929,11.796z"/>
</g>
</svg>
