<?xml version="1.0" encoding="utf-8"?>
<!-- Generator: Adobe Illustrator 21.0.0, SVG Export Plug-In . SVG Version: 6.00 Build 0)  -->
<svg version="1.1" id="Ebene_1" xmlns="http://www.w3.org/2000/svg" xmlns:xlink="http://www.w3.org/1999/xlink" x="0px" y="0px"
	 viewBox="0 0 24 24" style="enable-background:new 0 0 24 24;" xml:space="preserve">
<path class="st2" d="M19,5h-3c0-1.1-0.9-2-2-2H3C1.9,3,1,3.9,1,5v13c0,1.1,0.9,2,2,2h1.2c0.4,1.2,1.5,2,2.8,2s2.4-0.8,2.8-2h4.4
	c0.4,1.2,1.5,2,2.8,2s2.4-0.8,2.8-2H21c1.1,0,2-0.9,2-2v-5V9C23,6.8,21.2,5,19,5z M19,7c1.1,0,2,0.9,2,2v3h-5V7H19z M14,5v7H3V5H14z
	 M7,20c-0.6,0-1-0.4-1-1s0.4-1,1-1s1,0.4,1,1S7.6,20,7,20z M17,20c-0.6,0-1-0.4-1-1s0.4-1,1-1s1,0.4,1,1S17.6,20,17,20z M21,18h-1.2
	c-0.4-1.2-1.5-2-2.8-2s-2.4,0.8-2.8,2H9.8c-0.4-1.2-1.5-2-2.8-2s-2.4,0.8-2.8,2H3v-4h12h6V18z"/>
</svg>
