<?xml version="1.0" encoding="utf-8"?>
<!-- Generator: Adobe Illustrator 16.0.0, SVG Export Plug-In . SVG Version: 6.00 Build 0)  -->
<!DOCTYPE svg PUBLIC "-//W3C//DTD SVG 1.1//EN" "http://www.w3.org/Graphics/SVG/1.1/DTD/svg11.dtd" [
	<!ENTITY ns_flows "http://ns.adobe.com/Flows/1.0/">
	<!ENTITY ns_extend "http://ns.adobe.com/Extensibility/1.0/">
	<!ENTITY ns_ai "http://ns.adobe.com/AdobeIllustrator/10.0/">
	<!ENTITY ns_graphs "http://ns.adobe.com/Graphs/1.0/">
]>
<svg version="1.1" id="Ebene_1" xmlns:x="&ns_extend;" xmlns:i="&ns_ai;" xmlns:graph="&ns_graphs;"
	 xmlns="http://www.w3.org/2000/svg" xmlns:xlink="http://www.w3.org/1999/xlink" xmlns:a="http://ns.adobe.com/AdobeSVGViewerExtensions/3.0/"
	 x="0px" y="0px" width="841.9px" height="1190.5px" viewBox="0 0 841.9 1190.5" style="enable-background:new 0 0 841.9 1190.5;"
	 xml:space="preserve">
<style type="text/css">
<![CDATA[
	.st0{fill:#8F8F8F;}
]]>
</style>
<g>
	<g>
		<path class="st0" d="M10.2,12.3h4.4v1.1h-3.1v1.9h2.6v1.1h-2.6v2.2h3.2v1.1h-4.5V12.3z"/>
		<path class="st0" d="M16,18.9l3.6-5.5h-3.2v-1.1h4.8v0.8l-3.6,5.5h3.6v1.1H16V18.9z"/>
	</g>
	<path class="st0" d="M23.9,8.2v14H7.6v-14H23.9 M23.9,6.9H7.5c-0.7,0-1.3,0.6-1.3,1.3v14.2c0,0.7,0.6,1.3,1.3,1.3h16.4
		c0.7,0,1.3-0.6,1.3-1.3V8.2C25.2,7.5,24.6,6.9,23.9,6.9L23.9,6.9z"/>
	<path class="st0" d="M11.1,9.9c-0.4,0-0.7-0.3-0.7-0.7V5.8c0-0.4,0.3-0.7,0.7-0.7s0.7,0.3,0.7,0.7v3.4C11.7,9.6,11.4,9.9,11.1,9.9z
		"/>
	<path class="st0" d="M20.1,9.9c-0.4,0-0.7-0.3-0.7-0.7V5.8c0-0.4,0.3-0.7,0.7-0.7c0.4,0,0.7,0.3,0.7,0.7v3.4
		C20.8,9.6,20.5,9.9,20.1,9.9z"/>
</g>
</svg>
