<?xml version="1.0" encoding="utf-8"?>
<!-- Generator: Adobe Illustrator 16.0.0, SVG Export Plug-In . SVG Version: 6.00 Build 0)  -->
<!DOCTYPE svg PUBLIC "-//W3C//DTD SVG 1.1//EN" "http://www.w3.org/Graphics/SVG/1.1/DTD/svg11.dtd" [
	<!ENTITY ns_flows "http://ns.adobe.com/Flows/1.0/">
	<!ENTITY ns_extend "http://ns.adobe.com/Extensibility/1.0/">
	<!ENTITY ns_ai "http://ns.adobe.com/AdobeIllustrator/10.0/">
	<!ENTITY ns_graphs "http://ns.adobe.com/Graphs/1.0/">
]>
<svg version="1.1" id="Ebene_1" xmlns:x="&ns_extend;" xmlns:i="&ns_ai;" xmlns:graph="&ns_graphs;"
	 xmlns="http://www.w3.org/2000/svg" xmlns:xlink="http://www.w3.org/1999/xlink" xmlns:a="http://ns.adobe.com/AdobeSVGViewerExtensions/3.0/"
	 x="0px" y="0px" width="841.9px" height="1190.5px" viewBox="0 0 841.9 1190.5" style="enable-background:new 0 0 841.9 1190.5;"
	 xml:space="preserve">
<style type="text/css">
<![CDATA[
	.st0{fill:#8F8F8F;}
]]>
</style>
<g>
	<path class="st0" d="M16.2,15.2c0,0,0.1-0.1,0.1-0.1L18,9.4C18.1,9.2,18,9,17.8,9c-0.2-0.1-0.4,0-0.5,0.1L14,14c0,0,0,0.1-0.1,0.1
		c0,0-0.1,0.1-0.1,0.1c-0.2,0.5-0.1,1.1,0.3,1.4c0.1,0.1,0.2,0.2,0.3,0.2c0.3,0.1,0.6,0.2,1,0.1c0.3-0.1,0.6-0.3,0.7-0.6
		C16.2,15.3,16.2,15.3,16.2,15.2z"/>
	<path class="st0" d="M10.2,20.6c-2.1-1.5-3.4-3.9-3.4-6.7c0-4.5,3.7-8.2,8.2-8.2c4.5,0,8.2,3.7,8.2,8.2c0,2.7-1.3,5.2-3.4,6.7h1.9
		c1.7-1.7,2.7-4.1,2.7-6.7c0-5.2-4.3-9.5-9.5-9.5c-5.2,0-9.5,4.3-9.5,9.5c0,2.6,1,4.9,2.7,6.7H10.2z"/>
</g>
</svg>
