<?xml version="1.0" encoding="utf-8"?>
<!-- Generator: Adobe Illustrator 16.0.0, SVG Export Plug-In . SVG Version: 6.00 Build 0)  -->
<!DOCTYPE svg PUBLIC "-//W3C//DTD SVG 1.1//EN" "http://www.w3.org/Graphics/SVG/1.1/DTD/svg11.dtd" [
	<!ENTITY ns_flows "http://ns.adobe.com/Flows/1.0/">
	<!ENTITY ns_extend "http://ns.adobe.com/Extensibility/1.0/">
	<!ENTITY ns_ai "http://ns.adobe.com/AdobeIllustrator/10.0/">
	<!ENTITY ns_graphs "http://ns.adobe.com/Graphs/1.0/">
]>
<svg version="1.1" id="Ebene_1" xmlns:x="&ns_extend;" xmlns:i="&ns_ai;" xmlns:graph="&ns_graphs;"
	 xmlns="http://www.w3.org/2000/svg" xmlns:xlink="http://www.w3.org/1999/xlink" xmlns:a="http://ns.adobe.com/AdobeSVGViewerExtensions/3.0/"
	 x="0px" y="0px" width="24px" height="24.3px" viewBox="17.2 14.7 24 24.3" style="enable-background:new 17.2 14.7 24 24.3;"
	 xml:space="preserve">
<g>
	<g>
		<path d="M37.2,22.8c-0.6,0-1.1,0.5-1.1,1.1c0,0.6,0.5,1.1,1.1,1.1s1.1-0.5,1.1-1.1C38.3,23.3,37.8,22.8,37.2,22.8L37.2,22.8z"/>
	</g>
	<rect x="24.8" y="31" width="8" height="1"/>
	<rect x="24.8" y="33" width="5" height="1"/>
	<path d="M37.2,20v-5.3h-16V20h-4v13h4v6c0,0,0,0,8,0c5.1,0,8-3,8-6h4V20H37.2z M23.2,16.7h12V20h-12V16.7z M35.6,33
		c0,2.2-3.1,1-3.1,1s0.2,3.4-3.3,3.4s-6.4,0-6.4,0V33v-2v-2.4h12.8c0,0,0,0.8,0,2.4C35.6,31.6,35.6,32.2,35.6,33L35.6,33z M39.2,31
		h-2c0-1.9,0-4,0-4h-16v4h-2v-9h20V31z"/>
</g>
</svg>
