<?xml version="1.0" encoding="utf-8"?>
<!-- Generator: Adobe Illustrator 16.0.0, SVG Export Plug-In . SVG Version: 6.00 Build 0)  -->
<!DOCTYPE svg PUBLIC "-//W3C//DTD SVG 1.1//EN" "http://www.w3.org/Graphics/SVG/1.1/DTD/svg11.dtd" [
	<!ENTITY ns_flows "http://ns.adobe.com/Flows/1.0/">
	<!ENTITY ns_extend "http://ns.adobe.com/Extensibility/1.0/">
	<!ENTITY ns_ai "http://ns.adobe.com/AdobeIllustrator/10.0/">
	<!ENTITY ns_graphs "http://ns.adobe.com/Graphs/1.0/">
]>
<svg version="1.1" id="Ebene_1" xmlns:x="&ns_extend;" xmlns:i="&ns_ai;" xmlns:graph="&ns_graphs;"
	 xmlns="http://www.w3.org/2000/svg" xmlns:xlink="http://www.w3.org/1999/xlink" xmlns:a="http://ns.adobe.com/AdobeSVGViewerExtensions/3.0/"
	 x="0px" y="0px" width="841.9px" height="1190.5px" viewBox="0 0 841.9 1190.5" style="enable-background:new 0 0 841.9 1190.5;"
	 xml:space="preserve">
<g>
	<path d="M17,19.1c1.6,0,3,1.3,3,3s-1.3,3-3,3s-3-1.3-3-3S15.4,19.1,17,19.1 M17,17.1c-2.7,0-5,2.2-5,5s2.2,5,5,5s5-2.2,5-5
		S19.7,17.1,17,17.1L17,17.1z"/>
	<path d="M31.9,10.2c-2.2,0-4,1.8-4,4c0,0.3,0.1,0.7,0.1,1l-5.4,2.7c0.4,0.5,0.7,1.1,1,1.8l5.4-2.7c0.7,0.8,1.8,1.3,2.9,1.3
		c2.2,0,4-1.8,4-4C35.9,12,34.1,10.2,31.9,10.2z M31.9,16.2c-1.1,0-2-0.9-2-2s0.9-2,2-2s2,0.9,2,2S33,16.2,31.9,16.2z"/>
	<path d="M31.9,25.9c-1.2,0-2.2,0.5-2.9,1.3l-5.3-2.8c-0.2,0.6-0.6,1.2-0.9,1.8L28,29c-0.1,0.3-0.1,0.6-0.1,0.9c0,2.2,1.8,4,4,4
		s4-1.8,4-4C35.9,27.7,34.1,25.9,31.9,25.9z M31.9,31.9c-1.1,0-2-0.9-2-2s0.9-2,2-2s2,0.9,2,2S33,31.9,31.9,31.9z"/>
</g>
</svg>
